<svg id="Layer_1" data-name="Layer 1" xmlns="http://www.w3.org/2000/svg" viewBox="0 0 521.35 118.69"><defs><style>.cls-1{fill:#e33b26;fill-rule:evenodd;}</style></defs><title>nd_tpatp_quiz-v1</title><path class="cls-1" d="M201.92,56.35c-1.4-.24-2.81-0.47-4.22-0.64L182.42,55c-3.23,0-6.46.08-9.67,0.3s-3.74.84-3.83,3.38c-0.1,2.72-.25,5.44-0.38,8.17h0l-0.41,8.74c-0.09,1.72.29,2.19,2.27,2.72a11.86,11.86,0,0,0,2.08.36c8.45,0.71,17,1.58,25.27-.13,11-2.26,14.53-9.21,11.32-16.81A8.84,8.84,0,0,0,201.92,56.35Z"/><path class="cls-1" d="M503.61,0H17.73A17.73,17.73,0,0,0,0,17.73V101a17.73,17.73,0,0,0,17.73,17.73H503.61A17.73,17.73,0,0,0,521.35,101V17.73A17.73,17.73,0,0,0,503.61,0ZM228.32,76.16c-3.87,5.76-10.69,8.49-18.37,9.65a292.69,292.69,0,0,1-33.63,2.77c-2.45.08-4.85,0.77-7.29,0.93-7.27.47-27.39,0.63-27.22-2.35,0.34-6,1.58-11.84,2.63-17.73a164.66,164.66,0,0,0,1.41-17.19c-0.08-1.33-.15-2.64-0.14-4a5.72,5.72,0,0,1,.27-2q0-5.22,0-10.44c-0.06-5.52,0-11,0-16.54a14,14,0,0,1,.49-2.41c1-.11,2.06-0.3,3.09-0.33,4.92-.15,9.84-0.37,14.76-0.35,11,0,22.08,0,33.11.36a79.56,79.56,0,0,1,14.21,1.79c9,2,14.52,7.69,13.81,15.11-0.08.87,0,1.74-.1,2.6a10.44,10.44,0,0,1-5.44,8.25c-3.77,2.08-7.66,4-11.51,6a70,70,0,0,1,13.94,4.86c6.29,3.13,9,7.92,9.12,13.39C231.55,71.08,229.89,73.81,228.32,76.16Zm65.17-37.83a2.14,2.14,0,0,1-1.2,1.45,9,9,0,0,1-2.95.54c-9.13.21-18.25,0.34-27.38,0.57a65.7,65.7,0,0,0-7.55.69c-2.05.29-2.55,0.95-2.53,3,0,2.49.1,5,.27,7.5s1.21,3.6,3.95,3.88a23.19,23.19,0,0,0,3.65.11c6.86-.48,13.75-1,20.61-1.52,2.18-.17,2.79.26,2.88,2.32a47.68,47.68,0,0,1-.07,5.18c-0.15,2.49-1,3.18-3.57,3.31-4.26.22-8.52,0.34-12.75,0.69-3.73.31-7.44,0.82-11.15,1.34-2.15.3-2.4,0.63-2.42,2.62,0,2.79,0,5.58,0,8.38s0.74,3.44,3.64,3.37a275.43,275.43,0,0,0,29.73-1.8c2.7-.36,3-0.18,3.51,2.28a27.85,27.85,0,0,1,.42,8.3c-1.91,0-3.62-.07-5.32,0-13.35.64-26.73,1.33-40.1,2a32,32,0,0,1-4.24-.06c-2.09-.16-2.52-0.44-2.78-2.39a68.29,68.29,0,0,1-.61-8.05c-0.06-3.75.18-7.51,0.16-11.26-0.08-11.65-.24-23.29-0.34-34.94,0-1,.16-2.07.25-3.16,2.82-.95,5.58-0.81,8.27-0.73a150.16,150.16,0,0,0,18.83-.54c8.06-.79,16.14-1.43,24.22-2.14a18.59,18.59,0,0,1,2.44-.09c1.82,0.08,2.4.52,2.43,2.26A63.58,63.58,0,0,1,293.49,38.33ZM379.43,92c0,1.85,0,3.72-.15,5.57a2.6,2.6,0,0,1-2.45,2.7c-3.83.3-7.67,0.56-11.5,0.57-0.82,0-1.83-1-2.44-1.77-3.77-4.79-7.44-9.67-11.16-14.51-1.37-1.79-2.64-3.67-4.14-5.34-5.05-5.61-10.18-11.14-15.3-16.69A9.63,9.63,0,0,0,330.49,61c-3.2-2.12-5.21-1.12-5.43,2.77q-1,17.09-1.83,34.17c-0.19,3.64-.88,4.26-4.59,4.26-2.11,0-4.23.21-6.34,0.29a13.1,13.1,0,0,1-2.39-.07c-7-1-7-1.44-5.64-7.68a137.71,137.71,0,0,0,2.93-26.87c0.21-9.55.13-19.1,0.14-28.66,0-1.45-.25-2.9-0.3-4.36-0.11-3,.49-3.94,3.49-4.14,4.62-.32,9.26-0.31,13.89-0.42A4,4,0,0,1,328,32.42c5.94,9.27,14.27,16.37,21.82,24.18a103.39,103.39,0,0,0,8.7,7.58,17.47,17.47,0,0,0,3.33,1.68,19.52,19.52,0,0,0,.6-3.16c0-8.89,0-17.78,0-26.67-0.07-8.36,1.13-7.57,7.65-8.7A41.27,41.27,0,0,1,376.8,27c2.16,0,2.77.68,2.74,2.91-0.1,7.17-.31,14.33-0.3,21.49C379.24,64.95,379.37,78.47,379.43,92Z"/><path class="cls-1" d="M171.57,43.5a12.28,12.28,0,0,0,3.17.21c6.61-.49,13.22-1,19.8-1.66a19.16,19.16,0,0,0,5.5-1.71c3.36-1.49,5.26-4.72,4.7-7.59-0.65-3.28-3.64-4.74-7.07-5.58-2.54-.61-5.25-0.74-8.9-1.22-4.72.35-10.42,0.65-16.07,1.23-3.62.38-4.57,1.66-4.45,4.67,0.11,2.81.12,5.62,0.2,8.43C168.49,42.23,169.25,43,171.57,43.5Z"/></svg>