<svg id="Layer_1" data-name="Layer 1" xmlns="http://www.w3.org/2000/svg" viewBox="0 0 3712.4 741.32"><defs><style>.cls-1{fill:#f5a21d;}.cls-2{fill:#0b0b0b;}.cls-3{fill:#e33e27;}.cls-4{fill:#fff;}</style></defs><title>nd_quiz_r02-01</title><rect class="cls-1" x="48.83" y="27.6" width="3614.74" height="216.96" rx="31.99" ry="31.99"/><path class="cls-2" d="M191.28,169.89l-9.88,25.33H156.72L203.55,71.93H221.7l45.56,123.28h-25L233,169.89H191.28Zm20.23-62.76h-0.32L198,150.78h28.51Z"/><path class="cls-2" d="M379.55,195.22H351.2L322,146.79h-0.32v48.42H298.31V75.12H330c23.73,0,40.14,10.51,40.14,36.16,0,15.29-8.44,30.58-24.53,33.29Zm-57.82-64.83h3c12.9,0,22-3.82,22-18.48,0-14.81-9.4-17.68-21.82-17.68h-3.19v36.16Z"/><path class="cls-2" d="M434.5,95.5v26.44h37.27v20.39H434.5v32.49H473.2v20.39H411.08V75.12H473.2V95.5H434.5Z"/><path class="cls-2" d="M571.47,75.12h27.24l21,41.73,22.94-41.73h27.4l-37.91,65v55.11H608.75V140.1Z"/><path class="cls-2" d="M753.69,198.4c-36.64,0-59.41-28-59.41-63.39,0-35.68,23.57-63.08,59.41-63.08S813.1,99.33,813.1,135C813.1,170.37,790.32,198.4,753.69,198.4Zm0-103.37c-22.14,0-35.2,19.59-35.2,39,0,18.48,9.24,41.25,35.2,41.25s35.2-22.78,35.2-41.25C788.89,114.62,775.83,95,753.69,95Z"/><path class="cls-2" d="M847.82,75.12h23.41v67.22c0,14.81,1.27,35.68,21.18,35.68s21.18-20.87,21.18-35.68V75.12H937V147c0,29.31-12.42,51.45-44.6,51.45s-44.6-22.14-44.6-51.45V75.12Z"/><path class="cls-2" d="M1047.39,71.93h16.88l63.24,83.94h0.32V75.12h23.41V197.6h-16.88l-63.24-83.94h-0.32v81.55h-23.41V71.93Z"/><path class="cls-2" d="M1215.59,95.5v26.44h37.27v20.39h-37.27v32.49h38.71v20.39h-62.12V75.12h62.12V95.5h-38.71Z"/><path class="cls-2" d="M1374.07,107a34.65,34.65,0,0,0-26.44-12.74c-22.46,0-35.36,20.71-35.36,41.41,0,20.23,13.38,40.46,35.2,40.46,10,0,20.07-5.26,26.6-12.74v27.87c-8.76,4.14-17.52,7.17-27.24,7.17-33.77,0-58.78-29.15-58.78-62.28,0-34.09,24.05-64.19,59.25-64.19a55.87,55.87,0,0,1,26.76,7v28Z"/><path class="cls-2" d="M1474.26,75.12h28.83l-45.56,55.43,48.1,64.67h-30.1l-38.39-54h-0.32v54h-23.41V75.12h23.41v50.65h0.32Z"/><path class="cls-2" d="M1606,75.12h33.45c34.72,0,58,26,58,60.21,0,33.77-23.89,59.89-58.14,59.89H1606V75.12Zm23.41,99.71h3.82c28.83,0,40-15.93,40-39.66,0-26.12-13.38-39.66-40-39.66h-3.82v79.32Z"/><path class="cls-2" d="M1756.18,95.5v26.44h37.27v20.39h-37.27v32.49h38.71v20.39h-62.12V75.12h62.12V95.5h-38.71Z"/><path class="cls-2" d="M1857.79,95.5v26.44h37.27v20.39h-37.27v32.49h38.71v20.39h-62.12V75.12h62.12V95.5h-38.71Z"/><path class="cls-2" d="M1959.41,195.22H1936V75.12h31.86c25.17,0,41.57,10,41.57,37.27,0,25.49-13.86,37.91-38.39,37.91h-11.63v44.92Zm0-64.35h4.78c13.86,0,21.34-3,21.34-18.64,0-15.45-8.92-17.68-22-17.68h-4.14v36.32Z"/><path class="cls-2" d="M2068.52,75.12l-2.87,52.24h-13.38l-2.87-52.24h19.11Z"/><path class="cls-2" d="M2171.57,101.56c-4.46-6.05-10.19-9.88-18-9.88-7.49,0-14.65,5.73-14.65,13.54,0,20.23,47.63,11.79,47.63,52.09,0,24.05-15,41.09-39.5,41.09-16.57,0-28.67-9.56-37-23.41l15.13-14.81c3.19,9.24,11.63,17.52,21.66,17.52,9.56,0,15.45-8.12,15.45-17.36,0-12.42-11.47-15.93-20.87-19.59-15.45-6.37-26.76-14.18-26.76-32.81,0-19.91,14.81-36,35-36,10.67,0,25.49,5.26,32.81,13.38Z"/><path class="cls-2" d="M2292.62,75.12h29.15c22.3,0,36,8.76,36,32.65,0,8.6-3,18.48-10.51,23.26,14.18,2.55,20.55,16.88,20.55,30.1,0,23.57-16.57,34.09-38.39,34.09h-36.79V75.12Zm23.41,50h2.87c11.47,0,17-3.35,17-15.77,0-12.26-7-15.45-16.88-15.45h-3v31.22Zm0,51.29H2321c12.58,0,23.41-1.59,23.41-17.2S2331.64,143,2319.85,143H2316v33.45Z"/><path class="cls-2" d="M2428,195.22h-23.41V75.12H2428v120.1Z"/><path class="cls-2" d="M2575,131.34v3c0,33.93-17.36,64-54.63,64-35,0-57.18-29.63-57.18-62.76,0-34.25,22.78-63.71,58.62-63.71,20.39,0,38.23,10.35,47.47,28.67l-20.71,11.15c-4.78-10.83-15-19.11-27.4-19.11-22.62,0-33.77,23.1-33.77,43s11.31,42.05,33.93,42.05c14.65,0,26.92-12.74,27.4-27.24h-25.49V131.34H2575Z"/><path class="cls-2" d="M2716.62,131.34v3c0,33.93-17.36,64-54.63,64-35,0-57.18-29.63-57.18-62.76,0-34.25,22.78-63.71,58.62-63.71,20.39,0,38.23,10.35,47.47,28.67l-20.71,11.15c-4.78-10.83-15-19.11-27.4-19.11-22.62,0-33.77,23.1-33.77,43s11.31,42.05,33.93,42.05c14.65,0,26.92-12.74,27.4-27.24h-25.48V131.34h51.77Z"/><path class="cls-2" d="M2775.55,95.5v26.44h37.27v20.39h-37.27v32.49h38.71v20.39h-62.12V75.12h62.12V95.5h-38.71Z"/><path class="cls-2" d="M2910.3,101.56c-4.46-6.05-10.19-9.88-18-9.88-7.49,0-14.65,5.73-14.65,13.54,0,20.23,47.63,11.79,47.63,52.09,0,24.05-15,41.09-39.5,41.09-16.56,0-28.67-9.56-37-23.41l15.13-14.81c3.19,9.24,11.63,17.52,21.66,17.52,9.56,0,15.45-8.12,15.45-17.36,0-12.42-11.47-15.93-20.87-19.59-15.45-6.37-26.76-14.18-26.76-32.81,0-19.91,14.81-36,35-36,10.67,0,25.48,5.26,32.81,13.38Z"/><path class="cls-2" d="M3000.45,195.22H2977V95.5h-24.21V75.12h71.84V95.5h-24.21v99.71Z"/><path class="cls-2" d="M3150.48,95.5v26.44h33.93v20.39h-33.93v52.88h-23.41V75.12h59.57V95.5h-36.16Z"/><path class="cls-2" d="M3239.68,169.89l-9.88,25.33h-24.69l46.83-123.28h18.16l45.55,123.28h-25l-9.24-25.33h-41.73Zm20.23-62.76h-0.32l-13.22,43.64h28.51Z"/><path class="cls-2" d="M3346.71,71.93h16.88l63.24,83.94h0.32V75.12h23.41V197.6h-16.88l-63.24-83.94h-0.32v81.55h-23.41V71.93Z"/><path class="cls-2" d="M3506.47,122.58a23.44,23.44,0,0,0,5.73.64c10.67,0,20.39-6.37,20.39-17.84,0-6.37-3.66-14-11-14-7.17,0-10.67,6.69-10.67,13.06v1.91h-23.26c-1-19.27,14.49-34.4,33.77-34.4,19.59,0,34.25,14.65,34.25,34.25,0,15.61-10.35,29.31-25.64,32.81l-1.27,15.29h-22.3v-31.7Zm25.64,61.48a14.18,14.18,0,1,1-28.35,0A14.18,14.18,0,0,1,3532.11,184.07Z"/><path class="cls-3" d="M771.95,418.16H754.64V329.38h23.55c18.6,0,30.73,7.42,30.73,27.55,0,18.84-10.24,28-28.38,28h-8.6v33.2Zm0-47.57h3.53c10.24,0,15.78-2.24,15.78-13.78s-6.59-13.07-16.25-13.07h-3.06v26.84Z"/><path class="cls-3" d="M888.63,418.16h-21l-21.55-35.79h-0.24v35.79H828.58V329.38H852c17.54,0,29.67,7.77,29.67,26.73,0,11.3-6.24,22.61-18.13,24.61Zm-42.74-47.92h2.24c9.54,0,16.25-2.83,16.25-13.66s-6.95-13.07-16.13-13.07h-2.35v26.73Z"/><path class="cls-3" d="M945.74,420.51c-27.08,0-43.92-20.72-43.92-46.86,0-26.37,17.43-46.63,43.92-46.63s43.92,20.25,43.92,46.63C989.65,399.79,972.82,420.51,945.74,420.51Zm0-76.41c-16.37,0-26,14.48-26,28.85,0,13.66,6.83,30.49,26,30.49s26-16.84,26-30.49C971.76,358.58,962.1,344.1,945.74,344.1Z"/><path class="cls-3" d="M1041.82,389.19h0.24l19.78-59.81h18.6l-34.5,91.13h-10.13l-33.91-91.13h18.6Z"/><path class="cls-3" d="M1114.23,344.45V364h27.55v15.07h-27.55v24h28.61v15.07h-45.92V329.38h45.92v15.07h-28.61Z"/><path class="cls-3" d="M1229.27,418.16H1212V329.38h17.31v88.78Z"/><path class="cls-3" d="M1282.49,418.16h-17.31V344.45h-17.9V329.38h53.1v15.07h-17.9v73.71Z"/><path class="cls-3" d="M1327.94,409.92a10.48,10.48,0,1,1-21,0A10.48,10.48,0,0,1,1327.94,409.92Z"/><path class="cls-4" d="M1424.37,418.16H1413.3V339.51h-21.08V329.38h53.22v10.13h-21.08v78.65Z"/><path class="cls-4" d="M1465.94,329.38h47.68v10.13H1477v24.84h35.56v10.13H1477V408h36.62v10.13h-47.68V329.38Z"/><path class="cls-4" d="M1578.5,346.22c-3.3-5.53-7.54-8.36-14.25-8.36-7.06,0-14.84,4.83-14.84,12.6,0,6.95,6.83,10.6,12.36,12.72l6.36,2.47c12.6,4.94,22,11.89,22,26.73,0,16.13-12.48,27.67-28.38,27.67-14.36,0-25.55-10.6-27.43-24.84l11.19-2.35c-0.12,9.77,7.65,16.84,17.19,16.84s16.37-8,16.37-17.31c0-9.54-7.65-13.66-15.31-16.84l-6.12-2.59c-10.13-4.36-19.31-10.13-19.31-22.49,0-14.36,12.72-23,26.14-23a25.32,25.32,0,0,1,22.84,13.42Z"/><path class="cls-4" d="M1638,418.16h-11.07V339.51h-21.08V329.38H1659v10.13H1638v78.65Z"/><path class="cls-4" d="M1716.14,329.38h12.72l21.78,37.91,21.78-37.91h12.72l-29,50.16v38.62h-11.07V379.54Z"/><path class="cls-4" d="M1891.34,373.77c0,26.37-20.84,46.27-46.51,46.27s-46.51-19.9-46.51-46.27c0-25.43,21.08-46.27,46.51-46.27S1891.34,348.34,1891.34,373.77Zm-11.07,0c0-19.55-14.6-35.91-35.44-35.91s-35.44,16.37-35.44,35.91A35.44,35.44,0,1,0,1880.28,373.77Z"/><path class="cls-4" d="M1923.37,329.38v52.39c0,14.48,4.36,27.9,21.43,27.9s21.43-13.42,21.43-27.9V329.38h11.07v56.16c0,19.54-12.13,34.5-32.5,34.5s-32.5-15-32.5-34.5V329.38h11.07Z"/><path class="cls-4" d="M2059.6,418.16h-13.42L2020,380.6h-4.59v37.56h-11.07V329.38h13.42c7.89,0,16.37.12,23.43,4.12,7.42,4.36,11.66,12.72,11.66,21.19,0,12.72-8.48,23.31-21.31,24.84Zm-44.15-46.74H2019c11.3,0,23.55-2.12,23.55-16.25,0-13.89-13.19-15.89-24.14-15.89h-2.94v32.14Z"/><path class="cls-4" d="M2174.64,329.38h14.48l-39.91,39.91,40.62,48.86h-15l-33.44-41.33-4.47,4.24v37.09H2125.9V329.38H2137v38.5Z"/><path class="cls-4" d="M2207.26,325.14L2273.9,395V329.38H2285v92.43L2218.32,352v66.17h-11.07v-93Z"/><path class="cls-4" d="M2399.3,373.77c0,26.37-20.84,46.27-46.51,46.27s-46.51-19.9-46.51-46.27c0-25.43,21.08-46.27,46.51-46.27S2399.3,348.34,2399.3,373.77Zm-11.07,0c0-19.55-14.6-35.91-35.44-35.91s-35.44,16.37-35.44,35.91A35.44,35.44,0,1,0,2388.23,373.77Z"/><path class="cls-4" d="M2448.75,393l25.08-65.46L2498.91,393l24.84-63.58h12l-36.85,92.31-25.08-65.11-25.08,65.11-36.85-92.31h12Z"/><path class="cls-4" d="M2565.56,408h27v10.13h-38V329.38h11.07V408Z"/><path class="cls-4" d="M2611.59,329.38h47.68v10.13h-36.62v24.84h35.56v10.13h-35.56V408h36.62v10.13h-47.68V329.38Z"/><path class="cls-4" d="M2683.77,329.38h18.37c27.2,0,49.8,14.36,49.8,43.92,0,30.26-22.14,44.86-50.16,44.86h-18V329.38ZM2694.84,408h3.89c22.61,0,42.15-8.48,42.15-34.26s-19.54-34.26-42.15-34.26h-3.89V408Z"/><path class="cls-4" d="M2855.68,373.42v3.53c0,24.37-17.19,43.09-42,43.09s-44.86-21.43-44.86-46c0-25.55,20.49-46.51,46-46.51A46.53,46.53,0,0,1,2851,344.69l-7.77,7.42a35.47,35.47,0,0,0-27.9-14.48c-19.9,0-35.44,16.13-35.44,36,0,18.6,15.31,36.26,34.5,36.26,13.78,0,28.61-11.89,29.08-26.37h-23V373.42h35.2Z"/><path class="cls-4" d="M2878.41,329.38h47.68v10.13h-36.62v24.84H2925v10.13h-35.56V408h36.62v10.13h-47.68V329.38Z"/><path class="cls-4" d="M597.51,470.68h10.83c16.72,0,32.5,4.36,32.5,24.37,0,6.48-3.53,14-9.54,16.84v0.24c10.48,1.88,17.78,12.13,17.78,22.49,0,17.78-15.19,24.84-30.85,24.84H597.51V470.68ZM608.58,510h2.83c10.48,0,19.07-2.12,19.07-14.84,0-12.48-8.48-14.6-18.84-14.6h-3.06V510Zm0,39.56h8.48c10.24,0,21-3.06,21-15.66s-12.72-15.07-22.61-15.07h-6.83v30.73Z"/><path class="cls-4" d="M664,470.68h12.72l21.78,37.91,21.78-37.91H733l-29,50.16v38.62H693V520.83Z"/><path class="cls-4" d="M810.86,537.2l-10.13,22.25H788.84l42.39-92.54,42.39,92.54H861.73L851.6,537.2H810.86Zm20.37-46-15.78,35.91H847Z"/><path class="cls-4" d="M891.75,466.44l66.64,69.82V470.68h11.07V563.1l-66.64-69.82v66.17H891.75v-93Z"/><path class="cls-4" d="M1036.46,487.51c-3.3-5.53-7.54-8.36-14.25-8.36-7.06,0-14.84,4.83-14.84,12.6,0,6.95,6.83,10.6,12.36,12.72l6.36,2.47c12.6,4.94,22,11.89,22,26.73,0,16.13-12.48,27.67-28.38,27.67-14.36,0-25.55-10.6-27.43-24.84l11.19-2.35c-0.12,9.77,7.65,16.84,17.19,16.84s16.37-8,16.37-17.31c0-9.54-7.65-13.66-15.31-16.84l-6.12-2.59c-10.13-4.36-19.31-10.13-19.31-22.49,0-14.36,12.72-23,26.14-23a25.32,25.32,0,0,1,22.84,13.42Z"/><path class="cls-4" d="M1099,534.26l25.08-65.46,25.08,65.46L1174,470.68h12L1149.14,563l-25.08-65.11L1099,563l-36.85-92.31h12Z"/><path class="cls-4" d="M1204.72,470.68h47.68V480.8h-36.62v24.84h35.56v10.13h-35.56v33.56h36.62v10.13h-47.68V470.68Z"/><path class="cls-4" d="M1333.06,559.45h-13.42l-26.14-37.56h-4.59v37.56h-11.07V470.68h13.42c7.89,0,16.37.12,23.43,4.12,7.42,4.36,11.66,12.72,11.66,21.19,0,12.72-8.48,23.31-21.31,24.84Zm-44.15-46.74h3.53c11.3,0,23.55-2.12,23.55-16.25,0-13.89-13.19-15.89-24.14-15.89h-2.94v32.14Z"/><path class="cls-4" d="M1364.26,559.45H1353.2V470.68h11.07v88.78Z"/><path class="cls-4" d="M1391.58,466.44l66.64,69.82V470.68h11.07V563.1l-66.64-69.82v66.17h-11.07v-93Z"/><path class="cls-4" d="M1577.73,514.71v3.53c0,24.37-17.19,43.09-42,43.09s-44.86-21.43-44.86-46c0-25.55,20.49-46.51,46-46.51A46.53,46.53,0,0,1,1573,486l-7.77,7.42c-6.36-8.71-17.07-14.48-27.9-14.48-19.9,0-35.44,16.13-35.44,36,0,18.6,15.31,36.26,34.5,36.26,13.78,0,28.61-11.89,29.08-26.37h-23V514.71h35.2Z"/><path class="cls-4" d="M1670.16,559.45H1659.1V480.8H1638V470.68h53.22V480.8h-21.08v78.65Z"/><path class="cls-4" d="M1764.12,506.47V470.68h11.07v88.78h-11.07V516.83h-42.27v42.62h-11.07V470.68h11.07v35.79h42.27Z"/><path class="cls-4" d="M1803,470.68h47.69V480.8H1814v24.84h35.56v10.13H1814v33.56h36.62v10.13H1803V470.68Z"/><path class="cls-4" d="M1995.14,561.34l-7.65-7.89a46.18,46.18,0,0,1-25.31,7.89c-25.67,0-46.51-19.9-46.51-46.27,0-25.43,21.08-46.27,46.51-46.27s46.51,20.84,46.51,46.27a45.17,45.17,0,0,1-13.89,32.73l13.78,13.54h-13.42Zm-7.89-21.43c6.83-6.12,10.36-16.37,10.36-24.84,0-19.55-14.6-35.91-35.44-35.91s-35.44,16.37-35.44,35.91A35.65,35.65,0,0,0,1962.17,551a34.85,34.85,0,0,0,17.66-5.06L1959.46,526h13.78Z"/><path class="cls-4" d="M2040.71,470.68v52.39c0,14.48,4.36,27.9,21.43,27.9s21.43-13.42,21.43-27.9V470.68h11.07v56.16c0,19.54-12.13,34.5-32.5,34.5s-32.5-15-32.5-34.5V470.68h11.07Z"/><path class="cls-4" d="M2121.72,470.68h47.68V480.8h-36.62v24.84h35.56v10.13h-35.56v33.56h36.62v10.13h-47.68V470.68Z"/><path class="cls-4" d="M2234.28,487.51c-3.3-5.53-7.54-8.36-14.25-8.36-7.06,0-14.84,4.83-14.84,12.6,0,6.95,6.83,10.6,12.36,12.72l6.36,2.47c12.6,4.94,22,11.89,22,26.73,0,16.13-12.48,27.67-28.38,27.67-14.36,0-25.55-10.6-27.43-24.84l11.19-2.35C2201.2,543.91,2209,551,2218.5,551s16.37-8,16.37-17.31c0-9.54-7.65-13.66-15.31-16.84l-6.12-2.59c-10.13-4.36-19.31-10.13-19.31-22.49,0-14.36,12.72-23,26.14-23a25.32,25.32,0,0,1,22.84,13.42Z"/><path class="cls-4" d="M2293.74,559.45h-11.07V480.8H2261.6V470.68h53.22V480.8h-21.08v78.65Z"/><path class="cls-4" d="M2346,559.45H2335V470.68H2346v88.78Z"/><path class="cls-4" d="M2461.17,515.06c0,26.37-20.84,46.27-46.51,46.27s-46.51-19.9-46.51-46.27c0-25.43,21.08-46.27,46.51-46.27S2461.17,489.63,2461.17,515.06Zm-11.07,0c0-19.55-14.6-35.91-35.44-35.91s-35.44,16.37-35.44,35.91A35.44,35.44,0,1,0,2450.1,515.06Z"/><path class="cls-4" d="M2482.61,466.44l66.64,69.82V470.68h11.07V563.1l-66.64-69.82v66.17h-11.07v-93Z"/><path class="cls-4" d="M2627.31,487.51c-3.3-5.53-7.54-8.36-14.25-8.36-7.06,0-14.84,4.83-14.84,12.6,0,6.95,6.83,10.6,12.36,12.72l6.36,2.47c12.6,4.94,22,11.89,22,26.73,0,16.13-12.48,27.67-28.38,27.67-14.36,0-25.55-10.6-27.43-24.84l11.19-2.35c-0.12,9.77,7.65,16.84,17.19,16.84s16.37-8,16.37-17.31c0-9.54-7.65-13.66-15.31-16.84l-6.12-2.59c-10.13-4.36-19.31-10.13-19.31-22.49,0-14.36,12.72-23,26.14-23a25.32,25.32,0,0,1,22.84,13.42Z"/><path class="cls-4" d="M2707.73,470.68h10.83c16.72,0,32.5,4.36,32.5,24.37,0,6.48-3.53,14-9.54,16.84v0.24c10.48,1.88,17.78,12.13,17.78,22.49,0,17.78-15.19,24.84-30.85,24.84h-20.72V470.68ZM2718.8,510h2.83c10.48,0,19.07-2.12,19.07-14.84,0-12.48-8.48-14.6-18.84-14.6h-3.06V510Zm0,39.56h8.48c10.24,0,21-3.06,21-15.66s-12.72-15.07-22.61-15.07h-6.83v30.73Z"/><path class="cls-4" d="M2783.44,470.68h47.68V480.8h-36.62v24.84h35.56v10.13h-35.56v33.56h36.62v10.13h-47.68V470.68Z"/><path class="cls-4" d="M2867.63,549.33h27v10.13h-38V470.68h11.07v78.65Z"/><path class="cls-4" d="M3000.44,515.06c0,26.37-20.84,46.27-46.51,46.27s-46.51-19.9-46.51-46.27c0-25.43,21.07-46.27,46.51-46.27S3000.44,489.63,3000.44,515.06Zm-11.07,0c0-19.55-14.6-35.91-35.44-35.91s-35.44,16.37-35.44,35.91A35.44,35.44,0,1,0,2989.38,515.06Z"/><path class="cls-4" d="M3049.9,534.26L3075,468.79l25.08,65.46,24.84-63.58h12L3100.06,563,3075,497.87,3049.9,563,3013,470.68h12Z"/><path class="cls-4" d="M521,678.5l-10.13,22.25H499L541.4,608.2l42.39,92.54H571.9L561.77,678.5H521Zm20.37-46-15.78,35.91h31.55Z"/><path class="cls-4" d="M601.92,607.73l66.64,69.82V612h11.07V704.4L613,634.58v66.17H601.92v-93Z"/><path class="cls-4" d="M706.25,612h18.37c27.2,0,49.8,14.36,49.8,43.92,0,30.26-22.14,44.86-50.16,44.86h-18V612Zm11.07,78.65h3.89c22.61,0,42.15-8.48,42.15-34.26S743.81,622.1,721.2,622.1h-3.89v68.52Z"/><path class="cls-4" d="M858.14,642.11H857.9l-10.36,58.63H836.12l18.13-92.54,30.49,69.94,30.5-69.94,18.13,92.54H922l-10.36-58.63h-0.24l-26.61,60.52Z"/><path class="cls-4" d="M967.64,678.5l-10.13,22.25H945.62L988,608.2l42.39,92.54H1018.5l-10.13-22.25H967.64Zm20.37-46-15.78,35.91h31.55Z"/><path class="cls-4" d="M1098.34,612h14.48l-39.91,39.91,40.62,48.86h-15l-33.44-41.33-4.47,4.24v37.09h-11.07V612h11.07v38.5Z"/><path class="cls-4" d="M1132,612h47.68V622.1h-36.62v24.84h35.56v10.13h-35.56v33.56h36.62v10.13H1132V612Z"/><path class="cls-4" d="M1290.38,628.81c-3.3-5.53-7.54-8.36-14.25-8.36-7.06,0-14.84,4.83-14.84,12.6,0,6.95,6.83,10.6,12.36,12.72l6.36,2.47c12.6,4.94,22,11.89,22,26.73,0,16.13-12.48,27.67-28.38,27.67-14.36,0-25.55-10.6-27.43-24.84l11.19-2.35c-0.12,9.77,7.65,16.84,17.19,16.84s16.37-8,16.37-17.31c0-9.54-7.65-13.66-15.31-16.84l-6.12-2.59c-10.13-4.36-19.31-10.13-19.31-22.49,0-14.36,12.72-23,26.14-23a25.32,25.32,0,0,1,22.84,13.42Z"/><path class="cls-4" d="M1335.47,612v52.39c0,14.48,4.36,27.9,21.43,27.9s21.43-13.42,21.43-27.9V612h11.07v56.16c0,19.54-12.13,34.5-32.5,34.5s-32.5-15-32.5-34.5V612h11.07Z"/><path class="cls-4" d="M1471.7,700.75h-13.42l-26.14-37.56h-4.59v37.56h-11.07V612h13.42c7.89,0,16.37.12,23.43,4.12,7.42,4.36,11.66,12.72,11.66,21.19,0,12.72-8.48,23.31-21.31,24.84ZM1427.55,654h3.53c11.3,0,23.55-2.12,23.55-16.25,0-13.89-13.19-15.89-24.14-15.89h-2.94V654Z"/><path class="cls-4" d="M1492.19,612h47.68V622.1h-36.62v24.84h35.56v10.13h-35.56v33.56h36.62v10.13h-47.68V612Z"/><path class="cls-4" d="M1635,700.75h-11.07V622.1h-21.08V612h53.22V622.1H1635v78.65Z"/><path class="cls-4" d="M1763.36,656.36c0,26.37-20.84,46.27-46.51,46.27s-46.51-19.9-46.51-46.27c0-25.43,21.08-46.27,46.51-46.27S1763.36,630.93,1763.36,656.36Zm-11.07,0c0-19.55-14.6-35.91-35.44-35.91s-35.44,16.37-35.44,35.91A35.44,35.44,0,1,0,1752.29,656.36Z"/><path class="cls-4" d="M1871.09,628.81c-3.3-5.53-7.54-8.36-14.25-8.36-7.06,0-14.84,4.83-14.84,12.6,0,6.95,6.83,10.6,12.36,12.72l6.36,2.47c12.6,4.94,22,11.89,22,26.73,0,16.13-12.48,27.67-28.38,27.67-14.36,0-25.55-10.6-27.43-24.84l11.19-2.35c-0.12,9.77,7.65,16.84,17.19,16.84s16.37-8,16.37-17.31c0-9.54-7.65-13.66-15.31-16.84l-6.12-2.59c-10.13-4.36-19.31-10.13-19.31-22.49,0-14.36,12.72-23,26.14-23a25.32,25.32,0,0,1,22.84,13.42Z"/><path class="cls-4" d="M1959,647.77V612h11.07v88.78H1959V658.13h-42.27v42.62h-11.07V612h11.07v35.79H1959Z"/><path class="cls-4" d="M2010.5,678.5l-10.13,22.25h-11.89l42.39-92.54,42.39,92.54h-11.89l-10.13-22.25H2010.5Zm20.37-46-15.78,35.91h31.55Z"/><path class="cls-4" d="M2147.68,700.75h-13.42l-26.14-37.56h-4.59v37.56h-11.07V612h13.42c7.89,0,16.37.12,23.43,4.12,7.42,4.36,11.66,12.72,11.66,21.19,0,12.72-8.48,23.31-21.31,24.84ZM2103.52,654h3.53c11.3,0,23.55-2.12,23.55-16.25,0-13.89-13.19-15.89-24.14-15.89h-2.94V654Z"/><path class="cls-4" d="M2168.17,612h47.68V622.1h-36.62v24.84h35.56v10.13h-35.56v33.56h36.62v10.13h-47.68V612Z"/><path class="cls-4" d="M2277.9,612h12.72l21.78,37.91L2334.18,612h12.72l-29,50.16v38.62h-11.07V662.13Z"/><path class="cls-4" d="M2453.11,656.36c0,26.37-20.84,46.27-46.51,46.27s-46.51-19.9-46.51-46.27c0-25.43,21.08-46.27,46.51-46.27S2453.11,630.93,2453.11,656.36Zm-11.07,0c0-19.55-14.6-35.91-35.44-35.91s-35.44,16.37-35.44,35.91A35.44,35.44,0,1,0,2442,656.36Z"/><path class="cls-4" d="M2485.14,612v52.39c0,14.48,4.36,27.9,21.43,27.9s21.43-13.42,21.43-27.9V612h11.07v56.16c0,19.54-12.13,34.5-32.5,34.5s-32.5-15-32.5-34.5V612h11.07Z"/><path class="cls-4" d="M2621.36,700.75h-13.42l-26.14-37.56h-4.59v37.56h-11.07V612h13.42c7.89,0,16.37.12,23.43,4.12,7.42,4.36,11.66,12.72,11.66,21.19,0,12.72-8.48,23.31-21.31,24.84ZM2577.21,654h3.53c11.3,0,23.55-2.12,23.55-16.25,0-13.89-13.19-15.89-24.14-15.89h-2.94V654Z"/><path class="cls-4" d="M2742.88,700.75h-13.42l-26.14-37.56h-4.59v37.56h-11.07V612h13.42c7.89,0,16.37.12,23.43,4.12,7.42,4.36,11.66,12.72,11.66,21.19,0,12.72-8.48,23.31-21.31,24.84ZM2698.72,654h3.53c11.3,0,23.55-2.12,23.55-16.25,0-13.89-13.19-15.89-24.14-15.89h-2.94V654Z"/><path class="cls-4" d="M2763.37,612h47.68V622.1h-36.62v24.84H2810v10.13h-35.56v33.56h36.62v10.13h-47.68V612Z"/><path class="cls-4" d="M2875.93,628.81c-3.3-5.53-7.54-8.36-14.25-8.36-7.07,0-14.84,4.83-14.84,12.6,0,6.95,6.83,10.6,12.36,12.72l6.36,2.47c12.6,4.94,22,11.89,22,26.73,0,16.13-12.48,27.67-28.38,27.67-14.36,0-25.55-10.6-27.43-24.84l11.19-2.35c-0.12,9.77,7.65,16.84,17.19,16.84s16.37-8,16.37-17.31c0-9.54-7.65-13.66-15.31-16.84l-6.12-2.59c-10.13-4.36-19.31-10.13-19.31-22.49,0-14.36,12.72-23,26.14-23a25.32,25.32,0,0,1,22.84,13.42Z"/><path class="cls-4" d="M2921,612v52.39c0,14.48,4.36,27.9,21.43,27.9s21.43-13.42,21.43-27.9V612H2975v56.16c0,19.54-12.13,34.5-32.5,34.5s-32.5-15-32.5-34.5V612H2921Z"/><path class="cls-4" d="M3013.1,690.62h27v10.13h-38V612h11.07v78.65Z"/><path class="cls-4" d="M3079.51,700.75h-11.07V622.1h-21.08V612h53.22V622.1h-21.07v78.65Z"/><path class="cls-4" d="M3160.52,628.81c-3.3-5.53-7.54-8.36-14.25-8.36-7.07,0-14.84,4.83-14.84,12.6,0,6.95,6.83,10.6,12.36,12.72l6.36,2.47c12.6,4.94,22,11.89,22,26.73,0,16.13-12.48,27.67-28.38,27.67-14.36,0-25.55-10.6-27.43-24.84l11.19-2.35c-0.12,9.77,7.65,16.84,17.19,16.84s16.37-8,16.37-17.31c0-9.54-7.65-13.66-15.31-16.84l-6.12-2.59c-10.13-4.36-19.31-10.13-19.31-22.49,0-14.36,12.72-23,26.14-23a25.32,25.32,0,0,1,22.84,13.42Z"/><path class="cls-4" d="M3213.39,695.8a6.83,6.83,0,1,1-13.66,0A6.83,6.83,0,1,1,3213.39,695.8ZM3201.26,612h10.6v68.29h-10.6V612Z"/></svg>