<svg id="Layer_1" data-name="Layer 1" xmlns="http://www.w3.org/2000/svg" viewBox="0 0 3712.4 741.32"><defs><style>.cls-1{fill:#e33e27;}.cls-2{fill:#fff;}.cls-3{fill:#f5a21d;}.cls-4{fill:#0b0b0b;}</style></defs><title>nd_quiz_r03-01</title><path class="cls-1" d="M743.38,327.74h24.88c25.82,0,43.12,19.31,43.12,44.78,0,25.11-17.77,44.54-43.24,44.54H743.38V327.74Zm17.41,74.16h2.84c21.44,0,29.73-11.85,29.73-29.5,0-19.43-10-29.5-29.73-29.5h-2.84v59Z"/><path class="cls-1" d="M871.68,419.43c-27.25,0-44.19-20.85-44.19-47.15,0-26.54,17.53-46.91,44.19-46.91s44.19,20.38,44.19,46.91C915.86,398.58,898.92,419.43,871.68,419.43Zm0-76.88c-16.47,0-26.18,14.57-26.18,29,0,13.74,6.87,30.68,26.18,30.68s26.18-16.94,26.18-30.68C897.86,357.12,888.14,342.55,871.68,342.55Z"/><path class="cls-1" d="M935.77,327.74h17.41v50c0,11,.95,26.54,15.75,26.54s15.76-15.52,15.76-26.54v-50h17.41v53.43c0,21.8-9.24,38.26-33.17,38.26S935.77,403,935.77,381.17V327.74Z"/><path class="cls-1" d="M1026.28,327.74H1048c16.58,0,26.77,6.51,26.77,24.28,0,6.4-2.25,13.74-7.82,17.3,10.54,1.9,15.28,12.56,15.28,22.39,0,17.53-12.32,25.35-28.55,25.35h-27.36V327.74Zm17.41,37.2h2.13c8.53,0,12.68-2.49,12.68-11.73s-5.21-11.49-12.56-11.49h-2.25v23.22Zm0,38.14h3.67c9.36,0,17.41-1.18,17.41-12.79s-9.48-12.08-18.24-12.08h-2.84v24.88Z"/><path class="cls-1" d="M1132.66,417.06h-17.41V342.9h-18V327.74h53.43V342.9h-18v74.16Z"/><path class="cls-1" d="M1232.41,417.06H1215V327.74h17.41v89.32Z"/><path class="cls-1" d="M1286,417.06h-17.41V342.9h-18V327.74H1304V342.9h-18v74.16Z"/><path class="cls-1" d="M1331.68,408.77a10.54,10.54,0,1,1-21.09,0A10.54,10.54,0,0,1,1331.68,408.77Z"/><path class="cls-2" d="M1428.7,417.06h-11.13V337.93h-21.2V327.74h53.54v10.19h-21.2v79.13Z"/><path class="cls-2" d="M1470.52,327.74h48v10.19h-36.84v25h35.78v10.19h-35.78v33.76h36.84v10.19h-48V327.74Z"/><path class="cls-2" d="M1583.78,344.68c-3.32-5.57-7.58-8.41-14.33-8.41-7.11,0-14.93,4.86-14.93,12.67,0,7,6.87,10.66,12.44,12.79l6.4,2.49c12.68,5,22.15,12,22.15,26.89,0,16.23-12.56,27.84-28.55,27.84-14.45,0-25.71-10.66-27.6-25l11.25-2.37c-0.12,9.83,7.7,16.94,17.3,16.94s16.47-8.06,16.47-17.41c0-9.6-7.7-13.74-15.4-16.94l-6.16-2.61c-10.19-4.38-19.43-10.19-19.43-22.63,0-14.45,12.79-23.1,26.3-23.1a25.48,25.48,0,0,1,23,13.5Z"/><path class="cls-2" d="M1643.6,417.06h-11.14V337.93h-21.2V327.74h53.54v10.19h-21.2v79.13Z"/><path class="cls-2" d="M1722.26,327.74h12.79L1757,365.89l21.91-38.14h12.79l-29.14,50.46v38.86H1751.4V378.21Z"/><path class="cls-2" d="M1898.54,372.4c0,26.54-21,46.55-46.79,46.55s-46.79-20-46.79-46.55c0-25.59,21.2-46.56,46.79-46.56S1898.54,346.81,1898.54,372.4Zm-11.13,0c0-19.67-14.69-36.13-35.66-36.13s-35.66,16.47-35.66,36.13A35.66,35.66,0,1,0,1887.4,372.4Z"/><path class="cls-2" d="M1930.76,327.74v52.72c0,14.57,4.38,28.08,21.56,28.08s21.56-13.5,21.56-28.08V327.74H1985v56.51c0,19.66-12.2,34.71-32.69,34.71s-32.7-15-32.7-34.71V327.74h11.14Z"/><path class="cls-2" d="M2067.83,417.06h-13.5L2028,379.27h-4.62v37.79h-11.14V327.74h13.5c7.94,0,16.47.12,23.57,4.15,7.46,4.38,11.73,12.79,11.73,21.32,0,12.79-8.53,23.46-21.44,25Zm-44.42-47H2027c11.37,0,23.69-2.13,23.69-16.35,0-14-13.27-16-24.28-16h-3V370Z"/><path class="cls-2" d="M2183.57,327.74h14.57L2158,367.9l40.87,49.16h-15l-33.64-41.58-4.5,4.26v37.32h-11.14V327.74h11.14v38.74Z"/><path class="cls-2" d="M2216.38,323.48l67,70.25v-66h11.14v93l-67-70.25v66.58h-11.13V323.48Z"/><path class="cls-2" d="M2409.6,372.4c0,26.54-21,46.55-46.79,46.55s-46.79-20-46.79-46.55c0-25.59,21.2-46.56,46.79-46.56S2409.6,346.81,2409.6,372.4Zm-11.14,0c0-19.67-14.69-36.13-35.66-36.13s-35.66,16.47-35.66,36.13A35.66,35.66,0,1,0,2398.46,372.4Z"/><path class="cls-2" d="M2459.36,391.71l25.23-65.86,25.23,65.86,25-64h12.08l-37.08,92.87-25.23-65.51-25.23,65.51-37.08-92.87h12.08Z"/><path class="cls-2" d="M2576.88,406.87H2604v10.19h-38.26V327.74h11.14v79.13Z"/><path class="cls-2" d="M2623.2,327.74h48v10.19h-36.84v25h35.78v10.19h-35.78v33.76h36.84v10.19h-48V327.74Z"/><path class="cls-2" d="M2695.82,327.74h18.48c27.36,0,50.11,14.45,50.11,44.19,0,30.44-22.27,45.13-50.46,45.13h-18.12V327.74ZM2707,406.87h3.91c22.74,0,42.41-8.53,42.41-34.47s-19.67-34.47-42.41-34.47H2707v68.94Z"/><path class="cls-2" d="M2868.78,372v3.55c0,24.52-17.3,43.36-42.29,43.36s-45.13-21.56-45.13-46.32c0-25.71,20.61-46.79,46.32-46.79a46.82,46.82,0,0,1,36.37,17.3l-7.82,7.46c-6.4-8.77-17.18-14.57-28.08-14.57-20,0-35.66,16.23-35.66,36.25,0,18.72,15.4,36.49,34.71,36.49,13.86,0,28.79-12,29.26-26.54h-23.1V372h35.42Z"/><path class="cls-2" d="M2891.64,327.74h48v10.19h-36.84v25h35.78v10.19h-35.78v33.76h36.84v10.19h-48V327.74Z"/><path class="cls-2" d="M591,469.9h10.9c16.82,0,32.69,4.38,32.69,24.52,0,6.51-3.55,14.1-9.6,16.94v0.24c10.54,1.89,17.89,12.2,17.89,22.63,0,17.89-15.28,25-31,25H591V469.9Zm11.13,39.57H605c10.54,0,19.19-2.13,19.19-14.93,0-12.56-8.53-14.69-19-14.69h-3.08v29.62Zm0,39.8h8.53c10.31,0,21.09-3.08,21.09-15.75S619,518.35,609,518.35h-6.87v30.92Z"/><path class="cls-2" d="M658,469.9h12.79L692.68,508l21.91-38.14h12.79l-29.14,50.46v38.86H687.11V520.37Z"/><path class="cls-2" d="M805.69,536.83l-10.19,22.39h-12l42.65-93.11,42.65,93.11h-12l-10.19-22.39h-41Zm20.49-46.32-15.87,36.13h31.75Z"/><path class="cls-2" d="M887.08,465.64l67,70.25v-66h11.13v93l-67-70.25v66.58H887.08V465.64Z"/><path class="cls-2" d="M1032.67,486.84c-3.32-5.57-7.58-8.41-14.33-8.41-7.11,0-14.93,4.86-14.93,12.67,0,7,6.87,10.66,12.44,12.79l6.4,2.49c12.68,5,22.15,12,22.15,26.89,0,16.23-12.56,27.84-28.55,27.84-14.45,0-25.71-10.66-27.6-25l11.25-2.37c-0.12,9.83,7.7,16.94,17.3,16.94s16.47-8.06,16.47-17.41c0-9.6-7.7-13.74-15.4-16.94l-6.16-2.61c-10.19-4.38-19.43-10.19-19.43-22.63,0-14.45,12.79-23.1,26.3-23.1a25.48,25.48,0,0,1,23,13.5Z"/><path class="cls-2" d="M1095.58,533.87L1120.81,468,1146,533.87l25-64h12.08L1146,562.78l-25.23-65.51-25.23,65.51L1058.5,469.9h12.08Z"/><path class="cls-2" d="M1202,469.9h48v10.19H1213.1v25h35.78v10.19H1213.1V549h36.84v10.19h-48V469.9Z"/><path class="cls-2" d="M1331.09,559.22h-13.5l-26.3-37.79h-4.62v37.79h-11.14V469.9H1289c7.94,0,16.47.12,23.57,4.15,7.46,4.38,11.73,12.79,11.73,21.32,0,12.79-8.53,23.46-21.44,25Zm-44.42-47h3.55c11.37,0,23.69-2.13,23.69-16.35,0-14-13.27-16-24.28-16h-3v32.34Z"/><path class="cls-2" d="M1362.48,559.22h-11.13V469.9h11.13v89.32Z"/><path class="cls-2" d="M1390,465.64l67,70.25v-66h11.14v93l-67-70.25v66.58H1390V465.64Z"/><path class="cls-2" d="M1577.26,514.21v3.55c0,24.52-17.3,43.36-42.29,43.36s-45.13-21.56-45.13-46.32c0-25.71,20.61-46.79,46.32-46.79a46.82,46.82,0,0,1,36.37,17.3l-7.82,7.46c-6.4-8.77-17.18-14.57-28.08-14.57-20,0-35.66,16.23-35.66,36.25,0,18.72,15.4,36.49,34.71,36.49,13.86,0,28.79-12,29.26-26.54h-23.1V514.21h35.42Z"/><path class="cls-2" d="M1670.26,559.22h-11.14V480.09h-21.2V469.9h53.54v10.19h-21.2v79.13Z"/><path class="cls-2" d="M1764.79,505.91v-36h11.13v89.32h-11.13V516.34h-42.53v42.88h-11.14V469.9h11.14v36h42.53Z"/><path class="cls-2" d="M1803.89,469.9h48v10.19H1815v25h35.78v10.19H1815V549h36.84v10.19h-48V469.9Z"/><path class="cls-2" d="M1997.22,561.12l-7.7-7.94a46.46,46.46,0,0,1-25.47,7.94c-25.82,0-46.79-20-46.79-46.55,0-25.59,21.2-46.56,46.79-46.56s46.79,21,46.79,46.56a45.44,45.44,0,0,1-14,32.93l13.86,13.62h-13.5Zm-7.94-21.56c6.87-6.16,10.43-16.47,10.43-25,0-19.67-14.69-36.13-35.66-36.13s-35.66,16.47-35.66,36.13a35.87,35.87,0,0,0,35.66,36.13,35.06,35.06,0,0,0,17.77-5.09l-20.49-20h13.86Z"/><path class="cls-2" d="M2043.07,469.9v52.72c0,14.57,4.38,28.08,21.56,28.08s21.56-13.5,21.56-28.08V469.9h11.13v56.51c0,19.66-12.2,34.71-32.69,34.71s-32.69-15-32.69-34.71V469.9h11.13Z"/><path class="cls-2" d="M2124.58,469.9h48v10.19h-36.84v25h35.78v10.19h-35.78V549h36.84v10.19h-48V469.9Z"/><path class="cls-2" d="M2237.83,486.84c-3.32-5.57-7.58-8.41-14.33-8.41-7.11,0-14.93,4.86-14.93,12.67,0,7,6.87,10.66,12.44,12.79l6.4,2.49c12.68,5,22.15,12,22.15,26.89,0,16.23-12.56,27.84-28.55,27.84-14.45,0-25.71-10.66-27.6-25l11.25-2.37c-0.12,9.83,7.7,16.94,17.3,16.94s16.47-8.06,16.47-17.41c0-9.6-7.7-13.74-15.4-16.94l-6.16-2.61c-10.19-4.38-19.43-10.19-19.43-22.63,0-14.45,12.79-23.1,26.3-23.1a25.48,25.48,0,0,1,23,13.5Z"/><path class="cls-2" d="M2297.65,559.22h-11.14V480.09h-21.2V469.9h53.54v10.19h-21.2v79.13Z"/><path class="cls-2" d="M2350.25,559.22h-11.13V469.9h11.13v89.32Z"/><path class="cls-2" d="M2466.11,514.56c0,26.54-21,46.55-46.79,46.55s-46.79-20-46.79-46.55c0-25.59,21.2-46.56,46.79-46.56S2466.11,489,2466.11,514.56Zm-11.14,0c0-19.67-14.69-36.13-35.66-36.13s-35.66,16.47-35.66,36.13A35.66,35.66,0,1,0,2455,514.56Z"/><path class="cls-2" d="M2487.67,465.64l67,70.25v-66h11.14v93l-67-70.25v66.58h-11.13V465.64Z"/><path class="cls-2" d="M2633.27,486.84c-3.32-5.57-7.58-8.41-14.33-8.41-7.11,0-14.93,4.86-14.93,12.67,0,7,6.87,10.66,12.44,12.79l6.4,2.49c12.67,5,22.15,12,22.15,26.89,0,16.23-12.56,27.84-28.55,27.84-14.45,0-25.71-10.66-27.6-25l11.25-2.37c-0.12,9.83,7.7,16.94,17.29,16.94s16.47-8.06,16.47-17.41c0-9.6-7.7-13.74-15.4-16.94l-6.16-2.61c-10.19-4.38-19.43-10.19-19.43-22.63,0-14.45,12.79-23.1,26.3-23.1a25.48,25.48,0,0,1,23,13.5Z"/><path class="cls-2" d="M2714.18,469.9h10.9c16.82,0,32.69,4.38,32.69,24.52,0,6.51-3.55,14.1-9.6,16.94v0.24c10.54,1.89,17.89,12.2,17.89,22.63,0,17.89-15.28,25-31,25h-20.85V469.9Zm11.14,39.57h2.84c10.54,0,19.19-2.13,19.19-14.93,0-12.56-8.53-14.69-19-14.69h-3.08v29.62Zm0,39.8h8.53c10.31,0,21.09-3.08,21.09-15.75s-12.79-15.16-22.74-15.16h-6.87v30.92Z"/><path class="cls-2" d="M2790.35,469.9h48v10.19h-36.84v25h35.78v10.19h-35.78V549h36.84v10.19h-48V469.9Z"/><path class="cls-2" d="M2875.06,549h27.13v10.19h-38.26V469.9h11.13V549Z"/><path class="cls-2" d="M3008.68,514.56c0,26.54-21,46.55-46.79,46.55s-46.79-20-46.79-46.55c0-25.59,21.2-46.56,46.79-46.56S3008.68,489,3008.68,514.56Zm-11.13,0c0-19.67-14.69-36.13-35.66-36.13s-35.66,16.47-35.66,36.13A35.66,35.66,0,1,0,2997.55,514.56Z"/><path class="cls-2" d="M3058.44,533.87L3083.67,468l25.23,65.86,25-64H3146l-37.08,92.87-25.23-65.51-25.23,65.51-37.08-92.87h12.08Z"/><path class="cls-2" d="M514.09,679L503.9,701.38h-12l42.65-93.11,42.65,93.11h-12L555.08,679h-41Zm20.49-46.32-15.87,36.13h31.75Z"/><path class="cls-2" d="M595.48,607.8l67,70.25v-66h11.14v93l-67-70.25v66.58H595.48V607.8Z"/><path class="cls-2" d="M700.44,612.06h18.48c27.36,0,50.11,14.45,50.11,44.19,0,30.44-22.27,45.13-50.46,45.13H700.44V612.06Zm11.14,79.13h3.91c22.74,0,42.41-8.53,42.41-34.47s-19.66-34.47-42.41-34.47h-3.91V691.2Z"/><path class="cls-2" d="M853.26,642.39H853l-10.43,59H831.1l18.24-93.11L880,678.64l30.68-70.37L929,701.38H917.46l-10.43-59H906.8L880,703.28Z"/><path class="cls-2" d="M963.43,679l-10.19,22.39h-12l42.65-93.11,42.65,93.11h-12L1004.42,679h-41Zm20.49-46.32-15.87,36.13H999.8Z"/><path class="cls-2" d="M1094.93,612.06h14.57l-40.16,40.16,40.87,49.16h-15l-33.64-41.58-4.5,4.26v37.32h-11.14V612.06H1057V650.8Z"/><path class="cls-2" d="M1128.81,612.06h48v10.19h-36.84v25h35.78v10.19h-35.78V691.2h36.84v10.19h-48V612.06Z"/><path class="cls-2" d="M1288.14,629c-3.32-5.57-7.58-8.41-14.33-8.41-7.11,0-14.93,4.86-14.93,12.67,0,7,6.87,10.66,12.44,12.79l6.4,2.49c12.68,5,22.15,12,22.15,26.89,0,16.23-12.56,27.84-28.55,27.84-14.45,0-25.71-10.66-27.6-25l11.25-2.37c-0.12,9.83,7.7,16.94,17.3,16.94s16.47-8.06,16.47-17.41c0-9.6-7.7-13.74-15.4-16.94l-6.16-2.61c-10.19-4.38-19.43-10.19-19.43-22.63,0-14.45,12.79-23.1,26.3-23.1a25.48,25.48,0,0,1,23,13.5Z"/><path class="cls-2" d="M1333.52,612.06v52.72c0,14.57,4.38,28.08,21.56,28.08s21.56-13.5,21.56-28.08V612.06h11.13v56.51c0,19.66-12.2,34.71-32.69,34.71s-32.69-15-32.69-34.71V612.06h11.13Z"/><path class="cls-2" d="M1470.58,701.38h-13.5l-26.3-37.79h-4.62v37.79H1415V612.06h13.5c7.94,0,16.47.12,23.57,4.15,7.46,4.38,11.73,12.79,11.73,21.32,0,12.79-8.53,23.46-21.44,25Zm-44.42-47h3.55c11.37,0,23.69-2.13,23.69-16.35,0-14-13.27-16-24.28-16h-3v32.34Z"/><path class="cls-2" d="M1491.2,612.06h48v10.19h-36.84v25h35.78v10.19h-35.78V691.2h36.84v10.19h-48V612.06Z"/><path class="cls-2" d="M1634.89,701.38h-11.13V622.25h-21.2V612.06h53.54v10.19h-21.2v79.13Z"/><path class="cls-2" d="M1764,656.72c0,26.54-21,46.55-46.79,46.55s-46.79-20-46.79-46.55c0-25.59,21.2-46.56,46.79-46.56S1764,631.14,1764,656.72Zm-11.14,0c0-19.67-14.69-36.13-35.66-36.13s-35.66,16.47-35.66,36.13A35.66,35.66,0,1,0,1752.88,656.72Z"/><path class="cls-2" d="M1872.42,629c-3.32-5.57-7.58-8.41-14.33-8.41-7.11,0-14.93,4.86-14.93,12.67,0,7,6.87,10.66,12.44,12.79l6.4,2.49c12.68,5,22.15,12,22.15,26.89,0,16.23-12.56,27.84-28.55,27.84-14.45,0-25.71-10.66-27.6-25l11.25-2.37c-0.12,9.83,7.7,16.94,17.3,16.94S1873,684.8,1873,675.44c0-9.6-7.7-13.74-15.4-16.94l-6.16-2.61c-10.19-4.38-19.43-10.19-19.43-22.63,0-14.45,12.79-23.1,26.3-23.1a25.48,25.48,0,0,1,23,13.5Z"/><path class="cls-2" d="M1960.91,648.08v-36H1972v89.32h-11.13V658.5h-42.53v42.88h-11.14V612.06h11.14v36h42.53Z"/><path class="cls-2" d="M2012.68,679l-10.19,22.39h-12l42.65-93.11,42.65,93.11h-12L2053.67,679h-41Zm20.49-46.32-15.87,36.13H2049Z"/><path class="cls-2" d="M2150.69,701.38h-13.5l-26.3-37.79h-4.62v37.79h-11.14V612.06h13.5c7.94,0,16.47.12,23.57,4.15,7.46,4.38,11.73,12.79,11.73,21.32,0,12.79-8.53,23.46-21.44,25Zm-44.42-47h3.55c11.37,0,23.69-2.13,23.69-16.35,0-14-13.27-16-24.28-16h-3v32.34Z"/><path class="cls-2" d="M2171.31,612.06h48v10.19h-36.84v25h35.78v10.19h-35.78V691.2h36.84v10.19h-48V612.06Z"/><path class="cls-2" d="M2281.72,612.06h12.79l21.92,38.14,21.92-38.14h12.79L2322,662.53v38.86h-11.14V662.53Z"/><path class="cls-2" d="M2458,656.72c0,26.54-21,46.55-46.79,46.55s-46.79-20-46.79-46.55c0-25.59,21.2-46.56,46.79-46.56S2458,631.14,2458,656.72Zm-11.14,0c0-19.67-14.69-36.13-35.66-36.13s-35.66,16.47-35.66,36.13A35.66,35.66,0,1,0,2446.86,656.72Z"/><path class="cls-2" d="M2490.22,612.06v52.72c0,14.57,4.38,28.08,21.56,28.08s21.56-13.5,21.56-28.08V612.06h11.13v56.51c0,19.66-12.2,34.71-32.69,34.71s-32.69-15-32.69-34.71V612.06h11.13Z"/><path class="cls-2" d="M2627.28,701.38h-13.5l-26.3-37.79h-4.62v37.79h-11.14V612.06h13.5c7.94,0,16.47.12,23.57,4.15,7.46,4.38,11.73,12.79,11.73,21.32,0,12.79-8.53,23.46-21.44,25Zm-44.42-47h3.55c11.37,0,23.69-2.13,23.69-16.35,0-14-13.27-16-24.28-16h-3v32.34Z"/><path class="cls-2" d="M2749.54,701.38H2736l-26.3-37.79h-4.62v37.79H2694V612.06h13.5c7.94,0,16.47.12,23.57,4.15,7.46,4.38,11.73,12.79,11.73,21.32,0,12.79-8.53,23.46-21.44,25Zm-44.42-47h3.55c11.37,0,23.69-2.13,23.69-16.35,0-14-13.27-16-24.29-16h-3v32.34Z"/><path class="cls-2" d="M2770.16,612.06h48v10.19h-36.84v25h35.78v10.19h-35.78V691.2h36.84v10.19h-48V612.06Z"/><path class="cls-2" d="M2883.41,629c-3.32-5.57-7.58-8.41-14.33-8.41-7.11,0-14.93,4.86-14.93,12.67,0,7,6.87,10.66,12.44,12.79l6.4,2.49c12.68,5,22.15,12,22.15,26.89,0,16.23-12.56,27.84-28.55,27.84-14.45,0-25.71-10.66-27.6-25l11.25-2.37c-0.12,9.83,7.7,16.94,17.3,16.94S2884,684.8,2884,675.44c0-9.6-7.7-13.74-15.4-16.94l-6.16-2.61c-10.19-4.38-19.43-10.19-19.43-22.63,0-14.45,12.79-23.1,26.3-23.1a25.48,25.48,0,0,1,23,13.5Z"/><path class="cls-2" d="M2928.78,612.06v52.72c0,14.57,4.38,28.08,21.56,28.08s21.56-13.5,21.56-28.08V612.06H2983v56.51c0,19.66-12.2,34.71-32.69,34.71s-32.7-15-32.7-34.71V612.06h11.14Z"/><path class="cls-2" d="M3021.42,691.2h27.13v10.19h-38.26V612.06h11.13V691.2Z"/><path class="cls-2" d="M3088.24,701.38H3077.1V622.25h-21.2V612.06h53.54v10.19h-21.2v79.13Z"/><path class="cls-2" d="M3169.74,629c-3.32-5.57-7.58-8.41-14.33-8.41-7.11,0-14.93,4.86-14.93,12.67,0,7,6.87,10.66,12.44,12.79l6.4,2.49c12.68,5,22.15,12,22.15,26.89,0,16.23-12.56,27.84-28.55,27.84-14.45,0-25.71-10.66-27.6-25l11.25-2.37c-0.12,9.83,7.7,16.94,17.3,16.94s16.47-8.06,16.47-17.41c0-9.6-7.7-13.74-15.4-16.94l-6.16-2.61c-10.19-4.38-19.43-10.19-19.43-22.63,0-14.45,12.79-23.1,26.3-23.1a25.48,25.48,0,0,1,23,13.5Z"/><path class="cls-2" d="M3222.93,696.41a6.87,6.87,0,0,1-13.74,0A6.87,6.87,0,1,1,3222.93,696.41Zm-12.2-84.34h10.66v68.71h-10.66V612.06Z"/><rect class="cls-3" x="48.83" y="27.76" width="3614.74" height="216.96" rx="31.99" ry="31.99"/><path class="cls-4" d="M191.28,170.06l-9.88,25.33H156.72L203.55,72.1H221.7l45.56,123.28h-25L233,170.06H191.28Zm20.23-62.76h-0.32L198,150.94h28.51Z"/><path class="cls-4" d="M379.55,195.38H351.2L322,147h-0.32v48.42H298.31V75.28H330c23.73,0,40.14,10.51,40.14,36.16,0,15.29-8.44,30.58-24.53,33.29Zm-57.82-64.83h3c12.9,0,22-3.82,22-18.48,0-14.81-9.4-17.68-21.82-17.68h-3.19v36.16Z"/><path class="cls-4" d="M434.5,95.67v26.44h37.27V142.5H434.5V175H473.2v20.39H411.08V75.28H473.2V95.67H434.5Z"/><path class="cls-4" d="M571.47,75.28h27.24l21,41.73,22.94-41.73h27.4l-37.91,65v55.11H608.75V140.27Z"/><path class="cls-4" d="M753.69,198.57c-36.64,0-59.41-28-59.41-63.39,0-35.68,23.57-63.08,59.41-63.08s59.41,27.4,59.41,63.08C813.1,170.53,790.32,198.57,753.69,198.57Zm0-103.37c-22.14,0-35.2,19.59-35.2,39,0,18.48,9.24,41.25,35.2,41.25s35.2-22.78,35.2-41.25C788.89,114.78,775.83,95.19,753.69,95.19Z"/><path class="cls-4" d="M847.82,75.28h23.41V142.5c0,14.81,1.27,35.68,21.18,35.68s21.18-20.87,21.18-35.68V75.28H937v71.84c0,29.31-12.42,51.45-44.6,51.45s-44.6-22.14-44.6-51.45V75.28Z"/><path class="cls-4" d="M1047.39,72.1h16.88L1127.51,156h0.32V75.28h23.41V197.77h-16.88l-63.24-83.94h-0.32v81.55h-23.41V72.1Z"/><path class="cls-4" d="M1215.59,95.67v26.44h37.27V142.5h-37.27V175h38.71v20.39h-62.12V75.28h62.12V95.67h-38.71Z"/><path class="cls-4" d="M1374.07,107.14a34.65,34.65,0,0,0-26.44-12.74c-22.46,0-35.36,20.71-35.36,41.41,0,20.23,13.38,40.46,35.2,40.46,10,0,20.07-5.26,26.6-12.74V191.4c-8.76,4.14-17.52,7.17-27.24,7.17-33.77,0-58.78-29.15-58.78-62.28,0-34.09,24.05-64.19,59.25-64.19a55.87,55.87,0,0,1,26.76,7v28Z"/><path class="cls-4" d="M1474.26,75.28h28.83l-45.56,55.43,48.1,64.67h-30.1l-38.39-54h-0.32v54h-23.41V75.28h23.41v50.65h0.32Z"/><path class="cls-4" d="M1606,75.28h33.45c34.72,0,58,26,58,60.21,0,33.77-23.89,59.89-58.14,59.89H1606V75.28ZM1629.39,175h3.82c28.83,0,40-15.93,40-39.66,0-26.12-13.38-39.66-40-39.66h-3.82V175Z"/><path class="cls-4" d="M1756.18,95.67v26.44h37.27V142.5h-37.27V175h38.71v20.39h-62.12V75.28h62.12V95.67h-38.71Z"/><path class="cls-4" d="M1857.79,95.67v26.44h37.27V142.5h-37.27V175h38.71v20.39h-62.12V75.28h62.12V95.67h-38.71Z"/><path class="cls-4" d="M1959.41,195.38H1936V75.28h31.86c25.17,0,41.57,10,41.57,37.27,0,25.49-13.86,37.91-38.39,37.91h-11.63v44.92Zm0-64.35h4.78c13.86,0,21.34-3,21.34-18.64,0-15.45-8.92-17.68-22-17.68h-4.14V131Z"/><path class="cls-4" d="M2068.52,75.28l-2.87,52.24h-13.38l-2.87-52.24h19.11Z"/><path class="cls-4" d="M2171.57,101.72c-4.46-6.05-10.19-9.88-18-9.88-7.49,0-14.65,5.73-14.65,13.54,0,20.23,47.63,11.79,47.63,52.09,0,24.05-15,41.09-39.5,41.09-16.57,0-28.67-9.56-37-23.41l15.13-14.81c3.19,9.24,11.63,17.52,21.66,17.52,9.56,0,15.45-8.12,15.45-17.36,0-12.42-11.47-15.93-20.87-19.59-15.45-6.37-26.76-14.18-26.76-32.81,0-19.91,14.81-36,35-36,10.67,0,25.49,5.26,32.81,13.38Z"/><path class="cls-4" d="M2292.62,75.28h29.15c22.3,0,36,8.76,36,32.65,0,8.6-3,18.48-10.51,23.26,14.18,2.55,20.55,16.88,20.55,30.1,0,23.57-16.57,34.09-38.39,34.09h-36.79V75.28Zm23.41,50h2.87c11.47,0,17-3.35,17-15.77,0-12.26-7-15.45-16.88-15.45h-3V125.3Zm0,51.29H2321c12.58,0,23.41-1.59,23.41-17.2s-12.74-16.25-24.53-16.25H2316v33.45Z"/><path class="cls-4" d="M2428,195.38h-23.41V75.28H2428v120.1Z"/><path class="cls-4" d="M2575,131.51v3c0,33.93-17.36,64-54.63,64-35,0-57.18-29.63-57.18-62.76,0-34.25,22.78-63.71,58.62-63.71,20.39,0,38.23,10.35,47.47,28.67l-20.71,11.15c-4.78-10.83-15-19.11-27.4-19.11-22.62,0-33.77,23.1-33.77,43s11.31,42.05,33.93,42.05c14.65,0,26.92-12.74,27.4-27.24h-25.49V131.51H2575Z"/><path class="cls-4" d="M2716.62,131.51v3c0,33.93-17.36,64-54.63,64-35,0-57.18-29.63-57.18-62.76,0-34.25,22.78-63.71,58.62-63.71,20.39,0,38.23,10.35,47.47,28.67l-20.71,11.15c-4.78-10.83-15-19.11-27.4-19.11-22.62,0-33.77,23.1-33.77,43s11.31,42.05,33.93,42.05c14.65,0,26.92-12.74,27.4-27.24h-25.48V131.51h51.77Z"/><path class="cls-4" d="M2775.55,95.67v26.44h37.27V142.5h-37.27V175h38.71v20.39h-62.12V75.28h62.12V95.67h-38.71Z"/><path class="cls-4" d="M2910.3,101.72c-4.46-6.05-10.19-9.88-18-9.88-7.49,0-14.65,5.73-14.65,13.54,0,20.23,47.63,11.79,47.63,52.09,0,24.05-15,41.09-39.5,41.09-16.56,0-28.67-9.56-37-23.41l15.13-14.81c3.19,9.24,11.63,17.52,21.66,17.52,9.56,0,15.45-8.12,15.45-17.36,0-12.42-11.47-15.93-20.87-19.59-15.45-6.37-26.76-14.18-26.76-32.81,0-19.91,14.81-36,35-36,10.67,0,25.48,5.26,32.81,13.38Z"/><path class="cls-4" d="M3000.45,195.38H2977V95.67h-24.21V75.28h71.84V95.67h-24.21v99.71Z"/><path class="cls-4" d="M3150.48,95.67v26.44h33.93V142.5h-33.93v52.88h-23.41V75.28h59.57V95.67h-36.16Z"/><path class="cls-4" d="M3239.68,170.06l-9.88,25.33h-24.69L3251.94,72.1h18.16l45.55,123.28h-25l-9.24-25.33h-41.73Zm20.23-62.76h-0.32l-13.22,43.64h28.51Z"/><path class="cls-4" d="M3346.71,72.1h16.88L3426.83,156h0.32V75.28h23.41V197.77h-16.88l-63.24-83.94h-0.32v81.55h-23.41V72.1Z"/><path class="cls-4" d="M3506.47,122.75a23.44,23.44,0,0,0,5.73.64c10.67,0,20.39-6.37,20.39-17.84,0-6.37-3.66-14-11-14-7.17,0-10.67,6.69-10.67,13.06v1.91h-23.26c-1-19.27,14.49-34.4,33.77-34.4,19.59,0,34.25,14.65,34.25,34.25,0,15.61-10.35,29.31-25.64,32.81l-1.27,15.29h-22.3v-31.7Zm25.64,61.48a14.18,14.18,0,1,1-28.35,0A14.18,14.18,0,0,1,3532.11,184.23Z"/></svg>