<svg id="Layer_1" data-name="Layer 1" xmlns="http://www.w3.org/2000/svg" viewBox="0 0 521.35 118.69"><defs><style>.cls-1{fill:#3abeef;fill-rule:evenodd;}</style></defs><title>nd_tpatp_quiz-v1</title><path class="cls-1" d="M503.61,0H17.73A17.73,17.73,0,0,0,0,17.73V101a17.73,17.73,0,0,0,17.73,17.73H503.61A17.73,17.73,0,0,0,521.35,101V17.73A17.73,17.73,0,0,0,503.61,0ZM217.92,60.53a12.25,12.25,0,0,1-.27,1.57c-1.28,0-2.44.05-3.6,0-5.13-.27-10.25-0.58-15.37-0.86-1.14-.06-1.74.16-2.1,0.87q-0.13,8.87-.25,17.74c-0.06,5,0,10.09,0,15.14,0,1-.18,1.9-0.3,3.06-5.48.72-7.39,1.12-12.49,0.92-0.21-.05-0.21-1.75-0.23-2.5-0.25-9.94.14-19.89-.46-29.82-0.51-8.55-.95-17.13-1.43-25.69V25.48a2.6,2.6,0,0,1,2.55-2.58c2.57,0,1.27-.1,3.86-0.17q12.06-.34,24.14-0.92c4.41-.21,16.67-0.69,21.09-1,1-.07,12.14,0,14.82,0a0.39,0.39,0,0,1,.39.46c-0.48,4.33,0,8.53-1.06,12.63a0.92,0.92,0,0,1-.86.71c-8.51.28-34.39,0.54-41.69,0.83-1.85.08-3.69,0.31-5.55,0.43a1.93,1.93,0,0,0-2,1.78,9.9,9.9,0,0,0-.18,1.57q-0.08,5.25-.15,10.5a2,2,0,0,0,2,2l9.85,0.2c2.57,0.06,5.14.17,7.7,0.32,1.52,0.08,1.67.25,1.67,1.67C217.94,56.13,217.95,58.33,217.92,60.53Zm31.15,4c-0.47,9.66-1,19.3-1.48,29-0.07,1.51,0,3-.08,4.52,0,1.18-.14,2.36-0.24,3.77-1.78.21-3.36,0.46-4.93,0.57-3.22.23-6.43,0.34-9.65,0.56-1.5.1-2.31-.54-2.38-2A69.74,69.74,0,0,1,230,93.4c0.75-13.38,1.36-26.75,1-40.15a44,44,0,0,1,.52-6,2.34,2.34,0,0,1,1.89-2.08c2.23-.66,12.87-1,15.7-0.23,0.15,1.93.47,4,.45,6.07C249.49,55.52,249.29,60,249.07,64.56Zm108.6,26.15C357,92.53,355,93.13,353,93.21c-8.39.32-12.85,0.7-21.25,1-8.68.27-9.52,0.42-18.21,0.63l-7.85.15c-13.55.4-23.18,0.77-36.73,1.23-8,.26-8.7-0.48-8.08-7.72,0.48-5.55.61-11.16,0.69-16.74,0.13-8.6.14-17.19,0.12-25.79q0-11.86-.25-23.73c-0.07-3.83-.15-4.08,3.7-4.76,4.33-.77,8.73-1.17,13.12-1.66a2.61,2.61,0,0,1,3.23,2.57,13.22,13.22,0,0,1,.06,2.86c-1.56,13-.32,25.91.47,38.86,0.31,5,.74,10.08,1.17,15.12,0.33,3.66,1,4.13,4.92,4.09,20.63-.21,33.41-0.35,54-0.6,4.85-.05,9.7-0.38,14.54-0.68,1.63-.11,2.58.37,2.78,1.88C360,83.64,359,87.23,357.67,90.71Z"/></svg>