<svg id="Layer_1" data-name="Layer 1" xmlns="http://www.w3.org/2000/svg" viewBox="0 0 1655.11 593.2"><defs><style>.cls-1{fill:#9ca839;}.cls-2,.cls-5{fill:#f5a428;}.cls-3,.cls-4{fill:#e33b26;}.cls-4,.cls-5{fill-rule:evenodd;}</style></defs><title>nd_tpatp_quiz-v1</title><path class="cls-1" d="M129.33,177.57q55-4.58,80.11,15.73t25.06,57.34q0,29.81-16.55,51t-50.95,26c-0.88,19-3.12,84.94-3.34,115.74l-39.32,1.31Zm60.62,53.08q-6.55-9.5-20-9.83l-2.29,65.86q12.45-1.31,20-10t8.19-22.44Q196.5,240.16,189.95,230.65Z"/><path class="cls-1" d="M325.71,431.07q-35.39,4.27-81.91,7.21-0.66-65.21,0-114.84T245.43,244l1-29.49c32.33-2.84,60.66-.76,85.34-0.76,0.22,13.54.18,22.61-.48,34.18A400,400,0,0,0,287,251.51l-2.29,58.65c14.64-1.1,49.2-2.7,61.66-2.7q0.33,16.38.33,34.4l-63,7q-1,28.51-1,49.48,14.09-.66,43.58-1.31Q326.36,411.73,325.71,431.07Z"/><path class="cls-1" d="M352.82,418.42l33.09-251.52,50.13,3L443.58,200q7.87,30.15,20,86.18T484.86,394l-36.37,2.62L440.3,352q-15.4-2-41.61-2.95L389.52,424Zm61.6-188.61q-2.63,24.25-10.82,85.19,14.41,1.31,29.16,1.31Q427.85,287.81,414.42,229.81Z"/><path class="cls-1" d="M563.71,397.63q3.44-11.8,4.42-39.32l40-1.64q-0.66,93.39-57,93.38-17,0-28.67-8.52T504.73,416.8a152.46,152.46,0,0,1-8.36-35.06,373,373,0,0,1-2.29-44.4q0-31.45,6.39-56.85t20.31-41.78q13.93-16.39,33.58-16.38,28.84,0,40.14,21.62t9.34,61.93l-37,1.64a110.39,110.39,0,0,0-1.8-28.84q-2.79-14.09-9.67-14.09-17.69,0-20.31,70.12-1.31,35.39,3.27,55t13.76,19.66Q560.27,409.43,563.71,397.63Z"/><path class="cls-1" d="M701.21,430.07q-35.39,4.27-81.91,7.21c-0.44-43.47-.66-102.39-0.22-135.48s1-59.58,1.64-79.46l1-29.49q48.49-4.26,85.52-4.26,0.32,20.32-.66,37.68a397.73,397.73,0,0,0-44.23,3.6L660,288.53q22-1.64,40.63-1.64,0.33,16.39.33,34.41l-41.94,5.9c-0.66,19-.77,56.13-0.77,70.12q14.09-.66,43.58-1.31Q701.87,410.74,701.21,430.07Z"/><path class="cls-2" d="M750.28,243a13.25,13.25,0,0,1,9.83-3.77,13.77,13.77,0,0,1,8,2.47q3.24,2.36,3.12,7.3c0,1.2-.27,8.18-0.67,11.71s-0.62,6.23-.66,8.12a5.15,5.15,0,0,0,.63,3.12,2.81,2.81,0,0,0,2.33,1,5.91,5.91,0,0,0,3.16-.79,9.21,9.21,0,0,1,2-1.05,0.66,0.66,0,0,1,.77.73,2.82,2.82,0,0,1-.86,1.51,9,9,0,0,1-2.72,1.9,8.27,8.27,0,0,1-4,.89,8.73,8.73,0,0,1-4.68-1.33,3,3,0,0,0-4.23-.69,33.67,33.67,0,0,1-4.35,1.19,26.1,26.1,0,0,1-6.14.52q-12.88-.31-12.72-7,0.09-3.85,4.82-5.93a24,24,0,0,1,10.38-2q2.36,0.05,4.39.3c1.36,0.16,2.4.32,3.13,0.47s1.15,0.23,1.25.23a0.76,0.76,0,0,0,.73-0.85c0.37-2.51.62-9.37,0.66-11.36a11.78,11.78,0,0,0-1-5.84q-1.13-2.07-4.19-2.14-7.15-.17-11.36,11.83a2.27,2.27,0,0,1-2.13.5,2,2,0,0,1-1.86-1.06,62,62,0,0,1,0-7q0.2-5.06.31-6.16,0.57-1,2.84-.68t2.88,1.36a15.43,15.43,0,0,0-.54,2.74,0.21,0.21,0,0,0,.23.24A1.3,1.3,0,0,0,750.28,243Zm11.51,21.59a11,11,0,0,0-5.08-1,16.28,16.28,0,0,0-7.26,1.4q-3.26,1.49-3.32,4.09-0.1,4.24,7.83,4.43a13.09,13.09,0,0,0,6.44-1.42,4.85,4.85,0,0,0,3-4.33A3.24,3.24,0,0,0,761.79,264.55Z"/><path class="cls-2" d="M789.65,236.16c0,8-.23,22,0.08,22.66a2.12,2.12,0,0,0,1.08.94,12.07,12.07,0,0,0,2.87.47l2.63,0.28a0.83,0.83,0,0,1,.7,1,0.84,0.84,0,0,1-.89.94h-4.23q-5.45,0-9.3.19t-5.5.33c-1.1.1-1.71,0.14-1.83,0.14a0.81,0.81,0,0,1-.52-0.18,0.75,0.75,0,0,1-.28-0.47,3.35,3.35,0,0,1,0-.56,0.8,0.8,0,0,1,.19-0.52,0.58,0.58,0,0,1,.47-0.24l2.35-.28a7.88,7.88,0,0,0,3-.8,2.54,2.54,0,0,0,1-1.93c0.19-1.32.67-15.06,0.67-21.82v-1.41q0-13.53-.28-15.5a3.09,3.09,0,0,0-.75-2,3.82,3.82,0,0,0-1.88-.66q-0.38,0-1.64-.09a9.15,9.15,0,0,1-1.55-.19,1,1,0,0,1,0-2q4.14-.37,9.68-0.37,3.29,0,3.76.66a2.45,2.45,0,0,1,.28,1.6l-0.09.84c-0.06.69,0,1,.28,1a15.49,15.49,0,0,0,1.55-.7,27.11,27.11,0,0,1,4-1.46,18.68,18.68,0,0,1,5.36-.75,24.54,24.54,0,0,1,5.92.66,16.55,16.55,0,0,1,5.22,2.4,11.28,11.28,0,0,1,4,5.45,25.17,25.17,0,0,1,1.46,9.16c0,1.63.23,3.74,0.1,7s-0.19,5-.19,5.36a5.77,5.77,0,0,0,.57,3q0.66,0.84,3.57,1.31l2.35,0.38a0.87,0.87,0,0,1,.75,1,0.79,0.79,0,0,1-.85.94l-1.78-.14q-1.6-.14-4.93-0.28t-7.66-.14h-5.82a0.8,0.8,0,0,1-.8-0.94,0.83,0.83,0,0,1,.7-1l1.79-.19q3.1-.38,3.57-1.13a13.55,13.55,0,0,0,.94-4.89c0.12-1.88-.1-4.36-0.1-8.12q0-8.83-2.25-12.87t-7.89-4a8.91,8.91,0,0,0-7.19,3.05,11.87,11.87,0,0,0-2.58,7.94v6.86Z"/><path class="cls-2" d="M840.44,223.06c-0.29,2.61-1.87,23.86-2.29,28.64s-0.83,9.84-1.21,15.16q-1,14.45-.77,16a1.61,1.61,0,0,0,1.18,1.28,24.8,24.8,0,0,0,4.7.61,0.65,0.65,0,0,1,.64.82,0.7,0.7,0,0,1-.6.81q-4.65.21-6.2,0.32l-2,.24-1.87.21a7.12,7.12,0,0,1-1.08,0,1.16,1.16,0,0,1-.89-1.07,1.18,1.18,0,0,0-.74-1.06,5.85,5.85,0,0,0-1.86.18,23.59,23.59,0,0,1-7.45.47q-7.68-.55-11.43-4.81a14,14,0,0,1-3.28-10.7,14.61,14.61,0,0,1,5.17-10.66,15.23,15.23,0,0,1,11.29-3.43,19.29,19.29,0,0,1,6,1.44,24.65,24.65,0,0,0,3,1.15c0.36,0,.56-0.24.6-0.81l0.22-3c0.72-9.88,2.11-33.09,1.75-34.51a1.73,1.73,0,0,0-1-1.19,13.53,13.53,0,0,0-3.08-.65l-2.37-.33a0.89,0.89,0,0,1,.12-1.69q5.1-.1,10.86.32,2.31,0.17,2.87.83a2.17,2.17,0,0,1,.14,1.32Q840.88,219.16,840.44,223.06Zm-17,36.42a9.3,9.3,0,0,0-8.19,3.27A15.47,15.47,0,0,0,811.7,272q-0.41,5.69,1.79,8.39t6.88,3q5,0.36,7.77-1.68a4.3,4.3,0,0,0,1.36-2.22,30,30,0,0,0,.75-5.58q0.64-8.76-.15-10.67Q828.71,259.87,823.41,259.48Z"/><path class="cls-2" d="M753.62,323.89q0-5.89-.05-8.76a2.85,2.85,0,0,1,.67-2.31,4,4,0,0,1,2.26-.69q3.44-.23,4.69,1.17-0.66,8.53-.63,16.35a1.91,1.91,0,0,0,.16,1.1,1,1,0,0,0,.75.16l4.87-.49,4.7-.48a0.84,0.84,0,0,1,.83.73,2.59,2.59,0,0,1,.06,1.52,0.88,0.88,0,0,1-.77.79l-9.6.48a1.12,1.12,0,0,0-.89.3,3.56,3.56,0,0,0-.16,1.33q0.09,7.4.49,13.39,0.36,5.41,1.55,7.72t4.63,2.08a11.57,11.57,0,0,0,4.41-1.2,21.13,21.13,0,0,1,2.28-1.06,1.08,1.08,0,0,1,1.22,1,10.68,10.68,0,0,1-3.91,3.14,15.1,15.1,0,0,1-6.07,1.64q-6.23.42-8.25-2.7t-2.53-10.74q-0.4-5.9-.51-12.48a4.16,4.16,0,0,0-.19-1.59,0.72,0.72,0,0,0-.76-0.32l-5.25.35a0.76,0.76,0,0,1-.8-0.89,0.86,0.86,0,0,1,.67-1.07l3.59-.41a7.67,7.67,0,0,0,2.19-.43,1.39,1.39,0,0,0,.41-1.22C753.65,329.94,753.63,327.82,753.62,323.89Z"/><path class="cls-2" d="M786.76,338.14a68.29,68.29,0,0,0-.66,8.28,1.27,1.27,0,0,0,1,1.06,29,29,0,0,0,3.59.77l1.54,0.25a0.79,0.79,0,0,1,.55,1,0.71,0.71,0,0,1-.83.77l-5-.54q-3-.33-5.56-0.57t-4.06-.32c-1-.06-1.88-0.08-2.59-0.08s-1.27,0-1.65,0l-0.66,0a0.72,0.72,0,0,1-.6-0.93,0.75,0.75,0,0,1,.71-0.87l1.65,0a11.83,11.83,0,0,0,3.29-.26,2.28,2.28,0,0,0,1.28-1.47q0.59-1.59,1.94-13.92l1.4-12.82c1.16-10.62,3.3-28.11,3.33-30.86a2,2,0,0,0-.67-1.77,10,10,0,0,0-3.17-.88l-1.79-.28A0.89,0.89,0,0,1,780,283q6.24,0.35,10.9.86c1.31,0.14,2.1.42,2.39,0.84a2.23,2.23,0,0,1,.17,1.51q0,0.08-.49,3T791.79,297c-0.48,3.34-2.45,17.56-2.83,21l0,0.41c-0.08.71,0,1.08,0.29,1.11a7.18,7.18,0,0,0,1.55-.2,25.1,25.1,0,0,1,3.3-.34,27.44,27.44,0,0,1,4.36.15q7.6,0.83,11.27,5.36t2.61,14.34q-0.19,1.71-.7,5.25T811,348.07a3.09,3.09,0,0,0,.2,1.92q0.43,0.62,3.65,1.39l2.26,0.5a0.75,0.75,0,0,1,.51,1,0.73,0.73,0,0,1-.79.78l-1.59-.21-3.58-.52q-2.24-.33-4.69-0.59-2.29-.26-4.38-0.44t-3.4-.25l-1.56-.09a0.72,0.72,0,0,1-.6-0.93,0.75,0.75,0,0,1,.71-0.87l1.81,0q3.3,0,3.9-.9a12.64,12.64,0,0,0,1.05-3.6q0.57-2.91,1.09-7.65,0.88-8-.7-11.69t-7.22-4.3q-5.23-.57-8.31,1.9a4.11,4.11,0,0,0-1.39,2.91Z"/><path class="cls-2" d="M837.27,365.25A21,21,0,0,0,848.71,361c0.26-.18.61-0.43,1-0.76l0.91-.71a5.3,5.3,0,0,1,.67-0.45,3.73,3.73,0,0,1,.72-0.33,2.77,2.77,0,0,1,.65-0.12,1.65,1.65,0,0,1,1.88,1.21,19.67,19.67,0,0,1-6.4,6,21.39,21.39,0,0,1-22,.22,11.86,11.86,0,0,1-5.77-10,24.28,24.28,0,0,1,3.7-14.17q4.13-6.87,10.85-7.26a16.79,16.79,0,0,1,3.84.23,16.81,16.81,0,0,1,8.1,4.1,13.29,13.29,0,0,1,3,4.39,17.91,17.91,0,0,1,1.44,6.3q0.18,3-.54,4.06a2.7,2.7,0,0,1-2.2,1.11l-5.38.15q-5.14.13-8.5,0.33-6.56.38-6.93,1.06Q828.33,365.77,837.27,365.25Zm-0.57-28.11q-3.61.21-6.38,5.64a20,20,0,0,0-2.6,9.7q0.12,0.65,6.68.27,6.81-.4,8.42-1t1.48-2.88Q843.59,336.73,836.7,337.14Z"/><path class="cls-2" d="M234.46,156.38q0.59,11.26.9,13.49a2.18,2.18,0,0,0,1.64,2,24,24,0,0,0,5.49.5l5,0.11a1.12,1.12,0,0,1-.07,2.15l-2.7.1-5.92.17q-3.59.09-7,.28-3.63.19-10,.67l-6.42.48a0.88,0.88,0,0,1-.91-0.47,1.42,1.42,0,0,1-.1-1.07,0.73,0.73,0,0,1,.71-0.6l4.36-.6a39,39,0,0,0,5-1A2.47,2.47,0,0,0,226,171.3c0.94-2.17,1.67,1.61.45-21.42l0-.93q-0.55-10.42-.95-12.64-0.15-1-2-1.29a37,37,0,0,0-6.35,0l-0.47,0q-6,.31-7.1,1.59-0.79.88-1.29,4.64T207.34,150q-0.39,5.06-.75,6.95a2.08,2.08,0,0,1-2.24,1.8c-1.24.07-1.94-.21-2.1-0.82q0.05-13.16-.43-22.19-0.17-3.35,3.55-3.55l3.45-.09,4.94-.26q7.44-.39,14.42-0.86t11.76-.85q4.78-.39,8.41-0.73l5.62-.53,2.09-.2a4.73,4.73,0,0,1,2.2.21,1.39,1.39,0,0,1,.66,1,216,216,0,0,0,.1,24.83,1.55,1.55,0,0,1-1.46.64,2.74,2.74,0,0,1-2.61-.89,7.54,7.54,0,0,1-1-3q-2-15.11-2.25-16a3.12,3.12,0,0,0-1.55-2,8.33,8.33,0,0,0-3.8-.41l-0.47,0q-10.33.55-11.09,2.17c-0.89,2-1.61-2.2-.42,20.2Z"/><path class="cls-2" d="M273.24,167a52,52,0,0,0,.29,9.14,1.75,1.75,0,0,0,1.42,1.1,28.7,28.7,0,0,0,4.7.6l3.16,0.25a0.73,0.73,0,0,1,.74.57,1.42,1.42,0,0,1-.07,1.07,0.88,0.88,0,0,1-.9.49l-6-.11q-3.91-.08-7.32,0c-2.27,0-4.12,0-5.55.08s-2.66.07-3.68,0.11-1.82.09-2.38,0.14-0.9.07-1,.07a1.13,1.13,0,0,1-.15-2.15l2.9-.22a16.9,16.9,0,0,0,4.49-.71,2.7,2.7,0,0,0,1.62-1.88q0.5-1.86.76-15.65L266.57,145c0.23-11.93.59-39.63,0.34-42.75a1.91,1.91,0,0,0-.85-1.79,12.45,12.45,0,0,0-3.58-.63l-3.72-.35a0.92,0.92,0,0,1-.82-1.09,0.81,0.81,0,0,1,.86-1q9.23-.11,14.27,0a2.9,2.9,0,0,1,2,.6,2.35,2.35,0,0,1,.34,1.59c0,0.25-.11,1.64-0.31,4.19s-0.8,25.91-1,29.73-0.37,7.38-.43,10.67v0.46q0,1.21.63,1.22a16.28,16.28,0,0,0,2-.38q1.73-.39,4.44-0.76a37.41,37.41,0,0,1,5.6-.31q21.44,0.41,21,20.82c0,1.3-.35,15.23-0.52,17.87s-0.27,4.11-.27,4.42a3.07,3.07,0,0,0,.52,2.15c0.55,0.57,2.22,1,5,1.3l3.72,0.44a0.73,0.73,0,0,1,.74.57,1.42,1.42,0,0,1-.07,1.07,0.88,0.88,0,0,1-.9.5l-4.19-.17q-4.28-.26-8.48-0.35-3.64-.07-8,0l-4.52.06a0.88,0.88,0,0,1-.88-0.53,1.41,1.41,0,0,1,0-1.07,0.73,0.73,0,0,1,.76-0.55l2.61-.14q4.67-.28,5.53-1.57a10,10,0,0,0,1-4.17c0.23-2.23.6-16.92,0.66-20.15q0.17-9-2.59-13.1t-10.78-4.31a20.68,20.68,0,0,0-11.71,3,3.39,3.39,0,0,0-1.55,3Z"/><path class="cls-2" d="M337.61,184.49a39.38,39.38,0,0,0,9.1-2.69,27.58,27.58,0,0,0,7-4q2.91-2.37,3.83-2.53a1.46,1.46,0,0,1,1.87,1q-1.85,3.62-7.81,7.63a30,30,0,0,1-11.83,5A28.43,28.43,0,0,1,324,187.32a13,13,0,0,1-8.45-10.5q-1.34-8.1,3.17-16.5t12.79-9.78a25,25,0,0,1,8,.08,17,17,0,0,1,9.51,4.37q3.6,3.46,4.8,10.73,0.52,3.13-.36,4.36a4.25,4.25,0,0,1-2.9,1.57l-7.11,1q-6.93,1-11.34,1.7-5.61.92-7.1,1.32c-1,.26-1.52.62-1.57,1.07Q325.38,186.53,337.61,184.49Zm4.88-28.68q-2.91-3.3-8-2.46-5.34.88-8.76,7.26t-2.82,11.19q0.43,0.88,9.63-.65t11.76-2.61a3.25,3.25,0,0,0,2-3.92A17.27,17.27,0,0,0,342.49,155.81Z"/><path class="cls-1" d="M876.88,143q62.83-8.11,92.6,13.88t31.68,64.4q1.54,34.16-16.32,59.23t-57,32.48c0,21.82.42,27.13,1.76,62.43l-45,3.54Zm72.19,57.68q-8-10.54-23.4-10.22l0.78,75.58q14.19-2.14,22.38-12.49T957,227.45Q957.07,211.27,949.07,200.72Z"/><path class="cls-1" d="M1078.77,416.41l-7.68-59.57c-20,.75-34.66,12.6-46.43,14.1l-16.21,87.92-41.71-3c7-39.59,22-117.6,31.24-160.44s16.91-75.78,22.92-98.84l12.38-62.73,57.5-3.38L1120.86,410ZM1033.3,330c11.27,0,21.13-11.22,32.16-12.22-6.26-46.6-9.11-68.45-11.11-87Q1038.93,297.29,1033.3,330Z"/><path class="cls-1" d="M1266.45,423.79q-19.55,0-46.6.75-29.31-90.94-44.34-165-0.38,37.56,0,80.41t1.13,66.89l0.38,24.05-42.46,2.25q-0.75-77.4-.75-135.09t0.75-91.13l0.38-33.44q25.17-1.13,54.49-3.38l37.2,148.81c0.5-63.14,6.05-133.21,5.3-172l41.71,0.38C1275.38,213.43,1269.2,318.32,1266.45,423.79Z"/><path class="cls-1" d="M1336.43,444.61l-44.34,1.88q-0.37-77.79,0-134.16t0.75-87.93l0.38-31.57,47.35-2.63Z"/><path class="cls-1" d="M1440.61,329.75c2.63-9,.72-12.35,1.47-33.39l45.84-1.88c-0.5,71.4-18.69,95.39-61.79,95.39q-19.54,0-32.88-9.77T1373,351.74a174.83,174.83,0,0,1-9.58-40.21,428,428,0,0,1-2.63-50.92q0-36.07,7.33-65.2t23.3-47.91q16-18.8,38.52-18.79,33.07,0,46,24.8c8.64,16.53,11.71,29.63,10.2,60.44l-42.46,1.88c0.76-11.27.57-11.72-1.56-22.49s-5.82-16.16-11.09-16.16q-20.28,0-23.3,80.42-1.5,40.58,3.76,63.13t15.78,22.55Q1436.67,343.28,1440.61,329.75Z"/><path class="cls-1" d="M1528.62,430.28a25.18,25.18,0,0,1-16.58,4.9,19.57,19.57,0,0,1-14.69-7.19,19.79,19.79,0,0,1-4.61-15.74,21.59,21.59,0,0,1,7.68-14.49,22.25,22.25,0,0,1,15.92-5.1,21.28,21.28,0,0,1,15.36,7.06A20.65,20.65,0,0,1,1528.62,430.28Zm15.68-147.13q-4.51,43.18-7.24,66.08l-2.72,22.57-34.39.4q1.16-53.68,3.16-93.14c1.33-26.3,6.91-99.68,8-114.75l1.72-22.61,43.5,4.69C1554.23,173.66,1547.31,254.37,1544.3,283.15Z"/><path class="cls-3" d="M810.76,438.88a39.35,39.35,0,0,0-7.86-2.67c2.15-1.13,4.33-2.23,6.44-3.42a5.86,5.86,0,0,0,3-4.66c0.07-.48,0-1,0-1.46,0.35-4.17-2.78-7.37-7.84-8.42a44.48,44.48,0,0,0-8-.93c-6.2-.14-12.4-0.07-18.6,0-2.77,0-5.53.16-8.29,0.27-0.57,0-1.14.12-1.73,0.2a7.68,7.68,0,0,0-.27,1.36c0,3.1,0,6.19.07,9.29q0.06,2.93.06,5.87a3.11,3.11,0,0,0-.14,1.14c0,0.74,0,1.48.1,2.23a92.76,92.76,0,0,1-.71,9.66,84.64,84.64,0,0,0-1.39,10c-0.08,1.67,11.22,1.48,15.31,1.18,1.37-.1,2.72-0.51,4.09-0.56a163.75,163.75,0,0,0,18.88-1.73c4.31-.68,8.13-2.26,10.27-5.51,0.87-1.33,1.79-2.87,1.74-4.3C815.85,443.29,814.31,440.61,810.76,438.88Zm-28.05-15.46c3.17-.36,6.38-0.55,9-0.77,2.06,0.25,3.58.31,5,.64,1.93,0.45,3.62,1.26,4,3.09a4.08,4.08,0,0,1-2.6,4.29,10.69,10.69,0,0,1-3.08,1c-3.69.43-7.4,0.73-11.12,1a6.93,6.93,0,0,1-1.78-.1c-1.3-.24-1.73-0.7-1.77-1.8-0.06-1.58-.07-3.16-0.15-4.73S780.68,423.65,782.71,423.42Zm14.34,28.75c-4.65,1-9.45.56-14.19,0.2a7,7,0,0,1-1.17-.19c-1.12-.29-1.33-0.55-1.29-1.52l0.19-4.91h0c0.06-1.53.13-3.06,0.17-4.59s0.28-1.78,2.14-1.92,3.61-.19,5.43-0.22l8.59,0.3c0.8,0.09,1.59.21,2.38,0.34a5,5,0,0,1,4.05,3C805.17,446.92,803.21,450.85,797.05,452.17Z"/><path class="cls-4" d="M814.82,432.18a8.61,8.61,0,0,1,4.29-.27c1.44,0.12,2.87.39,4.3,0.61a4.06,4.06,0,0,1,2.83,1.86c2.47,3.63,5,7.24,7.49,10.85a4.34,4.34,0,0,0,.56.53,4.84,4.84,0,0,0,.92-0.65c2.39-2.72,4.74-5.47,7.13-8.18q2.19-2.5,4.48-4.93a1.56,1.56,0,0,1,1-.46c2.56,0,5.12,0,7.67.06a1.72,1.72,0,0,1,.54.29,10.68,10.68,0,0,1-.43,1c-1.74,2.95-4.17,5.35-6.33,8-3.41,4.11-6.71,8.33-10,12.49A22.37,22.37,0,0,0,837.2,456a2.71,2.71,0,0,1-2.76,1.42,8.54,8.54,0,0,0-1.67.08,3.24,3.24,0,0,1-3.61-2c-1.06-2.08-2.24-4.1-3.42-6.12a135.12,135.12,0,0,0-8.83-13.57,33,33,0,0,1-2.08-3.59"/><path class="cls-4" d="M837,459c0,2.45.07,4.89,0.05,7.34a15.69,15.69,0,0,1-.23,2.15,1.14,1.14,0,0,1-1.11,1.06c-1.55.12-3.1,0.28-4.66,0.3a1.35,1.35,0,0,1-1.52-1.42,17.33,17.33,0,0,1-.08-2.82c0.06-1.67.17-3.34,0.27-5a47.85,47.85,0,0,0-.17-8.32,11.33,11.33,0,0,1-.09-1.16c0-1.41.21-1.68,1.58-1.77s2.77-.14,4.16-0.14c1.68,0,1.9.22,1.95,2s0,3.67,0,5.5c0,0.77-.06,1.55-0.09,2.33h0"/><path class="cls-4" d="M749.58,518.69c0.31-1.19.19-1.83,1.35-1.84a16.7,16.7,0,0,0,3.31.13c1.86-.1,3.61-0.37,4,0.31s-0.85,6.77-3.37,9.35a18.23,18.23,0,0,1-4.55,3.21c-4.64,2.46-14.1,3.37-19.7,2.6a33.07,33.07,0,0,1-13.22-4,20,20,0,0,1-8.17-9.43,18.16,18.16,0,0,1-1.59-11.28,26,26,0,0,1,1.72-5.06,15.52,15.52,0,0,1,3.29-4.72,29.91,29.91,0,0,1,2.28-2.62,23.78,23.78,0,0,1,10-5.07,49.59,49.59,0,0,1,13-.71,35.48,35.48,0,0,1,10.72,2.21,25.24,25.24,0,0,1,8.53,5.35,12.32,12.32,0,0,1,3,3.59c0.09,0.19.22,0.36,0.31,0.54,0.86,1.62.62,2-1.22,2.11-3.42.14-6.85,0.25-10.27,0.41a1.82,1.82,0,0,1-1.9-.85c-2.7-4.79-11.23-7-16.76-5.26a17.34,17.34,0,0,0-5.55,2.8,8.67,8.67,0,0,0-2.63,3.06c-0.6,1.27-1.17,2.54-1.74,3.81a3.38,3.38,0,0,0-.24.83,19.09,19.09,0,0,0,1,9.72,6.4,6.4,0,0,0,2.89,3.28,17.27,17.27,0,0,0,6.41,2.3c9.39,1.08,13.53,1.32,16.8-1C748.9,521.36,749.08,520.59,749.58,518.69Z"/><path class="cls-4" d="M855.64,490.79c4.07,0,8.16-.13,12.24-0.1A28.81,28.81,0,0,1,879,492.78c3.81,1.6,7.13,3.87,9.12,7.55,3.14,5.77,3.57,11.63.5,17.61-1.68,3.28-4.41,5.64-7.2,7.95a22.63,22.63,0,0,1-9.73,4.78,49.67,49.67,0,0,1-8.88,1.13c-6.52.17-13.06,0.09-19.59,0.07a42.1,42.1,0,0,1-4.48-.25c-2-.21-2.28-0.62-2.08-2.58,0.57-5.57,1.31-11.12,1.72-16.69,0.47-6.18.62-12.36,1-18.53,0.17-3-.61-3.23,3.43-3.21,4.28,0,8.56-.06,12.85-0.1v0.29Zm-5.23,21.34h0c-0.12,2.64-.26,5.26-0.34,7.89-0.06,2.09.24,2.35,2.28,2.79a29.31,29.31,0,0,0,7.71.5,25.52,25.52,0,0,0,10.52-2.79,8.34,8.34,0,0,0,4.78-7.12,16.82,16.82,0,0,0-2.17-9.33,6.44,6.44,0,0,0-5.26-3.61,45.85,45.85,0,0,0-5.07-.44c-3,0-6,.26-9,0.46-2.55.18-2.91,0.51-3.08,3-0.2,2.89-.31,5.79-0.46,8.67"/><path class="cls-4" d="M999.69,525.91a13.89,13.89,0,0,1,0-2.39,70.43,70.43,0,0,0,.9-13.5c-0.06-6.58-.36-13.16-0.61-19.74-0.06-1.66-.38-3.31-0.45-5s0.17-1.93,2.37-2.11a10.64,10.64,0,0,1,1.38-.09c7,0.41,14-.29,20.95-0.39a77.5,77.5,0,0,1,14.37,1.28,51.47,51.47,0,0,1,11.08,2.91c4.2,1.74,6.14,4.66,6.42,8.1,0.13,1.6-.85,3.38-1.79,4.91-2.31,3.77-6.64,5.73-11.6,6.73a197.65,197.65,0,0,1-21.79,2.93,41.37,41.37,0,0,0-4.71.85,1.65,1.65,0,0,0-1.42,1.82c-0.21,3.26-.44,6.52-0.68,9.78-0.06.71-.17,1.42-0.28,2.13a1.46,1.46,0,0,1-1.55,1.11c-2.82.26-5.64,0.57-8.47,0.76-1.27.09-2.57-.07-4.1-0.13M1015,496.22h0l0,5.51c0,1.09.27,1.38,1.58,1.63a7.92,7.92,0,0,0,1.36.16c5.53,0.15,11.11.4,16.44-1,7.07-1.82,9.12-6.31,6.76-11a5.79,5.79,0,0,0-4.86-3.16c-1.28-.14-2.58-0.3-3.87-0.32-2.31,0-4.61,0-6.91.07-2.75.13-5.51,0.32-8.24,0.65-2.14.26-2.4,0.66-2.37,2.26s0,3.44,0,5.16"/><path class="cls-4" d="M821.05,489.27c-3.9,2.84-8.33,4.31-12.33,6.51s-8.14,4.18-12.32,6.31a4.47,4.47,0,0,0,.66,1.12c3.52,2.93,5.68,6.85,8.31,10.43a31.25,31.25,0,0,0,2.12,2.74c1.57,1.75,3.13,2,5.13.65a13.88,13.88,0,0,0,2.35-2.19c0.9-1,1.73-2,2.59-3a2,2,0,0,1,2.68-.51c1.81,0.87,3.68,1.62,5.53,2.44,2.19,1,2.69,2,1.54,4a26.76,26.76,0,0,1-3.51,5.08,19.2,19.2,0,0,1-26.24,1.36c-1.81-1.6-2.94-3.93-4.32-6-1.15-1.7-2.09-3.55-3.32-5.2-3-4-7.69-4.92-12.11-2.48a2.06,2.06,0,0,0-1,2.07c0,2,0,4.08,0,6.12-0.07,3-.2,6-0.31,9.05a9.05,9.05,0,0,1-.19,1.13,1.3,1.3,0,0,1-.44.37c-2.84.18-5.68,0.49-8.53,0.47-1.81,0-2-.34-2.19-2a36.25,36.25,0,0,1-.31-3.67q-0.35-10.76-.64-21.52c-0.14-5.23-.23-10.45-0.34-15.67,0-.57,0-1.14,0-1.72a1.38,1.38,0,0,1,1.5-1.58c3.37-.06,6.72-0.07,10.36-0.1,0.71,2.21.65,4.57,0.87,6.87s0.13,4.67.18,7.28a14.58,14.58,0,0,0,2.2-.53c5.09-2.17,10.2-4.3,15.22-6.6a140.81,140.81,0,0,0,18.1-9.8c1.55-1,2.08-.88,3.18.51q2.44,3.1,4.8,6.26a10.9,10.9,0,0,1,.84,1.77"/><path class="cls-4" d="M701.65,530.87c-1.25,0-2.35,0-3.44,0-8.65.5-17.3,1-26,1.53a19.57,19.57,0,0,1-2.76,0c-1.35-.1-1.63-0.27-1.8-1.56a45.91,45.91,0,0,1-.45-5.31c-0.06-2.47.07-4.95,0-7.43-0.12-7.68-.29-15.36-0.43-23,0-.68.1-1.37,0.15-2.09a14.72,14.72,0,0,1,5.35-.53,96.13,96.13,0,0,0,12.19-.45c5.22-.57,10.45-1,15.67-1.55a12.82,12.82,0,0,1,1.57-.08c1.18,0,1.56.33,1.59,1.48a43.82,43.82,0,0,1-.14,4.57,1.4,1.4,0,0,1-.76,1,5.53,5.53,0,0,1-1.91.37c-5.91.2-11.81,0.33-17.72,0.55a40.33,40.33,0,0,0-4.88.49c-1.33.21-1.65,0.64-1.63,2,0,1.65.09,3.31,0.23,4.95s0.81,2.37,2.58,2.54a14,14,0,0,0,2.36,0c4.44-.35,8.89-0.74,13.33-1.12,1.41-.12,1.81.16,1.88,1.51a31.49,31.49,0,0,1,0,3.43c-0.09,1.65-.61,2.1-2.3,2.21-2.75.16-5.51,0.28-8.25,0.53-2.41.23-4.81,0.59-7.21,0.95-1.38.21-1.54,0.43-1.54,1.74,0,1.84,0,3.68,0,5.52s0.5,2.26,2.38,2.21A174.38,174.38,0,0,0,699,523.91c1.75-.25,2-0.14,2.29,1.48a19.17,19.17,0,0,1,.32,5.48"/><path class="cls-4" d="M972.75,490.9c6.44-.06,11.9-0.12,17.36-0.15,1.64,0,1.83.15,1.9,1.66s0.07,2.72,0,4.08c-0.05,1.71-.28,1.9-2.13,2-1,0-2.07,0-3.11,0l-16.39,0H970q-4.66.13-3,4.47a1.77,1.77,0,0,0,2,1.07c1.55,0,3.1-.09,4.64-0.1,4,0,8-.16,12,0,4.36,0.13,4.67.18,4.46,4.65-0.2,4.32.14,4-4.48,4.15-5.24.16-10.49,0.14-15.73,0.21-2.31,0-2.45.15-2.54,2.47,0,1.07,0,2.14,0,3.21a1.3,1.3,0,0,0,1.33,1.42c1.25,0.07,2.51.06,3.76,0.05,4.28,0,8.57-.12,12.85-0.09,1.24,0,2.48.33,3.73,0.45a1.71,1.71,0,0,1,1.77,1.82,30.69,30.69,0,0,1-.16,4.28c-0.2,1.62-.8,2.08-2.54,2-3.25-.15-6.49-0.37-9.74-0.57a140.85,140.85,0,0,0-17.93-.24c-1.47.1-3,.17-4.43,0.16-1.88,0-2.43-.45-2.45-2.26s0.22-3.85.3-5.78q0.24-5.35.42-10.72c0.17-5.15.3-10.29,0.49-15.44,0.06-1.72.44-2.1,2.29-2.17,5.61-.24,11.23-0.41,15.86-0.58"/><path class="cls-4" d="M619.38,494.21a22.61,22.61,0,0,0-1,3.11c-0.7,5-1.39,10-2,15q-0.71,6.1-1.17,12.22a2.23,2.23,0,0,1-2.11,2.35c-2,.28-4.09.51-6.14,0.59-3.06.12-3.41-.3-3.27-3.18,0.13-2.72.32-5.45,0.27-8.17-0.16-7.75-.64-15.51-0.56-23.25,0.05-5.76.76-11.5,1.21-17.24a11.73,11.73,0,0,1,.41-1.84,3.26,3.26,0,0,1,3.33-2.81c3.14-.21,6.25-0.66,9.37-1a3.34,3.34,0,0,1,3.12,1.28c2.12,2.51,4.36,4.95,6.46,7.47,5.45,6.52,10.83,13.09,16.31,19.58a4,4,0,0,0,2.59,1.5c1.35,0,1.87-1.34,2.09-2.47a45.66,45.66,0,0,0,.65-5c0.45-5.55.74-11.1,1.28-16.63,0.41-4.15.94-4.42,5.17-3.52,1.37,0.3,2.74.63,4.11,1a2.34,2.34,0,0,1,2,2.77c-0.41,7.44-.72,14.88-1.06,22.31-0.24,5.35-.42,10.69-0.74,16-0.14,2.29-.62,4.57-0.85,6.86a3,3,0,0,1-2.27,2.73c-2,.71-4,1.53-6.06,2.3-2.74,1-3.54.84-5.22-1.46-2.62-3.59-4.94-7.44-7.88-10.77-5.13-5.81-9.39-12.34-15.23-17.57-0.74-.66-1.6-1.21-2.83-2.13"/><path class="cls-4" d="M917.82,535.33c-7.06.06-14.11,0.14-21.17,0.18-1.95,0-2.7-.55-3.28-2.31a7.29,7.29,0,0,1-.3-1.53c-0.87-7.71-1.66-15.42-.74-23.2,0.5-4.21.63-8.45,0.93-12.68a17.79,17.79,0,0,1,.26-2.16c0.66-3.33,1.66-4,5.21-4.11,5.24-.11,10.47-0.34,15.7-0.47,4-.1,7.91-0.06,11.85-0.17,4.16-.11,8.32-0.3,12.47-0.5,2.66-.12,3.34.39,3.05,3-0.5,4.6,0,6.3-6.63,6.49l-22.44.65c-0.75,0-1.5,0-2.24.08-2.05.2-2.42,0.55-2.71,2.38-0.53,3.4.58,4.58,4.17,4.44,7.15-.29,24.85-1,32-1.21,4.69-.15,5.11.35,4.79,4.94-0.42,6.21-.75,4.91-5.6,5.84-6.49,1.23-23.56.87-30.06,1.2-0.32,0-.64,0-1,0-5.2.37-5.41-.17-5.42,6,0,2,.71,2.59,2.68,2.75a17.81,17.81,0,0,0,2.24,0c5.34-.19,10.68-0.43,16-0.54,3.84-.09,7.69-0.06,11.53,0,3.07,0.06,3.69.77,3.59,3.8,0,0.31-.05.62-0.08,0.92-0.39,4.59-.72,4.77-5.37,4.94-6.51.25-13,.68-19.52,1v0.23Z"/><path class="cls-5" d="M1069.08,511.54c2.29-.7,4.8-0.27,7.41-0.19,3.58,0.1,6.89-1.37,10.39-.76,3.07,0.53,5.48,2.24,8.91,1.35,1.28-.33,2.12-1.14,3.26-1.45a15.88,15.88,0,0,1,5.93-.4c3.85,0.52,7.37,3.26,11.14,2.81a17.82,17.82,0,0,0,3.4-1.22,16.23,16.23,0,0,1,3.46-.62c4.12-.34,7.54,1.54,12,1.86,2.11,0.15,4.1-.45,6.27-0.56,2.71-.13,5.28.61,8,1a0.35,0.35,0,0,1-.21.27,21.23,21.23,0,0,0-3.76.16c-1.16.13-2.19,0-3.28,0.11-2.16.26-4.19,0.92-6.22,1-4.36.26-8.42-2-12.35-1.58-3,.32-5.86,1.94-8.79,2.05-3.95.14-7-2.7-11.28-2.92-2.28-.12-5.13,1.55-7.95,2a14.55,14.55,0,0,1-6.4-.65,23.27,23.27,0,0,0-3.41-1.09c-3.06-.42-5.72.85-8.72,0.46-1.25-.16-2.48-0.7-3.75-0.93A26.56,26.56,0,0,1,1069.08,511.54Z"/><path class="cls-5" d="M1070.33,503.11c1.73-.63,3.43.08,5.22-0.2a14.89,14.89,0,0,1,2.38-.5c2.67,0,5.15,1.53,8.51,1,1.84-.28,3-1.12,4.62-1.23a21,21,0,0,1,4.53.24c2.4,0.34,5,1.63,8.14.94a22.68,22.68,0,0,1-4.75,1.13c-2.11,0-4.27-.63-6.39-0.53s-4.07,1-6.82,1.11a12.8,12.8,0,0,1-4.06-.41,19.44,19.44,0,0,0-3.53-1.08C1075.53,503.36,1072.64,504.39,1070.33,503.11Z"/><path class="cls-5" d="M1067.41,496.36c2.62-.58,5.71-0.41,8.93-0.72s6.18,0.43,8.89,0c2.34-.37,4.48-1.52,7.12-1.75s4.9,0.42,7.6.39c3.12,0,4.83-1.92,7.34-1.89,4.52,0,9,2,14.47.87-3,.87-6,2-9.68,1.66-1.32-.12-2.59-0.65-3.84-0.56-2.24.17-4.75,1.87-7.56,2.16-2.59.27-5.44-.76-8.22-0.57s-5.65,1.61-8.59,1.66c-2.18,0-4.37-.63-6.54-0.75C1074,496.68,1070.64,497.33,1067.41,496.36Z"/><path class="cls-5" d="M1064.43,490.23c2.93-.6,5.67-1.43,8.7-1.8,2.46-.3,5,0.2,7.52-0.33,1.49-.32,2.55-1.22,3.94-1.88,3.66-1.76,8.5.44,12.81-.91,1.61-.5,2.7-1.79,4.26-2.29,4.14-1.33,8.67.28,12.37-.49-1.78.22-3.23,1.16-5.07,1.52s-4-.18-5.8.39c-2.86.9-4.9,2.8-8.67,3.13-2.2.19-4.5-.6-7-0.34-1.6.17-4.26,1.91-6.32,2.39-2.83.65-6.74,0-10.07,0.36A29.21,29.21,0,0,1,1064.43,490.23Z"/><path class="cls-5" d="M1059,484c2-.11,3.38-0.89,5-1.39,0.94-.3,2-0.36,2.73-0.66,1.28-.53,2.07-1.37,3.22-1.69,1.82-.49,4.75-0.43,7.08-1a31,31,0,0,0,3.7-3c1-.17,1.7-0.94,2.78-1.27,4-1.25,9.48-.06,11.8-1.28,1.95-2.45,6-3.85,9.77-4.23,2.54-.26,5.17.62,7.89-0.25,2.35-.75,4.22-2.39,6.73-3,4.15-1.08,8.2-.32,12.37-1.59-1.26.52-2.33,1.3-3.58,1.85-2.17,1-4.94.79-7.37,1.65-3,1.05-5.18,2.89-8.26,3.57a22.22,22.22,0,0,1-4.57.5,27.7,27.7,0,0,0-4.51,0c-2.88.51-5,3.09-8,4.15a16.15,16.15,0,0,1-4.17.82c-1.42.1-2.87-.36-4.65-0.23-3.83.29-6.43,3.83-10.56,4.8-1.85.43-3.84,0.19-5.42,0.59-1.42.36-2.76,1.36-4.32,1.69A16.58,16.58,0,0,1,1059,484Z"/><path class="cls-5" d="M513.69,473.34c-0.45.49,0.84,0.57,1.36,0.8a30.86,30.86,0,0,0,5.8,2.26c3.18,0.65,6.11.74,8.88,2.08,3.95,1.91,7.5,3.93,11.94,3.84,2,0,3.88-.7,6.29.5,3.3,1.65,6.14,4.54,10.15,5.31a17.14,17.14,0,0,0,3.38.34c1.19,0,2.12-.62,3.51-0.62,4.11,0,6.63,3.31,10.55,4.14,1.65,0.35,3.37.19,5,.44,3.57,0.56,6.71,2.16,10.18,2.38-1-1-2.48-1.19-3.67-1.73s-2.29-1.33-3.54-1.83c-2.62-1-5.79-.66-8.33-1.64s-4.09-2.84-6.59-3.6a21.81,21.81,0,0,0-6.29-.5,29.06,29.06,0,0,1-3.58.24c-1.78-.19-4-1.69-5.73-2.74-2-1.21-3.34-2.61-5.32-3.06-3.05-.68-6,0.21-8.91-0.12-4-.46-7.39-3.71-11.72-4.55-2.15-.41-4-0.22-6.29-0.5-1-.12-2.15-0.53-3.33-0.7A19.8,19.8,0,0,1,513.69,473.34Z"/><path class="cls-5" d="M551.79,493.13c3.36,0.19,5.74,2,8.27,3a13.88,13.88,0,0,0,4.94,1.41c1.07,0,1.9-.36,3.1-0.3a13,13,0,0,1,3.57.73c1.78,0.61,3.28,2.07,5.16,2.42a13,13,0,0,0,1.71,0c2,0.11,3.75,1.1,5.57,1.26-1.8-1.79-4.43-1.88-6.88-2.42a13.15,13.15,0,0,1-3.42-1.81c-3-1.72-5.31-1.74-9-2-1.83-.12-3.15-0.24-4.48-1.23C557.8,493.57,554,492.38,551.79,493.13Z"/><path class="cls-5" d="M527.06,498.77a37.29,37.29,0,0,1,8.5,2.15c1.94,0.78,3.71,2,5.82,2.14,2.55,0.15,5.06-1,7.84-.14a35.75,35.75,0,0,0,7.07,2c2.21,0.26,4.48-.4,6.88-0.27a17.29,17.29,0,0,1,3.88,1.14,31.3,31.3,0,0,0,4.65.88c3.11,0.45,6,1.12,9,1.36-2.67-1.66-6.55-1.89-9.76-2.81-2-.59-4-1.71-6.06-2.18-2.81-.64-5.83.21-8.77-0.23-2.3-.34-4.48-1.78-6.78-2.28a15,15,0,0,0-4.62-.15c-1.56.17-3.15,0.62-4.69,0.33-2.41-.46-4.45-2-6.91-2.17C531,498.36,529.29,499,527.06,498.77Z"/><path class="cls-5" d="M508.9,522.43c4.2-.09,7.74,1.64,12.37,1.58,3.12,0,5.92-1.53,8.73-1.24,3,0.31,6.25,1.86,9.51,1.92,0.41,0,.92-0.15,1.37-0.18a10.2,10.2,0,0,0,5.88-1.88c0.65,0.1,1.34-.15,2.21-0.06,2.56,0.27,5.27,1.41,8.21,1.62,3.1,0.22,5.39-1.17,7.63-2.13,0.3-.13.91,0.11,0.92-0.49,0.43,0.48,1,.16,1.44.2,2.76,0.24,5.4,1,7.38.53,0.56-.12,1-0.54,1.56-0.64,1.73-.35,3.25.21,5.24,0.11,1.26-.07,2.61-0.51,4.06-0.17-0.88-1.21-4-1.37-5-1.55a21.7,21.7,0,0,0-4.1-.44c-1.26,0-2.41.56-3.75,0.59-1.89,0-3.72-.74-5.52-0.76-3.19,0-5.17,1.41-8,2-3.94.78-7.25-1.88-12-1.41a22.5,22.5,0,0,0-4.41,1c-1.49.48-2.79,1.21-4.31,1.12a24.23,24.23,0,0,1-4.37-1.09,20.11,20.11,0,0,0-4.44-.61c-3.85-.08-7.54,1.79-11.45,1.48A26.79,26.79,0,0,0,508.9,522.43Z"/><path class="cls-5" d="M532.89,509.72a23.83,23.83,0,0,0,3.91.9c2.93,0.66,6.35,2.34,9.94,1.49,1.69-.4,2.94-1.06,5.23-0.75,3,0.4,5.95,2.17,8.86,2.2,1.92,0,3.8-1.09,5.65-1.06,2.87,0.06,5.61,1.36,8.71,1.57,2.8,0.19,5.27.35,7.65,0.32l-0.36,0c-2-1.14-6-1-9.27-1.89a37.75,37.75,0,0,0-6.16-1.46c-2.27-.19-4.42.71-6.83,0.77a21.09,21.09,0,0,1-3.76-1.13,17.75,17.75,0,0,0-8.33-.78,41.4,41.4,0,0,1-4.52.84c-1.78,0-3.43-1-5.11-1.07S534.92,510.12,532.89,509.72Z"/><path class="cls-4" d="M408.54,98.53c0.35-1,.32-1.55,1.24-1.55a12.52,12.52,0,0,0,2.63.14c1.49-.07,2.91-0.28,3.2.29s-1.28,5.72-3.51,7.88a16.6,16.6,0,0,1-3.91,2.68c-3.92,2-11.55,2.74-15.95,2a25.41,25.41,0,0,1-6.54-1.59,26.63,26.63,0,0,1-3.66-1.88,14.69,14.69,0,0,1-5.69-8,15.85,15.85,0,0,1-.28-9.54,24.77,24.77,0,0,1,1.82-4.26,15,15,0,0,1,3-4,28.29,28.29,0,0,1,2-2.19,20.84,20.84,0,0,1,8.41-4.21,37.61,37.61,0,0,1,10.42-.5,25.46,25.46,0,0,1,8.36,1.95,17.66,17.66,0,0,1,6.33,4.59,9,9,0,0,1,2.11,3.06c0.05,0.16.14,0.31,0.2,0.46,0.54,1.38.31,1.73-1.16,1.78-2.75.09-5.49,0.15-8.24,0.26A1.29,1.29,0,0,1,408,85.2c-1.74-4.06-8.34-6-12.91-4.56A15.12,15.12,0,0,0,390.37,83,8.34,8.34,0,0,0,388,85.52c-0.59,1.06-1.16,2.14-1.72,3.21a3,3,0,0,0-.26.7,16.76,16.76,0,0,0,0,8.21,4.63,4.63,0,0,0,2,2.79,12.06,12.06,0,0,0,4.91,2c7.4,1,10.68,1.22,13.49-.72C407.76,100.79,408,100.14,408.54,98.53Z"/><path class="cls-4" d="M484.29,89.58c0.21,0.88.11,1.37,0.93,1.37a11.06,11.06,0,0,1,2.33-.13c1.31,0.07,2.54.25,2.85-.25s-0.5-5.05-2.23-7A12.26,12.26,0,0,0,485,81.25c-3.23-1.8-9.89-2.41-13.85-1.8a24.61,24.61,0,0,0-5.94,1.41,25.66,25.66,0,0,0-3.44,1.66,15.4,15.4,0,0,0-5.91,7.09A14.42,14.42,0,0,0,454.58,98a19.53,19.53,0,0,0,1.13,3.76,11.18,11.18,0,0,0,2.25,3.49,20.93,20.93,0,0,0,1.56,1.94,15.85,15.85,0,0,0,7,3.71,32.88,32.88,0,0,0,9.14.44,24.44,24.44,0,0,0,7.58-1.72,18.52,18.52,0,0,0,6.09-4.05,9.36,9.36,0,0,0,2.2-2.7c0.07-.14.16-0.27,0.23-0.4,0.62-1.22.47-1.53-.83-1.57-2.41-.08-4.82-0.14-7.23-0.23a1.3,1.3,0,0,0-1.35.65c-2,3.59-8,5.32-11.89,4a11.52,11.52,0,0,1-3.87-2.05,6.1,6.1,0,0,1-1.81-2.26c-0.4-.94-0.78-1.89-1.16-2.83a2.49,2.49,0,0,1-.16-0.62,15.08,15.08,0,0,1,.88-7.25,4.84,4.84,0,0,1,2.09-2.46,12.06,12.06,0,0,1,4.55-1.76c6.63-.87,9.56-1.08,11.82.63C483.85,87.59,484,88.17,484.29,89.58Z"/><path class="cls-4" d="M422.19,106.38c0-1.2,0-2.34,0-3.49,0.07-2,.16-4,0.29-6,0.19-2.85.52-5.7,0.62-8.55,0.16-4.74.23-9.47,0.27-14.21,0-2.18.05-2.25,2.2-1.91,0.83,0.13,1.68.15,2.53,0.2s1.52,0,2.27.12,1,0.28,1,1.16q-0.05,3.9-.12,7.8-0.08,5.69-.17,11.39c0,2.13-.08,4.27-0.12,6.4,0,0.17,0,.35,0,0.51,0,0.92.24,1.17,1.11,1.19,1.27,0,2.54,0,3.82,0,2.75-.15,5.49-0.37,8.24-0.53,1.44-.08,2.88-0.13,4.32-0.16,1.21,0,1.39.2,1.36,1.42s0,2.3,0,3.45-0.08,1.21-1.12,1.22c-3.6,0-7.2,0-10.81.09-3.13,0-6.26.13-9.4,0.17-1.78,0-3.56,0-5.34-.05a4.91,4.91,0,0,1-.88-0.19"/><path class="cls-4" d="M450.45,68.32c0.07,1,.23,2,0.22,3,0,2.27-.13,4.54-0.23,6.81-0.23,4.85-.48,9.69-0.71,14.54,0,0.75,0,1.51,0,2.27,0,0.59-.07,1.18-0.12,1.9-0.86.1-1.62,0.23-2.37,0.28-1.55.11-3.1,0.17-4.65,0.28a0.94,0.94,0,0,1-1.15-1c-0.06-1.26-.2-2.52-0.13-3.77,0.36-6.72.66-13.43,0.47-20.16a22.55,22.55,0,0,1,.25-3,1.15,1.15,0,0,1,.91-1,27.49,27.49,0,0,1,7.56-.12"/><path class="cls-4" d="M533.93,72.62c-1.67.91-3.14,1.68-4.58,2.49q-5.5,3.11-11,6.26a19.19,19.19,0,0,0-2.17,1.42c-1,.73-1,1.33-0.13,2.14a22.24,22.24,0,0,1,5.66,8.62A5.07,5.07,0,0,0,524,96a2.85,2.85,0,0,0,3.81-.6,23.35,23.35,0,0,0,1.78-2.69c0.23-.35.41-0.73,0.69-1.22a11.69,11.69,0,0,1,3.71,3,1.55,1.55,0,0,1,.12,1.33,8,8,0,0,1-2.74,3.35,15.7,15.7,0,0,1-9.18,2.67,6.84,6.84,0,0,1-4-1.24,11,11,0,0,1-4.42-5.46,17.2,17.2,0,0,0-1.51-3.41c-1.32-2.22-3.07-2.68-5.39-1.55-1,.5-2,1-3,1.53a3.32,3.32,0,0,0-2,3.38,35.17,35.17,0,0,1-.2,4.72c-0.34,3.09-.39,2.73-3.3,2.93a3,3,0,0,1-.49,0c-3.34-.4-3.27-1.26-3.18-3.7,0.25-7.55.43-15.11,0.64-22.66q0.07-2.44.16-4.89c0-1.2.3-1.49,1.45-1.38,1.45,0.14,2.88.39,4.33,0.56A1.32,1.32,0,0,1,502.55,72c0.08,1.14.23,2.28,0.21,3.41,0,2-.21,3.91-0.31,5.86a3.51,3.51,0,0,0,.05,1,1,1,0,0,0,1.45.85,9.35,9.35,0,0,0,1.9-.91c4.25-2.69,8.53-5.32,12.53-8.4,1.8-1.38,3.78-2.52,5.66-3.78,0.72-.48,1.41-1,2.11-1.5,1.14-.8,1.5-0.84,2.62-0.06q2.07,1.43,4.07,2.95a8.88,8.88,0,0,1,1.1,1.22"/><path class="cls-4" d="M602.74,156.93a2.22,2.22,0,0,1-.2.53,21.21,21.21,0,0,1-6,5.7c-1,.6-1.89,1.25-2.89,1.79-4.59,2.48-9.35,3.26-14.15.79a20.73,20.73,0,0,1-9.31-9.26c-0.9-1.78-1.95-3.49-2.86-5.27a7.59,7.59,0,0,0-4.56-3.63,11.28,11.28,0,0,0-3.06-.48c-1.23-.07-1.56.28-1.55,1.49,0,1.86.13,3.73,0.18,5.6s0.11,3.46.11,5.19c0,1-.14,1.19-1.18,1.23-1.94.06-3.89,0.09-5.83,0.09-0.75,0-.92-0.18-1-1s-0.1-1.73-.16-2.59c-0.38-5.59-.77-11.18-1.13-16.77-0.17-2.63-.24-5.28-0.39-7.91-0.09-1.5-.24-3-0.35-4.49s0.25-2.12,1.77-2.27c4.77-.46,9.54-0.94,14.32-1.27a19.59,19.59,0,0,1,7,.59c3.56,1.05,6.7,2.85,8.7,6.11a13.54,13.54,0,0,1,1.55,4.2c0.47,2.18-.66,3.92-2.16,5.32A16.3,16.3,0,0,1,574.9,144a4.34,4.34,0,0,0-.61.31c-0.77.49-.83,0.93-0.14,1.47a18.15,18.15,0,0,1,4,4.25,17.38,17.38,0,0,1,1.24,2.25,24.64,24.64,0,0,0,3.63,6.38,8.39,8.39,0,0,0,2,1.81c3,1.65,5.1,1,6.82-1.74,0.36-.58.69-1.17,1-1.78a1,1,0,0,1,1-.62l8.41,0.37a1.77,1.77,0,0,1,.52.23m-45-21.44c0,0.73,0,1.19,0,1.64s0,0.91,0,1.36c0,1.56.39,2,1.94,2.22a20.26,20.26,0,0,0,8.55-1,7.16,7.16,0,0,0,3.44-2.34,2.74,2.74,0,0,0,.49-2.82,5.73,5.73,0,0,0-4.47-4,24.16,24.16,0,0,0-8.49.4c-1.17.23-1.47,0.69-1.47,1.94,0,1,.06,1.91.09,2.59"/><path class="cls-4" d="M621.09,153.09a19.53,19.53,0,0,1,1-1.93c0.81-1.22,1.75-2.35,2.5-3.6,1.91-3.19,3.73-6.44,5.62-9.65a29.59,29.59,0,0,1,2-3.07,47,47,0,0,0,6-10.48,1.93,1.93,0,0,1,2-1.43c3.16,0.08,6.31.1,9.47,0.13a1.61,1.61,0,0,1,1.57,1c4.29,7.88,8.62,15.74,12.92,23.62a14.57,14.57,0,0,1,1.26,3c0.39,1.39,0,2-1.32,2.28-1.84.4-3.71,0.62-5.57,0.87a2.29,2.29,0,0,1-2.22-1c-1.25-1.65-2.6-3.23-3.69-5a3.44,3.44,0,0,0-3.29-1.79c-3.45,0-6.92-.2-10.37-0.31l-1.82-.06a2.44,2.44,0,0,0-2.19,1.08c-0.78,1.09-1.67,2.1-2.39,3.23a5,5,0,0,1-3.8,2.53l-6.52.69a6.78,6.78,0,0,1-1.13-.14M640.95,137c1.74,0.68,4.46.47,5.6-.42a16.22,16.22,0,0,0-2.57-4.71c-1.12,1.85-2.5,3.21-3,5.13"/><path class="cls-4" d="M702.3,131.75a16.3,16.3,0,0,0-1.32,1.4c-2.59,3.46-5.14,6.95-7.72,10.41-0.72,1-1.52,1.86-2.29,2.78s-1.4,1.59-2,2.46a2.48,2.48,0,0,1-2.73,1.11c-1.22-.23-2.43-0.5-3.65-0.73a2.36,2.36,0,0,1-2-1.76c-1-3.3-2.16-6.58-3.31-9.85-0.46-1.31-1.06-2.58-1.64-3.85a2.4,2.4,0,0,0-.65-0.58,4.52,4.52,0,0,0-.65,2.41c-0.33,4.18-.64,8.36-1,12.53-0.15,1.68-.4,3.35-0.64,5-0.16,1.08-.31,1.22-1.36,1.31-2.24.19-4.49,0.35-6.73,0.48-1.13.07-1.39-.2-1.33-1.32,0.3-5.86.62-11.73,0.92-17.6q0.31-6.13.57-12.27c0.1-2.31.16-4.62,0.27-6.93,0-1.07.22-1.26,1.28-1.33,3.29-.21,6.59-0.35,9.88-0.57a1.62,1.62,0,0,1,1.82,1.21q2.69,6.69,5.49,13.35c0.46,1.11,1.05,2.16,1.56,3.25,0.74,1.57,1.45,3.14,2.17,4.72,0,0.09.07,0.18,0.12,0.26,0.52,0.91,1,1,1.62.18s1.3-1.67,1.91-2.53c2.38-3.32,4.7-6.67,7.11-10,2-2.67,4-5.28,6-7.92a2.17,2.17,0,0,1,1.65-1c2.29-.17,4.57-0.4,6.86-0.58a6.38,6.38,0,0,1,1.09.1c0,0.55,0,1-.05,1.48-0.15,3.17-.34,6.35-0.44,9.52-0.14,4.43-.25,8.86-0.29,13.29,0,3.32.07,6.64,0.11,10,0,0.29,0,.58,0,0.86-0.07,1.67-.16,1.84-1.78,2-2.28.19-4.58,0.27-6.87,0.38a4.92,4.92,0,0,1-.71-0.06,1,1,0,0,1-1-1.14c0.06-2,0-3.95.13-5.92a103.93,103.93,0,0,0,.25-12.42,2.93,2.93,0,0,0-.66-2.14"/><path class="cls-4" d="M490.17,149.15a10.71,10.71,0,0,1,1.59-.19c2,0.08,4,.21,6,0.32a2,2,0,0,1,1.75,1.15,8.79,8.79,0,0,0,5.81,4.5,20.07,20.07,0,0,0,12.46-1.33,5.33,5.33,0,0,0,2.78-3.19,1.93,1.93,0,0,0-.15-1.76,4.9,4.9,0,0,0-2.34-2.15,11.17,11.17,0,0,0-4.33-1q-4,0-8-.13a18.07,18.07,0,0,1-6.56-1.36,11.53,11.53,0,0,1-5.91-5.38c-1-2-.82-4.09-0.43-6.2s1.94-3.69,3.64-5a13.46,13.46,0,0,1,4.21-2.19c1.12-.34,2.19-0.81,3.31-1.15a19.72,19.72,0,0,1,5.53-.68,55.38,55.38,0,0,1,8.37.59,20.58,20.58,0,0,1,5.69,1.88c2.62,1.23,3.67,3.49,4,6.2a11.38,11.38,0,0,1,0,1.83,1,1,0,0,1-1,1c-1.58.12-3.16,0.24-4.74,0.34a1.79,1.79,0,0,1-1.57-.76c-0.6-.78-1.34-1.46-1.88-2.28a7.3,7.3,0,0,0-4.36-2.89,14.56,14.56,0,0,0-8.57,0,7.56,7.56,0,0,0-3.78,2.78,3.74,3.74,0,0,0,1.9,5.81,14.37,14.37,0,0,0,2.76.41c3.06,0.3,6.13.56,9.19,0.88,1.11,0.12,2.22.33,3.32,0.5a14,14,0,0,1,6,2.57c3.91,2.78,4.48,9,2.69,12.38a10.09,10.09,0,0,1-4.94,4.2A25.6,25.6,0,0,1,509,161.1a32.54,32.54,0,0,1-9.39-2.1,20.28,20.28,0,0,1-6.48-4.13,11,11,0,0,1-3-5.73"/><path class="cls-4" d="M526.09,123.4a6.49,6.49,0,0,1-.16-0.79c-0.05-1.11-.09-2.21-0.13-3.32,0-.71,0-0.8.74-0.87,1.19-.11,2.38-0.22,3.58-0.29,3.12-.19,6.24-0.34,9.36-0.54q4.17-.28,8.34-0.62c1.53-.13,3-0.35,4.57-0.52,0.36,0,.72,0,1.21,0-0.15,1.66.11,3.25-.28,4.82-2.67.2-5.26,0.38-7.85,0.59-0.64,0-1.28.15-1.92,0.21a0.67,0.67,0,0,0-.65.65,3.81,3.81,0,0,0,0,.55q0.15,7.09.32,14.17c0,1.76.12,3.52,0.18,5.28,0,0.33,0,.67-0.07,1.07a46.09,46.09,0,0,1-5.67.53c0-.39-0.11-0.68-0.12-1-0.07-4.42-.4-8.82-0.81-13.22q-0.27-3-.54-6a3.54,3.54,0,0,0-.11-0.64,0.88,0.88,0,0,0-1.13-.79l-7.13.69c-0.54.05-1.09,0-1.68,0.07"/><path class="cls-4" d="M606,151c-4.51.16-9,.33-13.52,0.48a1.81,1.81,0,0,1-2.14-1.48,5.21,5.21,0,0,1-.22-1c-0.7-5.11-1.35-10.22-.9-15.41,0.24-2.81.24-5.64,0.36-8.45a12.27,12.27,0,0,1,.12-1.44c0.36-2.22,1-2.71,3.25-2.82,3.34-.16,6.68-0.41,10-0.58,2.52-.13,5-0.18,7.56-0.32s5.31-.34,8-0.55c1.69-.12,2.14.2,2,1.92-0.24,3.07.11,4.19-4.11,4.43l-14.31.82c-0.48,0-1,0-1.43.1-1.31.17-1.53,0.4-1.69,1.63-0.28,2.26.46,3,2.75,2.88,4.56-.31,9.13-0.65,13.69-0.92,3-.18,3.27.13,3.15,3.2-0.15,4.14-.39,3.28-3.47,4-4.11.93-8.3,0.55-12.44,0.89l-0.61,0c-3.31.34-3.46,0-3.35,4.07,0,1.31.5,1.71,1.77,1.79a11.55,11.55,0,0,0,1.43-.06c3.41-.21,6.81-0.47,10.22-0.64,2.45-.13,4.9-0.17,7.36-0.18,2,0,2.36.45,2.36,2.46,0,0.21,0,.41,0,0.62-0.16,3.06-.37,3.19-3.34,3.38-4.16.27-8.3,0.67-12.45,1V151Z"/><path class="cls-4" d="M711.63,56.2a35.91,35.91,0,0,1,7.29-.39c4.6,0.14,9.22.06,13.83,0q7.4,0,14.8-.1c2.41,0,4.81-.06,7.21-0.15,7.59-.29,15.18-0.62,22.77-0.9,1.81-.07,3.64-0.06,5.45,0,1.62,0.07,1.84.28,1.92,1.83a61.83,61.83,0,0,1-.16,7.6,15.74,15.74,0,0,1-1.92-.15,88.1,88.1,0,0,0-14.66-1.91,163.76,163.76,0,0,0-21.6.53c-1.36.11-2.73,0-4.09,0.13-2.22.17-2.62,0.49-2.89,2.65-0.45,3.63-1,7.27-1.14,10.92-0.14,3.06.35,6.14,0.28,9.21-0.08,3.72-.45,7.43-0.67,11.15a1.87,1.87,0,0,1-1.45,1.84,19.72,19.72,0,0,1-6.93.78c-1.25-.05-1.65-0.4-1.68-1.67a42.14,42.14,0,0,1,.13-5.68c0.48-4.42,1.09-8.82,1.12-13.28,0-1.5-.07-3-0.12-4.49q-0.11-3.63-.24-7.26c0-.52-0.05-1-0.12-1.57-0.24-2.07-.67-2.4-2.78-2.3-4.28.21-8.56,0.39-12.85,0.59-0.68,0-1.45,0-1.48-.85-0.07-2.13,0-4.27,0-6.58"/><path class="cls-4" d="M768.74,100.16c-2.19.17-5.3-.73-8.27-1.78-3.61-1.28-6.8-3.67-8.18-7.32-2.84-7.54-1.85-13.23,5.11-18.11s14.6-6,22.79-4a20.58,20.58,0,0,1,10.47,5.55,9.78,9.78,0,0,1,2,3,14.6,14.6,0,0,1,.45,10.83,15,15,0,0,1-7.09,8c-5,2.78-10.54,3.61-17.27,3.87M774,74.31a15.79,15.79,0,0,0-8.42,2A10,10,0,0,0,761,81.5a14.51,14.51,0,0,0-.33,7.71,5.2,5.2,0,0,0,3.79,4.16,20.63,20.63,0,0,0,3.16.66c3.94,0.63,7.57-.62,11.13-2a7.65,7.65,0,0,0,4.66-5,13.68,13.68,0,0,0,.54-5.46,7.16,7.16,0,0,0-4.42-6.18A11.72,11.72,0,0,0,774,74.31"/><path class="cls-4" d="M692.32,80.48l-10.26,1a1.38,1.38,0,0,1-1.7-1,4,4,0,0,1-.21-0.75,52.9,52.9,0,0,1-1.44-11.68c0-2.15-.09-4.3-0.14-6.44a9.35,9.35,0,0,1,0-1.1c0.17-1.71.62-2.11,2.34-2.31,2.53-.29,5.06-0.64,7.6-0.94,1.91-.22,3.83-0.38,5.73-0.61s4-.52,6-0.81c1.28-.18,1.64.05,1.62,1.36,0,2.35.29,3.18-2.91,3.57l-10.85,1.32c-0.36,0-.73.07-1.08,0.14-1,.19-1.15.38-1.2,1.32-0.1,1.74.5,2.28,2.23,2.05,3.46-.46,6.91-0.94,10.37-1.37,2.27-.28,2.49-0.06,2.56,2.28,0.09,3.16-.14,2.52-2.45,3.2-3.08.91-6.29,0.83-9.42,1.28l-0.47.06c-2.5.42-2.63,0.16-2.35,3.26a1.17,1.17,0,0,0,1.43,1.27,8.8,8.8,0,0,0,1.09-.11c2.58-.33,5.16-0.69,7.75-1,1.85-.22,3.72-0.37,5.59-0.5,1.49-.11,1.82.22,1.92,1.76,0,0.16,0,.31,0,0.47,0,2.33-.12,2.44-2.37,2.73-3.15.41-6.28,0.92-9.42,1.39v0.11Z"/><path class="cls-4" d="M638.83,90.38c-1.13,0-2.12,0-3.12,0-7.84.34-15.68,0.7-23.52,1.05a23.57,23.57,0,0,1-2.49,0c-1.22-.09-1.47-0.23-1.62-1.27a32.49,32.49,0,0,1-.36-4.27c0-2,.11-4,0.09-6,0-6.18-.14-12.35-0.19-18.53,0-.54.09-1.09,0.14-1.67a14.85,14.85,0,0,1,4.85-.39,97,97,0,0,0,11-.28c4.73-.42,9.47-0.76,14.21-1.13a12.87,12.87,0,0,1,1.42,0c1.07,0,1.41.28,1.43,1.2a30.14,30.14,0,0,1-.16,3.67,1.17,1.17,0,0,1-.7.78,5.64,5.64,0,0,1-1.73.28c-5.35.11-10.7,0.18-16.05,0.31a41.16,41.16,0,0,0-4.43.36c-1.21.15-1.5,0.5-1.49,1.57,0,1.32.06,2.65,0.16,4S617,71.89,618.62,72a14.23,14.23,0,0,0,2.13.06c4-.26,8.06-0.53,12.09-0.8,1.28-.09,1.64.14,1.69,1.22a22,22,0,0,1,0,2.76c-0.09,1.32-.56,1.68-2.1,1.76-2.49.11-5,.18-7.47,0.36-2.19.16-4.37,0.44-6.54,0.71-1.26.16-1.4,0.34-1.41,1.39,0,1.48,0,3,0,4.44s0.43,1.82,2.13,1.79c5.82-.12,11.65-0.27,17.43-1,1.59-.18,1.78-0.1,2.07,1.21a13.77,13.77,0,0,1,.24,4.4"/><path class="cls-4" d="M550.69,57.78c2.08,0.13,3.87.23,5.65,0.36,1.22,0.09,2.43.23,3.65,0.34,1.62,0.16,1.78.34,1.82,1.91,0.05,2.56.09,5.12,0.14,7.68,0,2,.33,2.29,2.36,2.28,4.19,0,8.38-.08,12.57-0.1,3.6,0,7.21,0,10.82,0,3.43-.08,3.26-0.16,3.22-3.21s-0.14-6.29-.2-9.42c0-.4,0-0.81.06-1.28a3.27,3.27,0,0,1,.95-0.37c2.5-.13,5-0.24,7.5-0.34a7.91,7.91,0,0,1,1.39.1c1,0.14,1.35.37,1.4,1.42,0.09,1.8.08,3.61,0.08,5.41,0,2.5,0,5-.05,7.51-0.11,3.43-.32,6.86-0.48,10.29-0.09,2-.18,4.07-0.26,6.1s-0.17,4.3-.21,6.45c0,1,.05,2,0.07,3,0,1.52-.24,2-1.69,2.1-2.61.21-5.23,0.31-7.84,0.35-1.1,0-1.54-.62-1.54-1.89,0-2.62,0-5.24,0-7.86,0-2.26,0-4.54,0-6.8,0-1.61-.32-2-1.93-2-3.09,0-6.18,0-9.26,0-4.88,0-9.77,0-14.66,0-2.71,0-2.84.24-2.83,2.91,0,3.6,0,7.22,0,10.82,0,1.1.12,2.21,0.05,3.31a1.31,1.31,0,0,1-1.38,1.48c-2.18.33-4.37,0.65-6.56,0.93a20.22,20.22,0,0,1-2.28,0,276.64,276.64,0,0,0-.54-41.43"/><path class="cls-4" d="M701.55,84.79c-2.36-1.05-3-.33-4,1.14a25,25,0,0,1-7.88,7.47c-5.23,3.1-9.77,2.2-14.27-1.65-2.58-2.2-4.23-5.1-5.81-8-1-1.85-.71-2.48,1.3-3.36a14.23,14.23,0,0,0,4.6-3.36c1.9-2,1.72-7.51-.56-9.55a19.84,19.84,0,0,0-8.69-4.65,84.63,84.63,0,0,0-13.84-1.91,61.46,61.46,0,0,0-6.33,0c-1.12,0-1.34.29-1.42,1.37-0.14,1.91-.28,3.82-0.38,5.74-0.2,4-.35,8-0.58,12.05-0.27,4.66-.58,9.31-0.9,14a14.35,14.35,0,0,1-.62,3.21l0,0.39a0.77,0.77,0,0,0,.42.61l9.27,0.5a4.39,4.39,0,0,0,.4-1q0.67-4.84,1.3-9.69a7.55,7.55,0,0,1,.25-1.89,2.46,2.46,0,0,1,1.16-1.35c1.38-.47,2.84-0.54,3.86.77s2.13,2.85,3.11,4.34c0.7,1.06,1.16,2.29,1.91,3.32,5.3,7.39,12.79,9.8,21.48,9.23a20.37,20.37,0,0,0,9.21-3c1.91-1.16,3.84-2.3,5.66-3.6,2.42-1.74,4.73-3.64,7.16-5.54A11.74,11.74,0,0,0,701.55,84.79Zm-37.36-7.51a20.81,20.81,0,0,1-8,.75c-1.16-.07-1.54-0.58-1.53-1.78,0-.89.13-1.78,0.19-2.67h0c0.1-1.15.2-2.29,0.27-3.43a1.27,1.27,0,0,1,1.3-1.35,17.82,17.82,0,0,1,9,1.08,3,3,0,0,1,1.85,2.67A4.39,4.39,0,0,1,664.19,77.28Z"/></svg>