<svg id="Layer_1" data-name="Layer 1" xmlns="http://www.w3.org/2000/svg" viewBox="0 0 935.27 168.95"><defs><style>.cls-1{fill:#fff;}.cls-2{fill:#f5a328;}.cls-3{fill:#e33824;}.cls-4{fill:#f6a428;}</style></defs><title>nd_quiz_stream graphic-REV</title><path class="cls-1" d="M19.07,54.53q14.49-1.21,21.07,4.14t6.59,15.08a21.09,21.09,0,0,1-4.35,13.4Q38,92.71,29,94c-0.23,5-.82,22.35-0.88,30.45l-10.34.34Zm16,14a6.15,6.15,0,0,0-5.26-2.59l-0.6,17.33a7.76,7.76,0,0,0,5.26-2.63,9.4,9.4,0,0,0,2.14-5.94A9.84,9.84,0,0,0,35,68.49v0Z"/><path class="cls-1" d="M70.73,121.21q-9.31,1.12-21.55,1.9Q49,106,49.18,92.9T49.56,72l0.26-7.76c8.5-.75,16-0.2,22.45-0.2,0.06,3.56,0,6-.13,9A105.23,105.23,0,0,0,60.5,74L59.9,89.42c3.85-.29,12.94-0.71,16.22-0.71q0.09,4.31.09,9L59.65,99.54q-0.26,7.5-.26,13,3.71-.17,11.46-0.35Q70.9,116.1,70.73,121.21Z"/><path class="cls-1" d="M77.86,117.89l8.7-66.17L99.75,52.5l2,7.93q2.07,7.93,5.26,22.67t5.6,28.36l-9.57.69-2.16-11.72q-4-.52-10.95-0.78l-2.37,19.7Zm16.2-49.62q-0.69,6.38-2.85,22.41Q95,91,98.88,91q-1.32-7.49-4.81-22.75h0Z"/><path class="cls-1" d="M133.34,112.42a47.26,47.26,0,0,0,1.16-10.32l10.52-.43q-0.17,24.57-15,24.57a12.42,12.42,0,0,1-7.54-2.24,13.78,13.78,0,0,1-4.65-6.51,40.11,40.11,0,0,1-2.2-9.22,98.12,98.12,0,0,1-.6-11.68,61.39,61.39,0,0,1,1.68-15,26.77,26.77,0,0,1,5.34-11,11.21,11.21,0,0,1,8.83-4.31q7.59,0,10.56,5.69t2.46,16.29l-9.74.43a29,29,0,0,0-.47-7.59q-0.73-3.71-2.54-3.71-4.65,0-5.34,18.45-0.35,9.31.86,14.48t3.62,5.17Q132.43,115.52,133.34,112.42Z"/><path class="cls-1" d="M169.56,121q-9.31,1.12-21.55,1.9c-0.12-11.43-.17-26.94-0.06-35.64s0.26-15.67.43-20.9l0.18-7.76q12.76-1.12,22.5-1.12,0.09,5.34-.17,9.91a104.63,104.63,0,0,0-11.64,1l-0.6,15.43q5.78-.43,10.69-0.43,0.09,4.31.09,9.05l-11,1.55c-0.17,5-.2,14.77-0.2,18.45q3.71-.17,11.46-0.35Q169.68,115.87,169.56,121Z"/><path class="cls-2" d="M182.42,71.73a3.49,3.49,0,0,1,2.59-1,3.62,3.62,0,0,1,2.09.65,2.15,2.15,0,0,1,.82,1.92c0,0.32-.07,2.15-0.18,3.08a20.64,20.64,0,0,0-.18,2.14,1.35,1.35,0,0,0,.17.82,0.74,0.74,0,0,0,.61.25,1.55,1.55,0,0,0,.83-0.21,2.42,2.42,0,0,1,.52-0.28,0.17,0.17,0,0,1,.2.19,0.74,0.74,0,0,1-.23.4,2.37,2.37,0,0,1-.71.5,2.18,2.18,0,0,1-1,.23,2.3,2.3,0,0,1-1.23-.35,0.79,0.79,0,0,0-1.1-.22l-0.06,0a8.86,8.86,0,0,1-1.14.31,6.87,6.87,0,0,1-1.62.14q-3.39-.08-3.35-1.84A1.77,1.77,0,0,1,180.72,77a6.31,6.31,0,0,1,2.73-.51,7.93,7.93,0,0,1,1.16.08,3.5,3.5,0,0,1,.82.12l0.33,0.06a0.2,0.2,0,0,0,.19-0.21h0c0.1-.66.16-2.47,0.17-3a3.1,3.1,0,0,0-.27-1.54,1.18,1.18,0,0,0-1.1-.56q-1.88,0-3,3.11a0.6,0.6,0,0,1-.56.13,0.52,0.52,0,0,1-.49-0.28,16.32,16.32,0,0,1,0-1.85q0.05-1.33.08-1.62a0.69,0.69,0,0,1,.75-0.18,1,1,0,0,1,.76.36,4.06,4.06,0,0,0-.14.72,0.06,0.06,0,0,0,.06.06A0.34,0.34,0,0,0,182.42,71.73Zm3,5.68a2.9,2.9,0,0,0-1.34-.27,4.28,4.28,0,0,0-1.91.37,1.24,1.24,0,0,0-.87,1.07q0,1.12,2.06,1.17a3.44,3.44,0,0,0,1.69-.37,1.27,1.27,0,0,0,.78-1.14,0.85,0.85,0,0,0-.38-0.83h0Z"/><path class="cls-2" d="M192.78,69.94c0,2.11-.06,5.8,0,6a0.56,0.56,0,0,0,.28.25,3.18,3.18,0,0,0,.75.12l0.75,0a0.22,0.22,0,0,1,.19.24v0a0.22,0.22,0,0,1-.19.25H191l-1.45.09H189a0.21,0.21,0,0,1-.14,0,0.2,0.2,0,0,1-.07-0.12,0.88,0.88,0,0,1,0-.15,0.21,0.21,0,0,1,0-.14,0.15,0.15,0,0,1,.12-0.06l0.62-.07a2.07,2.07,0,0,0,.78-0.21,0.67,0.67,0,0,0,.26-0.51c0-.35.18-4,0.18-5.74V69.62q0-3.56-.07-4.08a0.81,0.81,0,0,0-.2-0.52,1,1,0,0,0-.49-0.17h-0.43a2.41,2.41,0,0,1-.41,0,0.27,0.27,0,0,1,0-.52q1.09-.1,2.55-0.1a1.53,1.53,0,0,1,1,.17,0.64,0.64,0,0,1,.07.42V65c0,0.18,0,.27.07,0.27l0.41-.19a7.13,7.13,0,0,1,1.05-.38,4.91,4.91,0,0,1,1.41-.2,6.46,6.46,0,0,1,1.56.17,4.35,4.35,0,0,1,1.37.63,3,3,0,0,1,1.06,1.43,6.62,6.62,0,0,1,.38,2.41,18.3,18.3,0,0,1,0,1.84,9.26,9.26,0,0,0,0,1.41,1.52,1.52,0,0,0,.15.79,1.61,1.61,0,0,0,.94.35l0.62,0.1a0.23,0.23,0,0,1,.2.25v0a0.21,0.21,0,0,1-.17.25h-0.52l-1.3-.07H196.5a0.21,0.21,0,0,1-.21-0.25,0.22,0.22,0,0,1,.16-0.27h0.5a1.49,1.49,0,0,0,.94-0.3,3.56,3.56,0,0,0,.25-1.29V69.82a7.27,7.27,0,0,0-.59-3.39,2.17,2.17,0,0,0-2.08-1.06,2.34,2.34,0,0,0-1.89.8,3.12,3.12,0,0,0-.68,2.09v1.81Z"/><path class="cls-2" d="M206.14,66.5c-0.08.69-.49,6.28-0.6,7.54s-0.22,2.59-.32,4a40.75,40.75,0,0,0-.2,4.21,0.42,0.42,0,0,0,.31.34,6.52,6.52,0,0,0,1.24.16,0.17,0.17,0,0,1,.17.21,0.19,0.19,0,0,1-.16.21l-1.63.08-0.53.06-0.49.06h-0.29a0.31,0.31,0,0,1-.23-0.28,0.31,0.31,0,0,0-.19-0.28,1.54,1.54,0,0,0-.49,0,6.21,6.21,0,0,1-2,.12,4.23,4.23,0,0,1-3-1.26,3.67,3.67,0,0,1-.86-2.82,3.84,3.84,0,0,1,1.38-2.75,4,4,0,0,1,3-.9,5.08,5.08,0,0,1,1.58.38,6.49,6.49,0,0,0,.79.3c0.09,0,.15-0.06.16-0.21l0.06-.79c0.19-2.6.56-8.71,0.46-9.08a0.45,0.45,0,0,0-.25-0.31,3.56,3.56,0,0,0-.81-0.17l-0.68-.1a0.23,0.23,0,0,1,0-.44q1.34,0,2.86.08a1.19,1.19,0,0,1,.76.22,0.57,0.57,0,0,1,0,.35Zm-4.48,9.6a2.45,2.45,0,0,0-2.15.86,4.07,4.07,0,0,0-.93,2.43A3.11,3.11,0,0,0,199,81.6a2.44,2.44,0,0,0,1.81.8,3,3,0,0,0,2-.44,1.13,1.13,0,0,0,.36-0.58,7.9,7.9,0,0,0,.2-1.47,8.9,8.9,0,0,0,0-2.81A1.82,1.82,0,0,0,201.66,76.1Z"/><path class="cls-2" d="M183.3,93V90.71a0.75,0.75,0,0,1,.16-0.61,1,1,0,0,1,.59-0.18,1.48,1.48,0,0,1,1.23.31q-0.17,2.24-.17,4.3a0.5,0.5,0,0,0,0,.29,0.25,0.25,0,0,0,.2,0l1.28-.13,1.24-.13a0.22,0.22,0,0,1,.22.19,0.68,0.68,0,0,1,0,.4,0.23,0.23,0,0,1-.2.21l-2.53.13a0.3,0.3,0,0,0-.23.08,0.94,0.94,0,0,0,0,.35q0,1.95.13,3.52a5.63,5.63,0,0,0,.41,2,1.14,1.14,0,0,0,1.22.55,3,3,0,0,0,1.16-.32,5.56,5.56,0,0,1,.6-0.28,0.29,0.29,0,0,1,.32.26h0a2.81,2.81,0,0,1-1,.83,4,4,0,0,1-1.6.43,2.23,2.23,0,0,1-2.17-.71,6.27,6.27,0,0,1-.67-2.83q-0.1-1.55-.13-3.28a1.09,1.09,0,0,0,0-.42,0.19,0.19,0,0,0-.2-0.08l-1.38.09a0.2,0.2,0,0,1-.21-0.23,0.23,0.23,0,0,1,.17-0.28h0l0.95-.11a2,2,0,0,0,.58-0.11,0.37,0.37,0,0,0,.11-0.32A4.78,4.78,0,0,1,183.3,93Z"/><path class="cls-2" d="M192,96.77a18,18,0,0,0-.17,2.18,0.33,0.33,0,0,0,.26.28,7.63,7.63,0,0,0,.95.2l0.41,0.07a0.21,0.21,0,0,1,.14.26h0a0.19,0.19,0,0,1-.18.2h0l-1.31-.14-1.46-.15-1.06-.09h-1.29a0.19,0.19,0,0,1-.17-0.21v0a0.2,0.2,0,0,1,.17-0.23h0.45A3.11,3.11,0,0,0,189.6,99a0.6,0.6,0,0,0,.34-0.39,30.6,30.6,0,0,0,.51-3.66l0.37-3.37c0.31-2.79.87-7.4,0.88-8.12a0.54,0.54,0,0,0-.18-0.47,2.64,2.64,0,0,0-.83-0.23l-0.47-.07a0.24,0.24,0,0,1,0-.45q1.64,0.09,2.87.23a0.91,0.91,0,0,1,.63.22,0.59,0.59,0,0,1,0,.4l-0.13.78q-0.13.76-.31,2.07c-0.13.88-.64,4.62-0.75,5.54v0.11c0,0.19,0,.28.08,0.29a1.89,1.89,0,0,0,.41-0.05,6.6,6.6,0,0,1,.87-0.09,7.22,7.22,0,0,1,1.15,0,4.22,4.22,0,0,1,3,1.41,5.06,5.06,0,0,1,.69,3.77,8.07,8.07,0,0,1-.18,1.38,5.18,5.18,0,0,0-.15,1,0.81,0.81,0,0,0,.05.51,2.09,2.09,0,0,0,1,.37l0.59,0.13a0.2,0.2,0,0,1,.13.25h0a0.19,0.19,0,0,1-.17.21h0l-0.4,0-1-.14-1.23-.16-1.15-.12-0.89-.06h-0.41a0.19,0.19,0,0,1-.17-0.21v0a0.2,0.2,0,0,1,.17-0.23h0.5a1.3,1.3,0,0,0,1-.24,3.33,3.33,0,0,0,.28-0.95q0.15-.77.29-2a6.53,6.53,0,0,0-.19-3.08,2.1,2.1,0,0,0-1.9-1.13,2.87,2.87,0,0,0-2.19.5,1.08,1.08,0,0,0-.37.76Z"/><path class="cls-2" d="M205.3,103.9a5.52,5.52,0,0,0,3-1.11l0.27-.2,0.24-.19,0.18-.12,0.19-.09h0.17a0.43,0.43,0,0,1,.49.32,5.17,5.17,0,0,1-1.67,1.59,5.63,5.63,0,0,1-5.8.06,3.12,3.12,0,0,1-1.52-2.64,6.39,6.39,0,0,1,1-3.73,3.5,3.5,0,0,1,2.85-1.91A4.18,4.18,0,0,1,207.83,97a3.5,3.5,0,0,1,.73,1.08,4.71,4.71,0,0,1,.38,1.66,1.85,1.85,0,0,1-.14,1.07,0.71,0.71,0,0,1-.58.29H206.8q-1.35,0-2.24.09a4.35,4.35,0,0,0-1.82.28Q202.95,104,205.3,103.9Zm-0.15-7.4A2.23,2.23,0,0,0,203.47,98a5.27,5.27,0,0,0-.69,2.55,3.58,3.58,0,0,0,1.76.07,10.85,10.85,0,0,0,2.22-.26,0.66,0.66,0,0,0,.39-0.76q-0.18-3.18-2-3.08h0Z"/><path class="cls-2" d="M46.72,49q0.16,3,.24,3.55a0.57,0.57,0,0,0,.43.53,6.32,6.32,0,0,0,1.44.13h1.3a0.3,0.3,0,0,1,0,.56H47.86L46,53.79l-2.62.31-1.69.13a0.23,0.23,0,0,1-.24-0.13,0.37,0.37,0,0,1,0-.28,0.19,0.19,0,0,1,.19-0.16l1.15-.16a10.25,10.25,0,0,0,1.31-.25,0.65,0.65,0,0,0,.42-0.35c0.25-.57.44,0.42,0.12-5.63V47q-0.15-2.74-.25-3.33a0.52,0.52,0,0,0-.53-0.34,9.73,9.73,0,0,0-1.67,0H42a3.26,3.26,0,0,0-1.87.42A2.72,2.72,0,0,0,39.82,45q-0.13,1-.23,2.32a17.27,17.27,0,0,1-.2,1.81,0.55,0.55,0,0,1-.59.47,0.46,0.46,0,0,1-.55-0.22q0-3.46-.11-5.84a0.83,0.83,0,0,1,.72-0.93H40l1.3-.07,3.79-.23,3.09-.18,2.21-.19,1.48-.14,0.55,0a1.25,1.25,0,0,1,.58.06,0.36,0.36,0,0,1,.17.27,56.82,56.82,0,0,0,0,6.53,0.41,0.41,0,0,1-.38.17,0.72,0.72,0,0,1-.69-0.23,2,2,0,0,1-.25-0.8q-0.53-4-.59-4.22A0.82,0.82,0,0,0,50.83,43a2.19,2.19,0,0,0-1-.11H49.74Q47,43,46.82,43.43c-0.23.52-.42-0.58-0.11,5.31V49Z"/><path class="cls-2" d="M56.92,51.75A13.69,13.69,0,0,0,57,54.16a0.46,0.46,0,0,0,.37.29,7.55,7.55,0,0,0,1.24.16l0.83,0.06a0.19,0.19,0,0,1,.19.15,0.37,0.37,0,0,1,0,.28,0.23,0.23,0,0,1-.24.13H52.8l-0.24.07a0.3,0.3,0,0,1,0-.56l0.76-.06a4.45,4.45,0,0,0,1.18-.19A0.71,0.71,0,0,0,54.93,54a33.93,33.93,0,0,0,.2-4.12L55.2,46c0.06-3.14.16-10.43,0.09-11.25a0.5,0.5,0,0,0-.22-0.47,3.28,3.28,0,0,0-1-.14l-1-.09a0.24,0.24,0,0,1-.22-0.25v0A0.21,0.21,0,0,1,53,33.47h3.82a0.76,0.76,0,0,1,.54.16,0.62,0.62,0,0,1,.09.42,9.3,9.3,0,0,1-.08,1.1c-0.08.67-.21,6.82-0.27,7.82S57,44.91,57,45.78V45.9q0,0.32.16,0.32a4.28,4.28,0,0,0,.53-0.1q0.46-.1,1.17-0.2a9.84,9.84,0,0,1,1.47-.08Q66,46,65.9,51.32c0,0.34-.09,4-0.14,4.7S65.7,57.1,65.7,57.1a0.81,0.81,0,0,0,.14.57,2.64,2.64,0,0,0,1.32.34l1,0.12a0.19,0.19,0,0,1,.19.15,0.37,0.37,0,0,1,0,.28,0.23,0.23,0,0,1-.24.13H67q-1.13-.07-2.23-0.09t-2.1,0H61.46a0.23,0.23,0,0,1-.23-0.14,0.37,0.37,0,0,1,0-.28,0.19,0.19,0,0,1,.2-0.14h0.69a2,2,0,0,0,1.44-.44,2.64,2.64,0,0,0,.27-1.1c0.06-.59.16-4.45,0.17-5.3a6.14,6.14,0,0,0-.68-3.45,3.26,3.26,0,0,0-2.84-1.13,5.44,5.44,0,0,0-3.08.8,0.89,0.89,0,0,0-.41.78Z"/><path class="cls-2" d="M73.86,56.35a10.36,10.36,0,0,0,2.39-.71,7.26,7.26,0,0,0,1.84-1.06,3.34,3.34,0,0,1,1-.67,0.38,0.38,0,0,1,.48.24v0a6,6,0,0,1-2.05,2,7.9,7.9,0,0,1-3.11,1.31,7.48,7.48,0,0,1-4.14-.41,3.43,3.43,0,0,1-2.22-2.76A6.7,6.7,0,0,1,68.89,50a4.58,4.58,0,0,1,3.36-2.57,6.58,6.58,0,0,1,2.12,0,4.47,4.47,0,0,1,2.5,1.15,4.94,4.94,0,0,1,1.26,2.82,1.61,1.61,0,0,1-.1,1.15,1.12,1.12,0,0,1-.76.41l-1.87.26q-1.82.25-3,.45-1.48.24-1.87,0.35a0.47,0.47,0,0,0-.41.28Q70.64,56.88,73.86,56.35Zm1.28-7.55a2.14,2.14,0,0,0-2.1-.65,3.29,3.29,0,0,0-2.3,2A5,5,0,0,0,70,53q0.11,0.23,2.53-.17a17.2,17.2,0,0,0,3.09-.69,0.86,0.86,0,0,0,.53-1A4.54,4.54,0,0,0,75.14,48.8Z"/><path class="cls-1" d="M215.72,45.45q16.53-2.13,24.36,3.65T248.41,66a24.18,24.18,0,0,1-4.29,15.58q-4.7,6.6-15,8.54c0,5.74.11,7.14,0.46,16.42l-11.83.93Zm19,15.17a7.05,7.05,0,0,0-6.16-2.69l0.2,19.88a8.9,8.9,0,0,0,5.89-3.28,10.78,10.78,0,0,0,2.16-6.88A11.28,11.28,0,0,0,234.72,60.62Z"/><path class="cls-1" d="M268.84,117.36l-2-15.67c-5.27.2-9.12,3.32-12.21,3.71l-4.26,23.13-11-.79c1.85-10.41,5.78-30.94,8.22-42.21s4.45-19.94,6-26L256.85,43,272,42.1l7.91,73.55Zm-12-22.74c3,0,5.56-3,8.46-3.21-1.65-12.26-2.4-18-2.92-22.88q-4,17.49-5.51,26.09h0Z"/><path class="cls-1" d="M318.21,119.3q-5.14,0-12.26.2a407.31,407.31,0,0,1-11.67-43.4q-0.1,9.88,0,21.15t0.3,17.6l0.1,6.33-11.17.59q-0.2-20.36-.2-35.54t0.2-24l0.1-8.8q6.62-.3,14.33-0.89l9.79,39.15c0.13-16.61,1.59-35,1.4-45.26l11,0.1C320.56,64,318.93,91.55,318.21,119.3Z"/><path class="cls-1" d="M336.62,124.78l-11.67.49q-0.1-20.46,0-35.29t0.2-23.13l0.1-8.3,12.46-.69Z"/><path class="cls-1" d="M364,94.56c0.69-2.37.19-3.25,0.39-8.78l12.06-.5c-0.13,18.78-4.92,25.1-16.25,25.1a14.24,14.24,0,0,1-8.67-2.57,15.81,15.81,0,0,1-5.34-7.46,46,46,0,0,1-2.52-10.58,112.58,112.58,0,0,1-.69-13.4,70.38,70.38,0,0,1,1.93-17.15,30.69,30.69,0,0,1,6.13-12.6,12.86,12.86,0,0,1,10.13-4.94q8.7,0,12.11,6.52c2.27,4.35,3.08,7.79,2.68,15.9l-11.17.5a15.43,15.43,0,0,0-.41-5.92q-0.84-4.25-2.92-4.25-5.34,0-6.13,21.16-0.39,10.68,1,16.61t4.2,5.9Q363,98.1,364,94.56Z"/><path class="cls-1" d="M387.18,121a6.62,6.62,0,0,1-4.36,1.29,5.15,5.15,0,0,1-3.86-1.89,5.21,5.21,0,0,1-1.21-4.14,5.68,5.68,0,0,1,2-3.81,5.85,5.85,0,0,1,4.19-1.34,5.6,5.6,0,0,1,4,1.86A5.43,5.43,0,0,1,387.18,121Zm4.13-38.71q-1.19,11.36-1.9,17.38l-0.72,5.94-9,.11q0.31-14.12.83-24.5c0.35-6.92,1.82-26.22,2.12-30.19L383,45.1l11.44,1.23c-0.57,7.17-2.38,28.4-3.18,36h0Z"/><path class="cls-3" d="M103.76,151.1h0l3.56-12.42h2.06l3.7,12.42h0l3.51-12.18h3.65l-6,18.23h-2.56l-3.55-11.68h0l-3.37,11.68H102.2L96.56,139h3.65Z"/><path class="cls-3" d="M133.56,146v-7H137v17.87h-3.48v-8h-6.45v8h-3.48V139h3.48v7h6.45v0Z"/><path class="cls-3" d="M145.47,156.83H142V139h3.48v17.87Z"/><path class="cls-3" d="M153.86,153.8h4.93v3h-8.41V139h3.48V153.8h0Z"/><path class="cls-3" d="M165.76,142v3.93h5.55v3h-5.55v4.84h5.8v3h-9.24V139h9.24v3h-5.8v0Z"/><path class="cls-3" d="M183.76,139h4.05l3.13,6.21,3.41-6.21h4.08l-5.64,9.67v8.2h-3.48v-8.2Z"/><path class="cls-3" d="M209.69,157.3c-5.45,0-8.84-4.17-8.84-9.43s3.51-9.39,8.84-9.39,8.84,4.08,8.84,9.39S215.14,157.3,209.69,157.3Zm0-15.38c-3.29,0-5.24,2.92-5.24,5.81s1.38,6.14,5.24,6.14,5.24-3.39,5.24-6.14-1.94-5.81-5.24-5.81h0Z"/><path class="cls-3" d="M222.56,139H226v10c0,2.2.19,5.31,3.15,5.31s3.15-3.1,3.15-5.31V139h3.48v10.69c0,4.36-1.85,7.66-6.64,7.66s-6.64-3.29-6.64-7.66V139h0Z"/><path class="cls-3" d="M253.32,156.83h-3.48V139h4.72c3.74,0,6.19,1.49,6.19,5.55,0,3.79-2.06,5.64-5.71,5.64h-1.73v6.68h0Zm0-9.58H254c2.06,0,3.18-.45,3.18-2.77s-1.33-2.63-3.27-2.63h-0.62v5.4h0Z"/><path class="cls-3" d="M268.2,153.8h4.93v3h-8.41V139h3.48V153.8Z"/><path class="cls-3" d="M280.26,153.1l-1.47,3.77h-3.67l7-18.34h2.7l6.74,18.3h-3.72l-1.37-3.73h-6.21Zm3-9.34h0l-2,6.49h4.24Z"/><path class="cls-3" d="M291,139h4l3.13,6.21,3.41-6.21h4.08L300,148.63v8.2h-3.44v-8.2Z"/><path class="cls-3" d="M313.56,155.17a2.11,2.11,0,1,1-2.11-2.11A2.11,2.11,0,0,1,313.56,155.17ZM309.77,139h3.37v12.73h-3.37V139h0Z"/><path class="cls-3" d="M93.64,19.9h0l-3.48,9.73h-1L85.8,19.9h0l-1.36,9.53h-3L84,13.67h2.12l3.79,10.12,3.62-10.12h2l2.3,15.76h-3Z"/><path class="cls-3" d="M104.37,26.19l-1.26,3.24H100l6-15.76h2.32l5.82,15.76h-3.2l-1.18-3.24h-5.35Zm2.59-8h0l-1.69,5.58h3.64Z"/><path class="cls-3" d="M124.8,14.1h3.68l-5.82,7.08,6.15,8.26H125L120,22.54h0v6.9h-3V14.1h3v6.47h0Z"/><path class="cls-3" d="M134.67,16.69V20.1h4.76v2.61h-4.76v4.15h4.95v2.61h-7.94V14.1h7.94v2.59h-4.95Z"/><path class="cls-3" d="M158.79,17.46a2.76,2.76,0,0,0-2.3-1.26,1.83,1.83,0,0,0-1.87,1.73c0,2.59,6.09,1.51,6.09,6.66,0,3.07-1.91,5.25-5,5.25a5.44,5.44,0,0,1-4.72-3L152.92,25a3.15,3.15,0,0,0,2.77,2.24,2,2,0,0,0,2-2.09s0-.09,0-0.13c0-1.59-1.47-2-2.67-2.5-2-.81-3.42-1.81-3.42-4.19a4.47,4.47,0,0,1,4.34-4.6h0.14a6.3,6.3,0,0,1,4.19,1.71Z"/><path class="cls-3" d="M164.22,14.1h3v8.59c0,1.89.16,4.56,2.71,4.56s2.71-2.67,2.71-4.56V14.1h3v9.18c0,3.75-1.59,6.57-5.7,6.57s-5.7-2.83-5.7-6.57V14.1h0Z"/><path class="cls-3" d="M190.15,29.43h-3.59l-3.73-6.19h0v6.19h-3V14.1h4.05c3,0,5.13,1.34,5.13,4.62A4.06,4.06,0,0,1,185.88,23Zm-7.39-8.33h0.39c1.65,0,2.81-.49,2.81-2.36s-1.2-2.26-2.79-2.26h-0.41V21.1Z"/><path class="cls-3" d="M196.16,16.69V20.1h4.76v2.61h-4.76v4.15h4.95v2.61h-7.94V14.1h7.94v2.59h-4.95Z"/><path class="cls-3" d="M218,29.43h-3V16.69h-3.09V14.1h9.18v2.59H218V29.43Z"/><path class="cls-3" d="M231.12,29.84c-4.68,0-7.59-3.58-7.59-8.1s3-8.06,7.59-8.06,7.59,3.5,7.59,8.06S235.8,29.84,231.12,29.84Zm0-13.21c-2.83,0-4.5,2.5-4.5,5s1.18,5.27,4.5,5.27,4.5-2.91,4.5-5.27-1.67-5-4.5-5h0Z"/><path class="cls-3" d="M257.36,17.46a2.76,2.76,0,0,0-2.3-1.26,1.83,1.83,0,0,0-1.87,1.73c0,2.59,6.09,1.51,6.09,6.66,0,3.07-1.91,5.25-5,5.25a5.44,5.44,0,0,1-4.72-3L251.49,25a3.15,3.15,0,0,0,2.77,2.24,2.05,2.05,0,0,0,2-2.09s0-.09,0-0.13c0-1.59-1.47-2-2.67-2.5-2-.81-3.42-1.81-3.42-4.19a4.47,4.47,0,0,1,4.33-4.61h0.06a6.3,6.3,0,0,1,4.19,1.71Z"/><path class="cls-3" d="M267.86,29.43h-3V16.69h-3.09V14.1h9.18v2.59h-3.09V29.43Z"/><path class="cls-3" d="M284.47,29.43h-3.62l-3.73-6.19h0v6.19h-3V14.1h4c3,0,5.13,1.34,5.13,4.62A4.06,4.06,0,0,1,280.17,23Zm-7.39-8.33h0.39c1.65,0,2.81-.49,2.81-2.36s-1.2-2.26-2.79-2.26h-0.41V21.1Z"/><path class="cls-3" d="M290.47,16.69V20.1h4.76v2.61h-4.76v4.15h5v2.61h-7.94V14.1h7.94v2.59h-5Z"/><path class="cls-3" d="M302.56,26.19l-1.26,3.24h-3.14l6-15.76h2.32l5.82,15.76h-3.2l-1.18-3.24h-5.36Zm2.59-8h0l-1.69,5.58h3.64Z"/><path class="cls-3" d="M326.7,19.9h0l-3.48,9.73h-1l-3.36-9.73h0l-1.36,9.53h-3l2.59-15.76h2.12L323,23.79l3.62-10.12h2.16l2.3,15.76h-3Z"/><path class="cls-3" d="M887,155.68c0.31-.09,0-0.23-0.09-0.32-1.94-2.49-3.83-4.11-5.1-6.65a0.5,0.5,0,0,0-.93.13,25.86,25.86,0,0,1-3.32,8.17,0.51,0.51,0,0,0,.53.75,78.83,78.83,0,0,0,8.91-2.08"/><path class="cls-1" d="M590.24,24.58a7.43,7.43,0,0,0-12.31,5.8A7.35,7.35,0,0,0,590.24,36v2.76a10.1,10.1,0,0,1-4.9,1.32,9.67,9.67,0,0,1-9.73-9.59,9.81,9.81,0,0,1,9.7-9.92h0.22a9,9,0,0,1,4.71,1.26v2.73Z"/><path class="cls-1" d="M597.56,39.7h-2.23V18.19h2.23v21.5h0Z"/><path class="cls-1" d="M606.38,22.81a1.53,1.53,0,1,1-1.54-1.54,1.53,1.53,0,0,1,1.54,1.54h0ZM606,39.7h-2.23V28.1H606V39.7Z"/><path class="cls-1" d="M620.51,31.37a4.25,4.25,0,0,0-3.32-1.56,4,4,0,0,0-3.86,4.06A3.92,3.92,0,0,0,617,38h0.29a4.17,4.17,0,0,0,3.18-1.53v2.85a6.48,6.48,0,0,1-3.2.77,6.1,6.1,0,0,1-6.22-6s0-.08,0-0.12a6.16,6.16,0,0,1,6.07-6.24h0.27a6.28,6.28,0,0,1,3.07.77v2.88h0Z"/><path class="cls-1" d="M627.76,32.46l4.36-4.36h2.95l-4.95,4.79,5.45,6.78h-2.9l-4.13-5.27-0.77.77v4.51h-2.22V18.19h2.23V32.46h0Z"/><path class="cls-1" d="M651,30h0a4.79,4.79,0,0,1,4-2.28c3.34,0,5.45,2.9,5.45,6.06s-2,6.27-5.55,6.27a4.79,4.79,0,0,1-3.94-2.2h0v8.39h-2.23V28.1H651V30Zm7.31,3.87a3.74,3.74,0,1,0-7.43,0c0,2.18,1.32,4.21,3.67,4.21S658.3,36.17,658.3,33.9Z"/><path class="cls-1" d="M667.49,39.7h-2.23V18.19h2.23v21.5h0Z"/><path class="cls-1" d="M684,39.7h-2.23V37.89h0a4.79,4.79,0,0,1-3.94,2.2c-3.59,0-5.55-2.95-5.55-6.27s2.11-6.06,5.48-6.06a4.79,4.79,0,0,1,4,2.28h0V28.11H684v11.6h0Zm-2.11-5.8a3.74,3.74,0,1,0-7.43,0c0,2.18,1.32,4.21,3.67,4.21S681.93,36.17,681.93,33.9Z"/><path class="cls-1" d="M687.55,28.1h2.6l3.92,7.36,3.59-7.36h2.5l-9.39,18.24h-2.53l4.55-8.62Z"/><path class="cls-1" d="M724.85,33.92a6.19,6.19,0,1,1-6.22-6.17h0a6.1,6.1,0,0,1,6.19,6Q724.85,33.84,724.85,33.92Zm-10.16,0a4,4,0,1,0,4-4,4,4,0,0,0-4,4h0Z"/><path class="cls-1" d="M733.32,35.34l3.34-7.19h2.5l-5.85,12-5.82-12H730Z"/><path class="cls-1" d="M744.18,34.27a3.59,3.59,0,0,0,3.35,3.83h0.14a3.8,3.8,0,0,0,3.46-2.25L753,36.92a6,6,0,0,1-5.38,3.18c-3.59,0-5.7-2.67-5.7-6.1s1.91-6.24,5.64-6.24S753,30.47,753,33.92v0.35h-8.82Zm6.61-1.69a3.13,3.13,0,0,0-3.2-2.9,3.32,3.32,0,0,0-3.3,2.9h6.49Z"/><path class="cls-1" d="M759.75,30h0.07A3.33,3.33,0,0,1,763,27.75a3.47,3.47,0,0,1,1.83.58l-1,2a2,2,0,0,0-1.37-.47c-2.4,0-2.7,2.23-2.7,4.11v5.7h-2.23V28.11h2.23V30h0Z"/><path class="cls-1" d="M780.46,18.19V29.66h0a4,4,0,0,1,3.5-1.91c3.27,0,4.11,2.2,4.11,5V39.7h-2.23V33.06c0-2-.28-3.32-2.55-3.32-2.88,0-2.88,2.53-2.88,4.64V39.7h-2.23V18.19h2.28Z"/><path class="cls-1" d="M795,34.27a3.59,3.59,0,0,0,3.35,3.83h0.14A3.8,3.8,0,0,0,802,35.85l1.88,1.07a6,6,0,0,1-5.38,3.18c-3.59,0-5.7-2.67-5.7-6.1s1.91-6.24,5.64-6.24,5.43,2.72,5.43,6.17v0.35H795Zm6.61-1.69a3.13,3.13,0,0,0-3.2-2.9,3.32,3.32,0,0,0-3.3,2.9h6.49Z"/><path class="cls-1" d="M810.61,30h0.07a3.33,3.33,0,0,1,3.18-2.23,3.47,3.47,0,0,1,1.83.58l-1,2a2,2,0,0,0-1.37-.47c-2.4,0-2.7,2.23-2.7,4.11v5.7h-2.23V28.11h2.23V30h0Z"/><path class="cls-1" d="M820.73,34.27a3.59,3.59,0,0,0,3.35,3.83h0.14a3.8,3.8,0,0,0,3.46-2.25l1.88,1.07a6,6,0,0,1-5.38,3.18c-3.59,0-5.7-2.67-5.7-6.1s1.91-6.24,5.64-6.24,5.43,2.72,5.43,6.17v0.35h-8.82Zm6.61-1.69a3.13,3.13,0,0,0-3.2-2.9,3.32,3.32,0,0,0-3.28,2.89h6.48Z"/><path class="cls-4" d="M484.9,24.84A3.46,3.46,0,0,0,482,23.26a2.29,2.29,0,0,0-2.4,2.17c0,3.25,7.63,1.89,7.63,8.39,0,3.86-2.4,6.59-6.34,6.59A6.82,6.82,0,0,1,475,36.66l2.4-2.4a4,4,0,0,0,3.47,2.8,2.58,2.58,0,0,0,2.49-2.66s0-.08,0-0.12c0-2-1.83-2.55-3.34-3.14-2.48-1-4.29-2.28-4.29-5.26a5.61,5.61,0,0,1,5.44-5.77h0.18a7.91,7.91,0,0,1,5.26,2.14Z"/><path class="cls-4" d="M498.08,39.86h-3.75v-16h-3.88V20.59H502v3.27h-3.88v16h0Z"/><path class="cls-4" d="M509.65,23.87v4.24h6v3.26h-6v5.21h6.21v3.27h-10V20.59h10v3.27h-6.21Z"/><path class="cls-4" d="M524.67,39.86h-3.75V20.59H526c4,0,6.66,1.61,6.66,6,0,4.09-2.22,6.08-6.16,6.08h-1.87v7.19h0Zm0-10.32h0.77c2.22,0,3.43-.48,3.43-3s-1.43-2.84-3.52-2.84h-0.66v5.82h0Z"/><path class="cls-4" d="M549.22,23.87V20.59h6.28V39.84h-3.75v-16h-2.53Z"/><path class="cls-1" d="M606,130.83h2.28c3.52,0,6.84.91,6.84,5.13a4,4,0,0,1-2,3.59h0a4.79,4.79,0,0,1,3.74,4.73c0,3.74-3.2,5.22-6.49,5.22H606V130.83Zm2.32,8.27H609c2.2,0,4-.44,4-3.13s-1.79-3.07-4-3.07h-0.65v6.19h0Zm0,8.33h1.79c2.16,0,4.41-.65,4.41-3.3S611.9,141,609.78,141h-1.44v6.47h0Z"/><path class="cls-1" d="M623.07,144.13a3.59,3.59,0,0,0,3.35,3.83h0.14a3.8,3.8,0,0,0,3.46-2.25l1.88,1.07a6,6,0,0,1-5.38,3.18c-3.59,0-5.7-2.67-5.7-6.1s1.91-6.24,5.64-6.24,5.43,2.72,5.43,6.17v0.35h-8.82Zm6.61-1.69a3.13,3.13,0,0,0-3.2-2.9,3.32,3.32,0,0,0-3.3,2.9h6.49Z"/><path class="cls-1" d="M647.11,149.33c0,4-1.2,6.87-5.64,6.87-3.22,0-5.55-2-5.6-5.25h2.23a3.15,3.15,0,0,0,3.46,3.27c2.74,0,3.32-1.88,3.32-4.27v-2.2h0a4.79,4.79,0,0,1-3.94,2.2c-3.59,0-5.55-2.95-5.55-6.27s2.11-6.06,5.45-6.06a4.7,4.7,0,0,1,4,2.32h0v-2h2.23v11.37h0ZM645,143.76a3.74,3.74,0,1,0-7.43,0c0,2.18,1.32,4.21,3.67,4.21s3.8-1.93,3.8-4.21h0Z"/><path class="cls-1" d="M655.67,132.65a1.53,1.53,0,1,1-1.54-1.54,1.53,1.53,0,0,1,1.54,1.54h0Zm-0.42,16.9H653v-11.6h2.23v11.6Z"/><path class="cls-1" d="M663.52,139.51h0a4,4,0,0,1,3.5-1.91c3.27,0,4.11,2.2,4.11,5v6.91H668.9v-6.64c0-2-.28-3.32-2.55-3.32-2.88,0-2.88,2.53-2.88,4.64v5.32h-2.23V138h2.23v1.56h0Z"/><path class="cls-1" d="M688.91,149.54h-2.25V140h-1.2v-2.08h1.2v-4.43h2.23v4.43h2.18V140h-2.18v9.51h0Z"/><path class="cls-1" d="M697,128v11.47h0a4,4,0,0,1,3.5-1.91c3.27,0,4.11,2.2,4.11,5v6.91h-2.23v-6.64c0-2-.28-3.32-2.55-3.32-2.88,0-2.88,2.53-2.88,4.64v5.32h-2.23V128H697Z"/><path class="cls-1" d="M711.54,144.13a3.59,3.59,0,0,0,3.35,3.83H715a3.8,3.8,0,0,0,3.46-2.25l1.88,1.07A6,6,0,0,1,715,150c-3.59,0-5.7-2.67-5.7-6.1s1.91-6.24,5.64-6.24,5.43,2.72,5.43,6.17v0.35h-8.82Zm6.61-1.69a3.13,3.13,0,0,0-3.2-2.9,3.32,3.32,0,0,0-3.3,2.9h6.49Z"/><path class="cls-1" d="M750.07,150l-1.61-1.67a9.67,9.67,0,1,1,4.46-8.08,9.5,9.5,0,0,1-2.92,6.89l2.9,2.85h-2.83Zm-1.67-4.51a7.36,7.36,0,1,0-5.3,2.34h0a7.33,7.33,0,0,0,3.71-1.07l-4.29-4.18h2.9Z"/><path class="cls-1" d="M759.52,138v6.41c0,1.86.47,3.5,2.67,3.5s2.67-1.63,2.67-3.5V138h2.23v6.66c0,3.18-1.49,5.33-4.9,5.33s-4.9-2.16-4.9-5.33V138h2.23Z"/><path class="cls-1" d="M775.7,132.65a1.53,1.53,0,1,1-1.54-1.54,1.53,1.53,0,0,1,1.54,1.54h0Zm-0.37,16.9H773v-11.6h2.28v11.6Z"/><path class="cls-1" d="M791.71,147.47v2.08H779.84l7.85-9.51h-6.52V138H792l-7.85,9.51h7.54Z"/><path class="cls-1" d="M800,148.51a1.44,1.44,0,1,1-2.88,0h0A1.44,1.44,0,0,1,800,148.51Zm-2.55-17.69h2.23v14.38H797.4V130.83Z"/><path class="cls-4" d="M514.52,134.7a3.46,3.46,0,0,0-2.89-1.58,2.29,2.29,0,0,0-2.4,2.17c0,3.25,7.63,1.89,7.63,8.39,0,3.86-2.4,6.59-6.34,6.59a6.82,6.82,0,0,1-5.92-3.75l2.4-2.4a4,4,0,0,0,3.47,2.8,2.58,2.58,0,0,0,2.49-2.66s0-.08,0-0.12c0-2-1.83-2.55-3.34-3.14-2.48-1-4.29-2.28-4.29-5.26a5.61,5.61,0,0,1,5.44-5.77h0.18a7.91,7.91,0,0,1,5.26,2.14Z"/><path class="cls-4" d="M527.7,149.71h-3.75v-16H520.1v-3.27h11.52v3.27h-3.88v16h0Z"/><path class="cls-4" d="M539.27,133.73V138h6v3.27h-6v5.12h6.21v3.27h-10V130.46h10v3.27h-6.21Z"/><path class="cls-4" d="M554.29,149.71h-3.75V130.46h5.1c4,0,6.66,1.61,6.66,6,0,4.09-2.22,6.08-6.16,6.08h-1.87v7.19h0Zm0-10.32h0.77c2.22,0,3.43-.48,3.43-3s-1.43-2.84-3.52-2.84H554.3v5.82h0Z"/><path class="cls-4" d="M589.25,143.3v3h-2v3.39h-3.52v-3.39h-8.46v-1.69l8.58-14.53h3.4v13.18h2v0Zm-5.56-7.68h0l-4.06,7.66h4.11v-7.66h0Z"/><path class="cls-4" d="M427.44,61.46a3.46,3.46,0,0,0-2.89-1.58,2.29,2.29,0,0,0-2.4,2.17c0,3.25,7.63,1.89,7.63,8.39,0,3.86-2.4,6.59-6.34,6.59a6.82,6.82,0,0,1-5.92-3.75l2.4-2.4a4,4,0,0,0,3.47,2.8A2.58,2.58,0,0,0,426,71.09q0-.09,0-0.17c0-2-1.83-2.55-3.34-3.14-2.48-1-4.29-2.28-4.29-5.26a5.61,5.61,0,0,1,5.44-5.77h0.18a7.91,7.91,0,0,1,5.26,2.14Z"/><path class="cls-4" d="M440.62,76.47h-3.75v-16H433V57.22H444.5v3.27h-3.88v16Z"/><path class="cls-4" d="M452.2,60.49v4.24h6V68h-6v5.21h6.19v3.27h-10V57.22h10v3.27H452.2Z"/><path class="cls-4" d="M467.21,76.47h-3.75V57.22h5.12c4,0,6.66,1.61,6.66,6,0,4.09-2.22,6.08-6.16,6.08h-1.87v7.19h0Zm0-10.32H468c2.22,0,3.43-.48,3.43-3s-1.43-2.84-3.52-2.84h-0.67v5.82Z"/><path class="cls-4" d="M501.74,73.2v3.27h-13l4.9-6.18c1.35-1.69,4.19-5,4.19-7.19,0-1.38-.9-3.12-2.48-3.12s-2.4,1.83-2.4,3.3h-4c0.25-3.7,2.4-6.57,6.34-6.57a6.12,6.12,0,0,1,6.25,6q0,0.11,0,.22c0,2.84-1.58,4.95-3.34,7l-2.84,3.3h6.33Z"/><path class="cls-1" d="M532.77,61.21A7.43,7.43,0,0,0,520.46,67a7.35,7.35,0,0,0,12.31,5.64V75.4a10.1,10.1,0,0,1-4.9,1.32,9.66,9.66,0,0,1-9.73-9.59h0a9.81,9.81,0,0,1,9.8-9.83h0.13a9,9,0,0,1,4.71,1.26v2.65Z"/><path class="cls-1" d="M540.1,76.31h-2.23V54.82h2.23V76.31Z"/><path class="cls-1" d="M548.86,59.42a1.53,1.53,0,1,1-1.54-1.54,1.53,1.53,0,0,1,1.54,1.54h0Zm-0.42,16.88h-2.23V64.72h2.23V76.31Z"/><path class="cls-1" d="M563,68a4.25,4.25,0,0,0-3.32-1.56,4,4,0,0,0-3.86,4.06,3.92,3.92,0,0,0,3.72,4.11h0.29A4.16,4.16,0,0,0,563,73.1v2.85a6.48,6.48,0,0,1-3.2.77,6.1,6.1,0,0,1-6.22-6s0-.07,0-0.11a6.16,6.16,0,0,1,6.07-6.24h0.27a6.28,6.28,0,0,1,3.07.77V68h0Z"/><path class="cls-1" d="M570.27,69.08l4.36-4.36h3l-4.95,4.79,5.45,6.78h-2.9L571.09,71l-0.77.77v4.51H568V54.82h2.23V69.08h0Z"/><path class="cls-1" d="M591.38,63.86l3.3-6.61,1.39,0.58-2.72,6.81Zm4.11,0,3.3-6.61,1.39,0.58-2.72,6.81Z"/><path class="cls-1" d="M623.28,67a9.78,9.78,0,1,1-9.77-9.77A9.78,9.78,0,0,1,623.28,67ZM621,67a7.6,7.6,0,1,0,0,.6q0-.3,0-0.6h0Z"/><path class="cls-1" d="M629.81,66.65h0a4.79,4.79,0,0,1,4-2.28c3.34,0,5.45,2.9,5.45,6.06s-2,6.27-5.55,6.27a4.79,4.79,0,0,1-3.89-2.19h0V82.9h-2.28V64.72h2.23v1.93Zm7.31,3.86a3.74,3.74,0,1,0-7.43,0c0,2.18,1.32,4.21,3.67,4.21S637.12,72.8,637.12,70.51Z"/><path class="cls-1" d="M645.33,70.91a3.59,3.59,0,0,0,3.35,3.83h0.14a3.79,3.79,0,0,0,3.46-2.25l1.88,1.07a6,6,0,0,1-5.37,3.16c-3.59,0-5.69-2.67-5.69-6.09s1.91-6.24,5.64-6.24,5.43,2.72,5.43,6.16v0.36h-8.84Zm6.61-1.68a3.13,3.13,0,0,0-3.2-2.9,3.32,3.32,0,0,0-3.3,2.9h6.49Z"/><path class="cls-1" d="M660.79,66.28h0a4,4,0,0,1,3.49-1.91c3.27,0,4.11,2.2,4.11,5v6.9h-2.23V69.72c0-2-.28-3.32-2.55-3.32-2.88,0-2.88,2.53-2.88,4.63v5.32H658.5V64.76h2.23v1.56Z"/><path class="cls-1" d="M677.72,58l-3.3,6.61L673,64.06l2.72-6.81Zm4.11,0-3.3,6.61-1.39-.56,2.72-6.81Z"/><path class="cls-1" d="M700.92,72.11l3.42-8,3.39,8,3.37-7.38h2.53l-5.9,12L704.33,69l-3.42,7.75-5.9-12h2.53Z"/><path class="cls-1" d="M719.43,54.82V66.29h0a4,4,0,0,1,3.49-1.91c3.27,0,4.11,2.2,4.11,5v6.9H724.8v-6.6c0-2-.28-3.32-2.55-3.32-2.88,0-2.88,2.53-2.88,4.63v5.32h-2.23V54.82h2.29Z"/><path class="cls-1" d="M734,70.91a3.59,3.59,0,0,0,3.35,3.83h0.14a3.79,3.79,0,0,0,3.46-2.25l1.88,1.07a6,6,0,0,1-5.37,3.16c-3.59,0-5.69-2.67-5.69-6.09s1.91-6.24,5.64-6.24,5.43,2.72,5.43,6.16v0.36H734Zm6.61-1.68a3.13,3.13,0,0,0-3.2-2.9,3.32,3.32,0,0,0-3.3,2.9h6.49Z"/><path class="cls-1" d="M749.41,66.28h0a4,4,0,0,1,3.49-1.91c3.27,0,4.11,2.2,4.11,5v6.9h-2.23V69.72c0-2-.28-3.32-2.55-3.32-2.88,0-2.88,2.53-2.88,4.63v5.32h-2.23V64.76h2.23v1.56Z"/><path class="cls-1" d="M774.28,66.65h0a4.79,4.79,0,0,1,4-2.28c3.34,0,5.45,2.9,5.45,6.06s-2,6.27-5.55,6.27a4.79,4.79,0,0,1-3.94-2.2h0v8.39h-2.23V64.72h2.23v1.93h0Zm7.31,3.86a3.74,3.74,0,1,0-7.43,0c0,2.18,1.32,4.21,3.67,4.21S781.59,72.8,781.59,70.51Z"/><path class="cls-1" d="M790.9,66.6h0a3.33,3.33,0,0,1,3.16-2.23,3.47,3.47,0,0,1,1.83.58l-1,2a2,2,0,0,0-1.37-.47c-2.4,0-2.7,2.23-2.7,4.11v5.69h-2.19V64.72h2.28V66.6Z"/><path class="cls-1" d="M811,70.54a6.19,6.19,0,1,1-6.23-6.16h0a6.1,6.1,0,0,1,6.19,6Q811,70.46,811,70.54Zm-10.15,0a4,4,0,1,0,4-4A4,4,0,0,0,800.82,70.54Z"/><path class="cls-1" d="M817.64,66.12h0a3.79,3.79,0,0,1,3.07-1.81A3.7,3.7,0,0,1,824,66.37a4.18,4.18,0,0,1,3.59-2.06c3,0,3.83,2.4,3.83,5v6.94h-2.23V69.72c0-1.49-.2-3.39-2.16-3.39-2.4,0-2.55,2.48-2.55,4.25v5.69h-2.23V70.14c0-1.51-.07-3.81-2.13-3.81-2.4,0-2.58,2.4-2.58,4.25v5.69h-2.23V64.68h2.23v1.44h0Z"/><path class="cls-1" d="M839,66.65h0a4.79,4.79,0,0,1,4-2.28c3.34,0,5.45,2.9,5.45,6.06s-2,6.27-5.55,6.27A4.79,4.79,0,0,1,839,74.5h0v8.39h-2.23V64.72H839v1.93h0Zm7.31,3.86a3.74,3.74,0,1,0-7.43,0c0,2.18,1.32,4.21,3.67,4.21s3.76-1.92,3.76-4.21h0Z"/><path class="cls-1" d="M855.74,76.31h-2.23V66.8h-1.2V64.72h1.2V60.29h2.23v4.43h2.18V66.8h-2.18v9.5Z"/><path class="cls-1" d="M862.94,70.91a3.59,3.59,0,0,0,3.35,3.83h0.14a3.79,3.79,0,0,0,3.46-2.25l1.88,1.07a6,6,0,0,1-5.37,3.16c-3.59,0-5.69-2.67-5.69-6.09s1.91-6.24,5.64-6.24,5.43,2.72,5.43,6.16v0.36h-8.84Zm6.61-1.68a3.13,3.13,0,0,0-3.2-2.9,3.32,3.32,0,0,0-3.3,2.9h6.49Z"/><path class="cls-1" d="M884.8,74.51h0a4.79,4.79,0,0,1-3.94,2.2c-3.59,0-5.55-2.95-5.55-6.27s2.11-6.06,5.45-6.06a4.79,4.79,0,0,1,4,2.28h0V54.82H887V76.31H884.8v-1.8h0Zm0.12-4a3.74,3.74,0,1,0-7.43,0c0,2.18,1.32,4.21,3.67,4.21s3.77-1.93,3.77-4.22h0Z"/><path class="cls-1" d="M578.3,97.79a3.2,3.2,0,0,0-3-1.76,3,3,0,0,0-3.12,2.65c0,1.46,1.44,2.23,2.6,2.67l1.34,0.52c2.65,1,4.64,2.5,4.64,5.62a5.76,5.76,0,0,1-5.7,5.83h-0.29a5.82,5.82,0,0,1-5.78-5.22l2.4-.49a3.53,3.53,0,1,0,7.06-.1c0-2-1.61-2.88-3.22-3.59l-1.28-.54c-2.13-.91-4.06-2.13-4.06-4.73,0-3,2.67-4.79,5.5-4.79a5.33,5.33,0,0,1,4.79,2.83Z"/><path class="cls-1" d="M588.08,112.93h-2.23v-9.51h-1.2v-2.08h1.2V96.89h2.23v4.43h2.18v2.08h-2.18v9.51Z"/><path class="cls-1" d="M604.55,107.51a3.59,3.59,0,0,0,3.35,3.83H608a3.8,3.8,0,0,0,3.46-2.25l1.88,1.07a6,6,0,0,1-5.38,3.18c-3.59,0-5.7-2.67-5.7-6.1s1.91-6.24,5.64-6.24,5.43,2.72,5.43,6.17v0.35h-8.82Zm6.61-1.69a3.13,3.13,0,0,0-3.2-2.9,3.32,3.32,0,0,0-3.3,2.9h6.49Z"/><path class="cls-1" d="M627.78,112.93h-2.24v-1.81h0a4.79,4.79,0,0,1-3.94,2.2c-3.59,0-5.55-2.95-5.55-6.27s2.11-6.06,5.48-6.06a4.79,4.79,0,0,1,4,2.28h0v-1.93h2.23v11.6h0Zm-2.11-5.8a3.74,3.74,0,1,0-7.43,0c0,2.18,1.32,4.21,3.67,4.21s3.77-1.92,3.77-4.19h0Z"/><path class="cls-1" d="M634.12,102.8h0a3.79,3.79,0,0,1,3.07-1.81,3.7,3.7,0,0,1,3.34,2.06,4.18,4.18,0,0,1,3.59-2.06c3,0,3.83,2.4,3.83,5v6.94h-2.23v-6.57c0-1.49-.2-3.39-2.16-3.39-2.4,0-2.55,2.48-2.55,4.27v5.7h-2.23V106.8c0-1.51-.07-3.81-2.13-3.81-2.4,0-2.58,2.4-2.58,4.27V113h-2.19v-11.6h2.23v1.44Z"/><path class="cls-1" d="M665.62,112.93h-2.23v-9.51h-1.2v-2.08h1.2V96.89h2.23v4.43h2.18v2.08h-2.18v9.51Z"/><path class="cls-1" d="M673.72,91.43V102.9h0a4,4,0,0,1,3.5-1.91c3.27,0,4.11,2.2,4.11,5v6.91H679.1V106.3c0-2-.28-3.32-2.55-3.32-2.88,0-2.88,2.53-2.88,4.64v5.32h-2.23V91.43h2.28Z"/><path class="cls-1" d="M698.28,107.16a6.19,6.19,0,1,1-6.22-6.17h0a6.1,6.1,0,0,1,6.19,6Q698.28,107.08,698.28,107.16Zm-10.16,0a4,4,0,1,0,4-4A4,4,0,0,0,688.11,107.16Z"/><path class="cls-1" d="M707.43,104a1.71,1.71,0,0,0-1.49-1,1.2,1.2,0,0,0-1.2,1.2c0,1,1.34,1.46,2.7,2.08s2.67,1.46,2.67,3.3a3.89,3.89,0,0,1-4,3.84h0a4.27,4.27,0,0,1-4-2.6l1.91-.86a2.3,2.3,0,0,0,2.11,1.49,1.67,1.67,0,0,0,1.76-1.57s0,0,0-.06a1.4,1.4,0,0,0-.81-1.26l-2.18-1.2c-1.28-.69-2.23-1.34-2.23-2.92a3.38,3.38,0,0,1,3.39-3.37h0a3.45,3.45,0,0,1,3.18,2Z"/><path class="cls-1" d="M716.11,107.51a3.59,3.59,0,0,0,3.35,3.83h0.14a3.8,3.8,0,0,0,3.46-2.25l1.88,1.07a6,6,0,0,1-5.38,3.18c-3.59,0-5.7-2.67-5.7-6.1s1.91-6.24,5.64-6.24,5.43,2.72,5.43,6.17v0.35h-8.82Zm6.61-1.69a3.13,3.13,0,0,0-3.2-2.9,3.32,3.32,0,0,0-3.3,2.9h6.49Z"/><path class="cls-1" d="M738.79,91.43H741v11.84h0a4.79,4.79,0,0,1,4-2.28c3.34,0,5.45,2.9,5.45,6.06s-2,6.27-5.55,6.27a4.79,4.79,0,0,1-3.94-2.2h0v1.81h-2.23V91.43h0Zm9.59,15.71a3.74,3.74,0,1,0-7.43,0c0,2.18,1.32,4.21,3.67,4.21s3.71-1.93,3.71-4.21h0Z"/><path class="cls-1" d="M766.08,112.93h-2.23v-1.81h0a4.79,4.79,0,0,1-3.94,2.2c-3.59,0-5.55-2.95-5.55-6.27s2.11-6.06,5.48-6.06a4.79,4.79,0,0,1,4,2.28h0v-1.93h2.23v11.6h0Zm-2.11-5.8a3.74,3.74,0,1,0-7.43,0c0,2.18,1.32,4.21,3.67,4.21s3.77-1.92,3.77-4.19h0Z"/><path class="cls-1" d="M773.69,102.9h0a4,4,0,0,1,3.5-1.91c3.27,0,4.11,2.2,4.11,5v6.91h-2.23V106.3c0-2-.28-3.32-2.55-3.32-2.88,0-2.88,2.53-2.88,4.64v5.32h-2.23v-11.6h2.23v1.56h0Z"/><path class="cls-1" d="M797.74,112.71c0,4-1.2,6.87-5.64,6.87-3.22,0-5.55-2-5.6-5.25h2.23a3.15,3.15,0,0,0,3.46,3.27c2.74,0,3.32-1.88,3.32-4.27v-2.2h0a4.79,4.79,0,0,1-3.94,2.2c-3.59,0-5.55-2.95-5.55-6.27s2.11-6.06,5.45-6.06a4.7,4.7,0,0,1,4,2.32h0v-2h2.23v11.37h0Zm-2-5.57a3.74,3.74,0,1,0-7.43,0c0,2.18,1.32,4.21,3.67,4.21S795.69,109.41,795.69,107.14Z"/><path class="cls-1" d="M804.45,107.51a3.59,3.59,0,0,0,3.35,3.83h0.14a3.8,3.8,0,0,0,3.46-2.25l1.88,1.07a6,6,0,0,1-5.38,3.18c-3.59,0-5.7-2.67-5.7-6.1s1.91-6.24,5.64-6.24,5.43,2.72,5.43,6.17v0.35h-8.82Zm6.61-1.69a3.13,3.13,0,0,0-3.2-2.9,3.32,3.32,0,0,0-3.3,2.9h6.49Z"/><path class="cls-1" d="M820.07,103.27h0.07a3.33,3.33,0,0,1,3.12-2.28,3.47,3.47,0,0,1,1.83.58l-1,2a2,2,0,0,0-1.37-.47c-2.4,0-2.7,2.23-2.7,4.11v5.7h-2.23v-11.6H820v1.92h0.06Z"/><path class="cls-1" d="M833.51,104a1.71,1.71,0,0,0-1.49-1,1.2,1.2,0,0,0-1.2,1.2c0,1,1.34,1.46,2.7,2.08s2.67,1.46,2.67,3.3a3.89,3.89,0,0,1-4,3.84h0a4.27,4.27,0,0,1-4-2.6l1.91-.86a2.3,2.3,0,0,0,2.11,1.49,1.67,1.67,0,0,0,1.76-1.57s0,0,0-.06a1.4,1.4,0,0,0-.81-1.26l-2.18-1.2c-1.28-.69-2.23-1.34-2.23-2.92a3.38,3.38,0,0,1,3.39-3.37h0a3.45,3.45,0,0,1,3.18,2Z"/><path class="cls-4" d="M478.27,98.08a3.46,3.46,0,0,0-2.89-1.58,2.29,2.29,0,0,0-2.4,2.17c0,3.25,7.63,1.89,7.63,8.39,0,3.86-2.4,6.59-6.34,6.59a6.82,6.82,0,0,1-5.92-3.75l2.4-2.4a4,4,0,0,0,3.47,2.8,2.58,2.58,0,0,0,2.49-2.66s0-.08,0-0.12c0-2-1.83-2.55-3.34-3.14-2.48-1-4.29-2.28-4.29-5.26a5.61,5.61,0,0,1,5.44-5.77h0.18A7.91,7.91,0,0,1,480,95.49Z"/><path class="cls-4" d="M491.45,113.09h-3.71v-16h-3.88V93.84h11.52v3.27h-3.92v16Z"/><path class="cls-4" d="M503,97.11v4.24h6v3.27h-6v5.21h6.21v3.27h-10V93.84h10v3.27H503Z"/><path class="cls-4" d="M518,113.09h-3.75V93.84h5.1c4,0,6.66,1.61,6.66,6,0,4.09-2.22,6.08-6.16,6.08H518v7.19h0Zm0-10.32h0.77c2.22,0,3.43-.48,3.43-3S520.81,97,518.71,97h-0.66v5.82h0Z"/><path class="cls-4" d="M540.39,98.87a5.66,5.66,0,0,1,5.77-5.54h0.13a5.16,5.16,0,0,1,5.54,5.44,4.79,4.79,0,0,1-1.83,4c1.76,0.77,2.48,2.94,2.48,4.7,0,3.77-2.73,6.12-6.41,6.12a6.3,6.3,0,0,1-6.39-6.08h3.77a2.76,2.76,0,0,0,2.71,2.8h0a2.82,2.82,0,0,0,2.58-3v-0.06c0-1.53-1-3.19-2.71-3.07h-0.69v-2.68h0.41a2.4,2.4,0,0,0,2.4-2.66,2.25,2.25,0,0,0-2.1-2.39H546a2.3,2.3,0,0,0-2.1,2.4h-3.59Z"/><path class="cls-1" d="M596.11,103.19h0.08a3.35,3.35,0,0,1,3.19-2.24,3.49,3.49,0,0,1,1.84.57l-1,2a2,2,0,0,0-1.37-.47c-2.41,0-2.71,2.24-2.71,4.13v5.73h-2.24V101.29h2.24v1.89Z"/><path class="cls-3" d="M856.74,24.16a11.1,11.1,0,0,1,2,.16A27.17,27.17,0,0,1,864,25.78a173.26,173.26,0,0,1,18,7.44c3.64,1.76,7.51,3.84,11.47,6.27a91.17,91.17,0,0,1,11.89,8.59A57.36,57.36,0,0,1,916,59.86a35.37,35.37,0,0,1,5.84,15.45A30.74,30.74,0,0,1,922,79.5c0,0.36,0,.67,0,1.07l-0.07,1-0.14,2c-0.22,2.66-.56,5.38-1,8a92.7,92.7,0,0,1-3.92,15.07A100.17,100.17,0,0,1,904.19,131a102.78,102.78,0,0,1-12.59,14.73c-1.68,1.63-3.07,2.84-4,3.65s-1.51,1.22-1.51,1.22a0.5,0.5,0,0,1-.61-0.79s0.5-.41,1.42-1.23,2.24-2.07,3.85-3.73a107.07,107.07,0,0,0,12-14.89,98,98,0,0,0,11.78-24.13,90,90,0,0,0,3.43-14.72c0.37-2.57.63-5.09,0.78-7.7l0.09-2,0-1c0-.26,0-0.61,0-0.92a27.48,27.48,0,0,0-.25-3.76A31.89,31.89,0,0,0,913,61.89a53.6,53.6,0,0,0-10.14-10.77,94,94,0,0,0-11.51-8c-3.85-2.3-7.64-4.24-11.18-5.93A168.9,168.9,0,0,0,862.55,30a39.47,39.47,0,0,1-5-1.89,12.88,12.88,0,0,1-1.67-.92l0,0A1.66,1.66,0,0,1,856.74,24.16Z"/></svg>