<svg id="Layer_1" data-name="Layer 1" xmlns="http://www.w3.org/2000/svg" viewBox="0 0 1163.78 424.71"><defs><style>.cls-1{fill:#9ca839;}.cls-2,.cls-5{fill:#f5a428;}.cls-3,.cls-4{fill:#e33b26;}.cls-4,.cls-5{fill-rule:evenodd;}</style></defs><title>nd_quiz_r03-02</title><path class="cls-1" d="M90.94,130.44q38.71-3.22,56.33,11.06t17.62,40.32q0,21-11.63,35.83T117.43,236c-0.62,13.36-2.19,59.73-2.35,81.38l-27.65.92Zm42.62,37.33q-4.61-6.68-14.05-6.91l-1.61,46.31a20.73,20.73,0,0,0,14.06-7q5.3-6.1,5.76-15.78Q138.17,174.45,133.56,167.76Z"/><path class="cls-1" d="M229,308.68q-24.88,3-57.6,5.07-0.46-45.85,0-80.75t1.15-55.87l0.69-20.73c22.73-2,42.65-.54,60-0.54,0.15,9.52.12,15.9-.34,24a281.25,281.25,0,0,0-31.1,2.54l-1.61,41.24c10.29-.77,34.6-1.9,43.35-1.9q0.23,11.52.23,24.19l-44.27,4.89q-0.69,20-.69,34.79,9.91-.46,30.64-0.92Q229.48,295.09,229,308.68Z"/><path class="cls-1" d="M248.09,299.79l23.27-176.85L306.6,125l5.3,21.19q5.53,21.2,14.05,60.59t15,75.79l-25.57,1.84-5.76-31.33q-10.83-1.38-29.26-2.07l-6.45,52.68ZM291.4,167.18q-1.85,17.05-7.6,59.9,10.14,0.92,20.51.92Q300.84,208,291.4,167.18Z"/><path class="cls-1" d="M396.37,285.18q2.42-8.3,3.11-27.65l28.11-1.15Q427.13,322,387.5,322q-12,0-20.16-6T354.9,298.66A107.2,107.2,0,0,1,349,274a262.28,262.28,0,0,1-1.61-31.22,164.09,164.09,0,0,1,4.49-40q4.49-17.86,14.28-29.37t23.61-11.52q20.28,0,28.22,15.2t6.57,43.54l-26,1.15a77.62,77.62,0,0,0-1.26-20.28q-2-9.91-6.8-9.91-12.44,0-14.28,49.3-0.92,24.88,2.3,38.7t9.68,13.83Q394,293.47,396.37,285.18Z"/><path class="cls-1" d="M493.05,308q-24.88,3-57.6,5.07c-0.31-30.56-.46-72-0.15-95.26s0.69-41.89,1.15-55.87l0.69-20.73q34.1-3,60.13-3,0.23,14.29-.46,26.5a279.66,279.66,0,0,0-31.1,2.53l-1.61,41.24q15.44-1.15,28.57-1.15,0.23,11.52.23,24.19l-29.49,4.15c-0.46,13.36-.54,39.47-0.54,49.3q9.91-.46,30.64-0.92Q493.51,294.39,493.05,308Z"/><path class="cls-2" d="M527.56,176.42a9.32,9.32,0,0,1,6.91-2.65,9.68,9.68,0,0,1,5.59,1.73,5.74,5.74,0,0,1,2.2,5.14c0,0.85-.19,5.76-0.47,8.24s-0.43,4.38-.47,5.71a3.62,3.62,0,0,0,.44,2.19,2,2,0,0,0,1.64.67,4.15,4.15,0,0,0,2.22-.55,6.48,6.48,0,0,1,1.4-.74,0.47,0.47,0,0,1,.54.51,2,2,0,0,1-.6,1.06,6.32,6.32,0,0,1-1.91,1.34,5.82,5.82,0,0,1-2.8.62,6.14,6.14,0,0,1-3.29-.93,2.1,2.1,0,0,0-3-.48,23.68,23.68,0,0,1-3.06.84,18.35,18.35,0,0,1-4.32.37q-9.06-.22-8.94-4.91,0.06-2.71,3.39-4.17a16.87,16.87,0,0,1,7.3-1.37q1.66,0,3.09.21c1,0.11,1.69.22,2.2,0.33s0.81,0.16.88,0.16a0.53,0.53,0,0,0,.51-0.6c0.26-1.76.43-6.59,0.47-8a8.28,8.28,0,0,0-.73-4.11,3.15,3.15,0,0,0-2.95-1.51q-5-.12-8,8.32a1.6,1.6,0,0,1-1.5.35,1.39,1.39,0,0,1-1.31-.75,43.62,43.62,0,0,1,0-4.95q0.14-3.56.22-4.33,0.4-.71,2-0.48a2.67,2.67,0,0,1,2,1,10.85,10.85,0,0,0-.38,1.93,0.15,0.15,0,0,0,.16.17A0.92,0.92,0,0,0,527.56,176.42Zm8.09,15.18a7.74,7.74,0,0,0-3.57-.72,11.45,11.45,0,0,0-5.11,1q-2.29,1-2.33,2.87-0.07,3,5.51,3.11a9.2,9.2,0,0,0,4.53-1,3.41,3.41,0,0,0,2.09-3A2.28,2.28,0,0,0,535.65,191.6Z"/><path class="cls-2" d="M555.24,171.64c0,5.64-.16,15.5.06,15.94a1.49,1.49,0,0,0,.76.66,8.49,8.49,0,0,0,2,.33l1.85,0.2a0.58,0.58,0,0,1,.5.73,0.59,0.59,0,0,1-.63.66h-3q-3.83,0-6.54.13t-3.87.23l-1.29.1a0.57,0.57,0,0,1-.36-0.13,0.53,0.53,0,0,1-.2-0.33,2.36,2.36,0,0,1,0-.4,0.56,0.56,0,0,1,.13-0.36,0.41,0.41,0,0,1,.33-0.17l1.65-.2a5.54,5.54,0,0,0,2.08-.56,1.79,1.79,0,0,0,.69-1.35c0.13-.93.47-10.59,0.47-15.34v-1q0-9.51-.2-10.9a2.17,2.17,0,0,0-.53-1.39,2.69,2.69,0,0,0-1.32-.46l-1.16-.06a6.43,6.43,0,0,1-1.09-.13,0.72,0.72,0,0,1,0-1.39q2.91-.26,6.81-0.26,2.31,0,2.64.46a1.72,1.72,0,0,1,.2,1.12l-0.07.59c0,0.49,0,.73.2,0.73a10.89,10.89,0,0,0,1.09-.5,19.06,19.06,0,0,1,2.81-1A13.14,13.14,0,0,1,563,157a17.26,17.26,0,0,1,4.16.46,11.64,11.64,0,0,1,3.67,1.69A7.93,7.93,0,0,1,573.7,163a17.7,17.7,0,0,1,1,6.44c0,1.15.16,2.63,0.07,4.92s-0.13,3.55-.13,3.77a4.06,4.06,0,0,0,.4,2.12,4.31,4.31,0,0,0,2.51.92l1.65,0.26a0.61,0.61,0,0,1,.53.73,0.56,0.56,0,0,1-.59.66l-1.26-.1q-1.12-.1-3.47-0.2t-5.39-.1H565a0.56,0.56,0,0,1-.56-0.66,0.58,0.58,0,0,1,.5-0.73l1.26-.13q2.18-.27,2.51-0.79a9.53,9.53,0,0,0,.66-3.44c0.09-1.32-.07-3.07-0.07-5.71q0-6.21-1.59-9.05t-5.55-2.84a6.26,6.26,0,0,0-5.05,2.15,8.35,8.35,0,0,0-1.82,5.58v4.83Z"/><path class="cls-2" d="M590.95,162.43c-0.21,1.83-1.31,16.78-1.61,20.14s-0.58,6.92-.85,10.66q-0.74,10.16-.54,11.26a1.13,1.13,0,0,0,.83.9,17.44,17.44,0,0,0,3.31.43,0.46,0.46,0,0,1,.45.57,0.49,0.49,0,0,1-.42.57q-3.27.14-4.36,0.23l-1.42.17-1.31.15a5,5,0,0,1-.76,0,0.82,0.82,0,0,1-.62-0.75,0.83,0.83,0,0,0-.52-0.74,4.11,4.11,0,0,0-1.31.12,16.59,16.59,0,0,1-5.24.33q-5.4-.39-8-3.38a9.82,9.82,0,0,1-2.31-7.53,10.28,10.28,0,0,1,3.64-7.5,10.71,10.71,0,0,1,7.94-2.41,13.57,13.57,0,0,1,4.22,1,17.34,17.34,0,0,0,2.11.81c0.25,0,.39-0.17.42-0.57l0.15-2.11c0.5-6.95,1.49-23.27,1.23-24.26a1.22,1.22,0,0,0-.67-0.84,9.52,9.52,0,0,0-2.17-.46l-1.67-.23a0.63,0.63,0,0,1,.09-1.19q3.59-.07,7.64.23a3.18,3.18,0,0,1,2,.58,1.53,1.53,0,0,1,.1.93Q591.26,159.68,590.95,162.43ZM579,188a6.54,6.54,0,0,0-5.76,2.3,10.87,10.87,0,0,0-2.48,6.5q-0.29,4,1.26,5.9a6.51,6.51,0,0,0,4.84,2.14,8.07,8.07,0,0,0,5.46-1.18,3,3,0,0,0,1-1.56,21.11,21.11,0,0,0,.53-3.92q0.45-6.16-.11-7.5Q582.7,188.31,579,188Z"/><path class="cls-2" d="M529.9,233.32q0-4.14,0-6.16a2,2,0,0,1,.47-1.62,2.79,2.79,0,0,1,1.59-.48q2.42-.16,3.3.82-0.47,6-.45,11.49a1.35,1.35,0,0,0,.11.77,0.67,0.67,0,0,0,.53.11l3.42-.35,3.31-.34a0.59,0.59,0,0,1,.58.51,1.82,1.82,0,0,1,0,1.07,0.62,0.62,0,0,1-.54.56l-6.75.34a0.79,0.79,0,0,0-.62.21,2.5,2.5,0,0,0-.11.94q0.06,5.21.34,9.41a15,15,0,0,0,1.09,5.43q0.83,1.63,3.25,1.46a8.13,8.13,0,0,0,3.1-.84,14.86,14.86,0,0,1,1.6-.74,0.76,0.76,0,0,1,.86.7,7.51,7.51,0,0,1-2.75,2.21A10.62,10.62,0,0,1,538,260q-4.38.29-5.8-1.9t-1.78-7.55q-0.28-4.15-.36-8.77a2.92,2.92,0,0,0-.13-1.12,0.51,0.51,0,0,0-.54-0.22l-3.69.24a0.53,0.53,0,0,1-.56-0.63,0.6,0.6,0,0,1,.47-0.75l2.53-.29a5.39,5.39,0,0,0,1.54-.31,1,1,0,0,0,.29-0.86C529.93,237.58,529.91,236.08,529.9,233.32Z"/><path class="cls-2" d="M553.2,243.35a48,48,0,0,0-.46,5.82,0.89,0.89,0,0,0,.7.74,20.39,20.39,0,0,0,2.53.54l1.08,0.18a0.56,0.56,0,0,1,.39.71,0.5,0.5,0,0,1-.58.54l-3.5-.38q-2.13-.23-3.91-0.4t-2.85-.22c-0.71,0-1.32-.06-1.82-0.05h-1.16l-0.46,0a0.51,0.51,0,0,1-.42-0.66,0.53,0.53,0,0,1,.5-0.61h1.16a8.32,8.32,0,0,0,2.32-.18,1.61,1.61,0,0,0,.9-1,81.78,81.78,0,0,0,1.36-9.79l1-9c0.82-7.47,2.32-19.77,2.34-21.7a1.44,1.44,0,0,0-.47-1.24,7,7,0,0,0-2.23-.62l-1.26-.2a0.63,0.63,0,0,1,.13-1.21q4.39,0.25,7.66.61a2.44,2.44,0,0,1,1.68.59,1.57,1.57,0,0,1,.12,1.06s-0.12.73-.34,2.08-0.5,3.2-.84,5.55-1.72,12.34-2,14.79l0,0.29c-0.05.5,0,.76,0.21,0.78a5,5,0,0,0,1.09-.14,17.65,17.65,0,0,1,2.32-.24,19.3,19.3,0,0,1,3.07.1q5.34,0.58,7.93,3.77t1.83,10.08q-0.13,1.21-.49,3.69t-0.39,2.78a2.17,2.17,0,0,0,.14,1.35,5.59,5.59,0,0,0,2.57,1l1.59,0.35a0.53,0.53,0,0,1,.36.71,0.51,0.51,0,0,1-.55.55l-1.12-.15-2.52-.36q-1.57-.23-3.3-0.42t-3.08-.31q-1.47-.13-2.39-0.17l-1.1-.06a0.51,0.51,0,0,1-.42-0.65,0.53,0.53,0,0,1,.5-0.61l1.28,0q2.32,0,2.74-.63a8.89,8.89,0,0,0,.74-2.53q0.4-2,.76-5.38,0.62-5.63-.5-8.22t-5.07-3a7.67,7.67,0,0,0-5.84,1.34,2.89,2.89,0,0,0-1,2Z"/><path class="cls-2" d="M588.72,262.41a14.76,14.76,0,0,0,8-3c0.19-.13.43-0.3,0.72-0.53l0.64-.5a3.72,3.72,0,0,1,.47-0.32,2.63,2.63,0,0,1,.51-0.23,2,2,0,0,1,.46-0.08,1.16,1.16,0,0,1,1.32.85,13.83,13.83,0,0,1-4.5,4.2,15,15,0,0,1-15.5.15,8.34,8.34,0,0,1-4.06-7.05,17.07,17.07,0,0,1,2.6-10q2.9-4.83,7.63-5.1a11.8,11.8,0,0,1,2.7.16,11.82,11.82,0,0,1,5.69,2.88,9.34,9.34,0,0,1,2.09,3.09,12.59,12.59,0,0,1,1,4.43,5,5,0,0,1-.38,2.86,1.9,1.9,0,0,1-1.55.78l-3.78.11q-3.61.09-6,.23-4.61.27-4.88,0.75Q582.43,262.77,588.72,262.41Zm-0.4-19.77q-2.54.15-4.48,4a14.09,14.09,0,0,0-1.83,6.82q0.09,0.46,4.7.19a29,29,0,0,0,5.92-.69,1.77,1.77,0,0,0,1-2Q593.16,242.36,588.32,242.64Z"/><path class="cls-2" d="M164.86,115.54q0.42,7.92.63,9.48a1.53,1.53,0,0,0,1.16,1.42,16.9,16.9,0,0,0,3.86.35l3.48,0.08a0.79,0.79,0,0,1-.05,1.51l-1.9.07-4.16.12q-2.52.07-4.95,0.2t-7,.47l-4.51.34a0.62,0.62,0,0,1-.64-0.33,1,1,0,0,1-.07-0.75,0.52,0.52,0,0,1,.5-0.42l3.06-.42a27.39,27.39,0,0,0,3.51-.68,1.74,1.74,0,0,0,1.13-.95c0.66-1.52,1.18,1.13.32-15.06l0-.65q-0.39-7.33-.67-8.89-0.1-.72-1.43-0.91a26,26,0,0,0-4.46,0l-0.33,0q-4.19.22-5,1.12a7.26,7.26,0,0,0-.91,3.27q-0.35,2.64-.62,6.2T145.26,116a1.46,1.46,0,0,1-1.57,1.26c-0.87,0-1.36-.15-1.47-0.58q0-9.25-.3-15.6-0.12-2.36,2.49-2.5l2.42-.06,3.47-.18q5.23-.28,10.14-0.6t8.27-.6l5.91-.51,4-.37,1.47-.14a3.33,3.33,0,0,1,1.55.15,1,1,0,0,1,.47.73,151.86,151.86,0,0,0,.07,17.46,1.09,1.09,0,0,1-1,.45,1.93,1.93,0,0,1-1.84-.62,5.3,5.3,0,0,1-.67-2.13q-1.42-10.62-1.58-11.27a2.2,2.2,0,0,0-1.09-1.42,5.86,5.86,0,0,0-2.67-.29l-0.33,0q-7.26.39-7.8,1.53c-0.63,1.39-1.13-1.55-.3,14.2Z"/><path class="cls-2" d="M192.13,123a36.58,36.58,0,0,0,.2,6.43,1.23,1.23,0,0,0,1,.77,20.18,20.18,0,0,0,3.3.42l2.22,0.17a0.51,0.51,0,0,1,.52.4,1,1,0,0,1,0,.75,0.62,0.62,0,0,1-.63.35l-4.19-.08q-2.75-.05-5.15,0c-1.59,0-2.9,0-3.9.06l-2.59.08q-1.08,0-1.67.1l-0.72.05a0.79,0.79,0,0,1-.1-1.51l2-.16a11.89,11.89,0,0,0,3.16-.5A1.9,1.9,0,0,0,186.7,129q0.35-1.31.54-11l0.2-10.48c0.16-8.39.42-27.87,0.24-30.06a1.34,1.34,0,0,0-.6-1.26,8.76,8.76,0,0,0-2.51-.44l-2.62-.25a0.64,0.64,0,0,1-.58-0.77,0.57,0.57,0,0,1,.6-0.67q6.49-.07,10,0a2,2,0,0,1,1.43.42,1.65,1.65,0,0,1,.24,1.12c0,0.17-.07,1.16-0.22,2.95s-0.56,18.22-.72,20.9-0.26,5.19-.3,7.5v0.33q0,0.85.44,0.86a11.45,11.45,0,0,0,1.42-.27q1.22-.27,3.12-0.53a26.3,26.3,0,0,1,3.94-.22q15.07,0.29,14.8,14.64c0,0.92-.25,10.71-0.37,12.56s-0.19,2.89-.19,3.11a2.16,2.16,0,0,0,.36,1.52c0.39,0.4,1.56.71,3.52,0.92l2.62,0.31a0.52,0.52,0,0,1,.52.4,1,1,0,0,1,0,.75,0.62,0.62,0,0,1-.63.35l-2.95-.12q-3-.19-6-0.24-2.56,0-5.61,0l-3.18,0a0.62,0.62,0,0,1-.62-0.37,1,1,0,0,1,0-.75,0.51,0.51,0,0,1,.53-0.38l1.84-.1q3.28-.2,3.89-1.11a7.06,7.06,0,0,0,.71-2.93c0.16-1.57.42-11.89,0.46-14.17q0.12-6.29-1.82-9.21t-7.58-3a14.54,14.54,0,0,0-8.24,2.14,2.38,2.38,0,0,0-1.09,2.08Z"/><path class="cls-2" d="M237.39,135.31a27.69,27.69,0,0,0,6.4-1.89,19.39,19.39,0,0,0,4.91-2.84,8.94,8.94,0,0,1,2.7-1.78,1,1,0,0,1,1.31.71q-1.3,2.54-5.49,5.36a21.12,21.12,0,0,1-8.32,3.51,20,20,0,0,1-11.08-1.08,9.17,9.17,0,0,1-5.94-7.38,17.91,17.91,0,0,1,2.23-11.6q3.17-5.91,9-6.87a17.6,17.6,0,0,1,5.66.06,12,12,0,0,1,6.69,3.08q2.53,2.44,3.38,7.54a4.31,4.31,0,0,1-.26,3.07,3,3,0,0,1-2,1.1l-5,.7q-4.87.67-8,1.19-3.94.65-5,.92a1.25,1.25,0,0,0-1.11.75Q228.79,136.74,237.39,135.31Zm3.43-20.17a5.71,5.71,0,0,0-5.6-1.73q-3.75.62-6.16,5.11t-2,7.87q0.3,0.62,6.77-.46a46,46,0,0,0,8.27-1.84,2.29,2.29,0,0,0,1.4-2.76A12.15,12.15,0,0,0,240.82,115.14Z"/><path class="cls-1" d="M616.57,106.16q44.18-5.7,65.11,9.76T704,161.2q1.08,24-11.48,41.65t-40.1,22.84c0,15.34.3,19.07,1.24,43.9L622,272.07Zm50.76,40.55q-5.62-7.41-16.46-7.19l0.55,53.14a23.78,23.78,0,0,0,15.74-8.78q5.75-7.27,5.78-18.38Q673,154.14,667.33,146.72Z"/><path class="cls-1" d="M758.53,298.38l-5.4-41.89c-14.09.53-24.37,8.86-32.65,9.91l-11.4,61.82-29.33-2.12c4.93-27.83,15.44-82.69,22-112.81s11.89-53.29,16.12-69.5l8.7-44.11L767,97.32l21.15,196.57Zm-32-60.77c7.93,0,14.86-7.89,22.61-8.59-4.4-32.77-6.4-48.13-7.81-61.17Q730.52,214.62,726.56,237.61Z"/><path class="cls-1" d="M890.49,303.57q-13.74,0-32.77.53-20.61-63.94-31.18-116-0.27,26.41,0,56.54t0.79,47l0.27,16.91-29.86,1.58q-0.53-54.42-.53-95t0.53-64.08L798,127.59q17.7-.8,38.31-2.38l26.16,104.64c0.35-44.39,4.26-93.66,3.73-121l29.33,0.27C896.78,155.65,892.43,229.41,890.49,303.57Z"/><path class="cls-1" d="M939.7,318.21l-31.18,1.32q-0.26-54.7,0-94.33t0.53-61.83l0.27-22.19,33.29-1.85Z"/><path class="cls-1" d="M1013,237.44c1.85-6.34.51-8.68,1-23.48l32.24-1.32c-0.35,50.21-13.14,67.07-43.44,67.07q-13.74,0-23.12-6.87T965.4,252.9a122.93,122.93,0,0,1-6.74-28.27,300.92,300.92,0,0,1-1.85-35.81q0-25.36,5.15-45.84t16.38-33.69q11.23-13.22,27.08-13.21,23.26,0,32.37,17.44c6.08,11.63,8.23,20.83,7.17,42.5l-29.86,1.32c0.53-7.93.4-8.24-1.1-15.81s-4.1-11.36-7.8-11.36q-14.26,0-16.38,56.55-1.05,28.54,2.64,44.39t11.1,15.86Q1010.19,247,1013,237.44Z"/><path class="cls-1" d="M1074.84,308.13a17.71,17.71,0,0,1-11.66,3.45,13.76,13.76,0,0,1-10.33-5.05,13.91,13.91,0,0,1-3.24-11.07,15.18,15.18,0,0,1,5.4-10.19,15.64,15.64,0,0,1,11.2-3.59,15,15,0,0,1,10.8,5A14.52,14.52,0,0,1,1074.84,308.13Zm11-103.45q-3.17,30.36-5.09,46.47L1078.87,267l-24.18.28q0.82-37.74,2.22-65.49c0.94-18.5,4.86-70.09,5.66-80.69l1.21-15.9,30.59,3.3C1092.84,127.69,1088,184.44,1085.87,204.68Z"/><path class="cls-3" d="M570.08,314.18a27.67,27.67,0,0,0-5.53-1.88c1.52-.79,3-1.57,4.53-2.41a4.12,4.12,0,0,0,2.12-3.28c0-.34,0-0.68,0-1,0.25-2.94-2-5.18-5.51-5.92a31.28,31.28,0,0,0-5.62-.66c-4.36-.1-8.72-0.05-13.08,0-1.95,0-3.89.12-5.83,0.19-0.4,0-.8.09-1.22,0.14a5.4,5.4,0,0,0-.19,1c0,2.18,0,4.35,0,6.53q0,2.06,0,4.13a2.19,2.19,0,0,0-.1.8c0,0.52,0,1,.07,1.57a65.22,65.22,0,0,1-.5,6.79,59.52,59.52,0,0,0-1,7c-0.05,1.18,7.89,1,10.76.83,1-.07,1.91-0.36,2.88-0.4a115.14,115.14,0,0,0,13.28-1.22c3-.48,5.71-1.59,7.22-3.87A5.16,5.16,0,0,0,570.08,314.18Zm-19.72-10.87c2.23-.25,4.48-0.39,6.35-0.54,1.45,0.18,2.52.22,3.52,0.45,1.36,0.32,2.55.88,2.81,2.18a2.87,2.87,0,0,1-1.83,3,7.52,7.52,0,0,1-2.17.7c-2.59.3-5.21,0.51-7.82,0.73a4.87,4.87,0,0,1-1.25-.07,1.19,1.19,0,0,1-1.25-1.27c0-1.11-.05-2.22-0.11-3.33S548.93,303.47,550.36,303.31Zm10.08,20.22c-3.27.7-6.64,0.39-10,.14a5,5,0,0,1-.82-0.13c-0.79-.21-0.94-0.39-0.91-1.07l0.13-3.45h0c0-1.08.09-2.15,0.12-3.23s0.2-1.25,1.5-1.35,2.54-.13,3.82-0.15l6,0.21c0.56,0.06,1.12.15,1.67,0.24a3.5,3.5,0,0,1,2.85,2.11C566.15,319.83,564.77,322.59,560.44,323.53Z"/><path class="cls-4" d="M572.94,309.47a6.06,6.06,0,0,1,3-.19c1,0.08,2,.27,3,0.43a2.85,2.85,0,0,1,2,1.31c1.74,2.55,3.51,5.09,5.27,7.63a3.05,3.05,0,0,0,.39.37,3.41,3.41,0,0,0,.64-0.46c1.68-1.91,3.33-3.84,5-5.75q1.54-1.76,3.15-3.46a1.09,1.09,0,0,1,.72-0.32c1.8,0,3.6,0,5.4,0a1.21,1.21,0,0,1,.38.21,7.51,7.51,0,0,1-.3.71,44.55,44.55,0,0,1-4.45,5.59c-2.4,2.89-4.72,5.85-7.06,8.78a15.73,15.73,0,0,0-1.45,1.85,1.91,1.91,0,0,1-1.94,1,6,6,0,0,0-1.17.06,2.28,2.28,0,0,1-2.54-1.42c-0.74-1.47-1.58-2.88-2.41-4.3A95,95,0,0,0,574.4,312a23.19,23.19,0,0,1-1.46-2.53"/><path class="cls-4" d="M588.56,328.36c0,1.72,0,3.44,0,5.16a11,11,0,0,1-.16,1.51,0.8,0.8,0,0,1-.78.75c-1.09.09-2.18,0.2-3.27,0.21a1,1,0,0,1-1.07-1,12.19,12.19,0,0,1-.05-2c0-1.17.12-2.34,0.19-3.51a33.64,33.64,0,0,0-.12-5.85,8,8,0,0,1-.06-0.82c0-1,.14-1.18,1.11-1.24s1.95-.1,2.92-0.1c1.18,0,1.34.15,1.37,1.37s0,2.58,0,3.87c0,0.54,0,1.09-.07,1.64h0"/><path class="cls-4" d="M527.07,370.29c0.22-.84.14-1.29,0.95-1.29a11.74,11.74,0,0,0,2.33.09c1.31-.07,2.54-0.26,2.84.22s-0.6,4.76-2.37,6.58a12.82,12.82,0,0,1-3.2,2.25c-3.26,1.73-9.92,2.37-13.85,1.83a23.25,23.25,0,0,1-9.3-2.81,14.08,14.08,0,0,1-5.75-6.63,12.77,12.77,0,0,1-1.12-7.93A18.28,18.28,0,0,1,498.8,359a10.91,10.91,0,0,1,2.31-3.32,21,21,0,0,1,1.6-1.84,16.72,16.72,0,0,1,7-3.57,34.87,34.87,0,0,1,9.13-.5,25,25,0,0,1,7.53,1.56,17.75,17.75,0,0,1,6,3.76,8.66,8.66,0,0,1,2.14,2.53c0.06,0.13.15,0.25,0.22,0.38,0.6,1.14.44,1.43-.86,1.48-2.41.1-4.82,0.17-7.22,0.28a1.28,1.28,0,0,1-1.33-.6c-1.9-3.37-7.9-4.94-11.79-3.7a12.19,12.19,0,0,0-3.9,2,6.1,6.1,0,0,0-1.85,2.15c-0.42.89-.82,1.78-1.22,2.68a2.37,2.37,0,0,0-.17.58,13.42,13.42,0,0,0,.73,6.83,4.5,4.5,0,0,0,2,2.3,12.14,12.14,0,0,0,4.51,1.62c6.6,0.76,9.52.93,11.81-.71C526.58,372.18,526.71,371.63,527.07,370.29Z"/><path class="cls-4" d="M601.64,350.68c2.87,0,5.74-.09,8.6-0.07a20.26,20.26,0,0,1,7.84,1.47,12.27,12.27,0,0,1,6.41,5.31,12.52,12.52,0,0,1,.35,12.38,18.48,18.48,0,0,1-5.06,5.59,15.91,15.91,0,0,1-6.84,3.36,34.93,34.93,0,0,1-6.25.8c-4.59.12-9.18,0.06-13.77,0a29.6,29.6,0,0,1-3.15-.17c-1.4-.15-1.6-0.44-1.46-1.82,0.4-3.91.92-7.82,1.21-11.73,0.33-4.34.43-8.69,0.68-13,0.12-2.11-.43-2.27,2.41-2.26,3,0,6,0,9-.07v0.21Zm-3.68,15h0c-0.08,1.85-.18,3.7-0.24,5.55,0,1.47.17,1.66,1.61,2a20.61,20.61,0,0,0,5.42.35,17.94,17.94,0,0,0,7.4-2,5.86,5.86,0,0,0,3.36-5A11.83,11.83,0,0,0,614,360a4.53,4.53,0,0,0-3.7-2.54,32.24,32.24,0,0,0-3.56-.31c-2.1,0-4.2.18-6.3,0.33-1.79.12-2,.36-2.17,2.09-0.14,2-.22,4.07-0.32,6.1"/><path class="cls-4" d="M702.92,375.37a9.77,9.77,0,0,1,0-1.68,49.52,49.52,0,0,0,.63-9.49c0-4.63-.25-9.26-0.43-13.88,0-1.16-.27-2.33-0.32-3.49s0.12-1.35,1.66-1.49a7.48,7.48,0,0,1,1-.06c4.92,0.29,9.82-.2,14.73-0.27a54.5,54.5,0,0,1,10.11.9,36.19,36.19,0,0,1,7.79,2c3,1.22,4.31,3.28,4.51,5.7a6.34,6.34,0,0,1-1.26,3.45c-1.62,2.65-4.67,4-8.16,4.73a139,139,0,0,1-15.32,2.06,29.09,29.09,0,0,0-3.31.6,1.16,1.16,0,0,0-1,1.28c-0.15,2.29-.31,4.59-0.48,6.88,0,0.5-.12,1-0.2,1.49a1,1,0,0,1-1.09.78c-2,.19-4,0.4-6,0.54-0.9.06-1.81-.05-2.88-0.09m10.8-20.88h0l0,3.87c0,0.76.19,1,1.11,1.15a5.57,5.57,0,0,0,1,.11c3.89,0.1,7.81.28,11.56-.69,5-1.28,6.41-4.44,4.76-7.72a4.07,4.07,0,0,0-3.42-2.22c-0.9-.1-1.82-0.21-2.72-0.23-1.62,0-3.24,0-4.86.05-1.93.09-3.88,0.22-5.79,0.45-1.5.18-1.69,0.46-1.66,1.59s0,2.42,0,3.63"/><path class="cls-4" d="M577.32,349.61c-2.74,2-5.86,3-8.67,4.58s-5.72,2.94-8.66,4.44a3.14,3.14,0,0,0,.47.79c2.47,2.06,4,4.82,5.84,7.34a22,22,0,0,0,1.49,1.93,2.43,2.43,0,0,0,3.61.46,9.76,9.76,0,0,0,1.65-1.54c0.64-.68,1.22-1.41,1.82-2.12a1.4,1.4,0,0,1,1.88-.36c1.27,0.61,2.59,1.14,3.89,1.71,1.54,0.67,1.89,1.42,1.09,2.84a18.82,18.82,0,0,1-2.47,3.57,13.5,13.5,0,0,1-18.45,1,20.68,20.68,0,0,1-3-4.2c-0.81-1.2-1.47-2.49-2.34-3.66a6.28,6.28,0,0,0-8.51-1.74,1.45,1.45,0,0,0-.73,1.45c0,1.43,0,2.87,0,4.3-0.05,2.12-.14,4.25-0.22,6.37a6.37,6.37,0,0,1-.13.8,0.92,0.92,0,0,1-.31.26c-2,.13-4,0.34-6,0.33-1.27,0-1.38-.24-1.54-1.44a25.49,25.49,0,0,1-.22-2.58q-0.24-7.56-.45-15.13c-0.1-3.68-.16-7.35-0.24-11,0-.4,0-0.8,0-1.21a1,1,0,0,1,1.06-1.11c2.37,0,4.73,0,7.28-.07a22.64,22.64,0,0,1,.61,4.83c0.16,1.63.09,3.29,0.12,5.12a10.25,10.25,0,0,0,1.55-.37c3.58-1.53,7.17-3,10.7-4.64a99,99,0,0,0,12.73-6.89c1.09-.71,1.46-0.62,2.24.36q1.72,2.18,3.38,4.4a7.66,7.66,0,0,1,.59,1.24"/><path class="cls-4" d="M493.36,378.86c-0.88,0-1.65,0-2.42,0-6.08.36-12.17,0.73-18.25,1.08a13.76,13.76,0,0,1-1.94,0c-0.95-.07-1.15-0.19-1.27-1.1a32.28,32.28,0,0,1-.31-3.73c0-1.74.05-3.48,0-5.22-0.09-5.4-.2-10.8-0.3-16.2,0-.48.07-1,0.1-1.47a10.35,10.35,0,0,1,3.76-.38,67.59,67.59,0,0,0,8.57-.32c3.67-.4,7.34-0.73,11-1.09a9,9,0,0,1,1.11-.06c0.83,0,1.09.23,1.12,1a30.81,30.81,0,0,1-.1,3.21,1,1,0,0,1-.54.68,3.89,3.89,0,0,1-1.34.26c-4.15.14-8.31,0.23-12.46,0.38a28.36,28.36,0,0,0-3.43.34,1.1,1.1,0,0,0-1.14,1.38c0,1.16.07,2.33,0.16,3.48a1.65,1.65,0,0,0,1.81,1.79,9.82,9.82,0,0,0,1.66,0c3.13-.25,6.25-0.52,9.37-0.79,1-.08,1.27.11,1.32,1.06a22.14,22.14,0,0,1,0,2.41c-0.06,1.16-.43,1.48-1.62,1.55-1.93.12-3.87,0.2-5.8,0.37-1.7.16-3.39,0.41-5.07,0.67-1,.15-1.08.3-1.08,1.22,0,1.29,0,2.59,0,3.88s0.35,1.59,1.67,1.55a122.62,122.62,0,0,0,13.52-1c1.23-.18,1.38-0.1,1.61,1a13.48,13.48,0,0,1,.23,3.85"/><path class="cls-4" d="M684,350.76c4.53,0,8.37-.09,12.21-0.11,1.16,0,1.28.11,1.34,1.17s0.05,1.91,0,2.87c0,1.2-.2,1.34-1.49,1.4-0.73,0-1.45,0-2.18,0l-11.53,0H682q-3.27.09-2.14,3.14a1.25,1.25,0,0,0,1.38.75c1.09,0,2.18-.06,3.26-0.07,2.81,0,5.62-.11,8.42,0,3.07,0.09,3.29.12,3.14,3.27s0.1,2.82-3.15,2.92c-3.69.11-7.38,0.1-11.06,0.15-1.63,0-1.72.1-1.79,1.74,0,0.75,0,1.51,0,2.26a0.92,0.92,0,0,0,.94,1c0.88,0,1.77,0,2.64,0,3,0,6-.08,9-0.06,0.87,0,1.74.24,2.62,0.32a1.21,1.21,0,0,1,1.24,1.28,21.58,21.58,0,0,1-.11,3c-0.14,1.14-.56,1.46-1.79,1.4-2.28-.1-4.57-0.26-6.85-0.4a99,99,0,0,0-12.61-.17c-1,.07-2.07.12-3.11,0.12-1.32,0-1.71-.32-1.72-1.59s0.15-2.7.21-4.06q0.17-3.76.29-7.54c0.12-3.62.21-7.24,0.35-10.86,0-1.21.31-1.48,1.61-1.53,3.95-.17,7.89-0.29,11.15-0.41"/><path class="cls-4" d="M435.52,353.08a15.9,15.9,0,0,0-.68,2.19c-0.49,3.5-1,7-1.39,10.53q-0.5,4.29-.82,8.6a1.57,1.57,0,0,1-1.48,1.65c-1.43.19-2.88,0.36-4.32,0.41-2.15.09-2.4-.21-2.3-2.24s0.22-3.83.19-5.74c-0.11-5.45-.45-10.9-0.4-16.35,0-4,.53-8.09.85-12.13a8.25,8.25,0,0,1,.28-1.29,2.29,2.29,0,0,1,2.34-2c2.2-.15,4.39-0.46,6.59-0.71a2.35,2.35,0,0,1,2.2.9c1.49,1.77,3.07,3.48,4.55,5.25,3.84,4.58,7.62,9.21,11.47,13.77a2.84,2.84,0,0,0,1.82,1.06c0.95,0,1.31-.94,1.47-1.74a32.11,32.11,0,0,0,.46-3.51c0.31-3.9.52-7.8,0.9-11.69,0.29-2.92.66-3.11,3.63-2.48,1,0.21,1.93.44,2.89,0.67a1.65,1.65,0,0,1,1.39,1.95c-0.29,5.23-.51,10.47-0.75,15.69-0.17,3.76-.29,7.52-0.52,11.28-0.1,1.61-.43,3.21-0.6,4.83a2.1,2.1,0,0,1-1.6,1.92c-1.44.5-2.84,1.08-4.26,1.62-1.93.73-2.49,0.59-3.67-1-1.84-2.53-3.47-5.23-5.54-7.58-3.61-4.09-6.6-8.67-10.71-12.36-0.52-.47-1.13-0.85-2-1.5"/><path class="cls-4" d="M645.36,382c-5,0-9.92.1-14.89,0.13a2,2,0,0,1-2.31-1.63,5.13,5.13,0,0,1-.21-1.07c-0.61-5.42-1.17-10.84-.52-16.31,0.35-3,.44-5.94.65-8.91a12.51,12.51,0,0,1,.18-1.52c0.46-2.34,1.17-2.84,3.67-2.89,3.68-.08,7.37-0.24,11-0.33,2.78-.07,5.56,0,8.33-0.12,2.92-.08,5.85-0.21,8.77-0.35,1.87-.09,2.35.28,2.14,2.09-0.35,3.24,0,4.43-4.66,4.57l-15.78.46c-0.53,0-1.06,0-1.58.06-1.44.14-1.7,0.39-1.9,1.67-0.37,2.39.41,3.22,2.93,3.12,5-.2,17.47-0.69,22.51-0.85,3.3-.1,3.59.24,3.37,3.48-0.29,4.37-.53,3.45-3.94,4.11-4.56.87-16.57,0.61-21.13,0.85l-0.68,0c-3.65.26-3.81-.12-3.81,4.21,0,1.38.5,1.82,1.89,1.94a12.53,12.53,0,0,0,1.57,0c3.76-.13,7.51-0.3,11.27-0.38,2.7-.06,5.4,0,8.11,0,2.16,0,2.59.54,2.53,2.68,0,0.22,0,.43-0.06.65-0.27,3.23-.5,3.35-3.78,3.47-4.58.17-9.15,0.48-13.73,0.72V382Z"/><path class="cls-5" d="M751.71,365.27c1.61-.49,3.38-0.19,5.21-0.14,2.51,0.07,4.84-1,7.31-.54,2.16,0.37,3.85,1.57,6.27.95,0.9-.23,1.49-0.8,2.29-1a11.16,11.16,0,0,1,4.17-.28c2.71,0.36,5.18,2.3,7.83,2a12.53,12.53,0,0,0,2.39-.86,11.41,11.41,0,0,1,2.44-.44c2.9-.24,5.3,1.08,8.45,1.31a37.21,37.21,0,0,0,4.41-.39,32.64,32.64,0,0,1,5.64.67,0.25,0.25,0,0,1-.15.19,14.93,14.93,0,0,0-2.64.12c-0.81.09-1.54,0-2.3,0.08-1.52.18-2.94,0.65-4.37,0.73-3.07.18-5.92-1.41-8.68-1.11-2.12.23-4.12,1.37-6.18,1.44-2.77.1-4.95-1.9-7.93-2.05-1.6-.08-3.6,1.09-5.59,1.38a10.23,10.23,0,0,1-4.5-.45,16.36,16.36,0,0,0-2.4-.77c-2.15-.3-4,0.6-6.13.32-0.88-.12-1.75-0.49-2.64-0.66A18.68,18.68,0,0,1,751.71,365.27Z"/><path class="cls-5" d="M752.6,359.34c1.22-.45,2.41.06,3.67-0.14a10.47,10.47,0,0,1,1.67-.35c1.88,0,3.62,1.08,6,.72,1.29-.2,2.11-0.79,3.25-0.87a14.77,14.77,0,0,1,3.19.17c1.69,0.24,3.55,1.14,5.72.66a16,16,0,0,1-3.34.79c-1.49,0-3-.44-4.49-0.37s-2.86.67-4.8,0.78a9,9,0,0,1-2.86-.29,13.67,13.67,0,0,0-2.48-.76C756.25,359.52,754.22,360.24,752.6,359.34Z"/><path class="cls-5" d="M750.54,354.59a60.73,60.73,0,0,1,6.28-.51c2.26-.22,4.35.3,6.25,0,1.64-.26,3.15-1.07,5-1.23s3.44,0.29,5.34.28c2.19,0,3.4-1.35,5.16-1.33,3.18,0,6.33,1.37,10.17.61-2.11.61-4.2,1.41-6.81,1.17a17.48,17.48,0,0,0-2.7-.39c-1.58.12-3.34,1.32-5.32,1.52-1.82.19-3.83-.53-5.78-0.4s-4,1.13-6,1.17c-1.53,0-3.07-.44-4.6-0.53C755.18,354.82,752.81,355.28,750.54,354.59Z"/><path class="cls-5" d="M748.45,350.28c2.06-.42,4-1,6.11-1.26,1.73-.21,3.54.14,5.28-0.23a12.57,12.57,0,0,0,2.77-1.33c2.57-1.24,6,.31,9-0.64,1.13-.35,1.9-1.26,3-1.61,2.91-.93,6.1.2,8.7-0.34-1.25.16-2.27,0.82-3.56,1.07s-2.8-.13-4.08.27c-2,.63-3.45,2-6.1,2.2-1.55.13-3.17-.42-4.91-0.24-1.12.12-3,1.35-4.44,1.68-2,.46-4.74,0-7.08.26A20.54,20.54,0,0,1,748.45,350.28Z"/><path class="cls-5" d="M744.63,345.9a12.73,12.73,0,0,0,3.49-1c0.66-.21,1.39-0.25,1.92-0.47a24.52,24.52,0,0,1,2.27-1.19c1.28-.35,3.34-0.3,5-0.71a21.78,21.78,0,0,0,2.6-2.08,18.67,18.67,0,0,0,2-.9c2.8-.88,6.66,0,8.29-0.9,1.37-1.73,4.21-2.71,6.87-3,1.79-.18,3.64.44,5.55-0.17,1.65-.53,3-1.68,4.73-2.14,2.92-.76,5.77-0.23,8.7-1.12-0.88.36-1.64,0.91-2.51,1.3-1.53.67-3.47,0.56-5.18,1.16-2.08.74-3.64,2-5.81,2.51a15.62,15.62,0,0,1-3.21.35,19.48,19.48,0,0,0-3.17,0c-2,.36-3.49,2.17-5.59,2.92a11.36,11.36,0,0,1-2.93.57c-1,.07-2-0.25-3.27-0.16-2.69.21-4.52,2.69-7.43,3.38-1.3.31-2.7,0.13-3.81,0.41s-1.94,1-3,1.19A11.66,11.66,0,0,1,744.63,345.9Z"/><path class="cls-5" d="M361.2,338.41c-0.32.34,0.59,0.4,1,.56a21.7,21.7,0,0,0,4.08,1.59c2.24,0.46,4.3.52,6.24,1.46,2.78,1.34,5.27,2.76,8.39,2.7,1.42,0,2.73-.49,4.42.35,2.32,1.16,4.32,3.19,7.14,3.73a12.05,12.05,0,0,0,2.37.24c0.84,0,1.49-.44,2.47-0.43,2.89,0,4.66,2.33,7.42,2.91,1.16,0.25,2.37.13,3.48,0.31,2.51,0.39,4.72,1.52,7.16,1.67a8.22,8.22,0,0,0-2.58-1.21c-0.85-.39-1.61-0.94-2.49-1.29-1.84-.73-4.07-0.46-5.86-1.15s-2.88-2-4.64-2.53a15.34,15.34,0,0,0-4.42-.35,20.43,20.43,0,0,1-2.52.17c-1.25-.13-2.82-1.19-4-1.93-1.39-.85-2.35-1.84-3.74-2.15-2.15-.48-4.25.15-6.26-0.09-2.83-.33-5.2-2.61-8.24-3.2-1.51-.29-2.82-0.16-4.42-0.35-0.71-.09-1.51-0.37-2.34-0.49A13.92,13.92,0,0,1,361.2,338.41Z"/><path class="cls-5" d="M388,352.32c2.36,0.13,4,1.39,5.81,2.09a9.76,9.76,0,0,0,3.47,1c0.75,0,1.33-.25,2.18-0.21a9.17,9.17,0,0,1,2.51.52c1.25,0.43,2.3,1.45,3.63,1.7a9.13,9.13,0,0,0,1.21,0c1.38,0.08,2.64.77,3.92,0.88-1.27-1.26-3.12-1.32-4.84-1.7a9.25,9.25,0,0,1-2.4-1.27c-2.13-1.21-3.73-1.22-6.34-1.39a5.3,5.3,0,0,1-3.15-.86C392.22,352.63,389.53,351.79,388,352.32Z"/><path class="cls-5" d="M370.6,356.29a26.22,26.22,0,0,1,6,1.51c1.36,0.55,2.61,1.42,4.09,1.51,1.8,0.11,3.56-.73,5.51-0.1a25.14,25.14,0,0,0,5,1.37c1.55,0.18,3.15-.28,4.84-0.19a12.16,12.16,0,0,1,2.73.8,22,22,0,0,0,3.27.62c2.19,0.32,4.22.79,6.31,1-1.88-1.17-4.6-1.33-6.86-2-1.44-.41-2.81-1.2-4.26-1.53-2-.45-4.1.15-6.17-0.16-1.62-.24-3.15-1.25-4.76-1.6a10.56,10.56,0,0,0-3.25-.1,11.33,11.33,0,0,1-3.3.23c-1.7-.32-3.13-1.42-4.86-1.53C373.37,356,372.17,356.46,370.6,356.29Z"/><path class="cls-5" d="M357.83,372.92c3-.06,5.44,1.15,8.7,1.11,2.2,0,4.16-1.08,6.14-.87,2.14,0.22,4.4,1.31,6.69,1.35,0.29,0,.65-0.1,1-0.12a7.17,7.17,0,0,0,4.14-1.32c0.46,0.07.94-.11,1.55,0,1.8,0.19,3.7,1,5.77,1.14s3.79-.82,5.36-1.5c0.21-.09.64,0.08,0.65-0.34a1.18,1.18,0,0,0,1,.14c1.94,0.17,3.79.67,5.19,0.37,0.39-.09.72-0.38,1.09-0.45,1.21-.24,2.29.15,3.68,0.08a9.56,9.56,0,0,1,2.85-.12c-0.62-.85-2.8-1-3.55-1.09a15.26,15.26,0,0,0-2.88-.31c-0.89,0-1.7.39-2.63,0.41-1.33,0-2.62-.52-3.88-0.53-2.24,0-3.64,1-5.6,1.38-2.77.55-5.1-1.32-8.46-1a15.82,15.82,0,0,0-3.1.69,8.3,8.3,0,0,1-3,.79,17,17,0,0,1-3.07-.77,14.14,14.14,0,0,0-3.12-.43c-2.71-.05-5.3,1.26-8,1A18.84,18.84,0,0,0,357.83,372.92Z"/><path class="cls-5" d="M374.7,364a16.76,16.76,0,0,0,2.75.64c2.06,0.46,4.47,1.65,7,1a8.37,8.37,0,0,1,3.68-.52c2.11,0.28,4.18,1.52,6.23,1.54,1.35,0,2.67-.77,4-0.74,2,0,3.95,1,6.12,1.1,2,0.13,3.7.25,5.38,0.22l-0.25,0c-1.44-.8-4.24-0.73-6.52-1.33a26.54,26.54,0,0,0-4.33-1c-1.6-.13-3.11.5-4.8,0.54a14.83,14.83,0,0,1-2.64-.79,12.48,12.48,0,0,0-5.85-.55,29.11,29.11,0,0,1-3.18.59c-1.25,0-2.41-.67-3.59-0.75S376.13,364.27,374.7,364Z"/><path class="cls-4" d="M423.81,116.75a1.56,1.56,0,0,1-.14.37,14.92,14.92,0,0,1-4.19,4c-0.67.42-1.33,0.88-2,1.26-3.22,1.74-6.57,2.29-9.95.56a14.57,14.57,0,0,1-6.55-6.51c-0.63-1.25-1.37-2.46-2-3.71a5.33,5.33,0,0,0-3.21-2.55,7.93,7.93,0,0,0-2.15-.34c-0.86,0-1.1.19-1.09,1,0,1.31.09,2.62,0.13,3.93s0.08,2.43.08,3.65c0,0.73-.1.84-0.83,0.86-1.36,0-2.73.06-4.1,0.06-0.53,0-.65-0.13-0.7-0.7s-0.07-1.22-.11-1.82c-0.26-3.93-.54-7.86-0.79-11.79-0.12-1.85-.17-3.71-0.28-5.56-0.06-1.05-.17-2.11-0.25-3.16s0.17-1.49,1.25-1.6c3.35-.32,6.71-0.66,10.07-0.89a13.77,13.77,0,0,1,4.92.41,10.16,10.16,0,0,1,6.12,4.3,9.52,9.52,0,0,1,1.09,3,3.93,3.93,0,0,1-1.52,3.74,11.46,11.46,0,0,1-3.33,2.38,3.05,3.05,0,0,0-.43.22c-0.54.34-.59,0.66-0.1,1a12.76,12.76,0,0,1,2.81,3,12.22,12.22,0,0,1,.87,1.58,17.32,17.32,0,0,0,2.55,4.48,5.9,5.9,0,0,0,1.42,1.27c2.09,1.16,3.59.71,4.8-1.22,0.25-.4.49-0.83,0.7-1.25a0.68,0.68,0,0,1,.67-0.43l5.91,0.26a1.25,1.25,0,0,1,.37.16m-31.68-15.08c0,0.51,0,.83,0,1.16s0,0.64,0,1c0,1.1.28,1.43,1.36,1.56a14.24,14.24,0,0,0,6-.73,5,5,0,0,0,2.42-1.65,1.93,1.93,0,0,0,.34-2,4,4,0,0,0-3.15-2.78,17,17,0,0,0-6,.28,1.1,1.1,0,0,0-1,1.36c0,0.67,0,1.34.06,1.82"/><path class="cls-4" d="M436.72,114.05a13.73,13.73,0,0,1,.69-1.36c0.57-.86,1.23-1.66,1.75-2.53,1.34-2.24,2.62-4.53,3.95-6.78a20.81,20.81,0,0,1,1.4-2.16,33.08,33.08,0,0,0,4.19-7.37,1.36,1.36,0,0,1,1.44-1c2.22,0.06,4.44.07,6.66,0.09a1.13,1.13,0,0,1,1.1.69c3,5.54,6.06,11.06,9.08,16.61a10.25,10.25,0,0,1,.89,2.13,1.06,1.06,0,0,1-.93,1.61c-1.29.28-2.61,0.43-3.92,0.61a1.61,1.61,0,0,1-1.56-.7c-0.88-1.16-1.83-2.27-2.59-3.5a2.42,2.42,0,0,0-2.31-1.26c-2.43,0-4.86-.14-7.29-0.22l-1.28,0a1.71,1.71,0,0,0-1.54.76c-0.55.77-1.17,1.48-1.68,2.27a3.5,3.5,0,0,1-2.67,1.78l-4.58.48a4.77,4.77,0,0,1-.79-0.1m14-11.31a4.78,4.78,0,0,0,3.94-.3,11.41,11.41,0,0,0-1.81-3.31c-0.79,1.3-1.76,2.25-2.13,3.61"/><path class="cls-4" d="M493.82,99a11.46,11.46,0,0,0-.93,1c-1.82,2.43-3.61,4.88-5.43,7.32-0.51.68-1.07,1.31-1.61,2s-1,1.12-1.4,1.73a1.75,1.75,0,0,1-1.92.78L480,111.3a1.66,1.66,0,0,1-1.42-1.24c-0.73-2.32-1.52-4.63-2.33-6.93-0.32-.92-0.75-1.81-1.15-2.7a1.69,1.69,0,0,0-.46-0.4,3.18,3.18,0,0,0-.46,1.69c-0.24,2.94-.45,5.88-0.7,8.81-0.1,1.18-.28,2.35-0.45,3.53-0.11.76-.22,0.86-1,0.92-1.58.13-3.15,0.25-4.73,0.34-0.79,0-1-.14-0.94-0.93,0.21-4.12.44-8.25,0.65-12.37q0.22-4.31.4-8.63c0.07-1.62.11-3.25,0.19-4.87,0-.76.16-0.89,0.9-0.93,2.32-.14,4.64-0.25,6.95-0.4a1.14,1.14,0,0,1,1.28.85q1.89,4.71,3.86,9.39c0.32,0.78.74,1.52,1.09,2.29,0.52,1.1,1,2.21,1.53,3.32,0,0.06.05,0.13,0.08,0.19,0.37,0.64.69,0.68,1.14,0.12s0.91-1.17,1.34-1.78c1.67-2.33,3.31-4.69,5-7,1.37-1.88,2.81-3.71,4.21-5.57a1.52,1.52,0,0,1,1.16-.7c1.61-.12,3.21-0.28,4.83-0.41a4.49,4.49,0,0,1,.77.07c0,0.38,0,.71,0,1-0.1,2.23-.24,4.46-0.31,6.69-0.1,3.11-.18,6.23-0.2,9.34,0,2.33,0,4.67.08,7,0,0.2,0,.41,0,0.61,0,1.17-.11,1.29-1.25,1.39-1.61.13-3.22,0.19-4.83,0.27a3.46,3.46,0,0,1-.5,0,0.67,0.67,0,0,1-.69-0.8c0-1.39,0-2.78.09-4.16a73.08,73.08,0,0,0,.18-8.73,2.06,2.06,0,0,0-.47-1.5"/><path class="cls-4" d="M344.66,111.28a7.53,7.53,0,0,1,1.11-.13c1.41,0.06,2.82.15,4.23,0.23a1.39,1.39,0,0,1,1.23.81,6.18,6.18,0,0,0,4.09,3.17,14.11,14.11,0,0,0,8.76-.93,3.75,3.75,0,0,0,2-2.25,1.36,1.36,0,0,0-.1-1.24,3.45,3.45,0,0,0-1.64-1.51,7.86,7.86,0,0,0-3-.74q-2.8,0-5.61-.09a12.71,12.71,0,0,1-4.61-1,8.11,8.11,0,0,1-4.16-3.78,6.52,6.52,0,0,1-.3-4.36,5.77,5.77,0,0,1,2.56-3.5,9.46,9.46,0,0,1,3-1.54c0.78-.24,1.54-0.57,2.33-0.81a13.87,13.87,0,0,1,3.89-.48,38.94,38.94,0,0,1,5.89.42,14.47,14.47,0,0,1,4,1.32A5.06,5.06,0,0,1,371,99.28a8,8,0,0,1,0,1.29,0.67,0.67,0,0,1-.69.7c-1.11.08-2.22,0.17-3.33,0.24a1.26,1.26,0,0,1-1.1-.54c-0.43-.55-0.94-1-1.32-1.61a5.13,5.13,0,0,0-3.06-2,10.24,10.24,0,0,0-6,0,5.32,5.32,0,0,0-2.65,2,2.63,2.63,0,0,0,1.34,4.09,10.1,10.1,0,0,0,1.94.29c2.15,0.21,4.31.4,6.46,0.62,0.78,0.08,1.56.23,2.34,0.36a9.87,9.87,0,0,1,4.22,1.8c2.75,2,3.15,6.29,1.89,8.71a7.09,7.09,0,0,1-3.47,3,18,18,0,0,1-9.67,1.62,22.88,22.88,0,0,1-6.6-1.47,14.26,14.26,0,0,1-4.55-2.9,7.7,7.7,0,0,1-2.08-4"/><path class="cls-4" d="M369.92,93.17a4.56,4.56,0,0,1-.11-0.56c0-.78-0.06-1.56-0.09-2.34,0-.5,0-0.56.52-0.61,0.84-.08,1.67-0.15,2.51-0.21,2.19-.13,4.39-0.24,6.58-0.38q2.93-.19,5.86-0.44c1.07-.09,2.14-0.25,3.21-0.36,0.25,0,.51,0,0.85,0a22.16,22.16,0,0,1-.2,3.39l-5.52.41c-0.45,0-.9.1-1.35,0.15a0.47,0.47,0,0,0-.46.46,2.68,2.68,0,0,0,0,.39q0.11,5,.22,10c0,1.24.09,2.47,0.12,3.71,0,0.23,0,.47,0,0.75a32.41,32.41,0,0,1-4,.37c0-.27-0.08-0.48-0.08-0.69,0-3.11-.28-6.2-0.57-9.3q-0.19-2.11-.38-4.21a2.49,2.49,0,0,0-.08-0.45,0.62,0.62,0,0,0-.8-0.56l-5,.49c-0.38,0-.76,0-1.18,0"/><path class="cls-4" d="M426.09,112.59l-9.5.34a1.28,1.28,0,0,1-1.5-1,3.66,3.66,0,0,1-.15-0.71,48.8,48.8,0,0,1-.63-10.84c0.17-2,.17-4,0.25-5.94a8.63,8.63,0,0,1,.08-1c0.25-1.56.7-1.91,2.29-2,2.35-.12,4.7-0.29,7-0.41,1.77-.09,3.55-0.12,5.31-0.22s3.73-.24,5.59-0.38c1.19-.09,1.51.14,1.41,1.35-0.17,2.16.08,2.94-2.89,3.12l-10.06.58c-0.34,0-.67,0-1,0.07a1,1,0,0,0-1.19,1.15c-0.19,1.59.32,2.13,1.93,2,3.21-.22,6.42-0.46,9.63-0.65,2.1-.13,2.3.09,2.22,2.25-0.11,2.91-.28,2.31-2.44,2.8-2.89.65-5.84,0.39-8.75,0.62l-0.43,0c-2.33.24-2.43,0-2.36,2.86a1.08,1.08,0,0,0,1.24,1.26,8.12,8.12,0,0,0,1,0c2.39-.15,4.79-0.33,7.19-0.45,1.72-.09,3.45-0.12,5.17-0.13,1.38,0,1.66.31,1.66,1.73,0,0.15,0,.29,0,0.43-0.11,2.15-.26,2.24-2.35,2.38-2.92.19-5.84,0.47-8.75,0.72v0.1Z"/><path class="cls-4" d="M506,48.73a25.25,25.25,0,0,1,5.12-.27c3.24,0.1,6.48,0,9.72,0q5.2,0,10.4-.07c1.69,0,3.38,0,5.07-.11,5.34-.2,10.67-0.44,16-0.63,1.28,0,2.56,0,3.83,0s1.29,0.2,1.35,1.28a43.48,43.48,0,0,1-.11,5.35,11.06,11.06,0,0,1-1.35-.11,62,62,0,0,0-10.31-1.35,115.15,115.15,0,0,0-15.19.37c-1,.08-1.92,0-2.88.09-1.56.12-1.84,0.34-2,1.86-0.32,2.55-.69,5.11-0.8,7.68-0.1,2.15.24,4.32,0.2,6.48-0.05,2.61-.32,5.23-0.47,7.84a1.32,1.32,0,0,1-1,1.3,13.87,13.87,0,0,1-4.88.55,1,1,0,0,1-1.18-1.17,29.63,29.63,0,0,1,.09-4c0.34-3.11.76-6.2,0.79-9.34,0-1.05-.05-2.11-0.09-3.16q-0.08-2.55-.17-5.1c0-.37,0-0.74-0.08-1.1-0.17-1.45-.47-1.69-2-1.62l-9,.41c-0.48,0-1,0-1-.6-0.05-1.5,0-3,0-4.63"/><path class="cls-4" d="M546.17,79.65a16.35,16.35,0,0,1-5.81-1.25,9.12,9.12,0,0,1-5.75-5.15c-2-5.3-1.3-9.31,3.6-12.74a19,19,0,0,1,16-2.81,14.47,14.47,0,0,1,7.36,3.91,6.88,6.88,0,0,1,1.4,2.1,10.27,10.27,0,0,1,.32,7.62,10.53,10.53,0,0,1-5,5.6c-3.55,2-7.41,2.54-12.14,2.72m3.68-18.18a11.1,11.1,0,0,0-5.92,1.4,7,7,0,0,0-3.18,3.66,10.2,10.2,0,0,0-.23,5.42,3.66,3.66,0,0,0,2.66,2.93,14.5,14.5,0,0,0,2.22.47c2.77,0.44,5.33-.43,7.83-1.42a5.38,5.38,0,0,0,3.27-3.51,9.62,9.62,0,0,0,.38-3.84,5,5,0,0,0-3.11-4.35,8.24,8.24,0,0,0-3.92-.75"/><path class="cls-4" d="M409,79.59c0-1,0-1.94,0-2.89,0.06-1.66.13-3.32,0.24-5,0.15-2.36.43-4.72,0.51-7.08,0.14-3.92.19-11.4,0.22-15.32,0-1.8,0-1.86,1.82-1.58,0.69,0.11,1.39.13,2.09,0.17s1.26,0,1.88.1,0.82,0.23.81,1c0,2.15-.07,7.86-0.1,10q-0.07,4.71-.14,9.43c0,1.77-.07,3.53-0.1,5.3,0,0.14,0,.29,0,0.43,0,0.76.2,1,.92,1,1.05,0,7.44,0,8.49,0,2.27-.12,15.21-0.31,17.49-0.44,1.19-.07,11.27-0.11,12.46-0.13,1,0,2.93.17,2.91,1.18s0,1.91,0,2.86-1.85,1-2.7,1c-3,0-14.84,0-17.84.07l-11.34.14c-1.47,0-15.39,0-16.86,0a4.06,4.06,0,0,1-.73-0.16"/><path class="cls-4" d="M428.15,70.85a16.58,16.58,0,0,1,.89-1.61c0.72-1,1.56-1.94,2.23-3,1.72-2.65,3.37-5.35,5.06-8a25.14,25.14,0,0,1,1.78-2.54A40,40,0,0,0,443.5,47a1.64,1.64,0,0,1,1.78-1.15c2.68,0.17,5.35.28,8,.4a1.37,1.37,0,0,1,1.3.88c3.4,6.82,6.83,13.62,10.23,20.44a12.38,12.38,0,0,1,1,2.62c0.28,1.19,0,1.69-1.19,1.9-1.57.28-3.17,0.41-4.75,0.57a1.94,1.94,0,0,1-1.86-.92c-1-1.44-2.11-2.82-3-4.34a2.92,2.92,0,0,0-2.74-1.62c-2.93-.13-5.86-0.38-8.79-0.59l-1.54-.1a2.07,2.07,0,0,0-1.89.85c-0.7.9-1.48,1.73-2.13,2.67a4.22,4.22,0,0,1-3.3,2L429.1,71a5.76,5.76,0,0,1-1-.16m17.35-13a5.78,5.78,0,0,0,4.77-.19,13.78,13.78,0,0,0-2-4.07c-1,1.54-2.22,2.64-2.73,4.26"/><path class="cls-4" d="M325.57,60.5a6.38,6.38,0,0,1-.17-0.77c-0.08-1.09-.14-2.18-0.21-3.26,0-.7,0-0.79.71-0.87,1.17-.14,2.34-0.27,3.51-0.38,3.06-.26,6.13-0.49,9.19-0.76q4.09-.37,8.18-0.82c1.5-.17,3-0.42,4.48-0.62,0.35,0,.71,0,1.19-0.08-0.11,1.63.19,3.19-.16,4.74-2.62.26-5.17,0.5-7.71,0.77-0.63.06-1.26,0.18-1.88,0.26a0.66,0.66,0,0,0-.63.65,3.75,3.75,0,0,0,0,.54q0.32,7,.66,13.92c0.08,1.73.21,3.46,0.3,5.19,0,0.33,0,.66,0,1.05a45.34,45.34,0,0,1-5.56.66c-0.06-.38-0.13-0.67-0.14-1-0.17-4.34-.61-8.67-1.11-13q-0.34-2.94-.68-5.88a3.49,3.49,0,0,0-.12-0.62,0.86,0.86,0,0,0-1.13-.75l-7,.85c-0.53.06-1.07,0.07-1.65,0.1"/><path class="cls-3" d="M491.82,47.26c-1.88,0-3.76-.1-5.64-0.1a1.15,1.15,0,0,0-.76.35c-1.13,1.25-2.24,2.52-3.33,3.81-1.78,2.1-3.52,4.22-5.3,6.32a3.68,3.68,0,0,1-.68.5,3.57,3.57,0,0,1-.41-0.41c-1.81-2.83-3.64-5.66-5.44-8.51a3,3,0,0,0-2.07-1.47c-1-.18-2.1-0.41-3.16-0.5a5.93,5.93,0,0,0-3.16.18,26.33,26.33,0,0,0,1.51,2.81,106.74,106.74,0,0,1,6.4,10.63c0.85,1.58,1.72,3.16,2.48,4.79a3.76,3.76,0,0,0,.51.82c0,1.08,0,2.16-.1,3.24-0.08,1.3-.18,2.59-0.23,3.89a13.75,13.75,0,0,0,0,2.2,1,1,0,0,0,1.11,1.12c1.14,0,2.28-.12,3.42-0.2a0.87,0.87,0,0,0,.83-0.82,12.5,12.5,0,0,0,.18-1.68c0-1.91,0-3.81,0-5.72h0c0-.61.07-1.21,0.09-1.81,0-.19,0-0.38,0-0.57h0a17.9,17.9,0,0,1,1.53-2c2.48-3.23,4.93-6.49,7.47-9.67a48.61,48.61,0,0,0,4.71-6.15,6.85,6.85,0,0,0,.33-0.78A1.29,1.29,0,0,0,491.82,47.26Z"/><path class="cls-4" d="M367.52,72.52a10,10,0,0,1,0-1.68,51.24,51.24,0,0,0,.69-9.51c0-4.64-.16-9.28-0.29-13.92,0-1.17-.24-2.33-0.28-3.5s0.13-1.36,1.63-1.47a6.59,6.59,0,0,1,.94-0.06c4.77,0.34,9.52-.1,14.29-0.14a51.18,51.18,0,0,1,9.79,1,34.38,34.38,0,0,1,7.53,2.12,6.57,6.57,0,0,1,4.33,5.75,6.52,6.52,0,0,1-1.25,3.45c-1.6,2.64-4.57,4-8,4.67a130.53,130.53,0,0,1-14.88,1.93,27.1,27.1,0,0,0-3.22.56,1.16,1.16,0,0,0-1,1.28c-0.16,2.3-.34,4.59-0.52,6.89,0,0.5-.12,1-0.2,1.5a1,1,0,0,1-1.07.77c-1.93.17-3.85,0.37-5.78,0.48a27.09,27.09,0,0,1-2.8-.12m10.65-20.83h0v3.89c0,0.76.18,1,1.07,1.16a5.2,5.2,0,0,0,.93.12c3.77,0.14,7.57.35,11.22-.59,4.83-1.23,6.26-4.39,4.68-7.7a3.94,3.94,0,0,0-3.29-2.26c-0.87-.11-1.76-0.23-2.64-0.25-1.57,0-3.14-.06-4.71,0-1.88.08-3.76,0.19-5.63,0.4-1.46.17-1.64,0.45-1.63,1.58s0,2.42,0,3.64"/><path class="cls-4" d="M306,55.64c0.41,9.68,1.16,19.1,1.79,28.68a10.23,10.23,0,0,1-1.52.37c-1.66.15-3.32,0.24-5,.34a1.12,1.12,0,0,1-1.44-1.22c-0.3-2.75-.58-5.5-0.86-8.25-0.05-.49-0.1-1-0.18-1.46-0.17-1-.34-1.15-1.38-1.09-3.17.2-6.33,0.43-9.5,0.64l-0.48.05c-1.08.18-1.27,0.43-1.24,1.55,0.09,2.72.18,5.44,0.27,8.17,0,0.2,0,.4,0,0.61a0.82,0.82,0,0,1-.84,1c-1.78,0-3.57,0-5.36-.09a1,1,0,0,1-1-.8,8,8,0,0,1-.3-1.54c-0.11-2.06-.14-4.14-0.26-6.2s-0.3-4.3-.48-6.45c-0.3-3.52-.65-7-1-10.57,0-.28-0.08-0.56-0.1-0.85a0.89,0.89,0,0,1,.83-1.13,6.42,6.42,0,0,1,1.45-.16c1.3,0,2.6,0,3.9.1a3.83,3.83,0,0,1,1.18.3c1.15,0.41,1.21.54,1.28,1.77,0.09,2,.2,4.06.31,6.09a2,2,0,0,0,0,.24c0.11,1.22.22,1.33,1.4,1.27,0.65,0,1.3-.1,1.95-0.13,2.11-.1,4.22-0.23,6.33-0.28s2.2-.25,2-2.29c-0.25-2.34-.41-4.69-0.57-7-0.06-1,.1-1.26.87-1.3,2.6-.14,5.18-0.22,7.87-0.33"/><path class="cls-4" d="M321.18,52c0.12,1,.32,2,0.38,3,0.11,2.27.16,4.55,0.21,6.82,0.11,4.86.18,9.72,0.28,14.57,0,0.76.08,1.52,0.1,2.28,0,0.59,0,1.18,0,1.9-0.73.15-1.38,0.31-2,.4-1.33.2-2.66,0.34-4,.53a0.87,0.87,0,0,1-1.05-1c-0.13-1.26-.32-2.51-0.34-3.77-0.1-6.73-.26-13.46-0.83-20.18a28.55,28.55,0,0,1,0-3,1.13,1.13,0,0,1,.73-1.1,20.71,20.71,0,0,1,6.52-.52"/></svg>