<svg id="Layer_1" data-name="Layer 1" xmlns="http://www.w3.org/2000/svg" viewBox="0 0 465.41 290.8"><defs><style>.cls-1{fill:#fff;}.cls-2{fill:#f5a328;}.cls-3{fill:#e33824;}.cls-4{fill:#f6a428;}</style></defs><title>nd_quiz_stream graphic</title><path class="cls-1" d="M59.51,46.43Q74,45.22,80.58,50.57t6.59,15.08a21.09,21.09,0,0,1-4.35,13.4q-4.35,5.56-13.4,6.85c-0.23,5-.82,22.35-0.88,30.45l-10.34.34Zm15.95,14a6.15,6.15,0,0,0-5.26-2.59l-0.6,17.33a7.76,7.76,0,0,0,5.26-2.63A9.4,9.4,0,0,0,77,66.6,9.84,9.84,0,0,0,75.45,60.39Z"/><path class="cls-1" d="M111.17,113.11q-9.31,1.12-21.55,1.9-0.17-17.15,0-30.21T90,63.9l0.26-7.76c8.5-.75,16-0.2,22.45-0.2,0.06,3.56,0,5.95-.13,9a105.23,105.23,0,0,0-11.64.95l-0.6,15.43c3.85-.29,12.94-0.71,16.22-0.71q0.09,4.31.09,9l-16.56,1.83q-0.26,7.5-.26,13,3.71-.17,11.46-0.35Q111.34,108,111.17,113.11Z"/><path class="cls-1" d="M118.3,109.79L127,43.62l13.19,0.78,2,7.93q2.07,7.93,5.26,22.67t5.6,28.36l-9.57.69-2.16-11.72q-4.05-.52-10.95-0.78L128,111.25Zm16.2-49.62q-0.69,6.38-2.85,22.41,3.79,0.34,7.67.34Q138,75.43,134.51,60.17Z"/><path class="cls-1" d="M173.78,104.32A47.26,47.26,0,0,0,174.94,94l10.52-.43q-0.17,24.57-15,24.57a12.42,12.42,0,0,1-7.54-2.24,13.78,13.78,0,0,1-4.65-6.51,40.11,40.11,0,0,1-2.2-9.22,98.12,98.12,0,0,1-.6-11.68,61.39,61.39,0,0,1,1.68-15,26.77,26.77,0,0,1,5.34-11,11.21,11.21,0,0,1,8.83-4.31q7.59,0,10.56,5.69t2.46,16.29l-9.74.43a29,29,0,0,0-.47-7.59q-0.73-3.71-2.54-3.71-4.65,0-5.34,18.45-0.35,9.31.86,14.48t3.62,5.17Q172.87,107.42,173.78,104.32Z"/><path class="cls-1" d="M210,112.85q-9.31,1.12-21.55,1.9c-0.12-11.43-.17-26.94-0.06-35.64s0.26-15.67.43-20.9L189,50.45q12.76-1.12,22.5-1.12,0.09,5.34-.17,9.91a104.63,104.63,0,0,0-11.64.95l-0.6,15.43q5.78-.43,10.69-0.43,0.09,4.31.09,9.05l-11,1.55c-0.17,5-.2,14.77-0.2,18.45q3.71-.17,11.46-0.35Q210.12,107.77,210,112.85Z"/><path class="cls-2" d="M222.86,63.63a3.49,3.49,0,0,1,2.59-1,3.62,3.62,0,0,1,2.09.65,2.15,2.15,0,0,1,.82,1.92c0,0.32-.07,2.15-0.18,3.08S228,69.93,228,70.42a1.35,1.35,0,0,0,.17.82,0.74,0.74,0,0,0,.61.25,1.55,1.55,0,0,0,.83-0.21,2.42,2.42,0,0,1,.52-0.28,0.17,0.17,0,0,1,.2.19,0.74,0.74,0,0,1-.23.4,2.37,2.37,0,0,1-.71.5,2.18,2.18,0,0,1-1,.23,2.3,2.3,0,0,1-1.23-.35A0.79,0.79,0,0,0,226,71.8a8.86,8.86,0,0,1-1.14.31,6.87,6.87,0,0,1-1.62.14q-3.39-.08-3.35-1.84a1.77,1.77,0,0,1,1.27-1.56,6.31,6.31,0,0,1,2.73-.51q0.62,0,1.16.08c0.36,0,.63.08,0.82,0.12l0.33,0.06a0.2,0.2,0,0,0,.19-0.22c0.1-.66.16-2.47,0.17-3a3.1,3.1,0,0,0-.27-1.54,1.18,1.18,0,0,0-1.1-.56q-1.88,0-3,3.11a0.6,0.6,0,0,1-.56.13,0.52,0.52,0,0,1-.49-0.28,16.32,16.32,0,0,1,0-1.85q0.05-1.33.08-1.62a0.69,0.69,0,0,1,.75-0.18,1,1,0,0,1,.76.36,4.06,4.06,0,0,0-.14.72,0.06,0.06,0,0,0,.06.06A0.34,0.34,0,0,0,222.86,63.63Zm3,5.68a2.9,2.9,0,0,0-1.34-.27,4.28,4.28,0,0,0-1.91.37,1.24,1.24,0,0,0-.87,1.07q0,1.12,2.06,1.17a3.44,3.44,0,0,0,1.69-.37,1.27,1.27,0,0,0,.78-1.14A0.85,0.85,0,0,0,225.89,69.31Z"/><path class="cls-2" d="M233.22,61.84c0,2.11-.06,5.8,0,6a0.56,0.56,0,0,0,.28.25,3.18,3.18,0,0,0,.75.12L235,68.25a0.22,0.22,0,0,1,.19.27,0.22,0.22,0,0,1-.23.25h-1.11q-1.43,0-2.45,0l-1.45.09-0.48,0a0.21,0.21,0,0,1-.14,0,0.2,0.2,0,0,1-.07-0.12,0.88,0.88,0,0,1,0-.15,0.21,0.21,0,0,1,0-.14,0.15,0.15,0,0,1,.12-0.06l0.62-.07a2.07,2.07,0,0,0,.78-0.21,0.67,0.67,0,0,0,.26-0.51c0-.35.18-4,0.18-5.74V61.52q0-3.56-.07-4.08a0.81,0.81,0,0,0-.2-0.52,1,1,0,0,0-.49-0.17l-0.43,0a2.41,2.41,0,0,1-.41-0.05,0.27,0.27,0,0,1,0-.52q1.09-.1,2.55-0.1a1.53,1.53,0,0,1,1,.17,0.64,0.64,0,0,1,.07.42l0,0.22c0,0.18,0,.27.07,0.27l0.41-.19a7.13,7.13,0,0,1,1.05-.38,4.91,4.91,0,0,1,1.41-.2,6.46,6.46,0,0,1,1.56.17,4.35,4.35,0,0,1,1.37.63,3,3,0,0,1,1.06,1.43,6.62,6.62,0,0,1,.38,2.41c0,0.43.06,1,0,1.84s0,1.33,0,1.41a1.52,1.52,0,0,0,.15.79,1.61,1.61,0,0,0,.94.35l0.62,0.1a0.23,0.23,0,0,1,.2.27,0.21,0.21,0,0,1-.22.25l-0.47,0-1.3-.07q-0.88,0-2,0h-1.53a0.21,0.21,0,0,1-.21-0.25,0.22,0.22,0,0,1,.19-0.27l0.47,0a1.49,1.49,0,0,0,.94-0.3,3.56,3.56,0,0,0,.25-1.29c0-.49,0-1.15,0-2.14a7.27,7.27,0,0,0-.59-3.39,2.17,2.17,0,0,0-2.08-1.06,2.34,2.34,0,0,0-1.89.8,3.12,3.12,0,0,0-.68,2.09v1.81Z"/><path class="cls-2" d="M246.58,58.4c-0.08.69-.49,6.28-0.6,7.54s-0.22,2.59-.32,4a40.75,40.75,0,0,0-.2,4.21,0.42,0.42,0,0,0,.31.34,6.52,6.52,0,0,0,1.24.16,0.17,0.17,0,0,1,.17.21,0.19,0.19,0,0,1-.16.21l-1.63.08-0.53.06-0.49.06h-0.29a0.31,0.31,0,0,1-.23-0.28,0.31,0.31,0,0,0-.19-0.28,1.54,1.54,0,0,0-.49,0,6.21,6.21,0,0,1-2,.12,4.23,4.23,0,0,1-3-1.26,3.67,3.67,0,0,1-.86-2.82A3.84,3.84,0,0,1,238.69,68a4,4,0,0,1,3-.9,5.08,5.08,0,0,1,1.58.38,6.49,6.49,0,0,0,.79.3c0.09,0,.15-0.06.16-0.21l0.06-.79c0.19-2.6.56-8.71,0.46-9.08a0.45,0.45,0,0,0-.25-0.31,3.56,3.56,0,0,0-.81-0.17L243,57.12a0.23,0.23,0,0,1,0-.44q1.34,0,2.86.08a1.19,1.19,0,0,1,.76.22,0.57,0.57,0,0,1,0,.35ZM242.1,68a2.45,2.45,0,0,0-2.15.86,4.07,4.07,0,0,0-.93,2.43,3.11,3.11,0,0,0,.47,2.21,2.44,2.44,0,0,0,1.81.8,3,3,0,0,0,2-.44,1.13,1.13,0,0,0,.36-0.58,7.9,7.9,0,0,0,.2-1.47,8.9,8.9,0,0,0,0-2.81A1.82,1.82,0,0,0,242.1,68Z"/><path class="cls-2" d="M223.74,84.92q0-1.55,0-2.31A0.75,0.75,0,0,1,223.9,82a1,1,0,0,1,.59-0.18,1.48,1.48,0,0,1,1.23.31q-0.17,2.24-.17,4.3a0.5,0.5,0,0,0,0,.29,0.25,0.25,0,0,0,.2,0l1.28-.13,1.24-.13a0.22,0.22,0,0,1,.22.19,0.68,0.68,0,0,1,0,.4,0.23,0.23,0,0,1-.2.21l-2.53.13a0.3,0.3,0,0,0-.23.08,0.94,0.94,0,0,0,0,.35q0,1.95.13,3.52a5.63,5.63,0,0,0,.41,2,1.14,1.14,0,0,0,1.22.55,3,3,0,0,0,1.16-.32,5.56,5.56,0,0,1,.6-0.28,0.29,0.29,0,0,1,.32.26,2.81,2.81,0,0,1-1,.83,4,4,0,0,1-1.6.43,2.23,2.23,0,0,1-2.17-.71,6.27,6.27,0,0,1-.67-2.83q-0.1-1.55-.13-3.28a1.09,1.09,0,0,0,0-.42,0.19,0.19,0,0,0-.2-0.08l-1.38.09a0.2,0.2,0,0,1-.21-0.23,0.23,0.23,0,0,1,.18-0.28l0.95-.11a2,2,0,0,0,.58-0.11,0.37,0.37,0,0,0,.11-0.32C223.75,86.51,223.74,86,223.74,84.92Z"/><path class="cls-2" d="M232.46,88.67a18,18,0,0,0-.17,2.18,0.33,0.33,0,0,0,.26.28,7.63,7.63,0,0,0,.95.2l0.41,0.07a0.21,0.21,0,0,1,.14.27,0.19,0.19,0,0,1-.22.2l-1.31-.14-1.46-.15L230,91.49l-0.68,0h-0.61a0.19,0.19,0,0,1-.16-0.25,0.2,0.2,0,0,1,.19-0.23h0.43a3.11,3.11,0,0,0,.87-0.07,0.6,0.6,0,0,0,.34-0.39,30.6,30.6,0,0,0,.51-3.66l0.37-3.37c0.31-2.79.87-7.4,0.88-8.12a0.54,0.54,0,0,0-.18-0.47,2.64,2.64,0,0,0-.83-0.23l-0.47-.07a0.24,0.24,0,0,1,0-.45q1.64,0.09,2.87.23a0.91,0.91,0,0,1,.63.22,0.59,0.59,0,0,1,0,.4l-0.13.78q-0.13.76-.31,2.07c-0.13.88-.64,4.62-0.75,5.54v0.11c0,0.19,0,.28.08,0.29a1.89,1.89,0,0,0,.41-0.05,6.6,6.6,0,0,1,.87-0.09,7.22,7.22,0,0,1,1.15,0,4.22,4.22,0,0,1,3,1.41,5.06,5.06,0,0,1,.69,3.77q0,0.45-.18,1.38t-0.15,1a0.81,0.81,0,0,0,.05.51,2.09,2.09,0,0,0,1,.37l0.59,0.13a0.2,0.2,0,0,1,.13.26,0.19,0.19,0,0,1-.21.21L240,92.7,239,92.56l-1.23-.16-1.15-.12-0.89-.06-0.41,0a0.19,0.19,0,0,1-.16-0.24,0.2,0.2,0,0,1,.19-0.23h0.48a1.3,1.3,0,0,0,1-.24,3.33,3.33,0,0,0,.28-0.95q0.15-.77.29-2a6.53,6.53,0,0,0-.19-3.08,2.1,2.1,0,0,0-1.9-1.13,2.87,2.87,0,0,0-2.19.5,1.08,1.08,0,0,0-.37.76Z"/><path class="cls-2" d="M245.74,95.8a5.52,5.52,0,0,0,3-1.11l0.27-.2,0.24-.19,0.18-.12,0.19-.09,0.17,0a0.43,0.43,0,0,1,.49.32A5.17,5.17,0,0,1,248.61,96a5.63,5.63,0,0,1-5.8.06,3.12,3.12,0,0,1-1.52-2.64,6.39,6.39,0,0,1,1-3.73,3.5,3.5,0,0,1,2.85-1.91,4.42,4.42,0,0,1,1,.06,4.42,4.42,0,0,1,2.13,1.08A3.5,3.5,0,0,1,249,90a4.71,4.71,0,0,1,.38,1.66,1.85,1.85,0,0,1-.14,1.07,0.71,0.71,0,0,1-.58.29l-1.42,0q-1.35,0-2.24.09a4.35,4.35,0,0,0-1.82.28Q243.39,95.94,245.74,95.8Zm-0.15-7.4a2.23,2.23,0,0,0-1.68,1.48,5.27,5.27,0,0,0-.69,2.55,3.58,3.58,0,0,0,1.76.07,10.85,10.85,0,0,0,2.22-.26,0.66,0.66,0,0,0,.39-0.76Q247.41,88.3,245.59,88.4Z"/><path class="cls-2" d="M87.16,40.85q0.16,3,.24,3.55a0.57,0.57,0,0,0,.43.53,6.32,6.32,0,0,0,1.44.13l1.3,0a0.3,0.3,0,0,1,0,.56l-0.71,0-1.56,0-1.85.07L83.83,46l-1.69.13A0.23,0.23,0,0,1,81.9,46a0.37,0.37,0,0,1,0-.28,0.19,0.19,0,0,1,.19-0.16l1.15-.16a10.25,10.25,0,0,0,1.31-.25,0.65,0.65,0,0,0,.42-0.35c0.25-.57.44,0.42,0.12-5.63V38.9q-0.15-2.74-.25-3.33a0.52,0.52,0,0,0-.53-0.34,9.73,9.73,0,0,0-1.67,0H82.47a3.26,3.26,0,0,0-1.87.42,2.72,2.72,0,0,0-.34,1.22q-0.13,1-.23,2.32T79.83,41a0.55,0.55,0,0,1-.59.47,0.46,0.46,0,0,1-.55-0.22q0-3.46-.11-5.84a0.83,0.83,0,0,1,.93-0.93l0.91,0,1.3-.07,3.79-.23L88.6,34l2.21-.19,1.48-.14,0.55-.05a1.25,1.25,0,0,1,.58.06,0.36,0.36,0,0,1,.17.27,56.82,56.82,0,0,0,0,6.53,0.41,0.41,0,0,1-.38.17,0.72,0.72,0,0,1-.69-0.23,2,2,0,0,1-.25-0.8q-0.53-4-.59-4.22a0.82,0.82,0,0,0-.41-0.53,2.19,2.19,0,0,0-1-.11H90.18q-2.72.14-2.92,0.57c-0.23.52-.42-0.58-0.11,5.31v0.24Z"/><path class="cls-2" d="M97.36,43.65a13.69,13.69,0,0,0,.08,2.41,0.46,0.46,0,0,0,.37.29,7.55,7.55,0,0,0,1.24.16l0.83,0.06a0.19,0.19,0,0,1,.19.15,0.37,0.37,0,0,1,0,.28,0.23,0.23,0,0,1-.24.13l-1.57,0H96.33l-1.46,0-1,0-0.63,0L93,47.2a0.3,0.3,0,0,1,0-.56l0.76-.06a4.45,4.45,0,0,0,1.18-.19,0.71,0.71,0,0,0,.43-0.49,33.93,33.93,0,0,0,.2-4.12l0.07-3.92c0.06-3.14.16-10.43,0.09-11.25a0.5,0.5,0,0,0-.22-0.47A3.28,3.28,0,0,0,94.54,26l-1-.09a0.24,0.24,0,0,1-.22-0.29,0.21,0.21,0,0,1,.23-0.25q2.43,0,3.75,0a0.76,0.76,0,0,1,.54.16,0.62,0.62,0,0,1,.09.42c0,0.07,0,.43-0.08,1.1s-0.21,6.82-.27,7.82-0.1,1.94-.11,2.81v0.12q0,0.32.16,0.32a4.28,4.28,0,0,0,.53-0.1q0.46-.1,1.17-0.2a9.84,9.84,0,0,1,1.47-.08q5.64,0.11,5.54,5.48c0,0.34-.09,4-0.14,4.7S106.14,49,106.14,49a0.81,0.81,0,0,0,.14.57,2.64,2.64,0,0,0,1.32.34l1,0.12a0.19,0.19,0,0,1,.19.15,0.37,0.37,0,0,1,0,.28,0.23,0.23,0,0,1-.24.13l-1.1,0q-1.13-.07-2.23-0.09t-2.1,0H101.9a0.23,0.23,0,0,1-.23-0.14,0.37,0.37,0,0,1,0-.28,0.19,0.19,0,0,1,.2-0.14l0.69,0A2.05,2.05,0,0,0,104,49.5a2.64,2.64,0,0,0,.27-1.1c0.06-.59.16-4.45,0.17-5.3a6.14,6.14,0,0,0-.68-3.45,3.26,3.26,0,0,0-2.84-1.13,5.44,5.44,0,0,0-3.08.8,0.89,0.89,0,0,0-.41.78Z"/><path class="cls-2" d="M114.3,48.25a10.36,10.36,0,0,0,2.39-.71,7.26,7.26,0,0,0,1.84-1.06,3.34,3.34,0,0,1,1-.67,0.38,0.38,0,0,1,.49.27,6,6,0,0,1-2.05,2,7.9,7.9,0,0,1-3.11,1.31,7.48,7.48,0,0,1-4.14-.41,3.43,3.43,0,0,1-2.22-2.76,6.7,6.7,0,0,1,.83-4.34,4.58,4.58,0,0,1,3.36-2.57,6.58,6.58,0,0,1,2.12,0,4.47,4.47,0,0,1,2.5,1.15,4.94,4.94,0,0,1,1.26,2.82,1.61,1.61,0,0,1-.1,1.15,1.12,1.12,0,0,1-.76.41l-1.87.26q-1.82.25-3,.45-1.48.24-1.87,0.35a0.47,0.47,0,0,0-.41.28Q111.08,48.78,114.3,48.25Zm1.28-7.55a2.14,2.14,0,0,0-2.1-.65A3.29,3.29,0,0,0,111.18,42a5,5,0,0,0-.74,2.94q0.11,0.23,2.53-.17a17.2,17.2,0,0,0,3.09-.69,0.86,0.86,0,0,0,.53-1A4.54,4.54,0,0,0,115.58,40.7Z"/><path class="cls-1" d="M256.16,37.35q16.53-2.13,24.36,3.65t8.33,16.94a24.18,24.18,0,0,1-4.29,15.58q-4.7,6.6-15,8.54c0,5.74.11,7.14,0.46,16.42l-11.83.93Zm19,15.17A7.05,7.05,0,0,0,269,49.83l0.2,19.88a8.9,8.9,0,0,0,5.89-3.28,10.78,10.78,0,0,0,2.16-6.88A11.28,11.28,0,0,0,275.16,52.52Z"/><path class="cls-1" d="M309.28,109.26l-2-15.67c-5.27.2-9.12,3.32-12.21,3.71l-4.26,23.13-11-.79c1.85-10.41,5.78-30.94,8.22-42.21s4.45-19.94,6-26l3.26-16.5L312.43,34l7.91,73.55Zm-12-22.74c3,0,5.56-3,8.46-3.21-1.65-12.26-2.4-18-2.92-22.88Q298.8,77.92,297.31,86.52Z"/><path class="cls-1" d="M358.65,111.2q-5.14,0-12.26.2A407.31,407.31,0,0,1,334.72,68q-0.1,9.88,0,21.15t0.3,17.6l0.1,6.33-11.17.59q-0.2-20.36-.2-35.54t0.2-24l0.1-8.8q6.62-.3,14.33-0.89l9.79,39.15c0.13-16.61,1.59-35,1.4-45.26l11,0.1C361,55.86,359.37,83.45,358.65,111.2Z"/><path class="cls-1" d="M377.06,116.68l-11.67.49q-0.1-20.46,0-35.29t0.2-23.13l0.1-8.3,12.46-.69Z"/><path class="cls-1" d="M404.47,86.46c0.69-2.37.19-3.25,0.39-8.78l12.06-.5c-0.13,18.78-4.92,25.1-16.25,25.1A14.24,14.24,0,0,1,392,99.71a15.81,15.81,0,0,1-5.34-7.46,46,46,0,0,1-2.52-10.58,112.58,112.58,0,0,1-.69-13.4,70.38,70.38,0,0,1,1.93-17.15,30.69,30.69,0,0,1,6.13-12.6,12.86,12.86,0,0,1,10.13-4.94q8.7,0,12.11,6.52c2.27,4.35,3.08,7.79,2.68,15.9l-11.17.5a15.43,15.43,0,0,0-.41-5.92q-0.84-4.25-2.92-4.25-5.34,0-6.13,21.16-0.39,10.68,1,16.61T401,90Q403.43,90,404.47,86.46Z"/><path class="cls-1" d="M427.62,112.91a6.62,6.62,0,0,1-4.36,1.29,5.15,5.15,0,0,1-3.86-1.89,5.21,5.21,0,0,1-1.21-4.14,5.68,5.68,0,0,1,2-3.81,5.85,5.85,0,0,1,4.19-1.34,5.6,5.6,0,0,1,4,1.86A5.43,5.43,0,0,1,427.62,112.91Zm4.13-38.71q-1.19,11.36-1.9,17.38l-0.72,5.94-9,.11q0.31-14.12.83-24.5c0.35-6.92,1.82-26.22,2.12-30.19L423.48,37l11.44,1.23C434.35,45.4,432.54,66.63,431.74,74.2Z"/><path class="cls-3" d="M144.2,143h0l3.56-12.42h2.06l3.7,12.42h0l3.51-12.18h3.65l-6,18.23h-2.56l-3.55-11.68h0l-3.37,11.68h-2.56L137,130.86h3.65Z"/><path class="cls-3" d="M174,137.9v-7h3.48v17.87H174v-8h-6.45v8h-3.48V130.86h3.48v7H174Z"/><path class="cls-3" d="M185.91,148.73h-3.48V130.86h3.48v17.87Z"/><path class="cls-3" d="M194.3,145.7h4.93v3h-8.41V130.86h3.48V145.7Z"/><path class="cls-3" d="M206.2,133.89v3.93h5.55v3H206.2v4.84H212v3h-9.24V130.86H212v3H206.2Z"/><path class="cls-3" d="M224.2,130.86h4.05l3.13,6.21,3.41-6.21h4.08l-5.64,9.67v8.2h-3.48v-8.2Z"/><path class="cls-3" d="M250.13,149.2c-5.45,0-8.84-4.17-8.84-9.43s3.51-9.39,8.84-9.39,8.84,4.08,8.84,9.39S255.58,149.2,250.13,149.2Zm0-15.38c-3.29,0-5.24,2.92-5.24,5.81s1.38,6.14,5.24,6.14,5.24-3.39,5.24-6.14S253.43,133.82,250.13,133.82Z"/><path class="cls-3" d="M263,130.86h3.48v10c0,2.2.19,5.31,3.15,5.31s3.15-3.1,3.15-5.31v-10h3.48v10.69c0,4.36-1.85,7.66-6.64,7.66s-6.64-3.29-6.64-7.66V130.86Z"/><path class="cls-3" d="M293.76,148.73h-3.48V130.86H295c3.74,0,6.19,1.49,6.19,5.55,0,3.79-2.06,5.64-5.71,5.64h-1.73v6.68Zm0-9.58h0.71c2.06,0,3.18-.45,3.18-2.77s-1.33-2.63-3.27-2.63h-0.62v5.4Z"/><path class="cls-3" d="M308.64,145.7h4.93v3h-8.41V130.86h3.48V145.7Z"/><path class="cls-3" d="M320.7,145l-1.47,3.77h-3.67l7-18.34h2.7L332,148.73h-3.72L326.91,145H320.7Zm3-9.34h0l-2,6.49h4.24Z"/><path class="cls-3" d="M331.41,130.86h4.05l3.13,6.21,3.41-6.21h4.08l-5.64,9.67v8.2H337v-8.2Z"/><path class="cls-3" d="M354,147.07a2.11,2.11,0,1,1-4.22,0A2.11,2.11,0,0,1,354,147.07Zm-3.79-16.21h3.37v12.73h-3.37V130.86Z"/><path class="cls-3" d="M134.08,11.8h0l-3.48,9.73h-1l-3.36-9.73h0l-1.36,9.53h-3l2.59-15.76h2.12l3.79,10.12,3.62-10.12H136l2.3,15.76h-3Z"/><path class="cls-3" d="M144.81,18.09l-1.26,3.24h-3.15l6-15.76h2.32l5.82,15.76h-3.2l-1.18-3.24h-5.33Zm2.59-8h0l-1.69,5.58h3.64Z"/><path class="cls-3" d="M165.24,6h3.68l-5.82,7.08,6.15,8.26h-3.85l-4.91-6.9h0v6.9h-3V6h3v6.47h0Z"/><path class="cls-3" d="M175.11,8.59V12h4.76v2.61h-4.76v4.15h4.95v2.61h-7.94V6h7.94V8.59h-4.95Z"/><path class="cls-3" d="M199.23,9.36a2.76,2.76,0,0,0-2.3-1.26,1.83,1.83,0,0,0-1.87,1.73c0,2.59,6.09,1.51,6.09,6.66,0,3.07-1.91,5.25-5,5.25a5.44,5.44,0,0,1-4.72-3l1.93-1.89a3.15,3.15,0,0,0,2.77,2.24,2.05,2.05,0,0,0,2-2.22c0-1.59-1.47-2-2.67-2.5-2-.81-3.42-1.81-3.42-4.19a4.47,4.47,0,0,1,4.48-4.6,6.3,6.3,0,0,1,4.19,1.71Z"/><path class="cls-3" d="M204.66,6h3v8.59c0,1.89.16,4.56,2.71,4.56s2.71-2.67,2.71-4.56V6h3v9.18c0,3.75-1.59,6.57-5.7,6.57s-5.7-2.83-5.7-6.57V6Z"/><path class="cls-3" d="M230.59,21.33H227l-3.73-6.19h0v6.19h-3V6h4.05c3,0,5.13,1.34,5.13,4.62a4.06,4.06,0,0,1-3.13,4.25ZM223.2,13h0.39c1.65,0,2.81-.49,2.81-2.36s-1.2-2.26-2.79-2.26H223.2V13Z"/><path class="cls-3" d="M236.6,8.59V12h4.76v2.61H236.6v4.15h4.95v2.61h-7.94V6h7.94V8.59H236.6Z"/><path class="cls-3" d="M258.48,21.33h-3V8.59h-3.09V6h9.18V8.59h-3.09V21.33Z"/><path class="cls-3" d="M271.56,21.74c-4.68,0-7.59-3.58-7.59-8.1s3-8.06,7.59-8.06,7.59,3.5,7.59,8.06S276.24,21.74,271.56,21.74Zm0-13.21c-2.83,0-4.5,2.5-4.5,5s1.18,5.27,4.5,5.27,4.5-2.91,4.5-5.27S274.39,8.52,271.56,8.52Z"/><path class="cls-3" d="M297.8,9.36a2.76,2.76,0,0,0-2.3-1.26,1.83,1.83,0,0,0-1.87,1.73c0,2.59,6.09,1.51,6.09,6.66,0,3.07-1.91,5.25-5,5.25a5.44,5.44,0,0,1-4.72-3l1.93-1.89a3.15,3.15,0,0,0,2.77,2.24,2.05,2.05,0,0,0,2-2.22c0-1.59-1.47-2-2.67-2.5-2-.81-3.42-1.81-3.42-4.19A4.47,4.47,0,0,1,295,5.57a6.3,6.3,0,0,1,4.19,1.71Z"/><path class="cls-3" d="M308.3,21.33h-3V8.59h-3.09V6h9.18V8.59H308.3V21.33Z"/><path class="cls-3" d="M324.91,21.33h-3.62l-3.73-6.19h0v6.19h-3V6h4.05c3,0,5.13,1.34,5.13,4.62a4.06,4.06,0,0,1-3.13,4.25ZM317.52,13h0.39c1.65,0,2.81-.49,2.81-2.36s-1.2-2.26-2.79-2.26h-0.41V13Z"/><path class="cls-3" d="M330.91,8.59V12h4.76v2.61h-4.76v4.15h4.95v2.61h-7.94V6h7.94V8.59h-4.95Z"/><path class="cls-3" d="M343,18.09l-1.26,3.24H338.6l6-15.76h2.32l5.82,15.76h-3.2l-1.18-3.24H343Zm2.59-8h0l-1.69,5.58h3.64Z"/><path class="cls-3" d="M367.14,11.8h0l-3.48,9.73h-1l-3.36-9.73h0l-1.36,9.53h-3l2.59-15.76h2.12l3.79,10.12,3.62-10.12h2.16l2.3,15.76h-3Z"/><path class="cls-1" d="M196.53,177.33a6.2,6.2,0,0,0-10.27,4.84,6.13,6.13,0,0,0,10.27,4.71v2.3a8.43,8.43,0,0,1-4.09,1.1,8.07,8.07,0,0,1-8.12-8A8.19,8.19,0,0,1,192.6,174a7.52,7.52,0,0,1,3.93,1.05v2.25Z"/><path class="cls-1" d="M202.64,189.95h-1.86V172h1.86v17.94Z"/><path class="cls-1" d="M210,175.85a1.28,1.28,0,0,1-2.56,0A1.28,1.28,0,1,1,210,175.85Zm-0.35,14.1h-1.86v-9.68h1.86v9.68Z"/><path class="cls-1" d="M221.79,183a3.55,3.55,0,0,0-2.77-1.3,3.35,3.35,0,0,0-3.22,3.39,3.27,3.27,0,0,0,3.35,3.43,3.48,3.48,0,0,0,2.65-1.28v2.38a5.41,5.41,0,0,1-2.67.64,5.09,5.09,0,0,1-5.19-5.09,5.14,5.14,0,0,1,5.29-5.21,5.24,5.24,0,0,1,2.56.64V183Z"/><path class="cls-1" d="M227.84,183.91l3.64-3.64h2.46l-4.13,4,4.55,5.66h-2.42l-3.45-4.4-0.64.64v3.76H226V172h1.86v11.91Z"/><path class="cls-1" d="M247.23,181.88h0a4,4,0,0,1,3.37-1.9c2.79,0,4.55,2.42,4.55,5.06s-1.65,5.23-4.63,5.23a4,4,0,0,1-3.29-1.84h0v7h-1.86V180.27h1.86v1.61Zm6.1,3.23a3.12,3.12,0,1,0-6.2,0c0,1.82,1.1,3.51,3.06,3.51S253.33,187,253.33,185.11Z"/><path class="cls-1" d="M261,189.95h-1.86V172H261v17.94Z"/><path class="cls-1" d="M274.81,189.95h-1.86v-1.51h0a4,4,0,0,1-3.29,1.84c-3,0-4.63-2.46-4.63-5.23s1.76-5.06,4.57-5.06a4,4,0,0,1,3.35,1.9h0v-1.61h1.86v9.68Zm-1.76-4.84a3.12,3.12,0,1,0-6.2,0c0,1.82,1.1,3.51,3.06,3.51S273.05,187,273.05,185.11Z"/><path class="cls-1" d="M277.74,180.27h2.17l3.27,6.14,3-6.14h2.09l-7.84,15.22h-2.11l3.8-7.19Z"/><path class="cls-1" d="M308.87,185.13a5.17,5.17,0,1,1-5.17-5.15A5.09,5.09,0,0,1,308.87,185.13Zm-8.48,0a3.31,3.31,0,1,0,3.31-3.37A3.36,3.36,0,0,0,300.4,185.13Z"/><path class="cls-1" d="M315.94,186.31l2.79-6h2.09l-4.88,10-4.86-10h2.09Z"/><path class="cls-1" d="M325,185.42a3,3,0,0,0,2.91,3.2,3.17,3.17,0,0,0,2.89-1.88l1.57,0.89a5,5,0,0,1-4.49,2.65c-3,0-4.76-2.23-4.76-5.09s1.59-5.21,4.71-5.21,4.53,2.27,4.53,5.15v0.29H325Zm5.52-1.41a2.61,2.61,0,0,0-2.67-2.42,2.77,2.77,0,0,0-2.75,2.42h5.42Z"/><path class="cls-1" d="M338,181.84h0.06a2.78,2.78,0,0,1,2.65-1.86,2.9,2.9,0,0,1,1.53.48l-0.85,1.7a1.63,1.63,0,0,0-1.14-.39c-2,0-2.25,1.86-2.25,3.43v4.76h-1.86v-9.68H338v1.57Z"/><path class="cls-1" d="M355.28,172v9.57h0a3.3,3.3,0,0,1,2.92-1.59c2.73,0,3.43,1.84,3.43,4.2v5.77h-1.86v-5.54c0-1.65-.23-2.77-2.13-2.77-2.4,0-2.4,2.11-2.4,3.87v4.44h-1.86V172h1.86Z"/><path class="cls-1" d="M367.42,185.42a3,3,0,0,0,2.91,3.2,3.17,3.17,0,0,0,2.89-1.88l1.57,0.89a5,5,0,0,1-4.49,2.65c-3,0-4.76-2.23-4.76-5.09s1.59-5.21,4.71-5.21,4.53,2.27,4.53,5.15v0.29h-7.38Zm5.52-1.41a2.61,2.61,0,0,0-2.67-2.42,2.77,2.77,0,0,0-2.75,2.42h5.42Z"/><path class="cls-1" d="M380.44,181.84h0.06a2.78,2.78,0,0,1,2.65-1.86,2.9,2.9,0,0,1,1.53.48l-0.85,1.7a1.63,1.63,0,0,0-1.14-.39c-2,0-2.25,1.86-2.25,3.43v4.76h-1.86v-9.68h1.86v1.57Z"/><path class="cls-1" d="M388.89,185.42a3,3,0,0,0,2.91,3.2,3.17,3.17,0,0,0,2.89-1.88l1.57,0.89a5,5,0,0,1-4.49,2.65c-3,0-4.76-2.23-4.76-5.09s1.59-5.21,4.71-5.21,4.53,2.27,4.53,5.15v0.29h-7.38Zm5.52-1.41a2.61,2.61,0,0,0-2.67-2.42A2.77,2.77,0,0,0,389,184h5.42Z"/><path class="cls-4" d="M108.62,177.55a2.89,2.89,0,0,0-2.41-1.32,1.91,1.91,0,0,0-2,1.81c0,2.71,6.37,1.58,6.37,7,0,3.22-2,5.5-5.29,5.5a5.69,5.69,0,0,1-4.94-3.13l2-2a3.3,3.3,0,0,0,2.9,2.34,2.15,2.15,0,0,0,2.07-2.32c0-1.66-1.53-2.13-2.79-2.62-2.07-.85-3.58-1.9-3.58-4.39a4.68,4.68,0,0,1,4.69-4.82,6.6,6.6,0,0,1,4.39,1.79Z"/><path class="cls-4" d="M119.62,190.08h-3.13V176.74h-3.24V174h9.61v2.73h-3.24v13.34Z"/><path class="cls-4" d="M129.27,176.74v3.54h5V183h-5v4.35h5.18v2.73h-8.31V174h8.31v2.73h-5.18Z"/><path class="cls-4" d="M141.81,190.08h-3.13V174h4.26c3.37,0,5.56,1.34,5.56,5,0,3.41-1.85,5.07-5.14,5.07h-1.56v6Zm0-8.61h0.64c1.85,0,2.86-.4,2.86-2.49s-1.19-2.37-2.94-2.37h-0.55v4.86Z"/><path class="cls-4" d="M162.3,176.74V174h5.24v16.07h-3.13V176.74H162.3Z"/><path class="cls-1" d="M189.58,238.43a2.67,2.67,0,0,0-2.5-1.47,2.46,2.46,0,0,0-2.6,2.21c0,1.22,1.2,1.86,2.17,2.23l1.12,0.43c2.21,0.87,3.87,2.09,3.87,4.69a4.81,4.81,0,0,1-5,4.86,4.86,4.86,0,0,1-4.82-4.36l2-.41a2.95,2.95,0,1,0,5.89-.08c0-1.67-1.34-2.4-2.69-3l-1.07-.45c-1.78-.76-3.39-1.78-3.39-3.95,0-2.52,2.23-4,4.59-4a4.45,4.45,0,0,1,4,2.36Z"/><path class="cls-1" d="M197.74,251.06h-1.86v-7.94h-1v-1.74h1v-3.7h1.86v3.7h1.82v1.74h-1.82v7.94Z"/><path class="cls-1" d="M203.76,246.54a3,3,0,0,0,2.91,3.2,3.17,3.17,0,0,0,2.89-1.88l1.57,0.89a5,5,0,0,1-4.49,2.65c-3,0-4.76-2.23-4.76-5.09s1.59-5.21,4.71-5.21,4.53,2.27,4.53,5.15v0.29h-7.38Zm5.52-1.41a2.61,2.61,0,0,0-2.67-2.42,2.77,2.77,0,0,0-2.75,2.42h5.42Z"/><path class="cls-1" d="M223.87,251.06H222v-1.51h0a4,4,0,0,1-3.29,1.84c-3,0-4.63-2.46-4.63-5.23s1.76-5.06,4.57-5.06A4,4,0,0,1,222,243h0v-1.61h1.86v9.68Zm-1.76-4.84a3.12,3.12,0,1,0-6.2,0c0,1.82,1.1,3.51,3.06,3.51S222.12,248.13,222.12,246.23Z"/><path class="cls-1" d="M230.16,242.61h0a3.16,3.16,0,0,1,2.56-1.51,3.09,3.09,0,0,1,2.79,1.72,3.49,3.49,0,0,1,3-1.72c2.54,0,3.2,2,3.2,4.18v5.79h-1.86v-5.48c0-1.24-.17-2.83-1.8-2.83-2,0-2.13,2.07-2.13,3.56v4.76h-1.86v-5.13c0-1.26-.06-3.18-1.78-3.18-2,0-2.15,2-2.15,3.56v4.76H228.3v-9.68h1.86v1.22Z"/><path class="cls-1" d="M256.45,251.06h-1.86v-7.94h-1v-1.74h1v-3.7h1.86v3.7h1.82v1.74h-1.82v7.94Z"/><path class="cls-1" d="M263.21,233.12v9.57h0a3.3,3.3,0,0,1,2.92-1.59c2.73,0,3.43,1.84,3.43,4.2v5.77h-1.86v-5.54c0-1.65-.23-2.77-2.13-2.77-2.4,0-2.4,2.11-2.4,3.87v4.44h-1.86V233.12h1.86Z"/><path class="cls-1" d="M283.7,246.25a5.17,5.17,0,1,1-5.17-5.15A5.09,5.09,0,0,1,283.7,246.25Zm-8.48,0a3.31,3.31,0,1,0,3.31-3.37A3.36,3.36,0,0,0,275.22,246.25Z"/><path class="cls-1" d="M291.34,243.6a1.43,1.43,0,0,0-1.24-.85,1,1,0,0,0-1,1c0,0.85,1.12,1.22,2.25,1.74s2.23,1.22,2.23,2.75a3.25,3.25,0,0,1-3.33,3.2,3.56,3.56,0,0,1-3.35-2.17l1.59-.72a1.92,1.92,0,0,0,1.76,1.24,1.39,1.39,0,0,0,1.47-1.36,1.17,1.17,0,0,0-.68-1.05l-1.82-1c-1.07-.58-1.86-1.12-1.86-2.44a2.82,2.82,0,0,1,2.85-2.81,2.88,2.88,0,0,1,2.65,1.7Z"/><path class="cls-1" d="M298.58,246.54a3,3,0,0,0,2.91,3.2,3.17,3.17,0,0,0,2.89-1.88l1.57,0.89a5,5,0,0,1-4.49,2.65c-3,0-4.76-2.23-4.76-5.09s1.59-5.21,4.71-5.21,4.53,2.27,4.53,5.15v0.29h-7.38Zm5.52-1.41a2.61,2.61,0,0,0-2.67-2.42,2.77,2.77,0,0,0-2.75,2.42h5.42Z"/><path class="cls-1" d="M317.51,233.12h1.86V243h0a4,4,0,0,1,3.37-1.9c2.79,0,4.55,2.42,4.55,5.06s-1.65,5.23-4.63,5.23a4,4,0,0,1-3.29-1.84h0v1.51h-1.86V233.12Zm8,13.11a3.12,3.12,0,1,0-6.2,0c0,1.82,1.1,3.51,3.06,3.51S325.47,248.13,325.47,246.23Z"/><path class="cls-1" d="M340.29,251.06h-1.86v-1.51h0a4,4,0,0,1-3.29,1.84c-3,0-4.63-2.46-4.63-5.23s1.76-5.06,4.57-5.06a4,4,0,0,1,3.35,1.9h0v-1.61h1.86v9.68Zm-1.76-4.84a3.12,3.12,0,1,0-6.2,0c0,1.82,1.1,3.51,3.06,3.51S338.54,248.13,338.54,246.23Z"/><path class="cls-1" d="M346.64,242.69h0a3.3,3.3,0,0,1,2.92-1.59c2.73,0,3.43,1.84,3.43,4.2v5.77h-1.86v-5.54c0-1.65-.23-2.77-2.13-2.77-2.4,0-2.4,2.11-2.4,3.87v4.44h-1.86v-9.68h1.86v1.3Z"/><path class="cls-1" d="M366.71,250.88c0,3.33-1,5.73-4.71,5.73-2.69,0-4.63-1.65-4.67-4.38h1.86a2.63,2.63,0,0,0,2.89,2.73c2.29,0,2.77-1.57,2.77-3.56v-1.84h0a4,4,0,0,1-3.29,1.84c-3,0-4.63-2.46-4.63-5.23s1.76-5.06,4.55-5.06a3.92,3.92,0,0,1,3.37,1.94h0v-1.65h1.86v9.49ZM365,246.23a3.12,3.12,0,1,0-6.2,0c0,1.82,1.1,3.51,3.06,3.51S365,248.13,365,246.23Z"/><path class="cls-1" d="M372.31,246.54a3,3,0,0,0,2.91,3.2,3.17,3.17,0,0,0,2.89-1.88l1.57,0.89a5,5,0,0,1-4.49,2.65c-3,0-4.76-2.23-4.76-5.09s1.59-5.21,4.71-5.21,4.53,2.27,4.53,5.15v0.29h-7.38Zm5.52-1.41a2.61,2.61,0,0,0-2.67-2.42,2.77,2.77,0,0,0-2.75,2.42h5.42Z"/><path class="cls-1" d="M385.34,243h0.06A2.78,2.78,0,0,1,388,241.1a2.9,2.9,0,0,1,1.53.48l-0.85,1.7a1.63,1.63,0,0,0-1.14-.39c-2,0-2.25,1.86-2.25,3.43v4.76h-1.86v-9.68h1.86V243Z"/><path class="cls-1" d="M396.56,243.6a1.43,1.43,0,0,0-1.24-.85,1,1,0,0,0-1,1c0,0.85,1.12,1.22,2.25,1.74s2.23,1.22,2.23,2.75a3.25,3.25,0,0,1-3.33,3.2,3.56,3.56,0,0,1-3.35-2.17l1.59-.72a1.92,1.92,0,0,0,1.76,1.24,1.39,1.39,0,0,0,1.47-1.36,1.17,1.17,0,0,0-.68-1.05l-1.82-1c-1.07-.58-1.86-1.12-1.86-2.44a2.82,2.82,0,0,1,2.85-2.81,2.88,2.88,0,0,1,2.65,1.7Z"/><path class="cls-4" d="M106.1,238.67a2.89,2.89,0,0,0-2.41-1.32,1.91,1.91,0,0,0-2,1.81c0,2.71,6.37,1.58,6.37,7,0,3.22-2,5.5-5.29,5.5a5.69,5.69,0,0,1-4.94-3.13l2-2a3.3,3.3,0,0,0,2.9,2.34,2.15,2.15,0,0,0,2.07-2.32c0-1.66-1.53-2.13-2.79-2.62-2.07-.85-3.58-1.9-3.58-4.39a4.68,4.68,0,0,1,4.69-4.82,6.6,6.6,0,0,1,4.39,1.79Z"/><path class="cls-4" d="M117.1,251.2H114V237.86h-3.24v-2.73h9.61v2.73H117.1V251.2Z"/><path class="cls-4" d="M126.75,237.86v3.54h5v2.73h-5v4.35h5.18v2.73h-8.31V235.13h8.31v2.73h-5.18Z"/><path class="cls-4" d="M139.29,251.2h-3.13V235.13h4.26c3.37,0,5.56,1.34,5.56,5,0,3.41-1.85,5.07-5.14,5.07h-1.56v6Zm0-8.61h0.64c1.85,0,2.86-.4,2.86-2.49s-1.19-2.37-2.94-2.37h-0.55v4.86Z"/><path class="cls-4" d="M157.94,239.33a4.72,4.72,0,0,1,4.92-4.62,4.31,4.31,0,0,1,4.62,4.54,4,4,0,0,1-1.53,3.35c1.47,0.64,2.07,2.45,2.07,3.92,0,3.15-2.28,5.11-5.35,5.11a5.26,5.26,0,0,1-5.33-5.07h3.15a2.3,2.3,0,0,0,2.3,2.34,2.35,2.35,0,0,0,2.15-2.58c0-1.28-.85-2.66-2.26-2.56l-0.58,0v-2.24h0.34a2,2,0,0,0,2-2.22,1.88,1.88,0,0,0-1.83-2,1.92,1.92,0,0,0-1.75,2h-3Z"/><path class="cls-1" d="M209.73,266h1.9c2.94,0,5.71.76,5.71,4.28a3.35,3.35,0,0,1-1.67,3v0a4,4,0,0,1,3.12,3.95c0,3.12-2.67,4.36-5.42,4.36h-3.64V266Zm1.94,6.9h0.5c1.84,0,3.35-.37,3.35-2.61s-1.49-2.56-3.31-2.56h-0.54v5.17Zm0,6.95h1.49c1.8,0,3.68-.54,3.68-2.75s-2.23-2.65-4-2.65h-1.2v5.4Z"/><path class="cls-1" d="M223.93,277.1a3,3,0,0,0,2.91,3.2,3.17,3.17,0,0,0,2.89-1.88l1.57,0.89a5,5,0,0,1-4.49,2.65c-3,0-4.76-2.23-4.76-5.09s1.59-5.21,4.71-5.21,4.53,2.27,4.53,5.15v0.29h-7.38Zm5.52-1.41a2.61,2.61,0,0,0-2.67-2.42,2.77,2.77,0,0,0-2.75,2.42h5.42Z"/><path class="cls-1" d="M244,281.44c0,3.33-1,5.73-4.71,5.73-2.69,0-4.63-1.65-4.67-4.38h1.86a2.63,2.63,0,0,0,2.89,2.73c2.29,0,2.77-1.57,2.77-3.56v-1.84h0a4,4,0,0,1-3.29,1.84c-3,0-4.63-2.46-4.63-5.23s1.76-5.06,4.55-5.06a3.92,3.92,0,0,1,3.37,1.94h0v-1.65H244v9.49Zm-1.76-4.65a3.12,3.12,0,1,0-6.2,0c0,1.82,1.1,3.51,3.06,3.51S242.27,278.69,242.27,276.79Z"/><path class="cls-1" d="M251.14,267.52a1.28,1.28,0,0,1-2.56,0A1.28,1.28,0,1,1,251.14,267.52Zm-0.35,14.1h-1.86v-9.68h1.86v9.68Z"/><path class="cls-1" d="M257.69,273.25h0a3.3,3.3,0,0,1,2.92-1.59c2.73,0,3.43,1.84,3.43,4.2v5.77h-1.86v-5.54c0-1.65-.23-2.77-2.13-2.77-2.4,0-2.4,2.11-2.4,3.87v4.44h-1.86v-9.68h1.86v1.3Z"/><path class="cls-1" d="M278.88,281.62H277v-7.94h-1v-1.74h1v-3.7h1.86v3.7h1.82v1.74h-1.82v7.94Z"/><path class="cls-1" d="M285.64,263.68v9.57h0a3.3,3.3,0,0,1,2.92-1.59c2.73,0,3.43,1.84,3.43,4.2v5.77h-1.86v-5.54c0-1.65-.23-2.77-2.13-2.77-2.4,0-2.4,2.11-2.4,3.87v4.44h-1.86V263.68h1.86Z"/><path class="cls-1" d="M297.77,277.1a3,3,0,0,0,2.91,3.2,3.17,3.17,0,0,0,2.89-1.88l1.57,0.89a5,5,0,0,1-4.49,2.65c-3,0-4.76-2.23-4.76-5.09s1.59-5.21,4.71-5.21,4.53,2.27,4.53,5.15v0.29h-7.38Zm5.52-1.41a2.61,2.61,0,0,0-2.67-2.42,2.77,2.77,0,0,0-2.75,2.42h5.42Z"/><path class="cls-1" d="M329.92,282l-1.34-1.39a8.07,8.07,0,1,1,3.72-6.74,7.93,7.93,0,0,1-2.44,5.75l2.42,2.38h-2.36Zm-1.39-3.76a6.24,6.24,0,1,0-10.63-4.36,6.26,6.26,0,0,0,6.22,6.31,6.12,6.12,0,0,0,3.1-.89l-3.58-3.49h2.42Z"/><path class="cls-1" d="M337.81,271.95v5.35c0,1.55.39,2.92,2.23,2.92s2.23-1.36,2.23-2.92v-5.35h1.86v5.56c0,2.65-1.24,4.45-4.09,4.45s-4.09-1.8-4.09-4.45v-5.56h1.86Z"/><path class="cls-1" d="M351.31,267.52a1.28,1.28,0,0,1-2.56,0A1.28,1.28,0,1,1,351.31,267.52ZM351,281.62H349.1v-9.68H351v9.68Z"/><path class="cls-1" d="M364.67,279.89v1.74h-9.9l6.55-7.94h-5.44v-1.74h9.05l-6.55,7.94h6.28Z"/><path class="cls-1" d="M371.55,280.76a1.2,1.2,0,1,1-2.4,0A1.2,1.2,0,0,1,371.55,280.76ZM369.42,266h1.86v12h-1.86V266Z"/><path class="cls-4" d="M133.34,269.23a2.89,2.89,0,0,0-2.41-1.32,1.91,1.91,0,0,0-2,1.81c0,2.71,6.37,1.58,6.37,7,0,3.22-2,5.5-5.29,5.5a5.69,5.69,0,0,1-4.94-3.13l2-2a3.3,3.3,0,0,0,2.9,2.34,2.15,2.15,0,0,0,2.07-2.32c0-1.66-1.53-2.13-2.79-2.62-2.07-.85-3.58-1.9-3.58-4.39a4.68,4.68,0,0,1,4.69-4.82,6.6,6.6,0,0,1,4.39,1.79Z"/><path class="cls-4" d="M144.34,281.76h-3.13V268.42H138v-2.73h9.61v2.73h-3.24v13.34Z"/><path class="cls-4" d="M154,268.42V272h5v2.73h-5V279h5.18v2.73h-8.31V265.69h8.31v2.73H154Z"/><path class="cls-4" d="M166.53,281.76H163.4V265.69h4.26c3.37,0,5.56,1.34,5.56,5,0,3.41-1.85,5.07-5.14,5.07h-1.56v6Zm0-8.61h0.64c1.85,0,2.86-.4,2.86-2.49s-1.19-2.37-2.94-2.37h-0.55v4.86Z"/><path class="cls-4" d="M195.71,276.41v2.51H194v2.83h-2.94v-2.83H184v-1.41l7.16-12.13H194v11h1.7ZM191.07,270h0l-3.39,6.39h3.43V270Z"/><path class="cls-3" d="M84.78,183c-24-3.19-46.84-13.34-64.27-30.28-0.49-.48-1.79.27-1.15,0.89,17.59,17.1,40.72,27.3,64.92,30.52,0.76,0.1,1.52-1,.51-1.12h0Z"/><path class="cls-3" d="M18.37,158.1c0.11,0.3.23,0,.31-0.11,2.34-2.11,3.82-4.12,6.27-5.57a0.5,0.5,0,0,0-.2-0.92,25.86,25.86,0,0,1-8.39-2.72,0.51,0.51,0,0,0-.71.58,78.83,78.83,0,0,0,2.72,8.74"/><path class="cls-4" d="M60.67,208.11a2.89,2.89,0,0,0-2.41-1.32,1.91,1.91,0,0,0-2,1.81c0,2.71,6.37,1.58,6.37,7,0,3.22-2,5.5-5.29,5.5a5.69,5.69,0,0,1-4.94-3.13l2-2a3.3,3.3,0,0,0,2.9,2.34A2.15,2.15,0,0,0,59.43,216c0-1.66-1.53-2.13-2.79-2.62-2.07-.85-3.58-1.9-3.58-4.39a4.68,4.68,0,0,1,4.69-4.82,6.6,6.6,0,0,1,4.39,1.79Z"/><path class="cls-4" d="M71.67,220.64H68.54V207.3H65.3v-2.73h9.61v2.73H71.67v13.34Z"/><path class="cls-4" d="M81.33,207.3v3.54h5v2.73h-5v4.35H86.5v2.73H78.19V204.57H86.5v2.73H81.33Z"/><path class="cls-4" d="M93.86,220.64H90.73V204.57H95c3.37,0,5.56,1.34,5.56,5,0,3.41-1.85,5.07-5.14,5.07H93.86v6Zm0-8.61H94.5c1.85,0,2.86-.4,2.86-2.49s-1.19-2.37-2.94-2.37H93.86V212Z"/><path class="cls-4" d="M122.68,217.91v2.73H111.85l4.09-5.16c1.13-1.41,3.5-4.2,3.5-6,0-1.15-.75-2.6-2.07-2.6s-2,1.53-2,2.75h-3.32c0.21-3.09,2-5.48,5.29-5.48a5.11,5.11,0,0,1,5.22,5.18c0,2.37-1.32,4.13-2.79,5.84l-2.37,2.75h5.26Z"/><path class="cls-1" d="M148.57,207.9a6.2,6.2,0,0,0-10.27,4.84,6.13,6.13,0,0,0,10.27,4.71v2.29a8.43,8.43,0,0,1-4.09,1.1,8.06,8.06,0,0,1-8.12-8,8.19,8.19,0,0,1,8.29-8.2,7.52,7.52,0,0,1,3.93,1.05v2.25Z"/><path class="cls-1" d="M154.69,220.5h-1.86V202.57h1.86V220.5Z"/><path class="cls-1" d="M162,206.41a1.28,1.28,0,0,1-2.56,0A1.28,1.28,0,1,1,162,206.41Zm-0.35,14.09h-1.86v-9.67h1.86v9.67Z"/><path class="cls-1" d="M173.82,213.58a3.55,3.55,0,0,0-2.77-1.3,3.34,3.34,0,0,0-3.22,3.39,3.27,3.27,0,0,0,3.35,3.43,3.47,3.47,0,0,0,2.64-1.28v2.38a5.41,5.41,0,0,1-2.67.64,5.09,5.09,0,0,1-5.19-5.08,5.14,5.14,0,0,1,5.29-5.21,5.24,5.24,0,0,1,2.56.64v2.4Z"/><path class="cls-1" d="M179.87,214.47l3.64-3.64H186l-4.13,4,4.55,5.66H184l-3.45-4.4-0.64.64v3.76H178V202.57h1.86v11.9Z"/><path class="cls-1" d="M197.49,210.11l2.75-5.52,1.16,0.48-2.27,5.68Zm3.43,0,2.75-5.52,1.16,0.48-2.27,5.68Z"/><path class="cls-1" d="M224.11,212.71a8.16,8.16,0,0,1-16.32,0A8.16,8.16,0,0,1,224.11,212.71Zm-1.94,0a6.22,6.22,0,1,0-12.44,0A6.22,6.22,0,1,0,222.16,212.71Z"/><path class="cls-1" d="M229.56,212.44h0a4,4,0,0,1,3.37-1.9c2.79,0,4.55,2.42,4.55,5.06s-1.65,5.23-4.63,5.23A4,4,0,0,1,229.6,219h0v7H227.7V210.83h1.86v1.61Zm6.1,3.22a3.12,3.12,0,1,0-6.2,0c0,1.82,1.1,3.51,3.06,3.51S235.66,217.57,235.66,215.66Z"/><path class="cls-1" d="M242.51,216a3,3,0,0,0,2.91,3.2,3.16,3.16,0,0,0,2.89-1.88l1.57,0.89a5,5,0,0,1-4.48,2.64c-3,0-4.75-2.23-4.75-5.08s1.59-5.21,4.71-5.21,4.53,2.27,4.53,5.14V216h-7.38Zm5.52-1.4a2.61,2.61,0,0,0-2.67-2.42,2.77,2.77,0,0,0-2.75,2.42H248Z"/><path class="cls-1" d="M255.41,212.13h0a3.3,3.3,0,0,1,2.91-1.59c2.73,0,3.43,1.84,3.43,4.2v5.76h-1.86V215c0-1.65-.23-2.77-2.13-2.77-2.4,0-2.4,2.11-2.4,3.86v4.44h-1.86v-9.67h1.86v1.3Z"/><path class="cls-1" d="M269.54,205.23l-2.75,5.52-1.16-.47,2.27-5.68Zm3.43,0-2.75,5.52-1.16-.47,2.27-5.68Z"/><path class="cls-1" d="M288.9,217l2.85-6.69,2.83,6.69,2.81-6.16h2.11l-4.92,10-2.83-6.47-2.85,6.47-4.92-10h2.11Z"/><path class="cls-1" d="M304.35,202.57v9.57h0a3.3,3.3,0,0,1,2.91-1.59c2.73,0,3.43,1.84,3.43,4.2v5.76h-1.86V215c0-1.65-.23-2.77-2.13-2.77-2.4,0-2.4,2.11-2.4,3.86v4.44h-1.86V202.57h1.86Z"/><path class="cls-1" d="M316.48,216a3,3,0,0,0,2.91,3.2,3.16,3.16,0,0,0,2.89-1.88l1.57,0.89a5,5,0,0,1-4.48,2.64c-3,0-4.75-2.23-4.75-5.08s1.59-5.21,4.71-5.21,4.53,2.27,4.53,5.14V216h-7.38Zm5.52-1.4a2.61,2.61,0,0,0-2.67-2.42,2.77,2.77,0,0,0-2.75,2.42H322Z"/><path class="cls-1" d="M329.37,212.13h0a3.3,3.3,0,0,1,2.91-1.59c2.73,0,3.43,1.84,3.43,4.2v5.76h-1.86V215c0-1.65-.23-2.77-2.13-2.77-2.4,0-2.4,2.11-2.4,3.86v4.44h-1.86v-9.67h1.86v1.3Z"/><path class="cls-1" d="M350.13,212.44h0a4,4,0,0,1,3.37-1.9c2.79,0,4.55,2.42,4.55,5.06s-1.65,5.23-4.63,5.23a4,4,0,0,1-3.29-1.84h0v7h-1.86V210.83h1.86v1.61Zm6.1,3.22a3.12,3.12,0,1,0-6.2,0c0,1.82,1.1,3.51,3.06,3.51S356.23,217.57,356.23,215.66Z"/><path class="cls-1" d="M364,212.4H364a2.78,2.78,0,0,1,2.64-1.86,2.9,2.9,0,0,1,1.53.48l-0.85,1.69a1.63,1.63,0,0,0-1.14-.39c-2,0-2.25,1.86-2.25,3.43v4.75H362.1v-9.67H364v1.57Z"/><path class="cls-1" d="M380.75,215.69a5.17,5.17,0,1,1-5.17-5.14A5.09,5.09,0,0,1,380.75,215.69Zm-8.47,0a3.31,3.31,0,1,0,3.31-3.37A3.36,3.36,0,0,0,372.28,215.69Z"/><path class="cls-1" d="M386.31,212h0a3.16,3.16,0,0,1,2.56-1.51,3.09,3.09,0,0,1,2.79,1.72,3.49,3.49,0,0,1,3-1.72c2.54,0,3.2,2,3.2,4.17v5.79H396V215c0-1.24-.17-2.83-1.8-2.83-2,0-2.13,2.07-2.13,3.55v4.75h-1.86v-5.12c0-1.26-.06-3.18-1.78-3.18-2,0-2.15,2-2.15,3.55v4.75h-1.86v-9.67h1.86V212Z"/><path class="cls-1" d="M404.14,212.44h0a4,4,0,0,1,3.37-1.9c2.79,0,4.55,2.42,4.55,5.06s-1.65,5.23-4.63,5.23a4,4,0,0,1-3.29-1.84h0v7h-1.86V210.83h1.86v1.61Zm6.1,3.22a3.12,3.12,0,1,0-6.2,0c0,1.82,1.1,3.51,3.06,3.51S410.24,217.57,410.24,215.66Z"/><path class="cls-1" d="M418.11,220.5h-1.86v-7.93h-1v-1.74h1v-3.7h1.86v3.7h1.82v1.74h-1.82v7.93Z"/><path class="cls-1" d="M424.12,216a3,3,0,0,0,2.91,3.2,3.16,3.16,0,0,0,2.89-1.88l1.57,0.89a5,5,0,0,1-4.48,2.64c-3,0-4.75-2.23-4.75-5.08s1.59-5.21,4.71-5.21,4.53,2.27,4.53,5.14V216h-7.38Zm5.52-1.4a2.61,2.61,0,0,0-2.67-2.42,2.77,2.77,0,0,0-2.75,2.42h5.41Z"/><path class="cls-1" d="M442.36,219h0a4,4,0,0,1-3.29,1.84c-3,0-4.63-2.46-4.63-5.23s1.76-5.06,4.55-5.06a4,4,0,0,1,3.37,1.9h0v-9.88h1.86V220.5h-1.86V219Zm0.1-3.33a3.12,3.12,0,1,0-6.2,0c0,1.82,1.1,3.51,3.06,3.51S442.47,217.57,442.47,215.66Z"/></svg>