<svg id="Layer_1" data-name="Layer 1" xmlns="http://www.w3.org/2000/svg" viewBox="0 0 521.35 118.69"><defs><style>.cls-1{fill:#f5a428;fill-rule:evenodd;}</style></defs><title>nd_tpatp_quiz-v1</title><path class="cls-1" d="M196.19,36.2a63.9,63.9,0,0,0-7.68-.8c-4.53,0-9.06.34-13.59,0.63-3.87.26-4.41,0.82-4.7,4.9-0.35,4.8-.55,9.61-0.82,14.4h0c-0.21,4.37-.45,8.73-0.62,13.09-0.11,3.48.34,3.92,3.42,4.67a40.76,40.76,0,0,0,11.68.95,36,36,0,0,0,16-4.48,13.89,13.89,0,0,0,7.35-11.75,30.2,30.2,0,0,0-3.16-15.53C202.48,38.92,199.92,36.61,196.19,36.2Z"/><path class="cls-1" d="M256.3,57.1a4.87,4.87,0,0,0-.59-1.26c-0.79-1.2-1.78-1.17-2.43.11-0.49,1-.8,2-1.21,3.06-1.15,2.9-2.35,5.81-3.46,8.73-0.86,2.25-.47,2.8,1.85,2.88,1.12,0,2.24,0,3.36,0v0.19c1.49,0,3,.08,4.47,0s1.89-.78,1.49-2.2C258.66,64.76,257.48,60.93,256.3,57.1Z"/><path class="cls-1" d="M503.61,0H17.73A17.73,17.73,0,0,0,0,17.73V101a17.73,17.73,0,0,0,17.73,17.73H503.61A17.73,17.73,0,0,0,521.35,101V17.73A17.73,17.73,0,0,0,503.61,0ZM216.24,78.63a33,33,0,0,1-14.82,7.78,68.54,68.54,0,0,1-13.48,1.75c-9.88.19-19.79-.05-29.69-0.19a58.84,58.84,0,0,1-6.78-.47c-3-.39-3.45-1.06-3.12-4.33,1-9.24,2.13-18.45,2.84-27.7,0.8-10.24,1.1-20.52,1.71-30.77,0.3-5-.89-5.37,5.23-5.27,6.5,0.1,13,0,19.48,0v0.49c6.18,0,12.36-.09,18.54,0A40.44,40.44,0,0,1,213,23.59c5.75,2.71,10.76,6.54,13.71,12.67,4.68,9.65,5.26,19.38.51,29.26C224.68,70.95,220.51,74.82,216.24,78.63Zm61.25,19c-2.88-.47-5.75-1-8.64-1.46a3.29,3.29,0,0,1-2.92-3.08c-0.45-2.65-1-5.3-1.55-7.93-0.63-3-1.39-3.6-4.24-4a60,60,0,0,0-12.76-.69c-2.8.2-3.85,0.93-4.74,3.82s-1.72,6.08-2.64,9.11c-0.46,1.51-1,3-1.6,4.44a1.85,1.85,0,0,1-2.34,1.32c-3.1-.9-6.21-1.79-9.29-2.76a1.7,1.7,0,0,1-1.06-2.29,7.3,7.3,0,0,1,.85-2.19c3.35-5.26,5.23-11.22,7.37-17.06,1.89-5.1,3.77-10.19,5.61-15.31,0.77-2.15,1.39-4.36,2.16-6.51,1.37-3.86,2.81-7.69,4.22-11.55,0.28-.81.57-1.63,0.84-2.45,0.52-1.61.57-1.71,2.22-1.76,1.35,0,2.7,0,4,.07,2.77,0,5.54.11,8.31,0.09,3.2,0,3.39.06,4.14,3.28,0.06,0.23.1,0.47,0.18,0.69,3,7.74,4.21,16,6.12,24.08q1.62,6.83,3.18,13.65,1.83,8,3.62,16a19.23,19.23,0,0,1,.22,2.35A5.51,5.51,0,0,1,277.5,97.66Zm73.95-6.09a4.8,4.8,0,0,1-1.21.56c-4.29.41-8.59,0.79-12.89,1.13a2.75,2.75,0,0,1-2.55-1.43q-9.27-13.43-18.66-26.78c-3.12-4.45-6.24-8.9-9.41-13.32a21.44,21.44,0,0,0-2.56-2.41,24.06,24.06,0,0,0-.61,2.68c-0.44,5.51-.85,11-1.26,16.54-0.32,4.39-.67,8.78-1,13.18-0.25,4-.43,7.92-0.6,11.89-0.1,2.62-.18,2.77-2.88,2.65-3.18-.14-6.38-0.34-9.57-0.55a9.56,9.56,0,0,1-1.69-.44c0-.94-0.18-1.88-0.14-2.8q0.39-13.87.82-27.73,0.48-15.92,1-31.84c0-.27,0-0.52,0-0.78,0.19-2.54.56-2.94,3.18-3,4.59-.1,9.16-0.08,13.74-0.23,2.52-.08,4.09.91,5.49,3.05,2.91,4.47,6.14,8.76,9.24,13.12l14,19.61a5,5,0,0,0,.82,1,1.17,1.17,0,0,0,2.1-.72,18.86,18.86,0,0,0,.3-2.83c0.29-5.77.52-11.55,0.87-17.33,0.21-3.44.56-6.88,0.84-10.31,0.09-1.12.14-2.24,0.2-3.36a1.49,1.49,0,0,1,1.62-1.61c0.7,0,1.39,0,2.07,0,2.95,0.11,5.86.25,8.79,0.38a8.84,8.84,0,0,1,1.3.32C352.92,50.69,351.63,71.16,351.45,91.58ZM379.2,64.34c-0.4,8.28-.85,16.56-1.27,24.84-0.06,1.29,0,2.59-.07,3.88,0,1-.12,2-0.2,3.24-1.53.18-2.88,0.39-4.24,0.48-2.76.19-5.52,0.3-8.27,0.48a1.64,1.64,0,0,1-2-1.73,58.51,58.51,0,0,1-.24-6.44c0.65-11.48,1.17-23,.84-34.45a37,37,0,0,1,.44-5.15,2,2,0,0,1,1.63-1.77c1.92-.58,11-0.83,13.47-0.21,0.13,1.65.4,3.43,0.38,5.21C379.57,56.59,379.39,60.47,379.2,64.34Z"/></svg>