<svg id="Layer_1" data-name="Layer 1" xmlns="http://www.w3.org/2000/svg" viewBox="0 0 521.35 118.69"><defs><style>.cls-1{fill:#fff;fill-rule:evenodd;}</style></defs><title>nd_tpatp_quiz-v1</title><path class="cls-1" d="M264.43,64.52c-1.06-3.34-2.1-6.68-3.24-10-0.31-.9-0.79-2.11-1.47-2.39-1.11-.46-1.74.91-2.47,1.65a3.11,3.11,0,0,0-.32.44c-2,2.72-4,5.41-5.89,8.17a29,29,0,0,0-2.8,4.68c-1.06,2.38-.26,3.46,2.21,3.42,1.49,0,3,0,4.85,0,2.41-.21,5.19-0.38,8-0.74,1.84-.25,2.21-0.95,1.84-2.84A21.8,21.8,0,0,0,264.43,64.52Z"/><path class="cls-1" d="M503.61,0H17.73A17.73,17.73,0,0,0,0,17.73V101a17.73,17.73,0,0,0,17.73,17.73H503.61A17.73,17.73,0,0,0,521.35,101V17.73A17.73,17.73,0,0,0,503.61,0Zm-305,85.4a45.15,45.15,0,0,1-11.32.87,123.51,123.51,0,0,1-17-1.62,45.57,45.57,0,0,1-11.45-3.77c-5.24-2.4-7.22-6.54-7.7-11.46a16.36,16.36,0,0,1,0-3.3,1.85,1.85,0,0,1,2-1.74c3.23-.11,6.44-0.23,9.68-0.3A3.74,3.74,0,0,1,166,65.57c1.17,1.44,2.63,2.73,3.66,4.24,2,3,5.27,4.51,8.65,5.51a33.18,33.18,0,0,0,17.43.65,15.57,15.57,0,0,0,7.88-4.77c3.29-3.63,1.55-9.09-3.43-10.63a33.06,33.06,0,0,0-5.58-.93c-6.22-.75-12.43-1.42-18.65-2.19-2.25-.27-4.48-0.74-6.73-1.13a30.19,30.19,0,0,1-12-5c-7.76-5.29-8.46-16.48-4.58-22.55C155,25,158.94,23.11,163,21.49c9-3.59,18.43-4.3,28.17-3.27,6.56,0.7,7.33.69,13.37,3.07a41.63,41.63,0,0,1,12.88,7.87c3,2.73,4.67,6.28,5.61,10.54a25.34,25.34,0,0,1-3.24.24c-4.08-.28-8.13-0.65-12.2-1a4,4,0,0,1-3.47-2.19c-2.5-4.2-6.09-7.77-11.5-8.52-8.91-1.23-11.53-1.84-19.38,2a15,15,0,0,0-6.38,6.5,3.16,3.16,0,0,0,.17,3.18,9.46,9.46,0,0,0,4.61,4,24.86,24.86,0,0,0,8.74,2.17q8.11,0.28,16.21.77a40.53,40.53,0,0,1,13.25,2.88C215,52,219,55.23,221.49,59.91c2,3.68,1.38,7.43.42,11.22-1,4.06-4.23,6.54-7.79,8.74a29.1,29.1,0,0,1-8.71,3.67C203.11,84.1,200.88,84.87,198.59,85.4Zm93.5,15c-4.64.16-9.26,0.25-13.89,0.44a2.88,2.88,0,0,1-3.24-2.16q-1.51-4.6-3-9.18c-0.51-1.58-.95-3.19-1.51-4.75-0.91-2.47-1.69-3-4.19-2.81-3.41.23-6.8,0.55-10.21,0.72-4.28.23-8.56,0.43-12.84,0.48a5.32,5.32,0,0,0-4.91,3c-1.23,2.13-2.79,4-4,6.2A4.7,4.7,0,0,1,230,95c-3.13.19-6.27,0.55-9.41,0.85-1.48.14-3,.36-4.44,0.47a17.25,17.25,0,0,1-2.39-.2,11.13,11.13,0,0,1,.74-2.16q6.84-11.21,13.75-22.37c3-4.9,5.92-9.86,9-14.67,4.52-6.95,9.24-13.75,13.74-20.7a6.12,6.12,0,0,1,5.8-3c4.46,0.1,8.92.16,13.37,0.23,2.16,0,2.37.16,3,2.24,2.16,6.86,4.19,13.77,6.5,20.57,2.55,7.49,5.35,14.9,8,22.35q3.27,9.1,6.48,18.22a25.68,25.68,0,0,1,.65,3.23A27.14,27.14,0,0,1,292.08,100.45Zm76.55-16.84c-2.4.36-4.78,0.77-7.19,1.13-0.66.11-1.35,0.11-2.21,0.17a13.86,13.86,0,0,1-.4-1.86c-0.44-6.56-.86-13.13-1.32-19.7-0.11-1.65-.36-3.3-0.61-4.93a10.25,10.25,0,0,0-.62-1.83,9.53,9.53,0,0,0-1.57,1.23,136.93,136.93,0,0,0-8.55,11.49c-2.21,3.51-4.85,6.73-7.34,10.07-1,1.38-2.16,2.69-3.22,4a3.61,3.61,0,0,1-2.69,1.38c-2,.16-4,0.28-6,0.28a2.57,2.57,0,0,1-1.6-.77,8.7,8.7,0,0,1-1.46-2Q319.41,74.6,315,66.82c-1.66-2.94-3.28-5.93-5-8.87a4.19,4.19,0,0,0-2.17-2.28c-0.84.51-.65,1.27-0.67,1.93q-0.17,7.48-.31,15c0,2.08-.08,4.15-0.1,6.24,0,1.38,0,2.76,0,4.47a7.92,7.92,0,0,1-2,.46c-2.77,0-5.53,0-8.31-.14-1.33,0-1.72-.56-1.64-2.08,0.13-2.49.38-5,.49-7.47,0.28-6.09.57-12.17,0.74-18.26,0.14-5.19.08-10.38,0.15-15.58,0-.74.12-1.48,0.2-2.39,1,0,1.79-.13,2.6-0.13,4.22,0,8.44.09,12.67,0.05a3.42,3.42,0,0,1,3.46,2c1.3,2.44,3,4.67,4.37,7.06,2.71,4.66,5.33,9.38,8,14.07,1.1,1.93,2.22,3.85,3.34,5.75a4.58,4.58,0,0,0,.78,1c0.8,0.79,1.34.8,2.06-.08s1.18-1.71,1.8-2.54a81,81,0,0,0,6.41-9.69c1.38-2.54,3.24-4.82,4.8-7.29,1.78-2.8,3.54-5.62,5.19-8.5a3.54,3.54,0,0,1,3.47-2.08c4.15,0.1,8.3,0,12.44.1,2,0,2.08.32,2.14,2.25,0.31,10.11.65,20.21,1,30.33,0.09,3.6.09,7.22,0.08,10.8C371,83,370.61,83.33,368.64,83.61Z"/></svg>