<svg id="Layer_1" data-name="Layer 1" xmlns="http://www.w3.org/2000/svg" viewBox="0 0 1655.11 610.88"><defs><style>.cls-1{fill:#9ca839;}.cls-2,.cls-3{fill:#f5a428;}.cls-3,.cls-4{fill-rule:evenodd;}.cls-4,.cls-5{fill:#e33b26;}</style></defs><title>nd_tpatp_quiz-v1</title><path class="cls-1" d="M129.33,153q55-4.58,80.11,15.73T234.51,226q0,29.81-16.55,51T167,303c-0.88,19-3.12,84.94-3.34,115.74l-39.32,1.31ZM189.95,206q-6.55-9.5-20-9.83l-2.29,65.86q12.45-1.31,20-10t8.19-22.44Q196.5,215.55,189.95,206Z"/><path class="cls-1" d="M325.71,406.46q-35.39,4.27-81.91,7.21-0.66-65.21,0-114.84t1.64-79.46l1-29.49c32.33-2.84,60.66-.76,85.34-0.76,0.22,13.54.18,22.61-.48,34.18A400,400,0,0,0,287,226.9l-2.29,58.65c14.64-1.1,49.2-2.7,61.66-2.7q0.33,16.38.33,34.4l-63,7q-1,28.51-1,49.48,14.09-.66,43.58-1.31Q326.36,387.13,325.71,406.46Z"/><path class="cls-1" d="M352.82,393.81L385.91,142.3l50.13,3,7.54,30.14q7.87,30.15,20,86.18t21.3,107.79L448.5,372l-8.19-44.56q-15.4-2-41.61-2.95l-9.17,74.92Zm61.6-188.61q-2.63,24.25-10.82,85.19,14.41,1.31,29.16,1.31Q427.85,263.21,414.42,205.21Z"/><path class="cls-1" d="M563.71,373q3.44-11.8,4.42-39.32l40-1.64q-0.66,93.39-57,93.38-17,0-28.67-8.52T504.73,392.2a152.46,152.46,0,0,1-8.36-35.06,373,373,0,0,1-2.29-44.4q0-31.45,6.39-56.85t20.31-41.78q13.93-16.39,33.58-16.38,28.84,0,40.14,21.62t9.34,61.93l-37,1.64a110.39,110.39,0,0,0-1.8-28.84Q562.23,240,555.35,240q-17.69,0-20.31,70.12-1.31,35.39,3.27,55t13.76,19.66Q560.27,384.82,563.71,373Z"/><path class="cls-1" d="M701.21,405.46q-35.39,4.27-81.91,7.21c-0.44-43.47-.66-102.39-0.22-135.48s1-59.58,1.64-79.46l1-29.49Q670.19,164,707.22,164q0.32,20.32-.66,37.68a397.73,397.73,0,0,0-44.23,3.6L660,263.92q22-1.64,40.63-1.64,0.33,16.39.33,34.41l-41.94,5.9c-0.66,19-.77,56.13-0.77,70.12q14.09-.66,43.58-1.31Q701.87,386.13,701.21,405.46Z"/><path class="cls-2" d="M750.28,218.35a13.25,13.25,0,0,1,9.83-3.77,13.77,13.77,0,0,1,8,2.47q3.24,2.36,3.12,7.3c0,1.2-.27,8.18-0.67,11.71s-0.62,6.23-.66,8.12a5.15,5.15,0,0,0,.63,3.12,2.81,2.81,0,0,0,2.33,1,5.91,5.91,0,0,0,3.16-.79,9.21,9.21,0,0,1,2-1.05,0.66,0.66,0,0,1,.77.73,2.82,2.82,0,0,1-.86,1.51,9,9,0,0,1-2.72,1.9,8.27,8.27,0,0,1-4,.89,8.73,8.73,0,0,1-4.68-1.33,3,3,0,0,0-4.23-.69,33.67,33.67,0,0,1-4.35,1.19,26.1,26.1,0,0,1-6.14.52q-12.88-.31-12.72-7,0.09-3.85,4.82-5.93a24,24,0,0,1,10.38-2q2.36,0.05,4.39.3c1.36,0.16,2.4.32,3.13,0.47s1.15,0.23,1.25.23a0.76,0.76,0,0,0,.73-0.85c0.37-2.51.62-9.37,0.66-11.36a11.78,11.78,0,0,0-1-5.84q-1.13-2.07-4.19-2.14-7.15-.17-11.36,11.83a2.27,2.27,0,0,1-2.13.5,2,2,0,0,1-1.86-1.06,62,62,0,0,1,0-7q0.2-5.06.31-6.16,0.57-1,2.84-.68t2.88,1.36a15.43,15.43,0,0,0-.54,2.74,0.21,0.21,0,0,0,.23.24A1.3,1.3,0,0,0,750.28,218.35Zm11.51,21.59a11,11,0,0,0-5.08-1,16.28,16.28,0,0,0-7.26,1.4q-3.26,1.49-3.32,4.09-0.1,4.24,7.83,4.43a13.09,13.09,0,0,0,6.44-1.42,4.85,4.85,0,0,0,3-4.33A3.24,3.24,0,0,0,761.79,239.94Z"/><path class="cls-2" d="M789.65,211.55c0,8-.23,22,0.08,22.66a2.12,2.12,0,0,0,1.08.94,12.07,12.07,0,0,0,2.87.47l2.63,0.28a0.83,0.83,0,0,1,.7,1,0.84,0.84,0,0,1-.89.94h-4.23q-5.45,0-9.3.19t-5.5.33c-1.1.1-1.71,0.14-1.83,0.14a0.81,0.81,0,0,1-.52-0.18,0.75,0.75,0,0,1-.28-0.47,3.35,3.35,0,0,1,0-.56,0.8,0.8,0,0,1,.19-0.52,0.58,0.58,0,0,1,.47-0.24l2.35-.28a7.88,7.88,0,0,0,3-.8,2.54,2.54,0,0,0,1-1.93c0.19-1.32.67-15.06,0.67-21.82v-1.41q0-13.53-.28-15.5a3.09,3.09,0,0,0-.75-2,3.82,3.82,0,0,0-1.88-.66q-0.38,0-1.64-.09a9.15,9.15,0,0,1-1.55-.19,1,1,0,0,1,0-2q4.14-.37,9.68-0.37,3.29,0,3.76.66a2.45,2.45,0,0,1,.28,1.6l-0.09.84c-0.06.69,0,1,.28,1a15.49,15.49,0,0,0,1.55-.7,27.11,27.11,0,0,1,4-1.46,18.68,18.68,0,0,1,5.36-.75,24.54,24.54,0,0,1,5.92.66,16.55,16.55,0,0,1,5.22,2.4,11.28,11.28,0,0,1,4,5.45,25.17,25.17,0,0,1,1.46,9.16c0,1.63.23,3.74,0.1,7s-0.19,5-.19,5.36a5.77,5.77,0,0,0,.57,3q0.66,0.84,3.57,1.31l2.35,0.38a0.87,0.87,0,0,1,.75,1,0.79,0.79,0,0,1-.85.94l-1.78-.14q-1.6-.14-4.93-0.28t-7.66-.14h-5.82a0.8,0.8,0,0,1-.8-0.94,0.83,0.83,0,0,1,.7-1l1.79-.19q3.1-.38,3.57-1.13a13.55,13.55,0,0,0,.94-4.89c0.12-1.88-.1-4.36-0.1-8.12q0-8.83-2.25-12.87t-7.89-4a8.91,8.91,0,0,0-7.19,3.05,11.87,11.87,0,0,0-2.58,7.94v6.86Z"/><path class="cls-2" d="M840.44,198.46c-0.29,2.61-1.87,23.86-2.29,28.64s-0.83,9.84-1.21,15.16q-1,14.45-.77,16a1.61,1.61,0,0,0,1.18,1.28,24.8,24.8,0,0,0,4.7.61,0.65,0.65,0,0,1,.64.82,0.7,0.7,0,0,1-.6.81q-4.65.21-6.2,0.32l-2,.24-1.87.21a7.12,7.12,0,0,1-1.08,0,1.16,1.16,0,0,1-.89-1.07,1.18,1.18,0,0,0-.74-1.06,5.85,5.85,0,0,0-1.86.18,23.59,23.59,0,0,1-7.45.47q-7.68-.55-11.43-4.81a14,14,0,0,1-3.28-10.7,14.61,14.61,0,0,1,5.17-10.66,15.23,15.23,0,0,1,11.29-3.43,19.29,19.29,0,0,1,6,1.44,24.65,24.65,0,0,0,3,1.15c0.36,0,.56-0.24.6-0.81l0.22-3c0.72-9.88,2.11-33.09,1.75-34.51a1.73,1.73,0,0,0-1-1.19,13.53,13.53,0,0,0-3.08-.65l-2.37-.33a0.89,0.89,0,0,1,.12-1.69q5.1-.1,10.86.32,2.31,0.17,2.87.83a2.17,2.17,0,0,1,.14,1.32Q840.88,194.55,840.44,198.46Zm-17,36.42a9.3,9.3,0,0,0-8.19,3.27,15.47,15.47,0,0,0-3.53,9.24q-0.41,5.69,1.79,8.39t6.88,3q5,0.36,7.77-1.68a4.3,4.3,0,0,0,1.36-2.22,30,30,0,0,0,.75-5.58q0.64-8.76-.15-10.67Q828.71,235.26,823.41,234.87Z"/><path class="cls-2" d="M753.62,299.28q0-5.89-.05-8.76a2.85,2.85,0,0,1,.67-2.31,4,4,0,0,1,2.26-.69q3.44-.23,4.69,1.17-0.66,8.53-.63,16.35a1.91,1.91,0,0,0,.16,1.1,1,1,0,0,0,.75.16l4.87-.49,4.7-.48a0.84,0.84,0,0,1,.83.73,2.59,2.59,0,0,1,.06,1.52,0.88,0.88,0,0,1-.77.79l-9.6.48a1.12,1.12,0,0,0-.89.3,3.56,3.56,0,0,0-.16,1.33q0.09,7.4.49,13.39,0.36,5.41,1.55,7.72t4.63,2.08a11.57,11.57,0,0,0,4.41-1.2,21.13,21.13,0,0,1,2.28-1.06,1.08,1.08,0,0,1,1.22,1,10.68,10.68,0,0,1-3.91,3.14,15.1,15.1,0,0,1-6.07,1.64q-6.23.42-8.25-2.7t-2.53-10.74q-0.4-5.9-.51-12.48a4.16,4.16,0,0,0-.19-1.59,0.72,0.72,0,0,0-.76-0.32l-5.25.35a0.76,0.76,0,0,1-.8-0.89,0.86,0.86,0,0,1,.67-1.07l3.59-.41a7.67,7.67,0,0,0,2.19-.43,1.39,1.39,0,0,0,.41-1.22C753.65,305.33,753.63,303.21,753.62,299.28Z"/><path class="cls-2" d="M786.76,313.53a68.29,68.29,0,0,0-.66,8.28,1.27,1.27,0,0,0,1,1.06,29,29,0,0,0,3.59.77l1.54,0.25a0.79,0.79,0,0,1,.55,1,0.71,0.71,0,0,1-.83.77l-5-.54q-3-.33-5.56-0.57t-4.06-.32c-1-.06-1.88-0.08-2.59-0.08s-1.27,0-1.65,0l-0.66,0a0.72,0.72,0,0,1-.6-0.93,0.75,0.75,0,0,1,.71-0.87l1.65,0a11.83,11.83,0,0,0,3.29-.26,2.28,2.28,0,0,0,1.28-1.47q0.59-1.59,1.94-13.92l1.4-12.82c1.16-10.62,3.3-28.11,3.33-30.86a2,2,0,0,0-.67-1.77,10,10,0,0,0-3.17-.88l-1.79-.28a0.89,0.89,0,0,1,.19-1.71q6.24,0.35,10.9.86c1.31,0.14,2.1.42,2.39,0.84a2.23,2.23,0,0,1,.17,1.51q0,0.08-.49,3t-1.19,7.89c-0.48,3.34-2.45,17.56-2.83,21l0,0.41c-0.08.71,0,1.08,0.29,1.11a7.18,7.18,0,0,0,1.55-.2,25.1,25.1,0,0,1,3.3-.34,27.44,27.44,0,0,1,4.36.15q7.6,0.83,11.27,5.36t2.61,14.34q-0.19,1.71-.7,5.25T811,323.47a3.09,3.09,0,0,0,.2,1.92q0.43,0.62,3.65,1.39l2.26,0.5a0.75,0.75,0,0,1,.51,1,0.73,0.73,0,0,1-.79.78l-1.59-.21-3.58-.52q-2.24-.33-4.69-0.59-2.29-.26-4.38-0.44t-3.4-.25l-1.56-.09a0.72,0.72,0,0,1-.6-0.93,0.75,0.75,0,0,1,.71-0.87l1.81,0q3.3,0,3.9-.9a12.64,12.64,0,0,0,1.05-3.6q0.57-2.91,1.09-7.65,0.88-8-.7-11.69t-7.22-4.3q-5.23-.57-8.31,1.9a4.11,4.11,0,0,0-1.39,2.91Z"/><path class="cls-2" d="M837.27,340.64a21,21,0,0,0,11.44-4.21c0.26-.18.61-0.43,1-0.76l0.91-.71a5.3,5.3,0,0,1,.67-0.45,3.73,3.73,0,0,1,.72-0.33,2.77,2.77,0,0,1,.65-0.12,1.65,1.65,0,0,1,1.88,1.21,19.67,19.67,0,0,1-6.4,6,21.39,21.39,0,0,1-22,.22,11.86,11.86,0,0,1-5.77-10,24.28,24.28,0,0,1,3.7-14.17q4.13-6.87,10.85-7.26a16.79,16.79,0,0,1,3.84.23,16.81,16.81,0,0,1,8.1,4.1,13.29,13.29,0,0,1,3,4.39,17.91,17.91,0,0,1,1.44,6.3q0.18,3-.54,4.06a2.7,2.7,0,0,1-2.2,1.11l-5.38.15q-5.14.13-8.5,0.33-6.56.38-6.93,1.06Q828.33,341.17,837.27,340.64Zm-0.57-28.11q-3.61.21-6.38,5.64a20,20,0,0,0-2.6,9.7q0.12,0.65,6.68.27,6.81-.4,8.42-1t1.48-2.88Q843.59,312.13,836.7,312.53Z"/><path class="cls-2" d="M234.46,131.77q0.59,11.26.9,13.49a2.18,2.18,0,0,0,1.64,2,24,24,0,0,0,5.49.5l5,0.11a1.12,1.12,0,0,1-.07,2.15l-2.7.1-5.92.17q-3.59.09-7,.28-3.63.19-10,.67l-6.42.48a0.88,0.88,0,0,1-.91-0.47,1.42,1.42,0,0,1-.1-1.07,0.73,0.73,0,0,1,.71-0.6l4.36-.6a39,39,0,0,0,5-1,2.47,2.47,0,0,0,1.61-1.35c0.94-2.17,1.67,1.61.45-21.42l0-.93q-0.55-10.42-.95-12.64-0.15-1-2-1.29a37,37,0,0,0-6.35,0l-0.47,0q-6,.31-7.1,1.59-0.79.88-1.29,4.64t-0.89,8.82q-0.39,5.06-.75,6.95a2.08,2.08,0,0,1-2.24,1.8c-1.24.07-1.94-.21-2.1-0.82q0.05-13.16-.43-22.19-0.17-3.35,3.55-3.55l3.45-.09,4.94-.26q7.44-.39,14.42-0.86t11.76-.85q4.78-.39,8.41-0.73l5.62-.53,2.09-.2a4.73,4.73,0,0,1,2.2.21,1.39,1.39,0,0,1,.66,1,216,216,0,0,0,.1,24.83,1.55,1.55,0,0,1-1.46.64,2.74,2.74,0,0,1-2.61-.89,7.54,7.54,0,0,1-1-3q-2-15.11-2.25-16a3.12,3.12,0,0,0-1.55-2,8.33,8.33,0,0,0-3.8-.41l-0.47,0q-10.33.55-11.09,2.17c-0.89,2-1.61-2.2-.42,20.2Z"/><path class="cls-2" d="M273.24,142.41a52,52,0,0,0,.29,9.14,1.75,1.75,0,0,0,1.42,1.1,28.7,28.7,0,0,0,4.7.6l3.16,0.25a0.73,0.73,0,0,1,.74.57,1.42,1.42,0,0,1-.07,1.07,0.88,0.88,0,0,1-.9.49l-6-.11q-3.91-.08-7.32,0c-2.27,0-4.12,0-5.55.08s-2.66.07-3.68,0.11-1.82.09-2.38,0.14-0.9.07-1,.07a1.13,1.13,0,0,1-.15-2.15l2.9-.22a16.9,16.9,0,0,0,4.49-.71,2.7,2.7,0,0,0,1.62-1.88q0.5-1.86.76-15.65l0.28-14.91c0.23-11.93.59-39.63,0.34-42.75a1.91,1.91,0,0,0-.85-1.79,12.45,12.45,0,0,0-3.58-.63l-3.72-.35a0.92,0.92,0,0,1-.82-1.09,0.81,0.81,0,0,1,.86-1q9.23-.11,14.27,0a2.9,2.9,0,0,1,2,.6,2.35,2.35,0,0,1,.34,1.59c0,0.25-.11,1.64-0.31,4.19s-0.8,25.91-1,29.73-0.37,7.38-.43,10.67V120q0,1.21.63,1.22a16.28,16.28,0,0,0,2-.38q1.73-.39,4.44-0.76a37.41,37.41,0,0,1,5.6-.31q21.44,0.41,21,20.82c0,1.3-.35,15.23-0.52,17.87s-0.27,4.11-.27,4.42a3.07,3.07,0,0,0,.52,2.15c0.55,0.57,2.22,1,5,1.3l3.72,0.44a0.73,0.73,0,0,1,.74.57,1.42,1.42,0,0,1-.07,1.07,0.88,0.88,0,0,1-.9.5l-4.19-.17q-4.28-.26-8.48-0.35-3.64-.07-8,0l-4.52.06a0.88,0.88,0,0,1-.88-0.53,1.41,1.41,0,0,1,0-1.07,0.73,0.73,0,0,1,.76-0.55l2.61-.14q4.67-.28,5.53-1.57a10,10,0,0,0,1-4.17c0.23-2.23.6-16.92,0.66-20.15q0.17-9-2.59-13.1t-10.78-4.31a20.68,20.68,0,0,0-11.71,3,3.39,3.39,0,0,0-1.55,3Z"/><path class="cls-2" d="M337.61,159.89a39.38,39.38,0,0,0,9.1-2.69,27.58,27.58,0,0,0,7-4q2.91-2.37,3.83-2.53a1.46,1.46,0,0,1,1.87,1q-1.85,3.62-7.81,7.63a30,30,0,0,1-11.83,5A28.43,28.43,0,0,1,324,162.71a13,13,0,0,1-8.45-10.5q-1.34-8.1,3.17-16.5t12.79-9.78a25,25,0,0,1,8,.08,17,17,0,0,1,9.51,4.37q3.6,3.46,4.8,10.73,0.52,3.13-.36,4.36a4.25,4.25,0,0,1-2.9,1.57l-7.11,1q-6.93,1-11.34,1.7-5.61.92-7.1,1.32c-1,.26-1.52.62-1.57,1.07Q325.38,161.92,337.61,159.89Zm4.88-28.68q-2.91-3.3-8-2.46-5.34.88-8.76,7.26t-2.82,11.19q0.43,0.88,9.63-.65t11.76-2.61a3.25,3.25,0,0,0,2-3.92A17.27,17.27,0,0,0,342.49,131.21Z"/><path class="cls-1" d="M876.88,118.44q62.83-8.11,92.6,13.88t31.68,64.4q1.54,34.16-16.32,59.23t-57,32.48c0,21.82.42,27.13,1.76,62.43l-45,3.54Zm72.19,57.68q-8-10.54-23.4-10.22l0.78,75.58q14.19-2.14,22.38-12.49T957,202.84Q957.07,186.67,949.07,176.11Z"/><path class="cls-1" d="M1078.77,391.81l-7.68-59.57c-20,.75-34.66,12.6-46.43,14.1l-16.21,87.92-41.71-3c7-39.59,22-117.6,31.24-160.44S1014.88,195,1020.9,172l12.38-62.73,57.5-3.38,30.08,279.56Zm-45.47-86.43c11.27,0,21.13-11.22,32.16-12.22-6.26-46.6-9.11-68.45-11.11-87Q1038.93,272.68,1033.3,305.38Z"/><path class="cls-1" d="M1266.45,399.18q-19.55,0-46.6.75Q1190.54,309,1175.5,235q-0.38,37.56,0,80.41t1.13,66.89l0.38,24.05-42.46,2.25q-0.75-77.4-.75-135.09t0.75-91.13l0.38-33.44q25.17-1.13,54.49-3.38l37.2,148.81c0.5-63.14,6.05-133.21,5.3-172l41.71,0.38C1275.38,188.82,1269.2,293.71,1266.45,399.18Z"/><path class="cls-1" d="M1336.43,420l-44.34,1.88q-0.37-77.79,0-134.16t0.75-87.93l0.38-31.57,47.35-2.63Z"/><path class="cls-1" d="M1440.61,305.14c2.63-9,.72-12.35,1.47-33.39l45.84-1.88c-0.5,71.4-18.69,95.39-61.79,95.39q-19.54,0-32.88-9.77T1373,327.13a174.83,174.83,0,0,1-9.58-40.21,428,428,0,0,1-2.63-50.92q0-36.07,7.33-65.2t23.3-47.91q16-18.8,38.52-18.79,33.07,0,46,24.8c8.64,16.53,11.71,29.63,10.2,60.44l-42.46,1.88c0.76-11.27.57-11.72-1.56-22.49s-5.82-16.16-11.09-16.16q-20.28,0-23.3,80.42-1.5,40.58,3.76,63.13t15.78,22.55Q1436.67,318.67,1440.61,305.14Z"/><path class="cls-1" d="M1528.62,405.67a25.18,25.18,0,0,1-16.58,4.9,19.57,19.57,0,0,1-14.69-7.19,19.79,19.79,0,0,1-4.61-15.74,21.59,21.59,0,0,1,7.68-14.49,22.25,22.25,0,0,1,15.92-5.1,21.28,21.28,0,0,1,15.36,7.06A20.65,20.65,0,0,1,1528.62,405.67Zm15.68-147.13q-4.51,43.18-7.24,66.08l-2.72,22.57-34.39.4q1.16-53.68,3.16-93.14c1.33-26.3,6.91-99.68,8-114.75l1.72-22.61,43.5,4.69C1554.23,149.05,1547.31,229.76,1544.3,258.54Z"/><path class="cls-3" d="M1151.65,503.91c3.25-1,6.82-.38,10.53-0.28,5.08,0.15,9.79-1.94,14.78-1.08,4.37,0.75,7.78,3.18,12.67,1.91,1.82-.47,3-1.62,4.63-2.06a22.57,22.57,0,0,1,8.42-.56c5.48,0.74,10.48,4.64,15.84,4,1.9-.23,3.37-1.29,4.83-1.74a23.07,23.07,0,0,1,4.93-.88c5.85-.48,10.72,2.19,17.08,2.65,3,0.22,5.83-.65,8.92-0.79,3.85-.18,7.51.87,11.4,1.36a0.5,0.5,0,0,1-.3.38,30.18,30.18,0,0,0-5.34.23c-1.65.19-3.11,0-4.66,0.16-3.07.37-6,1.31-8.84,1.48-6.2.37-12-2.85-17.56-2.25-4.29.46-8.33,2.76-12.5,2.92-5.61.2-10-3.83-16-4.15-3.24-.17-7.29,2.2-11.3,2.79a20.69,20.69,0,0,1-9.1-.92,33.08,33.08,0,0,0-4.84-1.55c-4.35-.6-8.13,1.21-12.4.65-1.77-.23-3.53-1-5.34-1.33S1153.61,504.57,1151.65,503.91Z"/><path class="cls-3" d="M1153.44,491.91c2.46-.9,4.87.11,7.42-0.28a21.17,21.17,0,0,1,3.39-.71c3.79,0,7.33,2.18,12.11,1.46,2.61-.4,4.27-1.59,6.56-1.75a29.86,29.86,0,0,1,6.44.34c3.41,0.48,7.18,2.32,11.57,1.34-2.09.53-4.54,1.55-6.75,1.6-3,.06-6.06-0.89-9.08-0.75s-5.79,1.36-9.7,1.57a18.2,18.2,0,0,1-5.78-.58c-1.45-.38-3.11-1.37-5-1.54C1160.83,492.27,1156.72,493.73,1153.44,491.91Z"/><path class="cls-3" d="M1149.28,482.32c3.72-.82,8.12-0.58,12.7-1s8.79,0.61,12.64,0c3.32-.52,6.36-2.16,10.12-2.48,3.58-.31,7,0.59,10.8.56,4.43,0,6.87-2.73,10.44-2.69,6.43,0.06,12.81,2.77,20.57,1.23-4.27,1.24-8.5,2.84-13.77,2.36-1.87-.17-3.68-0.93-5.45-0.79-3.19.24-6.76,2.66-10.75,3.07-3.69.38-7.74-1.08-11.69-.81-4.11.28-8,2.29-12.21,2.37-3.09.05-6.21-.9-9.29-1.07C1158.65,482.77,1153.88,483.7,1149.28,482.32Z"/><path class="cls-3" d="M1145,473.6c4.17-.85,8.07-2,12.36-2.55,3.49-.42,7.17.29,10.68-0.47,2.11-.45,3.62-1.73,5.6-2.68,5.2-2.5,12.09.63,18.21-1.29,2.29-.71,3.84-2.54,6.06-3.25,5.88-1.89,12.33.4,17.58-.69-2.53.32-4.59,1.65-7.21,2.17s-5.66-.26-8.25.55c-4.07,1.27-7,4-12.33,4.45-3.13.27-6.4-.85-9.92-0.48-2.27.24-6.06,2.72-9,3.4-4,.93-9.58,0-14.31.52A41.53,41.53,0,0,1,1145,473.6Z"/><path class="cls-3" d="M1137.33,464.74c2.85-.15,4.8-1.27,7.06-2,1.34-.42,2.82-0.51,3.88-0.94,1.82-.75,2.94-2,4.58-2.4,2.59-.7,6.76-0.62,10.06-1.44a44,44,0,0,0,5.26-4.21c1.41-.24,2.41-1.33,4-1.81,5.67-1.77,13.47-.08,16.77-1.82,2.77-3.49,8.51-5.47,13.89-6,3.62-.36,7.35.88,11.22-0.35,3.34-1.07,6-3.4,9.57-4.33,5.9-1.53,11.66-.46,17.59-2.26-1.79.73-3.31,1.85-5.08,2.63-3.08,1.36-7,1.12-10.48,2.35-4.21,1.5-7.36,4.1-11.74,5.08a31.59,31.59,0,0,1-6.5.71c-2,0-4.31-.36-6.41,0-4.09.72-7,4.39-11.31,5.9a23,23,0,0,1-5.93,1.16c-2,.14-4.08-0.51-6.61-0.32-5.44.42-9.14,5.44-15,6.82-2.63.62-5.45,0.26-7.7,0.83-2,.51-3.92,1.93-6.14,2.4A23.57,23.57,0,0,1,1137.33,464.74Z"/><path class="cls-3" d="M376.52,434.81c-0.64.69,1.2,0.82,1.93,1.14,2.32,1,5.42,2.64,8.25,3.22,4.53,0.93,8.69,1,12.62,3,5.61,2.72,10.66,5.59,17,5.47,2.88-.06,5.52-1,8.94.71,4.7,2.34,8.74,6.45,14.43,7.54a24.37,24.37,0,0,0,4.8.49c1.69,0,3-.89,5-0.88,5.84,0,9.43,4.7,15,5.89,2.35,0.5,4.79.27,7,.62,5.08,0.79,9.55,3.07,14.48,3.38-1.49-1.41-3.52-1.69-5.22-2.46s-3.26-1.9-5-2.6c-3.73-1.48-8.23-.94-11.84-2.33-3.45-1.32-5.82-4-9.38-5.11a31,31,0,0,0-8.94-.71c-1.66,0-3.45.52-5.09,0.34-2.52-.27-5.71-2.41-8.15-3.9-2.81-1.72-4.74-3.71-7.57-4.34-4.34-1-8.6.29-12.66-.18-5.72-.66-10.51-5.28-16.66-6.46-3.06-.59-5.7-0.32-8.94-0.71-1.43-.17-3-0.75-4.73-1A28.15,28.15,0,0,1,376.52,434.81Z"/><path class="cls-3" d="M430.68,462.94c4.78,0.27,8.17,2.81,11.76,4.23,2.17,0.85,4.37,2,7,2,1.52,0,2.7-.51,4.4-0.43a18.55,18.55,0,0,1,5.07,1c2.53,0.87,4.66,2.94,7.34,3.44a18.47,18.47,0,0,0,2.44,0c2.78,0.16,5.33,1.56,7.92,1.79-2.56-2.54-6.3-2.67-9.78-3.43-1.81-.39-3.51-1.81-4.86-2.58-4.3-2.44-7.55-2.47-12.82-2.81-2.6-.17-4.48-0.34-6.37-1.74C439.23,463.57,433.8,461.87,430.68,462.94Z"/><path class="cls-3" d="M395.52,471A53,53,0,0,1,407.61,474c2.75,1.1,5.27,2.87,8.27,3,3.63,0.22,7.2-1.48,11.15-.2,3.57,1.15,6.46,2.36,10,2.77,3.14,0.36,6.37-.57,9.78-0.39,1.84,0.1,3.6,1,5.51,1.63a44.5,44.5,0,0,0,6.6,1.25c4.42,0.64,8.54,1.59,12.77,1.93-3.8-2.36-9.31-2.69-13.87-4-2.91-.83-5.68-2.43-8.61-3.09-4-.91-8.29.3-12.47-0.33-3.27-.49-6.37-2.53-9.63-3.24a21.35,21.35,0,0,0-6.57-.21c-2.22.24-4.48,0.89-6.67,0.47-3.43-.65-6.33-2.87-9.83-3.09C401.12,470.39,398.69,471.3,395.52,471Z"/><path class="cls-3" d="M369.7,504.6c6-.12,11,2.33,17.59,2.24,4.44-.06,8.41-2.18,12.41-1.77,4.33,0.44,8.89,2.64,13.52,2.73,0.59,0,1.31-.21,1.95-0.25,3.4-.23,5.89-0.84,8.36-2.68,0.92,0.15,1.9-.22,3.14-0.09,3.64,0.38,7.49,2,11.67,2.3,4.4,0.31,7.66-1.66,10.84-3,0.43-.19,1.29.16,1.31-0.69,0.61,0.68,1.37.22,2,.28,3.92,0.34,7.67,1.36,10.5.75,0.8-.17,1.46-0.76,2.21-0.91,2.46-.49,4.62.3,7.45,0.16,1.8-.09,3.7-0.72,5.77-0.25-1.26-1.72-5.67-2-7.17-2.2a30.86,30.86,0,0,0-5.82-.63c-1.79.07-3.43,0.8-5.33,0.83-2.68,0-5.29-1.05-7.85-1.08-4.53-.06-7.35,2-11.33,2.78-5.6,1.11-10.3-2.67-17.1-2a32,32,0,0,0-6.27,1.4c-2.12.69-4,1.72-6.13,1.59s-4.24-1-6.21-1.55a28.6,28.6,0,0,0-6.31-.87c-5.48-.11-10.72,2.54-16.27,2.1A38.08,38.08,0,0,0,369.7,504.6Z"/><path class="cls-3" d="M403.81,486.53a33.88,33.88,0,0,0,5.56,1.29c4.16,0.93,9,3.33,14.13,2.12,2.41-.57,4.19-1.5,7.44-1.06,4.27,0.57,8.46,3.08,12.6,3.12,2.73,0,5.4-1.56,8-1.5,4.08,0.08,8,1.93,12.38,2.23,4,0.26,7.49.5,10.88,0.45l-0.51-.07c-2.91-1.62-8.57-1.47-13.19-2.68-3-.79-5.88-1.83-8.75-2.07-3.23-.27-6.28,1-9.71,1.09-1.06,0-3.86-1.14-5.34-1.6a25.23,25.23,0,0,0-11.84-1.11c-2.1.28-4.27,1.16-6.42,1.2-2.53.05-4.87-1.35-7.26-1.52C409.22,486.23,406.7,487.11,403.81,486.53Z"/><path class="cls-4" d="M673,450.11c0.07,20.47-1.14,40.9-1.31,61.28a4.23,4.23,0,0,1-1.14.55c-4,.4-8.09.79-12.13,1.12a2.53,2.53,0,0,1-2.4-1.43q-8.75-13.41-17.57-26.73c-2.95-4.45-5.88-8.89-8.87-13.3a21.69,21.69,0,0,0-2.41-2.41,24.58,24.58,0,0,0-.58,2.67c-0.42,5.51-.8,11-1.19,16.51-0.3,4.39-.63,8.78-0.89,13.16-0.24,4-.4,7.91-0.55,11.88-0.12,2.61-.19,2.76-2.73,2.65-3-.14-6-0.34-9-0.54a9.68,9.68,0,0,1-1.6-.45c0-.94-0.16-1.87-0.14-2.79q0.35-13.84.76-27.68,0.46-15.9.93-31.81c0-.25,0-0.52,0-0.77,0.18-2.54.53-2.93,3-3,4.3-.1,8.62-0.07,12.93-0.23,2.37-.09,3.85.9,5.16,3,2.75,4.48,5.79,8.75,8.71,13.1l13.2,19.58a4.63,4.63,0,0,0,.76,1c0.89,0.78,1.75.48,2-.72a19.53,19.53,0,0,0,.27-2.83c0.28-5.76.51-11.54,0.82-17.3,0.18-3.44.53-6.86,0.78-10.3,0.09-1.11.13-2.24,0.19-3.35a1.44,1.44,0,0,1,1.53-1.59c0.65,0,1.3,0,1.95,0q4.15,0.16,8.27.39a7.16,7.16,0,0,1,1.23.31"/><path class="cls-4" d="M606.87,523.46a6.52,6.52,0,0,1-1.56.21c-3.41-.55-6.81-1.19-10.22-1.73-2-.33-3.08-1.51-3.45-3.65-0.53-3.14-1.17-6.27-1.83-9.38-0.74-3.52-1.64-4.26-5-4.74a71,71,0,0,0-15.09-.81c-3.32.23-4.55,1.11-5.6,4.52-1.11,3.57-2,7.2-3.12,10.78-0.54,1.78-1.19,3.53-1.89,5.25a2.19,2.19,0,0,1-2.77,1.56c-3.66-1.06-7.34-2.12-11-3.26a2,2,0,0,1-1.25-2.71,8.63,8.63,0,0,1,1-2.59c4-6.22,6.18-13.27,8.72-20.17,2.23-6,4.46-12,6.63-18.11,0.92-2.54,1.65-5.16,2.56-7.7,1.62-4.57,3.33-9.1,5-13.66,0.34-1,.67-1.93,1-2.9,0.62-1.9.67-2,2.63-2.08,1.6-.06,3.19.05,4.79,0.08,3.27,0,6.55.14,9.82,0.11,3.79,0,4,.07,4.9,3.88,0.07,0.27.12,0.55,0.21,0.82,3.6,9.15,5,18.94,7.24,28.48q1.92,8.07,3.76,16.14,2.16,9.44,4.28,18.89a22.78,22.78,0,0,1,.26,2.78m-29.55-31.76v0.23c1.76,0,3.53.09,5.28,0s2.24-.92,1.76-2.6c-1.33-4.55-2.72-9.08-4.11-13.61a5.75,5.75,0,0,0-.7-1.49c-0.93-1.41-2.1-1.39-2.87.14-0.58,1.14-1,2.41-1.43,3.62-1.36,3.43-2.78,6.87-4.09,10.33-1,2.66-.55,3.31,2.19,3.4,1.32,0.05,2.65,0,4,0"/><path class="cls-4" d="M913.86,453.1c0-1.78,0-3.56,0-5.33,5.38,0.94,11.77,2,16.78,2.93a1.33,1.33,0,0,0,0,.19c-0.32,3.7-.61,7.39-0.64,11.09a43.57,43.57,0,0,0,.81,6.25c0.43,3,2.76,5.13,6.17,6.46a36.94,36.94,0,0,0,15.72,2.57c5.38-.33,9.38-2.36,11.91-6a24.94,24.94,0,0,0,4.54-13,26.73,26.73,0,0,0-1-9.52c-0.06-.22-0.13-0.4-0.19-0.59l15.44-1.35c0.08,4.91.14,9.83,0,14.74a46.11,46.11,0,0,1-1.78,11,25.71,25.71,0,0,1-7.89,12.09c-3.85,3.49-7.78,6.87-13.27,9-10,3.86-19.87,3.4-29.65-.42A25.16,25.16,0,0,1,918,482a27.65,27.65,0,0,1-3.67-13.75c-0.11-5,0-10.09,0-15.13h-0.48Z"/><path class="cls-4" d="M770.33,433.78a6.58,6.58,0,0,1-.24-0.65c-0.19-.94-0.38-1.88-0.57-2.82-0.12-.6-0.08-0.68.52-0.84,1-.27,2-0.51,3-0.74,2.65-.59,5.31-1.16,8-1.76q3.55-.81,7.07-1.69c1.3-.32,2.56-0.72,3.85-1.07,0.3-.08.61-0.12,1-0.21a26,26,0,0,1,.42,4.14l-6.66,1.58c-0.54.13-1.07,0.31-1.61,0.45a0.59,0.59,0,0,0-.47.64,2.42,2.42,0,0,0,0,.48q1.1,6,2.22,12c0.28,1.49.59,3,.88,4.47,0.05,0.29.06,0.57,0.09,0.92a40.51,40.51,0,0,1-4.79,1.23,6.36,6.36,0,0,1-.23-0.81c-0.66-3.76-1.56-7.46-2.51-11.14L779,433a2.62,2.62,0,0,0-.18-0.52,0.77,0.77,0,0,0-1.08-.52l-6,1.58c-0.45.11-.92,0.19-1.43,0.29"/><path class="cls-4" d="M829.46,440.09c-0.57.11-1.08,0.19-1.57,0.31l-11.7,3a9.52,9.52,0,0,1-1.25.23c-0.62.07-.77,0-1-0.58a22.92,22.92,0,0,1-.68-2.47c-0.25-1.16-.41-2.34-0.65-3.5-0.75-3.61-1.51-7.22-2.27-10.83-0.06-.32-0.08-0.66-0.12-1a6.58,6.58,0,0,1,2.39-.71,43.35,43.35,0,0,0,5.52-1.27c2.33-.72,4.67-1.4,7-2.09a5.16,5.16,0,0,1,.71-0.17,0.6,0.6,0,0,1,.85.56c0.16,0.72.27,1.44,0.35,2.17a0.69,0.69,0,0,1-.27.52,2.45,2.45,0,0,1-.84.34c-2.67.6-5.36,1.17-8,1.79a18.19,18.19,0,0,0-2.19.65,0.74,0.74,0,0,0-.56,1.07c0.16,0.78.34,1.55,0.55,2.32a1.11,1.11,0,0,0,1.4,1,6.29,6.29,0,0,0,1.08-.19l6-1.67c0.64-.18.84-0.08,1,0.54a14.29,14.29,0,0,1,.3,1.62,0.91,0.91,0,0,1-.85,1.24c-1.24.31-2.48,0.6-3.71,1-1.08.31-2.15,0.7-3.21,1.08-0.61.22-.66,0.33-0.55,0.95,0.17,0.87.33,1.74,0.52,2.6s0.44,1,1.28.84a78.14,78.14,0,0,0,8.65-2.3c0.77-.27.88-0.23,1.18,0.5a9.68,9.68,0,0,1,.64,2.55"/><path class="cls-4" d="M789,431.7l2.09-.28c0.45-.06.91-0.1,1.37-0.14s0.67,0,.8.57c0.21,0.93.4,1.87,0.61,2.8,0.16,0.72.28,0.81,1,.66l4.59-1c1.32-.27,2.65-0.51,4-0.8s1.19-.3.95-1.41-0.51-2.29-.76-3.44c0-.15,0-0.3-0.07-0.47a1.28,1.28,0,0,1,.32-0.2l2.73-.67a2.59,2.59,0,0,1,.52-0.07,0.46,0.46,0,0,1,.61.42c0.16,0.65.29,1.31,0.42,2,0.18,0.92.38,1.83,0.53,2.75,0.21,1.26.39,2.53,0.58,3.8,0.11,0.75.23,1.5,0.35,2.25s0.25,1.58.39,2.38c0.07,0.36.16,0.72,0.24,1.08,0.12,0.56.06,0.74-.47,0.89-0.93.27-1.89,0.49-2.84,0.7-0.41.08-.61-0.12-0.7-0.58-0.2-1-.37-1.92-0.56-2.87s-0.33-1.66-.5-2.49c-0.12-.59-0.26-0.71-0.85-0.6-1.13.21-2.26,0.46-3.38,0.68l-5.37,1.07c-1,.21-1,0.3-0.82,1.27,0.27,1.32.51,2.64,0.77,4,0.08,0.41.2,0.8,0.26,1.21a0.48,0.48,0,0,1-.39.64c-0.78.28-1.55,0.56-2.34,0.81a6.18,6.18,0,0,1-.84.18A102.61,102.61,0,0,0,789,431.7"/><path class="cls-4" d="M714.67,430.32c6.63,0,13.26-.09,19.89,0A45.56,45.56,0,0,1,752.64,434c6.17,2.75,11.53,6.62,14.71,12.82,5,9.76,5.64,19.6.56,29.61-2.78,5.48-7.24,9.39-11.83,13.25a36.13,36.13,0,0,1-15.89,7.88,77,77,0,0,1-14.45,1.78c-10.6.19-21.23-.05-31.84-0.19a66.1,66.1,0,0,1-7.27-.47c-3.22-.4-3.69-1.08-3.34-4.38,1-9.35,2.29-18.67,3-28,0.85-10.36,1.18-20.76,1.83-31.12,0.32-5.05-.95-5.44,5.62-5.34,7,0.1,13.93,0,20.89,0v0.49Zm-8.81,35.8h0c-0.22,4.43-.5,8.83-0.67,13.26-0.13,3.51.36,4,3.67,4.72a46.39,46.39,0,0,0,12.52.95,40.4,40.4,0,0,0,17.14-4.53,14,14,0,0,0,7.88-11.89,29,29,0,0,0-3.39-15.71c-1.74-3.41-4.48-5.73-8.49-6.15a70.42,70.42,0,0,0-8.23-.81c-4.85,0-9.71.34-14.57,0.64-4.14.26-4.73,0.82-5.05,5-0.36,4.85-.59,9.72-0.87,14.57"/><path class="cls-4" d="M1023.29,473.42a66.39,66.39,0,0,1,.62,6.89c-0.11,5.13-.38,10.27-0.68,15.39-0.62,11-1.33,21.9-2,32.85-0.1,1.72,0,3.43-.12,5.14,0,1.34-.19,2.67-0.32,4.28-2.38.24-4.5,0.52-6.6,0.63-4.33.28-8.63,0.39-13,.64-2,.12-3.1-0.6-3.2-2.29a68.3,68.3,0,0,1-.35-8.53c1-15.17,1.81-30.35,1.3-45.54a45.47,45.47,0,0,1,.68-6.82c0.17-1.27,1.06-2,2.55-2.37,3-.75,17.25-1.06,21.05-0.26"/><path class="cls-4" d="M842.68,534.14c-6.11.46-14.86-2-23.14-5-10.14-3.6-19.09-10.28-22.95-20.51-8-21.13-5.18-37.1,14.32-50.76s40.91-16.71,63.87-11.19c11.17,2.7,21.34,7.17,29.36,15.57a27.63,27.63,0,0,1,5.56,8.37c4.07,9.9,5,20.36,1.25,30.35-3.61,9.75-10.6,17.18-19.87,22.31-14.16,7.79-29.55,10.12-48.41,10.84m14.69-72.47c-8.3,0-16.33,1.19-23.62,5.59-5.77,3.51-10.22,7.91-12.67,14.58-2.66,7.25-2.17,14.37-.94,21.59,1,6,5,9.81,10.62,11.67a59.89,59.89,0,0,0,8.86,1.87c11.06,1.75,21.22-1.73,31.22-5.64a21.5,21.5,0,0,0,13-14A37.75,37.75,0,0,0,885.39,482c-0.73-8.34-5.07-13.81-12.4-17.34a32.7,32.7,0,0,0-15.62-3"/><path class="cls-4" d="M926.84,523.14c-6.2-.52-12.4-1-18.61-1.5a2.13,2.13,0,0,0-2.17,1.29c-0.73,1.32-1.51,2.62-2.36,3.87-4,5.94-8.8,7.2-15.27,3.3a18.63,18.63,0,0,1-4.32-4.17c-3.56-4.24-5.4-9.41-7.53-14.43a38.58,38.58,0,0,0-2.57-5.1,40.27,40.27,0,0,0-8.51-9.75,4.75,4.75,0,0,1-.92-1.39c-1.34-.5-9.73.83-14.35,2.21a34.12,34.12,0,0,0-7.46,3.11,0.39,0.39,0,0,0-.24.18c0,0.1,0,.07,0,0.1a15.58,15.58,0,0,1,7.45,7.31c1.89,4,4.07,7.89,5.92,11.92a46,46,0,0,0,19.89,21.28c10.45,5.86,21.07,4.51,31.43-.62,2.25-1.11,4.37-2.48,6.54-3.73a47.06,47.06,0,0,0,13.67-12.15,4.92,4.92,0,0,0,.48-1.16A3.94,3.94,0,0,0,926.84,523.14Z"/><path class="cls-4" d="M1140,513.48c-0.2-1.41-1.09-1.85-2.6-1.75-4.53.27-9.06,0.58-13.6,0.63-19.28.23-38.57,0.36-57.86,0.56-3.63,0-5.41-.48-4.6-3.83,0.57-2.4,8.92-9.8,16.22-14.57,9.7-6.33,38.43-18.16,46-28.4a0.4,0.4,0,0,1,.11-0.12s0-.09,0-0.08c0.33-6.14.49-11.8,0.28-17.49-0.13-3.51-.5-4-3.2-4.2a85.64,85.64,0,0,0-9.6,0c-12.88.64-25.75,1.39-38.62,2.06-4.09.2-8.19,0.29-12.29,0.35-8.41.12-16.83,0.21-25.24,0.24-7.86,0-15.73.22-23.59-.1a46.51,46.51,0,0,0-11.95.78,0.63,0.63,0,0,0-.48.61c0,5.13-.08,9.89,0,14.65,0,2,1.37,2,2.52,2,7.31-.45,14.61-0.88,21.92-1.35a11.26,11.26,0,0,1,1.57,0l44.28-2.26a208.31,208.31,0,0,1,28.28.24,0.61,0.61,0,0,1,.36,1.05c-9.4,7.84-24.51,16.64-29.51,20.2-6.54,4.66-18.89,16.11-22.63,23.22-3.16,6-4.82,10.46-5.28,15.65-0.59,6.77,0,7.46,7.54,7.21,12.68-.42,25.35-0.77,38-1.14v-0.14c8.12-.19,16.25-0.34,24.36-0.59,7.86-.24,15.7-0.59,23.53-0.89,1.93-.07,3.76-0.63,4.41-2.34C1139.59,520.37,1140.49,517,1140,513.48Z"/><path class="cls-5" d="M532.54,516.69a5,5,0,0,1-1.23,3.07,3.67,3.67,0,0,1-2.77,1.68,6.56,6.56,0,0,1-2-.6,11.65,11.65,0,0,1-1.93-1,8.62,8.62,0,0,1-1.74-2.68,3.61,3.61,0,0,1-.12-1.09,3.81,3.81,0,0,1,1.87-3.4,7,7,0,0,1,3.94-1c1,0,2,.74,2.88,2.2A6.25,6.25,0,0,1,532.54,516.69Z"/><path class="cls-5" d="M515,510.83a5,5,0,0,1,2.66,2,3.67,3.67,0,0,1,.94,3.1,6.56,6.56,0,0,1-1.09,1.81,11.65,11.65,0,0,1-1.44,1.63,8.62,8.62,0,0,1-3,1,3.61,3.61,0,0,1-1.08-.16,3.81,3.81,0,0,1-2.83-2.66,7,7,0,0,1,0-4.07c0.25-1,1.21-1.73,2.85-2.24A6.25,6.25,0,0,1,515,510.83Z"/><path class="cls-5" d="M499.38,511.63a5,5,0,0,1,3.16,1,3.67,3.67,0,0,1,1.9,2.62,6.56,6.56,0,0,1-.44,2.06,11.65,11.65,0,0,1-.83,2,8.62,8.62,0,0,1-2.54,1.94,3.61,3.61,0,0,1-1.07.2,3.81,3.81,0,0,1-3.54-1.59,7,7,0,0,1-1.36-3.84c-0.08-1,.58-2,2-3.05A6.25,6.25,0,0,1,499.38,511.63Z"/></svg>