<svg id="Layer_1" data-name="Layer 1" xmlns="http://www.w3.org/2000/svg" viewBox="0 0 521.35 118.69"><defs><style>.cls-1{fill:#9ca839;fill-rule:evenodd;}</style></defs><title>nd_tpatp_quiz-v1</title><path class="cls-1" d="M503.61,0H17.73A17.73,17.73,0,0,0,0,17.73V101a17.73,17.73,0,0,0,17.73,17.73H503.61A17.73,17.73,0,0,0,521.35,101V17.73A17.73,17.73,0,0,0,503.61,0ZM232.68,49.84c-3.84,9.72-7.48,19.53-11.19,29.29-1.2,3.17-2.38,6.35-3.49,9.56a2.56,2.56,0,0,1-2.4,1.85c-4.87.51-9.73,1-14.6,1.57a14.92,14.92,0,0,1-1.69,0,2,2,0,0,1-2.25-1.85c-0.54-6.44-3.46-12.33-5.2-18.49-2.07-7.43-4.41-14.8-6.7-22.19-0.39-1.25-.59-2.72-2.49-3.55A62.13,62.13,0,0,0,179,52.69c-0.89,1.81-1.69,3.65-2.59,5.46-4.33,8.7-8.61,17.43-12.05,26.48-0.74,1.95-1.85,3.78-2.75,5.67-0.64,1.31-1.88,1.58-3.26,1.66-3.11.18-6.21,0.36-9.31,0.57-1.32.09-2.63,0.26-3.94,0.37-2.72.23-3.07,0-3.77-2.34-1.69-5.66-3.39-11.31-5-17q-6-21.94-11.93-43.93c-0.29-1.06-.4-2.17-0.62-3.39A13.16,13.16,0,0,1,126,26q8.2,0.35,16.4.8c2.8,0.15,2.68.22,3,2.68,1.17,9,1.92,18,4.3,26.84,0.65,2.42,1.12,4.9,1.75,7.33,0.25,1,.37,2.08,2,2.58,0.71-1.14,1.53-2.26,2.14-3.48,4.49-8.92,9-17.85,13.35-26.82,1.45-3,2.65-6.08,3.84-9.17a2.56,2.56,0,0,1,2.6-1.88c6.4-.32,12.79-0.76,19.2-1.07,2.72-.13,2.72,0,3.35,2.45C201,38.12,204.05,50,208.09,61.72a11.61,11.61,0,0,0,.84,1.66,1.87,1.87,0,0,0,2-1.5c1.75-3.92,3.45-7.84,5.2-11.75,0.5-1.11,1.21-2.15,1.68-3.27,1.11-2.75,2-5.55,3.23-8.26q2.44-5.51,5.22-10.88a3.77,3.77,0,0,1,2.18-1.41,9.8,9.8,0,0,1,3.35-.29c3.48,0.26,6.94.64,10.39,1a3.27,3.27,0,0,1,1,.51,1.85,1.85,0,0,1,0,.8c-1.59,3.12-3.28,6.21-4.81,9.36C236.36,41.71,234.32,45.71,232.68,49.84Zm64.05,35.73c0,0.35-.07.69-0.09,1-0.46,5.1-.82,5.3-5.83,5.42-7,.22-14,0.65-21,1v0.25c-7.59,0-15.18,0-22.78,0-2.1,0-2.9-.63-3.52-2.6a7.2,7.2,0,0,1-.3-1.68c-0.87-8.6-1.64-17.19-.58-25.84,0.58-4.67.76-9.4,1.13-14.1a16.77,16.77,0,0,1,.29-2.4c0.74-3.68,1.83-4.47,5.65-4.53C255.33,42,261,41.8,266.6,41.72c4.25-.07,8.5,0,12.75-0.07,4.48-.09,9-0.25,13.43-0.44,2.85-.11,3.58.48,3.26,3.34-0.6,5.11-.09,7-7.21,7.16l-24.15.5c-0.82,0-1.63,0-2.42.07-2.22.2-2.61,0.57-3,2.62-0.6,3.77.59,5.09,4.46,5,7.7-.25,15.41-0.54,23.12-0.72,5-.11,5.48.45,5.11,5.55-0.52,6.91-.85,5.47-6.08,6.44-7,1.31-14,.43-21,0.72-0.34,0-.69,0-1,0-5.6.36-5.83-.25-5.9,6.6,0,2.19.74,2.89,2.87,3.1a19.67,19.67,0,0,0,2.41,0c5.76-.15,11.5-0.37,17.24-0.44,4.14-.07,8.28,0,12.42.14C296.21,81.4,296.87,82.2,296.74,85.57ZM313,70.27a5.71,5.71,0,0,0,2.85,2.15,18,18,0,0,0,5.42,1.16c3.35,0.1,6.7.23,10,.41a28.36,28.36,0,0,1,8.2,1.53,13.42,13.42,0,0,1,7.2,5.38c1.2,2,.86,4,0.27,6s-2.63,3.49-4.83,4.66a19.9,19.9,0,0,1-5.41,2c-1.43.29-2.8,0.7-4.22,1a32.77,32.77,0,0,1-7,.46,89.85,89.85,0,0,1-10.53-.86,31.17,31.17,0,0,1-7.1-2A6.91,6.91,0,0,1,303.08,86a7.5,7.5,0,0,1,0-1.76,1.1,1.1,0,0,1,1.27-.93c2-.06,4-0.12,6-0.16a2.48,2.48,0,0,1,1.94.79c0.72,0.77,1.62,1.45,2.26,2.26a9.53,9.53,0,0,0,5.36,2.93,23.85,23.85,0,0,0,10.8.34,10.06,10.06,0,0,0,4.89-2.54c2-1.94,1-4.84-2.13-5.66a21.66,21.66,0,0,0-3.46-.49c-3.86-.4-7.71-0.76-11.55-1.16-1.4-.16-2.79-0.41-4.18-0.61a20.6,20.6,0,0,1-7.44-2.68,8.45,8.45,0,0,1-2.83-12c1.47-2,3.89-3,6.42-3.87a41.69,41.69,0,0,1,17.46-1.73,25.27,25.27,0,0,1,8.28,1.62,26.78,26.78,0,0,1,8,4.2,9.73,9.73,0,0,1,3.48,5.61,16.8,16.8,0,0,1-2,.13c-2.53-.15-5-0.34-7.56-0.52a2.54,2.54,0,0,1-2.15-1.17,9.91,9.91,0,0,0-7.13-4.53c-5.52-.66-7.14-1-12,1.07a8.69,8.69,0,0,0-3.95,3.46A1.47,1.47,0,0,0,313,70.27Zm83.57-29.68c-5.91.21-11.65,0.41-17.41,0.65-1.42.06-2.84,0.24-4.26,0.32a1.49,1.49,0,0,0-1.5,1.38,7,7,0,0,0-.14,1.2Q373,59.7,372.79,75.27c-0.05,3.87,0,7.74,0,11.6,0,0.73-.15,1.46-0.24,2.35a102.69,102.69,0,0,1-12.58.71c-0.07-.86-0.19-1.51-0.19-2.17,0.21-9.7-.16-19.4-0.71-29.07-0.25-4.41-.49-8.81-0.72-13.21a7,7,0,0,0-.19-1.4c-0.34-1.49-.91-1.91-2.44-1.83-5.27.3-10.55,0.64-15.82,1-1.2.07-15,0-16.28,0H306.82a15.67,15.67,0,0,1-.27-1.75c0-2.44,0-4.87,0-7.32,0-1.57.14-1.75,1.71-1.85,2.65-.15,34.62-0.29,37.26-0.34,6.92-.16,13.83-0.25,20.75-0.45,6.15-.18,12.32-0.4,18.47-0.69,3.4-.17,6.77-0.52,10.14-0.78,0.8,0,1.59,0,2.67,0C397.07,33.65,397.53,37.17,396.53,40.59Z"/></svg>