<svg id="Layer_1" data-name="Layer 1" xmlns="http://www.w3.org/2000/svg" viewBox="0 0 630.13 824.72"><defs><style>.cls-1{fill:#9ca839;}.cls-2{fill:#f5a428;}.cls-3,.cls-4{fill:#e33b26;}.cls-4{fill-rule:evenodd;}</style></defs><title>nd_tpatp_quiz-v1</title><path class="cls-1" d="M95.71,166.87q41.71-3.47,60.7,11.92t19,43.44q0,22.59-12.54,38.6t-38.6,19.73c-0.66,14.4-2.36,64.36-2.53,87.69l-29.79,1Zm45.93,40.22q-5-7.2-15.14-7.45l-1.74,49.9A22.34,22.34,0,0,0,139.9,242q5.71-6.58,6.2-17Q146.6,214.29,141.64,207.09Z"/><path class="cls-1" d="M244.5,358.94q-26.81,3.23-62.06,5.46-0.5-49.4,0-87t1.24-60.2l0.74-22.34c24.49-2.15,46-.58,64.66-0.58,0.16,10.26.13,17.13-.36,25.9a303.07,303.07,0,0,0-33.51,2.73l-1.74,44.44c11.09-.83,37.28-2,46.71-2q0.25,12.41.25,26.06l-47.71,5.27q-0.75,21.6-.75,37.49,10.68-.5,33-1Q245,344.29,244.5,358.94Z"/><path class="cls-1" d="M265,349.36l25.07-190.56,38,2.24,5.71,22.84q6,22.84,15.14,65.29t16.14,81.67l-27.55,2-6.21-33.76q-11.67-1.49-31.53-2.23l-6.95,56.76Zm46.67-142.9q-2,18.37-8.19,64.55,10.92,1,22.09,1Q321.89,250.4,311.71,206.46Z"/><path class="cls-1" d="M424.82,341q2.61-8.94,3.35-29.79L458.46,310q-0.5,70.76-43.2,70.75-12.91,0-21.72-6.45t-13.41-18.74A115.5,115.5,0,0,1,373.81,329a282.58,282.58,0,0,1-1.74-33.64,176.81,176.81,0,0,1,4.84-43.07q4.84-19.24,15.39-31.65t25.44-12.41q21.85,0,30.41,16.38t7.07,46.92l-28.05,1.24a83.64,83.64,0,0,0-1.36-21.85q-2.11-10.68-7.33-10.67-13.41,0-15.39,53.13-1,26.81,2.48,41.7T416,350Q422.22,350,424.82,341Z"/><path class="cls-1" d="M529,358.18q-26.81,3.23-62.06,5.46c-0.33-32.93-.5-77.58-0.17-102.65s0.74-45.14,1.24-60.2l0.74-22.34q36.74-3.23,64.8-3.23,0.25,15.39-.5,28.55a301.38,301.38,0,0,0-33.51,2.73l-1.74,44.44q16.63-1.24,30.78-1.24,0.25,12.42.25,26.07l-31.78,4.47c-0.5,14.4-.58,42.53-0.58,53.12q10.68-.5,33-1Q529.5,343.54,529,358.18Z"/><path class="cls-2" d="M187.76,413.86a13.25,13.25,0,0,1,9.83-3.77,13.77,13.77,0,0,1,8,2.47q3.24,2.36,3.12,7.3c0,1.2-.27,8.18-0.67,11.71s-0.62,6.23-.66,8.12a5.15,5.15,0,0,0,.63,3.12,2.81,2.81,0,0,0,2.33,1,5.91,5.91,0,0,0,3.16-.79,9.21,9.21,0,0,1,2-1.05,0.66,0.66,0,0,1,.77.73,2.82,2.82,0,0,1-.86,1.51,9,9,0,0,1-2.72,1.9,8.27,8.27,0,0,1-4,.89,8.73,8.73,0,0,1-4.68-1.33,8.52,8.52,0,0,0-2.33-1.27,8.57,8.57,0,0,0-1.9.58,33.67,33.67,0,0,1-4.35,1.19,26.1,26.1,0,0,1-6.14.52q-12.88-.31-12.72-7,0.09-3.85,4.82-5.93a24,24,0,0,1,10.38-2q2.36,0.05,4.39.3c1.36,0.16,2.4.32,3.13,0.47s1.15,0.23,1.25.23a0.76,0.76,0,0,0,.73-0.85c0.37-2.51.62-9.37,0.66-11.36a11.78,11.78,0,0,0-1-5.84q-1.13-2.07-4.19-2.14-7.15-.17-11.36,11.83a2.27,2.27,0,0,1-2.13.5,2,2,0,0,1-1.86-1.06,62,62,0,0,1,0-7q0.2-5.06.31-6.16,0.57-1,2.84-.68t2.88,1.36a15.44,15.44,0,0,0-.54,2.74,0.21,0.21,0,0,0,.23.24A1.3,1.3,0,0,0,187.76,413.86Zm11.51,21.59a11,11,0,0,0-5.08-1,16.28,16.28,0,0,0-7.26,1.4q-3.26,1.49-3.32,4.09-0.1,4.24,7.83,4.43a13.09,13.09,0,0,0,6.44-1.42,4.85,4.85,0,0,0,3-4.33A3.24,3.24,0,0,0,199.27,435.45Z"/><path class="cls-2" d="M227.12,407.06c0,8-.23,22,0.08,22.66a2.12,2.12,0,0,0,1.08.94,12.07,12.07,0,0,0,2.87.47l2.63,0.28a0.83,0.83,0,0,1,.7,1,0.84,0.84,0,0,1-.89.94h-4.23q-5.45,0-9.3.19t-5.5.33c-1.1.1-1.71,0.14-1.83,0.14a0.81,0.81,0,0,1-.52-0.18,0.75,0.75,0,0,1-.28-0.47,3.35,3.35,0,0,1,0-.56,0.8,0.8,0,0,1,.19-0.52,0.58,0.58,0,0,1,.47-0.24l2.35-.28a7.88,7.88,0,0,0,3-.8,2.54,2.54,0,0,0,1-1.93c0.19-1.32.67-15.06,0.67-21.82v-1.41q0-13.53-.28-15.5a3.09,3.09,0,0,0-.75-2,3.82,3.82,0,0,0-1.88-.66q-0.38,0-1.64-.09a9.15,9.15,0,0,1-1.55-.19,1,1,0,0,1,0-2q4.14-.37,9.68-0.37,3.29,0,3.76.66a2.45,2.45,0,0,1,.28,1.6l-0.09.84c-0.06.69,0,1,.28,1a15.49,15.49,0,0,0,1.55-.7,27.11,27.11,0,0,1,4-1.46,18.68,18.68,0,0,1,5.36-.75,24.54,24.54,0,0,1,5.92.66,16.55,16.55,0,0,1,5.22,2.4,11.28,11.28,0,0,1,4,5.45,25.17,25.17,0,0,1,1.46,9.16c0,1.63.23,3.74,0.1,7s-0.19,5-.19,5.36a5.77,5.77,0,0,0,.57,3q0.66,0.84,3.57,1.31l2.35,0.38a0.87,0.87,0,0,1,.75,1,0.79,0.79,0,0,1-.85.94l-1.78-.14q-1.6-.14-4.93-0.28t-7.66-.14h-5.82a0.8,0.8,0,0,1-.8-0.94,0.83,0.83,0,0,1,.7-1l1.79-.19q3.1-.38,3.57-1.13a13.55,13.55,0,0,0,.94-4.89c0.12-1.88-.1-4.36-0.1-8.12q0-8.83-2.25-12.87t-7.89-4a8.9,8.9,0,0,0-7.19,3.05,11.87,11.87,0,0,0-2.58,7.94v6.86Z"/><path class="cls-2" d="M277.91,394c-0.29,2.61-1.87,23.86-2.29,28.64s-0.83,9.84-1.21,15.16q-1,14.45-.77,16a1.61,1.61,0,0,0,1.18,1.28,24.8,24.8,0,0,0,4.7.61,0.65,0.65,0,0,1,.64.82,0.7,0.7,0,0,1-.6.81q-4.65.21-6.2,0.32l-2,.24-1.87.21a7.12,7.12,0,0,1-1.08,0,1.16,1.16,0,0,1-.89-1.07,1.18,1.18,0,0,0-.74-1.06,5.85,5.85,0,0,0-1.86.18,23.59,23.59,0,0,1-7.45.47q-7.68-.55-11.43-4.81a14,14,0,0,1-3.28-10.7,14.61,14.61,0,0,1,5.17-10.66A15.23,15.23,0,0,1,259.2,427a19.3,19.3,0,0,1,6,1.44,24.65,24.65,0,0,0,3,1.15c0.36,0,.56-0.24.6-0.81l0.22-3c0.72-9.88,2.11-33.09,1.75-34.51a1.73,1.73,0,0,0-1-1.19,13.53,13.53,0,0,0-3.08-.65l-2.37-.33a0.89,0.89,0,0,1,.12-1.69q5.1-.1,10.86.32,2.31,0.17,2.87.83a2.17,2.17,0,0,1,.14,1.32Q278.35,390.06,277.91,394Zm-17,36.42a9.3,9.3,0,0,0-8.19,3.27,15.47,15.47,0,0,0-3.53,9.24q-0.41,5.69,1.79,8.39t6.88,3q5,0.36,7.77-1.68a4.3,4.3,0,0,0,1.36-2.22,30,30,0,0,0,.75-5.58q0.64-8.76-.15-10.67Q266.19,430.77,260.89,430.38Z"/><path class="cls-2" d="M308.65,409.07q0-6.73-.06-10a3.26,3.26,0,0,1,.76-2.64,4.54,4.54,0,0,1,2.58-.78q3.94-.27,5.36,1.34-0.76,9.75-.73,18.7a2.19,2.19,0,0,0,.18,1.26,1.09,1.09,0,0,0,.86.18l5.57-.56,5.38-.55a1,1,0,0,1,.95.83,3,3,0,0,1,.07,1.73,1,1,0,0,1-.88.91l-11,.55a1.28,1.28,0,0,0-1,.35,4.07,4.07,0,0,0-.18,1.52q0.1,8.47.56,15.31,0.42,6.19,1.77,8.83t5.29,2.38a13.23,13.23,0,0,0,5-1.37,24.1,24.1,0,0,1,2.6-1.21,1.24,1.24,0,0,1,1.39,1.13,12.21,12.21,0,0,1-4.47,3.6,17.28,17.28,0,0,1-6.94,1.88q-7.12.48-9.44-3.09T309.44,437q-0.45-6.75-.58-14.27a4.75,4.75,0,0,0-.22-1.82,0.82,0.82,0,0,0-.87-0.36l-6,.4a0.86,0.86,0,0,1-.92-1,1,1,0,0,1,.76-1.23l4.11-.47a8.76,8.76,0,0,0,2.51-.5,1.59,1.59,0,0,0,.47-1.4C308.69,416,308.67,413.56,308.65,409.07Z"/><path class="cls-2" d="M346.55,425.37a78.06,78.06,0,0,0-.75,9.47,1.45,1.45,0,0,0,1.14,1.21,33.14,33.14,0,0,0,4.11.88l1.76,0.29a0.9,0.9,0,0,1,.63,1.16,0.81,0.81,0,0,1-.95.89l-5.7-.62q-3.46-.38-6.36-0.65t-4.64-.36c-1.16-.06-2.15-0.1-3-0.09s-1.45,0-1.89,0l-0.75,0a0.83,0.83,0,0,1-.69-1.07,0.86,0.86,0,0,1,.82-1l1.89,0a13.55,13.55,0,0,0,3.77-.3,2.61,2.61,0,0,0,1.46-1.68q0.67-1.82,2.21-15.92l1.61-14.66c1.33-12.14,3.78-32.15,3.81-35.3a2.34,2.34,0,0,0-.77-2,11.46,11.46,0,0,0-3.62-1l-2-.32a1,1,0,0,1,.21-2q7.14,0.4,12.46,1c1.49,0.16,2.41.48,2.73,1a2.55,2.55,0,0,1,.19,1.72q0,0.09-.56,3.39t-1.36,9c-0.54,3.81-2.8,20.08-3.24,24.06l-0.05.47c-0.09.81,0,1.23,0.33,1.27a8.2,8.2,0,0,0,1.77-.23,28.7,28.7,0,0,1,3.78-.39,31.36,31.36,0,0,1,5,.17q8.69,1,12.89,6.14t3,16.4q-0.21,2-.8,6t-0.64,4.52a3.53,3.53,0,0,0,.23,2.2q0.49,0.71,4.17,1.59l2.58,0.57a0.86,0.86,0,0,1,.58,1.15,0.83,0.83,0,0,1-.9.89l-1.82-.25-4.1-.59q-2.56-.37-5.36-0.68-2.62-.29-5-0.5t-3.89-.28c-1,0-1.6-.08-1.79-0.11a0.83,0.83,0,0,1-.69-1.06,0.86,0.86,0,0,1,.82-1l2.07,0q3.78,0,4.46-1a14.46,14.46,0,0,0,1.21-4.12q0.65-3.33,1.24-8.75,1-9.16-.81-13.37t-8.25-4.92q-6-.65-9.5,2.17A4.7,4.7,0,0,0,348,412Z"/><path class="cls-2" d="M404.32,456.37a24,24,0,0,0,13.09-4.81c0.3-.21.69-0.49,1.17-0.87l1-.81a6,6,0,0,1,.77-0.52,4.28,4.28,0,0,1,.82-0.38,3.18,3.18,0,0,1,.75-0.14,1.89,1.89,0,0,1,2.15,1.38,22.49,22.49,0,0,1-7.32,6.83,24.46,24.46,0,0,1-25.21.25q-6.15-3.78-6.6-11.47a27.77,27.77,0,0,1,4.23-16.2q4.72-7.85,12.41-8.3a19.2,19.2,0,0,1,4.39.26,19.23,19.23,0,0,1,9.26,4.69,15.2,15.2,0,0,1,3.4,5,20.48,20.48,0,0,1,1.64,7.2c0.14,2.31-.07,3.86-0.62,4.65a3.09,3.09,0,0,1-2.51,1.27l-6.15.17q-5.87.15-9.72,0.38-7.5.44-7.93,1.21Q394.09,457,404.32,456.37Zm-0.65-32.15q-4.13.24-7.29,6.45t-3,11.09q0.14,0.75,7.64.31,7.79-.45,9.63-1.12t1.69-3.3Q411.54,423.76,403.67,424.22Z"/><path class="cls-2" d="M172.86,148.8q0.48,9.15.73,11a1.77,1.77,0,0,0,1.34,1.64,19.51,19.51,0,0,0,4.46.41l4,0.09a0.91,0.91,0,0,1-.06,1.74l-2.19.08-4.8.14q-2.91.08-5.71,0.23t-8.08.54l-5.21.39a0.71,0.71,0,0,1-.74-0.38,1.15,1.15,0,0,1-.08-0.87,0.6,0.6,0,0,1,.58-0.48l3.54-.49a31.64,31.64,0,0,0,4.05-.78,2,2,0,0,0,1.31-1.09c0.76-1.76,1.36,1.3.37-17.39l0-.76q-0.45-8.46-.77-10.27-0.12-.83-1.65-1.05a30,30,0,0,0-5.15,0l-0.38,0q-4.84.26-5.77,1.29-0.64.72-1.05,3.77t-0.72,7.16q-0.31,4.11-.61,5.64a1.69,1.69,0,0,1-1.82,1.46c-1,.05-1.57-0.17-1.7-0.67q0-10.68-.35-18-0.14-2.72,2.88-2.88l2.8-.07,4-.21q6-.32,11.71-0.7t9.55-.69q3.88-.32,6.83-0.59l4.56-.43,1.7-.17a3.84,3.84,0,0,1,1.79.17,1.12,1.12,0,0,1,.54.84,175.35,175.35,0,0,0,.08,20.16,1.25,1.25,0,0,1-1.19.52,2.23,2.23,0,0,1-2.12-.72,6.12,6.12,0,0,1-.77-2.46q-1.64-12.27-1.83-13a2.54,2.54,0,0,0-1.26-1.64,6.76,6.76,0,0,0-3.09-.33l-0.38,0q-8.39.44-9,1.77c-0.72,1.6-1.31-1.79-.34,16.4Z"/><path class="cls-2" d="M204.35,157.44a42.23,42.23,0,0,0,.24,7.42,1.42,1.42,0,0,0,1.16.89,23.29,23.29,0,0,0,3.81.49l2.57,0.2a0.59,0.59,0,0,1,.6.47,1.15,1.15,0,0,1-.05.87,0.72,0.72,0,0,1-.73.4l-4.84-.09q-3.18-.06-5.94,0c-1.84,0-3.34,0-4.5.07l-3,.09c-0.83,0-1.48.07-1.93,0.11l-0.83.06a0.91,0.91,0,0,1-.12-1.74l2.35-.18a13.71,13.71,0,0,0,3.64-.57,2.19,2.19,0,0,0,1.32-1.53q0.4-1.51.62-12.71l0.23-12.1c0.18-9.69.48-32.18,0.28-34.7a1.55,1.55,0,0,0-.69-1.45,10.1,10.1,0,0,0-2.9-.51l-3-.29a0.74,0.74,0,0,1-.66-0.88,0.65,0.65,0,0,1,.69-0.78q7.5-.09,11.58,0a2.35,2.35,0,0,1,1.66.48,1.91,1.91,0,0,1,.28,1.29c0,0.2-.09,1.34-0.25,3.4s-0.65,21-.84,24.13-0.3,6-.35,8.66v0.38q0,1,.51,1a13.2,13.2,0,0,0,1.64-.31q1.41-.32,3.61-0.62a30.36,30.36,0,0,1,4.55-.25q17.4,0.33,17.09,16.9c0,1.06-.28,12.36-0.43,14.5s-0.22,3.34-.22,3.59a2.49,2.49,0,0,0,.42,1.75c0.45,0.46,1.8.82,4.07,1.06l3,0.36a0.6,0.6,0,0,1,.6.47,1.15,1.15,0,0,1-.06.87,0.71,0.71,0,0,1-.73.4l-3.4-.14q-3.48-.21-6.88-0.28-3-.06-6.47,0l-3.67,0a0.71,0.71,0,0,1-.71-0.43,1.15,1.15,0,0,1,0-.87,0.59,0.59,0,0,1,.61-0.44l2.12-.11q3.79-.23,4.49-1.28a8.15,8.15,0,0,0,.82-3.39c0.18-1.81.49-13.73,0.54-16.36q0.14-7.27-2.11-10.64t-8.75-3.5a16.79,16.79,0,0,0-9.51,2.47,2.75,2.75,0,0,0-1.26,2.4Z"/><path class="cls-2" d="M256.61,171.63a32,32,0,0,0,7.39-2.18,22.39,22.39,0,0,0,5.67-3.28,10.32,10.32,0,0,1,3.11-2.05,1.19,1.19,0,0,1,1.52.82q-1.51,2.94-6.34,6.19a24.39,24.39,0,0,1-9.61,4,23.08,23.08,0,0,1-12.79-1.25,10.59,10.59,0,0,1-6.86-8.53A20.68,20.68,0,0,1,241.27,152q3.66-6.82,10.38-7.94a20.32,20.32,0,0,1,6.53.07,13.81,13.81,0,0,1,7.72,3.55q2.92,2.81,3.9,8.71,0.42,2.54-.29,3.54a3.45,3.45,0,0,1-2.36,1.28l-5.77.8q-5.62.78-9.21,1.38-4.55.75-5.77,1.07c-0.81.21-1.23,0.5-1.28,0.87Q246.68,173.28,256.61,171.63Zm4-23.29a6.59,6.59,0,0,0-6.47-2q-4.33.72-7.12,5.9t-2.29,9.09q0.35,0.71,7.82-.53t9.54-2.12a2.64,2.64,0,0,0,1.62-3.18A14,14,0,0,0,260.57,148.34Z"/><path class="cls-3" d="M326.8,699.27a25.28,25.28,0,0,0-5-1.76c1.39-.71,2.79-1.41,4.15-2.16a3.76,3.76,0,0,0,2-3c0-.31,0-0.62,0-0.94,0.25-2.68-1.75-4.75-5-5.45a28.58,28.58,0,0,0-5.13-.65c-4-.12-8-0.12-12-0.13-1.78,0-3.55.07-5.33,0.13-0.37,0-.73.07-1.11,0.12a4.93,4.93,0,0,0-.18.87c0,2,0,4,0,6q0,1.88,0,3.77a2,2,0,0,0-.1.73c0,0.48,0,1,0,1.43a59.59,59.59,0,0,1-.51,6.2,54.38,54.38,0,0,0-.95,6.4c-0.06,1.07,7.2,1,9.83.85,0.88-.06,1.75-0.31,2.63-0.34a105.21,105.21,0,0,0,12.14-1c2.77-.41,5.23-1.4,6.63-3.48A4.71,4.71,0,0,0,326.8,699.27Zm-17.93-10.1c2-.21,4.1-0.32,5.8-0.44,1.32,0.17,2.3.22,3.21,0.44,1.24,0.3,2.32.83,2.55,2a2.62,2.62,0,0,1-1.7,2.74,6.87,6.87,0,0,1-2,.62c-2.37.25-4.76,0.42-7.15,0.6a4.45,4.45,0,0,1-1.14-.07,1.09,1.09,0,0,1-1.13-1.17c0-1,0-2-.07-3S307.57,689.31,308.87,689.17Zm9,18.56a31.9,31.9,0,0,1-9.12,0,4.53,4.53,0,0,1-.75-0.13c-0.72-.19-0.85-0.36-0.82-1l0.15-3.16h0c0-1,.1-2,0.14-2.95s0.19-1.14,1.38-1.22,2.32-.1,3.49-0.11l5.52,0.24c0.51,0.06,1,.15,1.52.23a3.2,3.2,0,0,1,2.58,2C323.16,704.4,321.88,706.91,317.92,707.73Z"/><path class="cls-4" d="M329.45,695a5.53,5.53,0,0,1,2.76-.15c0.93,0.08,1.84.26,2.76,0.41a2.61,2.61,0,0,1,1.81,1.21c1.57,2.35,3.16,4.68,4.75,7a2.79,2.79,0,0,0,.36.34,3.11,3.11,0,0,0,.59-0.41c1.55-1.73,3.08-3.48,4.63-5.21q1.42-1.59,2.91-3.14a1,1,0,0,1,.66-0.29c1.64,0,3.29,0,4.93.08a1.11,1.11,0,0,1,.34.19,6.86,6.86,0,0,1-.28.64,40.71,40.71,0,0,1-4.11,5.07c-2.22,2.62-4.36,5.31-6.52,8a14.37,14.37,0,0,0-1.34,1.68,1.74,1.74,0,0,1-1.78.9,5.49,5.49,0,0,0-1.07,0,2.08,2.08,0,0,1-2.31-1.32c-0.67-1.34-1.42-2.65-2.16-3.95a86.81,86.81,0,0,0-5.6-8.77,21.19,21.19,0,0,1-1.32-2.32"/><path class="cls-4" d="M343.57,712.38c0,1.57,0,3.14,0,4.71a10.08,10.08,0,0,1-.16,1.38,0.74,0.74,0,0,1-.72.68c-1,.07-2,0.16-3,0.17a0.87,0.87,0,0,1-1-.92,11.13,11.13,0,0,1,0-1.81c0-1.07.13-2.14,0.2-3.21a30.75,30.75,0,0,0-.06-5.35,7.26,7.26,0,0,1,0-.75c0-.91.14-1.08,1-1.13s1.78-.08,2.67-0.06c1.08,0,1.22.15,1.24,1.27s0,2.36,0,3.53c0,0.5,0,1-.07,1.49h0"/><path class="cls-1" d="M86.36,463.58q44.27-5.71,65.24,9.78t22.32,45.37q1.09,24.07-11.5,41.73t-40.18,22.88c0,15.38.3,19.11,1.24,44L91.8,629.82Zm50.87,40.64q-5.63-7.43-16.49-7.2l0.55,53.25a23.83,23.83,0,0,0,15.77-8.8q5.76-7.28,5.79-18.42Q142.86,511.65,137.23,504.22Z"/><path class="cls-1" d="M226.3,683.8l-5.41-42c-14.12.53-24.42,8.88-32.71,9.93l-11.42,61.94-29.39-2.12c4.94-27.89,15.48-82.86,22-113s11.91-53.39,16.15-69.64l8.72-44.2,40.51-2.38,21.2,197Zm-32-60.9c7.94,0,14.89-7.9,22.66-8.61-4.41-32.83-6.42-48.23-7.83-61.29Q198.24,599.87,194.27,622.91Z"/><path class="cls-1" d="M360.84,661.38q-13.77,0-32.83.53-20.65-64.07-31.24-116.23-0.27,26.47,0,56.65t0.79,47.13l0.27,16.95L267.9,668q-0.53-54.53-.53-95.18t0.53-64.21l0.27-23.56q17.74-.8,38.39-2.38l26.21,104.85c0.35-44.48,4.27-93.85,3.74-121.21l29.39,0.27C367.13,513.17,362.78,587.07,360.84,661.38Z"/><path class="cls-1" d="M410.15,676.05l-31.24,1.33q-0.26-54.81,0-94.52t0.53-62l0.27-22.24,33.36-1.85Z"/><path class="cls-1" d="M483.55,595.13c1.86-6.36.51-8.7,1-23.52l32.3-1.33c-0.35,50.31-13.17,67.21-43.53,67.21q-13.77,0-23.17-6.88t-14.3-20a123.17,123.17,0,0,1-6.75-28.33,301.56,301.56,0,0,1-1.85-35.88q0-25.41,5.16-45.94t16.41-33.76q11.25-13.24,27.14-13.24,23.3,0,32.44,17.48c6.09,11.65,8.25,20.88,7.19,42.58l-29.92,1.33c0.53-7.94.4-8.25-1.1-15.84s-4.1-11.39-7.81-11.39q-14.29,0-16.41,56.66-1.06,28.59,2.65,44.48t11.12,15.89Q480.77,604.66,483.55,595.13Z"/><path class="cls-1" d="M545.56,666a17.74,17.74,0,0,1-11.68,3.45,13.79,13.79,0,0,1-10.35-5.06,13.94,13.94,0,0,1-3.25-11.09A15.21,15.21,0,0,1,525.7,643a15.68,15.68,0,0,1,11.22-3.6,15,15,0,0,1,10.82,5A14.55,14.55,0,0,1,545.56,666Zm11-103.66q-3.18,30.42-5.1,46.56l-1.92,15.9-24.23.28q0.82-37.82,2.23-65.62c0.94-18.53,4.87-70.23,5.67-80.85l1.21-15.93,30.65,3.31C563.6,485.15,558.73,542,556.61,562.29Z"/><path class="cls-4" d="M287,750.19c0.21-.76.14-1.17,0.88-1.17a10.73,10.73,0,0,0,2.12.11c1.19-.05,2.32-0.22,2.59.22s-0.59,4.35-2.22,6a11.71,11.71,0,0,1-2.94,2c-3,1.56-9.08,2.08-12.67,1.56a21.25,21.25,0,0,1-8.47-2.65,12.87,12.87,0,0,1-5.2-6.1,11.67,11.67,0,0,1-1-7.26,16.69,16.69,0,0,1,1.13-3.24,10,10,0,0,1,2.14-3,19.21,19.21,0,0,1,1.48-1.67,15.27,15.27,0,0,1,6.44-3.2,31.86,31.86,0,0,1,8.35-.38,22.8,22.8,0,0,1,6.87,1.48,16.22,16.22,0,0,1,5.45,3.48,7.92,7.92,0,0,1,1.93,2.33c0.06,0.12.14,0.23,0.2,0.35,0.54,1,.39,1.31-0.8,1.35-2.2.07-4.4,0.12-6.6,0.2a1.17,1.17,0,0,1-1.21-.56c-1.71-3.09-7.17-4.58-10.74-3.47a11.14,11.14,0,0,0-3.58,1.77,5.57,5.57,0,0,0-1.71,1.95c-0.39.81-.77,1.62-1.14,2.44a2.17,2.17,0,0,0-.16.53,12.26,12.26,0,0,0,.61,6.25,4.11,4.11,0,0,0,1.84,2.12,11.1,11.1,0,0,0,4.11,1.52c6,0.75,8.69.93,10.8-.55A3.3,3.3,0,0,0,287,750.19Z"/><path class="cls-4" d="M353,730.51c2.62,0,5.24,0,7.86,0a18.51,18.51,0,0,1,7.15,1.41,11.21,11.21,0,0,1,5.82,4.9,11.44,11.44,0,0,1,.22,11.31,16.89,16.89,0,0,1-4.67,5.06,14.54,14.54,0,0,1-6.28,3,31.91,31.91,0,0,1-5.71.68c-4.19.07-8.39,0-12.58-.07a27,27,0,0,1-2.87-.18c-1.28-.15-1.46-0.41-1.32-1.67,0.4-3.57.9-7.14,1.2-10.71,0.34-4,.47-7.94.73-11.9,0.13-1.93-.37-2.08,2.22-2,2.75,0,5.5,0,8.25,0v0.19Zm-3.48,13.68h0c-0.09,1.69-.2,3.38-0.27,5.06,0,1.34.14,1.51,1.45,1.81a18.83,18.83,0,0,0,4.95.36,16.4,16.4,0,0,0,6.78-1.73,5.36,5.36,0,0,0,3.11-4.54,10.81,10.81,0,0,0-1.34-6,4.14,4.14,0,0,0-3.36-2.35,29.45,29.45,0,0,0-3.25-.31c-1.92,0-3.84.13-5.76,0.25-1.64.1-1.87,0.31-2,1.89-0.15,1.85-.23,3.72-0.34,5.57"/><path class="cls-4" d="M445.3,753.91a8.91,8.91,0,0,1,0-1.53,45.25,45.25,0,0,0,.65-8.67c0-4.23-.15-8.46-0.28-12.69,0-1.06-.22-2.13-0.26-3.19s0.12-1.24,1.53-1.34a6.83,6.83,0,0,1,.88,0c4.49,0.3,9-.1,13.46-0.13a49.79,49.79,0,0,1,9.23.91,33.07,33.07,0,0,1,7.1,1.93,6,6,0,0,1,4.08,5.24,5.79,5.79,0,0,1-1.18,3.14c-1.5,2.41-4.3,3.64-7.49,4.26a127,127,0,0,1-14,1.76,26.57,26.57,0,0,0-3,.52,1.06,1.06,0,0,0-.92,1.16c-0.15,2.09-.32,4.19-0.49,6.28,0,0.45-.12.91-0.19,1.36a0.94,0.94,0,0,1-1,.7c-1.81.15-3.63,0.33-5.45,0.44-0.82,0-1.65-.06-2.63-0.11m10-19h0v3.54c0,0.7.17,0.89,1,1.06a5.09,5.09,0,0,0,.87.11c3.55,0.13,7.14.32,10.57-.53,4.55-1.12,5.9-4,4.41-7a3.72,3.72,0,0,0-3.1-2.06c-0.82-.1-1.66-0.21-2.49-0.23-1.48,0-3-.05-4.44,0-1.77.07-3.54,0.17-5.3,0.37-1.37.15-1.55,0.41-1.53,1.44s0,2.21,0,3.31"/><path class="cls-4" d="M333.12,731.7c-2.52,1.8-5.38,2.72-8,4.11s-5.25,2.64-8,4a2.87,2.87,0,0,0,.42.72c2.24,1.9,3.61,4.43,5.28,6.75a20.08,20.08,0,0,0,1.34,1.78,2.22,2.22,0,0,0,3.29.45,8.92,8.92,0,0,0,1.52-1.39c0.59-.62,1.13-1.28,1.68-1.92a1.28,1.28,0,0,1,1.72-.31c1.16,0.57,2.36,1.06,3.54,1.6,1.4,0.63,1.72,1.31,1,2.6a17.19,17.19,0,0,1-2.29,3.24,12.34,12.34,0,0,1-16.87.72,18.89,18.89,0,0,1-2.74-3.86c-0.73-1.1-1.32-2.29-2.11-3.36a5.74,5.74,0,0,0-7.77-1.66,1.32,1.32,0,0,0-.68,1.32c0,1.31,0,2.62,0,3.93-0.06,1.94-.16,3.88-0.25,5.81a5.81,5.81,0,0,1-.13.73,0.84,0.84,0,0,1-.28.24c-1.83.1-3.65,0.28-5.48,0.25-1.16,0-1.26-.23-1.39-1.33a23.31,23.31,0,0,1-.18-2.36q-0.16-6.91-.29-13.83c-0.06-3.36-.08-6.71-0.12-10.07,0-.37,0-0.73,0-1.1a0.89,0.89,0,0,1,1-1c2.16,0,4.32,0,6.65,0a20.68,20.68,0,0,1,.52,4.42c0.13,1.49.06,3,.07,4.68a9.37,9.37,0,0,0,1.42-.33c3.28-1.37,6.58-2.7,9.82-4.15a90.47,90.47,0,0,0,11.69-6.19c1-.64,1.34-0.55,2,0.35q1.55,2,3.05,4a7,7,0,0,1,.53,1.14"/><path class="cls-4" d="M256.17,757.73c-0.8,0-1.51,0-2.21,0-5.56.27-11.12,0.57-16.68,0.83a12.57,12.57,0,0,1-1.77,0c-0.86-.07-1-0.18-1.15-1a29.5,29.5,0,0,1-.26-3.41c0-1.59.08-3.18,0.06-4.77,0-4.94-.1-9.87-0.14-14.81,0-.44.07-0.88,0.11-1.34a9.46,9.46,0,0,1,3.44-.31,61.76,61.76,0,0,0,7.83-.22c3.35-.34,6.72-0.61,10.08-0.91a8.24,8.24,0,0,1,1,0c0.76,0,1,.22,1,1a28.15,28.15,0,0,1-.12,2.93,0.9,0.9,0,0,1-.5.61,3.55,3.55,0,0,1-1.23.23c-3.8.09-7.59,0.14-11.39,0.25a25.91,25.91,0,0,0-3.14.28,1,1,0,0,0-1.06,1.26c0,1.06,0,2.13.12,3.18a1.51,1.51,0,0,0,1.64,1.65,9,9,0,0,0,1.52,0c2.86-.2,5.72-0.42,8.57-0.64,0.91-.07,1.16.11,1.2,1a20.23,20.23,0,0,1,0,2.2c-0.07,1.06-.4,1.34-1.49,1.41-1.77.09-3.54,0.15-5.3,0.29-1.55.13-3.1,0.35-4.64,0.57-0.89.13-1,.27-1,1.11,0,1.18,0,2.36,0,3.55S241,754,242.17,754a112,112,0,0,0,12.36-.76c1.12-.15,1.26-0.08,1.46,1a12.31,12.31,0,0,1,.18,3.52"/><path class="cls-4" d="M428.2,731.26c4.14,0,7.65,0,11.16,0,1.06,0,1.17.11,1.21,1.08s0,1.75,0,2.62c0,1.1-.19,1.22-1.38,1.27-0.66,0-1.33,0-2,0l-10.53-.12h-0.28q-3,.06-2,2.86a1.14,1.14,0,0,0,1.26.7c1,0,2,0,3,0,2.56,0,5.13-.06,7.69,0,2.8,0.11,3,.14,2.84,3s0.07,2.58-2.9,2.64c-3.37.07-6.74,0-10.11,0-1.49,0-1.57.08-1.65,1.57,0,0.69,0,1.38,0,2.07a0.84,0.84,0,0,0,.85.92c0.8,0.05,1.61.05,2.41,0.06,2.75,0,5.5,0,8.26,0,0.8,0,1.59.23,2.39,0.31a1.1,1.1,0,0,1,1.13,1.18,19.72,19.72,0,0,1-.13,2.75c-0.14,1-.53,1.33-1.64,1.27-2.09-.11-4.17-0.27-6.25-0.42a90.49,90.49,0,0,0-11.52-.26c-0.95.05-1.9,0.09-2.85,0.08-1.21,0-1.56-.31-1.56-1.47s0.16-2.47.23-3.71q0.18-3.44.33-6.88c0.14-3.31.25-6.61,0.41-9.92,0-1.11.29-1.35,1.49-1.38,3.61-.12,7.22-0.2,10.19-0.28"/><path class="cls-4" d="M203.53,733.7a14.53,14.53,0,0,0-.64,2c-0.48,3.2-.95,6.4-1.36,9.61q-0.49,3.92-.82,7.85a1.43,1.43,0,0,1-1.37,1.49c-1.31.17-2.63,0.3-4,.34-2,.06-2.19-0.21-2.08-2.06s0.23-3.5.22-5.25c-0.06-5-.32-10-0.23-14.94,0.07-3.7.55-7.38,0.87-11.07a7.54,7.54,0,0,1,.27-1.18,2.09,2.09,0,0,1,2.16-1.79c2-.12,4-0.39,6-0.59a2.14,2.14,0,0,1,2,.84c1.35,1.63,2.77,3.2,4.11,4.84,3.47,4.22,6.88,8.47,10.37,12.68a2.6,2.6,0,0,0,1.65,1c0.87,0,1.21-.85,1.36-1.57a29.34,29.34,0,0,0,.45-3.2c0.32-3.56.54-7.13,0.92-10.68,0.29-2.66.63-2.83,3.34-2.23,0.88,0.2,1.76.42,2.63,0.64a1.5,1.5,0,0,1,1.25,1.79c-0.31,4.77-.55,9.56-0.81,14.33-0.19,3.44-.33,6.87-0.57,10.3-0.1,1.47-.42,2.93-0.59,4.4a1.92,1.92,0,0,1-1.47,1.74c-1.32.45-2.61,1-3.91,1.44-1.77.66-2.28,0.52-3.34-1-1.66-2.32-3.13-4.81-5-7-3.26-3.76-6-8-9.68-11.38-0.47-.43-1-0.79-1.81-1.38"/><path class="cls-4" d="M392.66,759.48c-4.53,0-9.07,0-13.6,0A1.81,1.81,0,0,1,377,758a4.68,4.68,0,0,1-.18-1c-0.52-5-1-9.91-.34-14.91,0.35-2.7.45-5.43,0.67-8.14a11.43,11.43,0,0,1,.18-1.39c0.44-2.13,1.09-2.58,3.37-2.61,3.37,0,6.73-.16,10.09-0.21,2.54,0,5.08,0,7.61,0s5.34-.14,8-0.25c1.71-.06,2.14.27,1.94,1.93-0.35,3-.05,4-4.3,4.13l-14.42.29c-0.48,0-1,0-1.44,0-1.32.11-1.56,0.34-1.75,1.51-0.36,2.18.35,2.95,2.65,2.88,4.6-.14,16-0.49,20.58-0.59,3-.07,3.28.25,3.05,3.2-0.3,4-.51,3.15-3.63,3.72-4.18.76-15.14,0.42-19.32,0.6l-0.62,0c-3.34.21-3.48-.14-3.52,3.81,0,1.27.44,1.67,1.71,1.78a11.44,11.44,0,0,0,1.44,0c3.43-.09,6.87-0.21,10.3-0.26,2.47,0,4.94,0,7.41.08,2,0.05,2.36.52,2.29,2.47,0,0.2,0,.4-0.06.59-0.28,2.94-.49,3.06-3.48,3.14-4.18.12-8.36,0.36-12.55,0.55v0.15Z"/><path class="cls-4" d="M438,446.24c3-1.36,6.48-1.23,10-1.6,4.88-.5,9.12-3.09,14-2.9,4.28,0.17,7.85,2.06,12.36.23,1.68-.68,2.68-1.93,4.17-2.56a21.79,21.79,0,0,1,8-1.6c5.34,0,10.61,3.12,15.66,1.82,1.78-.46,3.06-1.66,4.41-2.27a22.27,22.27,0,0,1,4.6-1.46c5.54-1.2,10.54.74,16.68,0.38,2.9-.17,5.49-1.35,8.43-1.89,3.66-.66,7.3-0.12,11.08-0.14a0.49,0.49,0,0,1-.24.4,29.13,29.13,0,0,0-5.08.9c-1.55.39-3,.37-4.44,0.74-2.89.74-5.53,2-8.27,2.53-5.89,1.13-11.82-1.21-17.08.06-4,1-7.62,3.7-11.59,4.37-5.34.9-10.06-2.4-15.87-1.94-3.12.25-6.69,3-10.46,4.09a20,20,0,0,1-8.83.27,31.93,31.93,0,0,0-4.83-.87c-4.23,0-7.63,2.19-11.78,2.19-1.72,0-3.51-.51-5.27-0.6S440,446.62,438,446.24Z"/><path class="cls-4" d="M438.24,434.53c2.24-1.17,4.68-.51,7.06-1.21a20.43,20.43,0,0,1,3.15-1.11c3.63-.51,7.29,1.16,11.77-0.14,2.45-.71,3.89-2.06,6.06-2.51a28.82,28.82,0,0,1,6.21-.49c3.32,0,7.16,1.31,11.24-.18-1.93.77-4.14,2.06-6.26,2.38-2.87.44-5.92-.09-8.79,0.43s-5.36,2-9.08,2.73a17.57,17.57,0,0,1-5.6.17c-1.43-.18-3.15-0.91-5-0.84C445.36,433.95,441.61,435.86,438.24,434.53Z"/><path class="cls-4" d="M433.05,425.88c3.46-1.25,7.7-1.58,12-2.59s8.49-.53,12.1-1.58c3.11-.92,5.82-2.87,9.37-3.65,3.38-.75,6.73-0.31,10.4-0.83,4.23-.6,6.23-3.48,9.65-3.89,6.16-.75,12.6,1,19.84-1.42-3.93,1.72-7.77,3.8-12.88,4-1.81.08-3.64-.42-5.32-0.07-3,.64-6.13,3.4-9.9,4.29-3.48.83-7.54-.05-11.29,0.7-3.9.79-7.39,3.2-11.38,3.81-3,.44-6.06-0.08-9,0.15C442.08,425.13,437.62,426.63,433.05,425.88Z"/><path class="cls-4" d="M427.9,418.08c3.88-1.34,7.46-3,11.51-4,3.29-.84,6.89-0.63,10.16-1.8,2-.7,3.25-2.11,5-3.27,4.66-3.05,11.64-.92,17.26-3.53,2.1-1,3.36-2.92,5.38-3.88,5.39-2.55,11.85-1.18,16.74-2.89-2.38.62-4.19,2.16-6.62,3s-5.45.47-7.83,1.57c-3.74,1.73-6.17,4.7-11.23,5.82-3,.65-6.23,0-9.55.79-2.14.51-5.46,3.37-8.17,4.38-3.73,1.4-9.17,1.23-13.63,2.3A40.08,40.08,0,0,1,427.9,418.08Z"/><path class="cls-4" d="M419.4,410.57c2.71-.51,4.44-1.82,6.5-2.78,1.23-.57,2.63-0.84,3.6-1.39,1.65-.94,2.56-2.24,4.08-2.88,2.39-1,6.39-1.44,9.44-2.65a42.5,42.5,0,0,0,4.5-4.69c1.32-.4,2.14-1.58,3.56-2.23,5.2-2.41,12.88-1.78,15.82-3.86,2.21-3.69,7.45-6.31,12.53-7.51,3.41-.8,7.15-0.08,10.69-1.75,3.06-1.44,5.31-4,8.61-5.35,5.45-2.21,11.1-1.91,16.55-4.38-1.62.93-2.93,2.19-4.53,3.16-2.78,1.7-6.58,2-9.73,3.57-3.84,2-6.52,4.86-10.59,6.34a30.49,30.49,0,0,1-6.13,1.5c-2,.28-4.17.2-6.13,0.81-3.83,1.21-6.19,5.09-10.07,7.08a22.16,22.16,0,0,1-5.53,1.86c-1.91.39-4,0-6.37,0.53-5.15,1.09-8.06,6.36-13.51,8.43-2.44.92-5.19,0.94-7.27,1.77-1.86.75-3.51,2.34-5.58,3.07A22.75,22.75,0,0,1,419.4,410.57Z"/><path class="cls-4" d="M70.37,375.7c-0.62.66,1.15,0.8,1.85,1.11,2.23,1,5.21,2.6,7.93,3.18,4.36,0.93,8.37,1.09,12.16,3,5.39,2.67,10.24,5.49,16.33,5.42,2.78,0,5.33-.92,8.62.76,4.51,2.3,8.37,6.3,13.86,7.41a23.52,23.52,0,0,0,4.63.51c1.63,0,2.91-.83,4.82-0.8,5.63,0.08,9.06,4.62,14.43,5.81,2.26,0.5,4.62.3,6.79,0.66,4.89,0.81,9.19,3,13.94,3.39-1.43-1.37-3.39-1.67-5-2.42s-3.12-1.86-4.83-2.56c-3.59-1.46-7.93-1-11.41-2.35-3.32-1.31-5.58-4-9-5a29.93,29.93,0,0,0-8.62-.76c-1.6,0-3.33.47-4.91,0.29-2.43-.28-5.49-2.37-7.83-3.84-2.7-1.68-4.54-3.63-7.27-4.26-4.18-1-8.3.21-12.22-.28-5.51-.69-10.1-5.19-16-6.38-2.94-.59-5.5-0.36-8.62-0.76-1.38-.18-2.94-0.75-4.56-1A27.17,27.17,0,0,1,70.37,375.7Z"/><path class="cls-4" d="M122.4,403.33c4.61,0.3,7.86,2.79,11.31,4.18,2.09,0.84,4.2,1.93,6.76,2,1.47,0,2.61-.47,4.25-0.38a17.9,17.9,0,0,1,4.88,1.05c2.43,0.86,4.47,2.88,7.06,3.38a17.82,17.82,0,0,0,2.35,0c2.68,0.18,5.13,1.56,7.63,1.79-2.45-2.48-6.06-2.63-9.41-3.4-1.75-.4-3.37-1.78-4.66-2.53-4.13-2.4-7.27-2.45-12.35-2.82-2.51-.19-4.33-0.36-6.13-1.74C130.65,404,125.42,402.32,122.4,403.33Z"/><path class="cls-4" d="M88.4,410.76A51.17,51.17,0,0,1,100,413.81c2.65,1.09,5.06,2.81,8,3,3.5,0.24,7-1.36,10.76-.1,3.43,1.14,6.21,2.33,9.67,2.76,3,0.38,6.15-.49,9.44-0.29,1.78,0.11,3.47,1,5.31,1.62a43,43,0,0,0,6.36,1.27c4.26,0.65,8.23,1.61,12.3,2-3.65-2.31-9-2.67-13.35-4-2.8-.83-5.46-2.39-8.28-3.06-3.84-.91-8,0.22-12-0.42-3.15-.5-6.13-2.5-9.27-3.21a20.6,20.6,0,0,0-6.34-.26c-2.14.22-4.33,0.82-6.44,0.4-3.3-.66-6.08-2.82-9.46-3.07C93.81,410.25,91.46,411.11,88.4,410.76Z"/><path class="cls-4" d="M63.18,443c5.76-.07,10.6,2.35,17,2.32,4.29,0,8.14-2,12-1.6,4.17,0.47,8.56,2.63,13,2.75,0.57,0,1.27-.19,1.88-0.23,3.29-.2,5.69-0.76,8.09-2.51,0.89,0.15,1.84-.19,3-0.06,3.51,0.4,7.21,2,11.25,2.32,4.25,0.33,7.41-1.53,10.49-2.83,0.42-.18,1.25.16,1.27-0.66,0.58,0.66,1.32.23,2,.29,3.78,0.36,7.39,1.38,10.12.81,0.77-.16,1.42-0.72,2.14-0.86,2.37-.45,4.46.33,7.19,0.22,1.73-.07,3.58-0.66,5.57-0.19-1.2-1.67-5.45-1.94-6.9-2.19a29.78,29.78,0,0,0-5.62-.65c-1.73.05-3.32,0.74-5.15,0.76-2.59,0-5.1-1.06-7.56-1.11-4.37-.09-7.11,1.86-11,2.59-5.41,1-9.92-2.66-16.49-2.08a30.87,30.87,0,0,0-6.07,1.29c-2.05.65-3.84,1.62-5.93,1.48s-4.08-1.05-6-1.55a27.6,27.6,0,0,0-6.08-.89c-5.29-.15-10.37,2.36-15.72,1.89A36.76,36.76,0,0,0,63.18,443Z"/><path class="cls-4" d="M96.26,425.85a32.7,32.7,0,0,0,5.35,1.29c4,0.94,8.69,3.3,13.62,2.17,2.33-.53,4.05-1.41,7.19-1,4.12,0.59,8.14,3,12.14,3.12,2.64,0,5.22-1.45,7.76-1.38,3.93,0.12,7.68,1.93,11.93,2.26,3.84,0.29,7.22.55,10.5,0.53l-0.49-.07c-2.8-1.59-8.26-1.49-12.7-2.71-2.91-.79-5.66-1.82-8.43-2.07-3.11-.29-6.07.92-9.38,1-1,0-3.71-1.14-5.14-1.59a24.35,24.35,0,0,0-11.41-1.17c-2,.25-4.14,1.08-6.21,1.1-2.44,0-4.69-1.35-7-1.53C101.49,425.62,99,426.44,96.26,425.85Z"/><path class="cls-4" d="M252.7,82.63c0.22-.53.22-0.84,0.72-0.81a6.85,6.85,0,0,0,1.43.15c0.82,0,1.6-.07,1.74.25a8,8,0,0,1-2.15,4.2,9.08,9.08,0,0,1-2.22,1.35c-2.2,1-6.39,1.16-8.77.66a13.9,13.9,0,0,1-3.53-1.06A14.57,14.57,0,0,1,238,86.25a8,8,0,0,1-2.88-4.55,8.67,8.67,0,0,1,.12-5.22,13.55,13.55,0,0,1,1.11-2.27,8.19,8.19,0,0,1,1.77-2.08A15.48,15.48,0,0,1,239.3,71,11.4,11.4,0,0,1,244,68.92a20.58,20.58,0,0,1,5.71,0,13.93,13.93,0,0,1,4.51,1.3,9.66,9.66,0,0,1,3.33,2.69,4.93,4.93,0,0,1,1.06,1.73c0,0.09.07,0.17,0.1,0.26,0.25,0.77.12,1-.68,0.94l-4.51-.09a0.7,0.7,0,0,1-.76-0.44c-0.83-2.27-4.39-3.53-6.92-2.86a8.27,8.27,0,0,0-2.62,1.13,4.56,4.56,0,0,0-1.37,1.33c-0.35.56-.69,1.13-1,1.7a1.66,1.66,0,0,0-.16.38,9.17,9.17,0,0,0-.25,4.49,2.54,2.54,0,0,0,1,1.58,6.6,6.6,0,0,0,2.63,1.23c4,0.75,5.8,1,7.39,0A2.7,2.7,0,0,0,252.7,82.63Z"/><path class="cls-4" d="M294.34,79.92c0.09,0.49,0,.75.47,0.77a6,6,0,0,1,1.28,0c0.71,0.07,1.38.21,1.56-.06a6.31,6.31,0,0,0-1-3.86A6.71,6.71,0,0,0,295,75.39c-1.71-1.08-5.33-1.6-7.51-1.38a13.46,13.46,0,0,0-3.29.6,14,14,0,0,0-1.92.81,8.42,8.42,0,0,0-3.43,3.7,7.89,7.89,0,0,0-.95,4.56,10.68,10.68,0,0,0,.51,2.09,6.12,6.12,0,0,0,1.13,2,11.45,11.45,0,0,0,.8,1.1A8.67,8.67,0,0,0,284,91.07a18,18,0,0,0,5,.5,13.37,13.37,0,0,0,4.19-.72,10.13,10.13,0,0,0,3.44-2,5.12,5.12,0,0,0,1.28-1.41c0-.07.1-0.14,0.14-0.21,0.38-.65.3-0.82-0.41-0.88L293.68,86a0.71,0.71,0,0,0-.76.31c-1.18,1.9-4.54,2.67-6.61,1.86a6.3,6.3,0,0,1-2.05-1.23,3.33,3.33,0,0,1-.92-1.29c-0.19-.52-0.37-1.05-0.56-1.58a1.36,1.36,0,0,1-.07-0.34,8.25,8.25,0,0,1,.69-3.93,2.65,2.65,0,0,1,1.21-1.28,6.6,6.6,0,0,1,2.54-.83c3.65-.29,5.25-0.31,6.44.68A2,2,0,0,1,294.34,79.92Z"/><path class="cls-4" d="M259.94,87.31c0-.66,0-1.28.1-1.9,0.1-1.09.2-2.18,0.33-3.27,0.18-1.55.45-3.1,0.58-4.65,0.23-2.58.4-5.17,0.55-7.75,0.07-1.19.09-1.23,1.26-1,0.45,0.1.92,0.13,1.38,0.18s0.83,0.06,1.24.13,0.53,0.18.5,0.66q-0.14,2.13-.29,4.26-0.21,3.11-.42,6.22c-0.08,1.16-.17,2.33-0.25,3.49,0,0.09,0,.19,0,0.28,0,0.5.1,0.65,0.57,0.68,0.69,0,1.39.09,2.09,0.09,1.5,0,3,0,4.52-.05,0.79,0,1.58,0,2.36,0s0.75,0.15.7,0.82-0.08,1.26-.12,1.89-0.08.66-.65,0.63l-5.91-.26c-1.71-.07-3.43-0.11-5.14-0.18-1,0-1.94-.11-2.91-0.18a2.69,2.69,0,0,1-.48-0.13"/><path class="cls-4" d="M276.47,67.33c0,0.53.07,1.1,0,1.67-0.08,1.24-.2,2.48-0.32,3.71-0.26,2.64-.54,5.28-0.81,7.92,0,0.41-.05.83-0.09,1.24s-0.07.64-.12,1c-0.47,0-.89.08-1.3,0.09-0.85,0-1.7,0-2.55,0a0.51,0.51,0,0,1-.6-0.59c0-.69,0-1.38,0-2.07,0.39-3.66.75-7.32,0.84-11a12.34,12.34,0,0,1,.22-1.64,0.63,0.63,0,0,1,.53-0.54,15,15,0,0,1,4.13.15"/><path class="cls-4" d="M322,72.07c-0.94.45-1.76,0.83-2.58,1.23l-6.18,3.1a10.5,10.5,0,0,0-1.23.71c-0.54.37-.6,0.7-0.13,1.16a12.17,12.17,0,0,1,2.84,4.87,2.77,2.77,0,0,0,1.17,1.42,1.56,1.56,0,0,0,2.1-.22A12.77,12.77,0,0,0,319,82.94c0.14-.19.25-0.39,0.41-0.64A6.4,6.4,0,0,1,321.35,84a0.85,0.85,0,0,1,0,.73,4.4,4.4,0,0,1-1.6,1.75,8.59,8.59,0,0,1-5.09,1.2,3.74,3.74,0,0,1-2.13-.79,6,6,0,0,1-2.26-3.11,9.41,9.41,0,0,0-.73-1.91,2,2,0,0,0-2.9-1c-0.57.24-1.13,0.51-1.71,0.75a1.81,1.81,0,0,0-1.2,1.79,19.24,19.24,0,0,1-.25,2.57c-0.27,1.68-.29,1.48-1.88,1.51a1.62,1.62,0,0,1-.27,0c-1.82-.31-1.75-0.78-1.63-2.11,0.35-4.12.67-8.24,1-12.36q0.11-1.33.23-2.67c0.06-.66.21-0.81,0.83-0.71,0.79,0.12,1.56.29,2.35,0.43a0.72,0.72,0,0,1,.68.78c0,0.62.06,1.25,0,1.87-0.08,1.07-.23,2.13-0.34,3.19a1.92,1.92,0,0,0,0,.53,0.57,0.57,0,0,0,.77.51,5.12,5.12,0,0,0,1.06-.44c2.4-1.35,4.81-2.66,7.08-4.23,1-.7,2.13-1.27,3.2-1.9,0.41-.24.8-0.51,1.2-0.76a1,1,0,0,1,1.43,0q1.09,0.84,2.14,1.73a4.86,4.86,0,0,1,.56.7"/><path class="cls-4" d="M356.85,128.18a1.44,1.44,0,0,1-.15.34,13.74,13.74,0,0,1-4,3.48c-0.64.35-1.27,0.75-1.93,1.06-3.05,1.45-6.16,1.79-9.18,0a13.42,13.42,0,0,1-5.71-6.31c-0.52-1.18-1.14-2.33-1.67-3.51a4.91,4.91,0,0,0-2.83-2.51,7.3,7.3,0,0,0-2-.41c-0.79-.09-1,0.13-1.05.91,0,1.2,0,2.42-.07,3.63s0,2.24-.1,3.36c0,0.67-.13.77-0.8,0.75-1.26,0-2.52-.08-3.77-0.14-0.49,0-.59-0.15-0.61-0.68s0-1.12,0-1.68c-0.05-3.63-.12-7.26-0.16-10.88,0-1.71,0-3.42,0-5.13,0-1-.05-1.95-0.08-2.92s0.23-1.37,1.22-1.41c3.1-.13,6.2-0.29,9.3-0.33a12.69,12.69,0,0,1,4.51.62,9.36,9.36,0,0,1,5.42,4.25,8.77,8.77,0,0,1,.86,2.77,3.62,3.62,0,0,1-1.58,3.37,10.56,10.56,0,0,1-3.18,2,2.81,2.81,0,0,0-.4.18c-0.51.29-.57,0.58-0.14,0.95a11.75,11.75,0,0,1,2.44,2.89,11.26,11.26,0,0,1,.73,1.5,16,16,0,0,0,2.13,4.25,5.44,5.44,0,0,0,1.24,1.24c1.87,1.17,3.26.82,4.47-.89,0.25-.36.49-0.74,0.71-1.12a0.62,0.62,0,0,1,.64-0.37l5.42,0.53a1.15,1.15,0,0,1,.33.17m-28.41-15.4c0,0.47,0,.77-0.07,1.06s-0.06.59-.07,0.88a1.16,1.16,0,0,0,1.18,1.5,13.12,13.12,0,0,0,5.57-.38,4.64,4.64,0,0,0,2.3-1.4,1.77,1.77,0,0,0,.41-1.81,3.71,3.71,0,0,0-2.76-2.71,15.65,15.65,0,0,0-5.51,0,1,1,0,0,0-1,1.2c0,0.62,0,1.24,0,1.68"/><path class="cls-4" d="M368.85,126.32a12.65,12.65,0,0,1,.7-1.22c0.56-.76,1.21-1.46,1.74-2.25,1.34-2,2.63-4,4-6a19.17,19.17,0,0,1,1.39-1.92,30.47,30.47,0,0,0,4.21-6.57,1.25,1.25,0,0,1,1.37-.85c2,0.16,4.08.28,6.12,0.41a1,1,0,0,1,1,.69c2.51,5.24,5,10.47,7.55,15.72a9.44,9.44,0,0,1,.71,2,1,1,0,0,1-.93,1.43c-1.2.19-2.42,0.27-3.63,0.37a1.48,1.48,0,0,1-1.4-.72c-0.75-1.11-1.57-2.18-2.22-3.35a2.23,2.23,0,0,0-2.07-1.27c-2.23-.14-4.47-0.36-6.7-0.56l-1.18-.1a1.58,1.58,0,0,0-1.45.62c-0.54.68-1.15,1.3-1.66,2a3.22,3.22,0,0,1-2.54,1.5l-4.24.22a4.39,4.39,0,0,1-.72-0.13m13.39-9.72a4.41,4.41,0,0,0,3.64-.08,10.51,10.51,0,0,0-1.5-3.13c-0.79,1.16-1.73,2-2.13,3.21"/><path class="cls-4" d="M422.1,115.28a10.56,10.56,0,0,0-.9.86c-1.79,2.15-3.56,4.32-5.35,6.47-0.5.6-1,1.15-1.57,1.72s-1,1-1.37,1.52a1.61,1.61,0,0,1-1.8.62l-2.34-.6a1.53,1.53,0,0,1-1.25-1.21c-0.56-2.17-1.17-4.33-1.81-6.49-0.25-.86-0.6-1.7-0.93-2.54a1.55,1.55,0,0,0-.4-0.39,2.93,2.93,0,0,0-.5,1.54c-0.36,2.69-.7,5.38-1.07,8.07-0.15,1.08-.37,2.15-0.58,3.22-0.14.69-.24,0.78-0.92,0.8-1.46,0-2.91.07-4.37,0.08-0.73,0-.89-0.18-0.82-0.9,0.39-3.78.8-7.57,1.19-11.35q0.41-4,.78-7.92c0.14-1.49.26-3,.41-4.47,0.07-.69.19-0.81,0.87-0.82,2.14,0,4.28,0,6.41,0a1,1,0,0,1,1.14.85c1,2.95,2,5.89,3.1,8.82,0.26,0.73.61,1.43,0.9,2.16,0.42,1,.83,2.08,1.25,3.13,0,0.06,0,.12.07,0.17,0.3,0.61.6,0.66,1,.17s0.9-1,1.32-1.57c1.65-2.06,3.27-4.15,4.94-6.2,1.35-1.66,2.76-3.28,4.14-4.92a1.4,1.4,0,0,1,1.1-.59c1.48,0,3-.1,4.46-0.14a4.13,4.13,0,0,1,.7.1c0,0.35-.05.65-0.08,1-0.2,2-.43,4.09-0.61,6.14-0.24,2.86-.46,5.72-0.64,8.58-0.14,2.15-.18,4.3-0.27,6.45,0,0.19,0,.37,0,0.56-0.1,1.08-.17,1.19-1.22,1.22-1.48,0-3,0-4.46,0a3.19,3.19,0,0,1-.46-0.06,0.62,0.62,0,0,1-.6-0.77c0.11-1.27.16-2.55,0.28-3.82a67.32,67.32,0,0,0,.59-8,1.9,1.9,0,0,0-.36-1.41"/><path class="cls-4" d="M284.3,119.31a6.94,6.94,0,0,1,1-.07c1.29,0.12,2.58.27,3.88,0.41a1.28,1.28,0,0,1,1.09.8,5.69,5.69,0,0,0,3.61,3.11,13,13,0,0,0,8.1-.43,3.45,3.45,0,0,0,1.91-2,1.25,1.25,0,0,0,0-1.14,3.18,3.18,0,0,0-1.44-1.47,7.24,7.24,0,0,0-2.77-.82q-2.58-.14-5.15-0.36a11.7,11.7,0,0,1-4.19-1.1,7.47,7.47,0,0,1-3.64-3.68,6,6,0,0,1-.07-4,5.31,5.31,0,0,1,2.53-3.09,8.72,8.72,0,0,1,2.8-1.27c0.73-.18,1.44-0.45,2.18-0.63a12.77,12.77,0,0,1,3.6-.25,35.87,35.87,0,0,1,5.4.67,13.33,13.33,0,0,1,3.62,1.41,4.66,4.66,0,0,1,2.39,4.15,7.37,7.37,0,0,1,0,1.18,0.62,0.62,0,0,1-.66.61l-3.08.06a1.16,1.16,0,0,1-1-.55c-0.36-.53-0.82-1-1.14-1.54a4.73,4.73,0,0,0-2.72-2A9.43,9.43,0,0,0,295,107a4.9,4.9,0,0,0-2.54,1.67,2.43,2.43,0,0,0,1,3.83,9.3,9.3,0,0,0,1.77.36c2,0.3,3.95.57,5.92,0.88,0.72,0.11,1.42.29,2.13,0.44a9.09,9.09,0,0,1,3.79,1.86c2.44,1.93,2.59,5.94,1.32,8.1a6.53,6.53,0,0,1-3.34,2.55,16.58,16.58,0,0,1-9,1,21.07,21.07,0,0,1-6-1.68,13.14,13.14,0,0,1-4-2.89,7.09,7.09,0,0,1-1.72-3.81"/><path class="cls-4" d="M308.41,103.88a4.2,4.2,0,0,1-.07-0.52c0-.72,0-1.44,0-2.15,0-.46.05-0.52,0.51-0.54,0.77,0,1.55-.06,2.32-0.07,2,0,4,0,6.07,0q2.71,0,5.41-.12c1,0,2-.12,3-0.18,0.23,0,.47,0,0.78,0a20.41,20.41,0,0,1-.34,3.11l-5.1.11c-0.42,0-.83.05-1.25,0.07a0.43,0.43,0,0,0-.45.4,2.47,2.47,0,0,0,0,.35q-0.14,4.59-.28,9.17c0,1.14,0,2.28-.06,3.42,0,0.22,0,.43-0.08.69a29.85,29.85,0,0,1-3.68.15c0-.25,0-0.45,0-0.64,0.11-2.86,0-5.72-.07-8.58q-0.08-1.95-.15-3.89a2.29,2.29,0,0,0,0-.42,0.57,0.57,0,0,0-.71-0.55l-4.64.21c-0.35,0-.7,0-1.09,0"/><path class="cls-4" d="M359.15,124.46l-8.76-.15a1.17,1.17,0,0,1-1.33-1,3.37,3.37,0,0,1-.11-0.66,45,45,0,0,1-.06-10c0.25-1.81.35-3.64,0.52-5.45a8,8,0,0,1,.13-0.93c0.31-1.42.73-1.72,2.2-1.72,2.17,0,4.33,0,6.5,0,1.63,0,3.27.06,4.9,0.05s3.44,0,5.16-.08c1.1,0,1.38.2,1.23,1.31-0.26,2-.07,2.71-2.81,2.73l-9.29,0c-0.31,0-.62,0-0.93,0a1,1,0,0,0-1.15,1c-0.26,1.46.2,2,1.68,2,3,0,5.93-.11,8.89-0.13,1.94,0,2.11.2,1.93,2.18-0.24,2.67-.37,2.11-2.38,2.46-2.69.46-5.39,0.07-8.08,0.15H357c-2.15.11-2.24-.13-2.31,2.52a1,1,0,0,0,1.08,1.22,7.48,7.48,0,0,0,.93,0c2.21,0,4.42-.07,6.63-0.06,1.59,0,3.18.06,4.77,0.13,1.27,0.06,1.51.37,1.44,1.67,0,0.13,0,.27,0,0.4-0.21,2-.35,2-2.27,2.07-2.7,0-5.39.15-8.08,0.24v0.1Z"/><path class="cls-4" d="M419.5,68.21a19.65,19.65,0,0,1,4,0c2.51,0.21,5,.3,7.55.42q4,0.2,8.09.37c1.31,0.06,2.63.1,3.94,0.12,4.16,0.06,8.31.1,12.47,0.16,1,0,2,.07,3,0.17s1,0.21,1,1.05a33.83,33.83,0,0,1-.31,4.15,8.61,8.61,0,0,1-1-.14,48.2,48.2,0,0,0-8-1.47,89.59,89.59,0,0,0-11.82-.33c-0.75,0-1.49-.06-2.24,0-1.22,0-1.44.19-1.66,1.36-0.35,2-.74,3.94-0.94,5.93-0.16,1.67,0,3.36-.11,5-0.15,2-.46,4-0.68,6.07a1,1,0,0,1-.85,1,10.79,10.79,0,0,1-3.81.23,0.77,0.77,0,0,1-.87-1,23.05,23.05,0,0,1,.23-3.1c0.39-2.4.85-4.79,1-7.22,0-.82,0-1.64.06-2.46q0-2,.08-4c0-.29,0-0.57,0-0.86-0.07-1.14-.3-1.33-1.45-1.34l-7,0c-0.37,0-.79,0-0.78-0.51,0-1.17.11-2.33,0.18-3.6"/><path class="cls-4" d="M449.44,93.87A12.72,12.72,0,0,1,445,92.66a7.09,7.09,0,0,1-4.26-4.23c-1.34-4.2-.63-7.28,3.31-9.75a14.8,14.8,0,0,1,12.57-1.53,11.26,11.26,0,0,1,5.56,3.34,5.35,5.35,0,0,1,1,1.69,8,8,0,0,1-.07,5.93,8.19,8.19,0,0,1-4.1,4.14c-2.84,1.37-5.86,1.67-9.54,1.62m3.6-14a8.64,8.64,0,0,0-4.66.85,5.46,5.46,0,0,0-2.62,2.71,7.94,7.94,0,0,0-.4,4.2,2.84,2.84,0,0,0,2,2.38,11.28,11.28,0,0,0,1.71.45,11.54,11.54,0,0,0,6.14-.78,4.19,4.19,0,0,0,2.69-2.6,7.48,7.48,0,0,0,.45-3,3.91,3.91,0,0,0-2.24-3.51,6.41,6.41,0,0,0-3-.75"/><path class="cls-4" d="M408.26,80.92l-5.63.27a0.76,0.76,0,0,1-.9-0.61,2.17,2.17,0,0,1-.1-0.42,28.94,28.94,0,0,1-.45-6.42c0.09-1.17.07-2.35,0.11-3.52a5.12,5.12,0,0,1,0-.6,1.13,1.13,0,0,1,1.34-1.19c1.39-.08,2.78-0.2,4.18-0.29,1-.07,2.1-0.1,3.15-0.17s2.21-.17,3.31-0.27c0.71-.06.89,0.07,0.84,0.79-0.08,1.28.07,1.74-1.69,1.87l-6,.41c-0.2,0-.4,0-0.6,0a0.61,0.61,0,0,0-.7.69c-0.1.95,0.21,1.26,1.16,1.19,1.9-.15,3.8-0.32,5.71-0.45,1.25-.09,1.36,0,1.33,1.32,0,1.73-.15,1.37-1.43,1.68a36.32,36.32,0,0,1-5.18.43l-0.26,0c-1.38.16-1.44,0-1.38,1.71a0.64,0.64,0,0,0,.74.74,4.82,4.82,0,0,0,.6,0c1.42-.11,2.84-0.23,4.26-0.32,1-.06,2-0.09,3.07-0.11,0.82,0,1,.17,1,1,0,0.09,0,.17,0,0.26-0.05,1.28-.14,1.33-1.37,1.43-1.73.13-3.46,0.32-5.18,0.49v0.06Z"/><path class="cls-4" d="M378.75,84.79c-0.62,0-1.16-.08-1.7-0.08l-12.88-.1a12.9,12.9,0,0,1-1.36-.09c-0.66-.08-0.8-0.17-0.85-0.74a17.78,17.78,0,0,1-.08-2.34c0-1.09.17-2.17,0.22-3.26,0.15-3.38.28-6.75,0.43-10.13,0-.3.08-0.59,0.13-0.91a8.12,8.12,0,0,1,2.66-.07,53.08,53.08,0,0,0,6,.16c2.6-.09,5.2-0.14,7.79-0.21a7,7,0,0,1,.78,0c0.58,0.05.76,0.19,0.74,0.7a16.49,16.49,0,0,1-.19,2,0.64,0.64,0,0,1-.41.4,3.09,3.09,0,0,1-1,.1c-2.93-.09-5.85-0.21-8.78-0.29a22.52,22.52,0,0,0-2.43.07,0.72,0.72,0,0,0-.86.81c0,0.72,0,1.45,0,2.18a1.11,1.11,0,0,0,1.21,1.19,7.78,7.78,0,0,0,1.16.09L376,74.2c0.7,0,.89.12,0.89,0.72a12,12,0,0,1-.1,1.5c-0.09.72-.36,0.9-1.2,0.9-1.36,0-2.73,0-4.09,0-1.2,0-2.4.11-3.6,0.2-0.69.05-.77,0.14-0.81,0.72-0.05.81-.1,1.62-0.13,2.43s0.18,1,1.11,1c3.18,0.1,6.37.19,9.55,0,0.87-.05,1,0,1.09.72a7.53,7.53,0,0,1,0,2.41"/><path class="cls-4" d="M331.53,64.45l3.07,0.36c0.66,0.09,1.32.19,2,.29,0.88,0.13,1,.24.94,1.1,0,1.4-.1,2.8-0.14,4.2,0,1.09.11,1.26,1.23,1.31L345.48,72c2,0.09,3.94.23,5.91,0.28s1.79,0,1.85-1.66,0.1-3.44.16-5.15c0-.22,0-0.44.07-0.7a1.79,1.79,0,0,1,.53-0.17c1.37,0,2.74,0,4.1,0a4.33,4.33,0,0,1,.76.09,0.68,0.68,0,0,1,.72.82c0,1-.06,2-0.11,3-0.07,1.37-.12,2.74-0.24,4.1-0.16,1.87-.37,3.74-0.56,5.61-0.11,1.11-.22,2.22-0.32,3.33s-0.21,2.34-.3,3.52c0,0.54,0,1.08,0,1.62,0,0.83-.19,1.07-1,1.1-1.43,0-2.87,0-4.3,0-0.6,0-.82-0.38-0.79-1.08,0.08-1.43.17-2.86,0.25-4.29,0.07-1.24.13-2.48,0.19-3.72,0-.88-0.12-1.11-1-1.16-1.68-.11-3.38-0.16-5.06-0.25-2.67-.13-5.34-0.3-8-0.42-1.48-.07-1.56,0-1.63,1.51-0.09,2-.22,3.94-0.33,5.91,0,0.6,0,1.21-.07,1.81a0.72,0.72,0,0,1-.8.77c-1.2.12-2.4,0.23-3.61,0.32a11.06,11.06,0,0,1-1.25-.06,151.34,151.34,0,0,0,.89-22.65"/><path class="cls-4" d="M413.17,83.54c-1.26-.64-1.65-0.27-2.24.5a13.67,13.67,0,0,1-4.52,3.85c-2.94,1.55-5.4.92-7.75-1.31A14.64,14.64,0,0,1,395.73,82c-0.5-1-.32-1.38.81-1.8a7.78,7.78,0,0,0,2.61-1.7c1.09-1,1.16-4.05,0-5.24a10.85,10.85,0,0,0-4.61-2.79A46.3,46.3,0,0,0,387,69.08a33.62,33.62,0,0,0-3.46-.17,0.63,0.63,0,0,0-.81.71c-0.13,1-.26,2.08-0.37,3.12-0.23,2.19-.42,4.38-0.66,6.57-0.28,2.54-.58,5.07-0.89,7.6a7.85,7.85,0,0,1-.43,1.74l0,0.21a0.42,0.42,0,0,0,.21.35l5.05,0.54a2.4,2.4,0,0,0,.24-0.52q0.51-2.62,1-5.25a4.13,4.13,0,0,1,.19-1,1.34,1.34,0,0,1,.67-0.7,1.76,1.76,0,0,1,2.09.53c0.56,0.79,1.08,1.62,1.57,2.46,0.35,0.6.57,1.28,0.95,1.87,2.68,4.19,6.71,5.72,11.47,5.66a11.15,11.15,0,0,0,5.12-1.38c1.08-.58,2.17-1.15,3.19-1.81,1.37-.88,2.69-1.85,4.07-2.82A6.42,6.42,0,0,0,413.17,83.54ZM393,78.37a11.39,11.39,0,0,1-4.37.18,0.79,0.79,0,0,1-.79-1c0-.49.12-1,0.18-1.45h0c0.09-.62.17-1.25,0.25-1.87a0.69,0.69,0,0,1,.75-0.7,9.75,9.75,0,0,1,4.9.85,1.65,1.65,0,0,1,.94,1.51A2.4,2.4,0,0,1,393,78.37Z"/></svg>